G04 #@! TF.GenerationSoftware,KiCad,Pcbnew,(5.0.1)-3*
G04 #@! TF.CreationDate,2018-11-09T14:35:38+01:00*
G04 #@! TF.ProjectId,power_stalker_esp,706F7765725F7374616C6B65725F6573,rev?*
G04 #@! TF.SameCoordinates,Original*
G04 #@! TF.FileFunction,Copper,L1,Top,Signal*
G04 #@! TF.FilePolarity,Positive*
%FSLAX46Y46*%
G04 Gerber Fmt 4.6, Leading zero omitted, Abs format (unit mm)*
G04 Created by KiCad (PCBNEW (5.0.1)-3) date 09-Nov-18 14:35:38*
%MOMM*%
%LPD*%
G01*
G04 APERTURE LIST*
G04 #@! TA.AperFunction,Conductor*
%ADD10C,0.100000*%
G04 #@! TD*
G04 #@! TA.AperFunction,SMDPad,CuDef*
%ADD11C,0.950000*%
G04 #@! TD*
G04 #@! TA.AperFunction,ComponentPad*
%ADD12C,2.000000*%
G04 #@! TD*
G04 #@! TA.AperFunction,ComponentPad*
%ADD13R,2.000000X2.000000*%
G04 #@! TD*
G04 #@! TA.AperFunction,ComponentPad*
%ADD14O,1.700000X1.700000*%
G04 #@! TD*
G04 #@! TA.AperFunction,ComponentPad*
%ADD15R,1.700000X1.700000*%
G04 #@! TD*
G04 #@! TA.AperFunction,SMDPad,CuDef*
%ADD16R,0.800000X0.900000*%
G04 #@! TD*
G04 #@! TA.AperFunction,ViaPad*
%ADD17C,0.800000*%
G04 #@! TD*
G04 #@! TA.AperFunction,Conductor*
%ADD18C,0.250000*%
G04 #@! TD*
G04 #@! TA.AperFunction,Conductor*
%ADD19C,1.000000*%
G04 #@! TD*
G04 #@! TA.AperFunction,Conductor*
%ADD20C,0.180000*%
G04 #@! TD*
G04 APERTURE END LIST*
D10*
G04 #@! TO.N,Net-(C1-Pad1)*
G04 #@! TO.C,C1*
G36*
X92260779Y-87601144D02*
X92283834Y-87604563D01*
X92306443Y-87610227D01*
X92328387Y-87618079D01*
X92349457Y-87628044D01*
X92369448Y-87640026D01*
X92388168Y-87653910D01*
X92405438Y-87669562D01*
X92421090Y-87686832D01*
X92434974Y-87705552D01*
X92446956Y-87725543D01*
X92456921Y-87746613D01*
X92464773Y-87768557D01*
X92470437Y-87791166D01*
X92473856Y-87814221D01*
X92475000Y-87837500D01*
X92475000Y-88412500D01*
X92473856Y-88435779D01*
X92470437Y-88458834D01*
X92464773Y-88481443D01*
X92456921Y-88503387D01*
X92446956Y-88524457D01*
X92434974Y-88544448D01*
X92421090Y-88563168D01*
X92405438Y-88580438D01*
X92388168Y-88596090D01*
X92369448Y-88609974D01*
X92349457Y-88621956D01*
X92328387Y-88631921D01*
X92306443Y-88639773D01*
X92283834Y-88645437D01*
X92260779Y-88648856D01*
X92237500Y-88650000D01*
X91762500Y-88650000D01*
X91739221Y-88648856D01*
X91716166Y-88645437D01*
X91693557Y-88639773D01*
X91671613Y-88631921D01*
X91650543Y-88621956D01*
X91630552Y-88609974D01*
X91611832Y-88596090D01*
X91594562Y-88580438D01*
X91578910Y-88563168D01*
X91565026Y-88544448D01*
X91553044Y-88524457D01*
X91543079Y-88503387D01*
X91535227Y-88481443D01*
X91529563Y-88458834D01*
X91526144Y-88435779D01*
X91525000Y-88412500D01*
X91525000Y-87837500D01*
X91526144Y-87814221D01*
X91529563Y-87791166D01*
X91535227Y-87768557D01*
X91543079Y-87746613D01*
X91553044Y-87725543D01*
X91565026Y-87705552D01*
X91578910Y-87686832D01*
X91594562Y-87669562D01*
X91611832Y-87653910D01*
X91630552Y-87640026D01*
X91650543Y-87628044D01*
X91671613Y-87618079D01*
X91693557Y-87610227D01*
X91716166Y-87604563D01*
X91739221Y-87601144D01*
X91762500Y-87600000D01*
X92237500Y-87600000D01*
X92260779Y-87601144D01*
X92260779Y-87601144D01*
G37*
D11*
G04 #@! TD*
G04 #@! TO.P,C1,1*
G04 #@! TO.N,Net-(C1-Pad1)*
X92000000Y-88125000D03*
D10*
G04 #@! TO.N,GND*
G04 #@! TO.C,C1*
G36*
X92260779Y-89351144D02*
X92283834Y-89354563D01*
X92306443Y-89360227D01*
X92328387Y-89368079D01*
X92349457Y-89378044D01*
X92369448Y-89390026D01*
X92388168Y-89403910D01*
X92405438Y-89419562D01*
X92421090Y-89436832D01*
X92434974Y-89455552D01*
X92446956Y-89475543D01*
X92456921Y-89496613D01*
X92464773Y-89518557D01*
X92470437Y-89541166D01*
X92473856Y-89564221D01*
X92475000Y-89587500D01*
X92475000Y-90162500D01*
X92473856Y-90185779D01*
X92470437Y-90208834D01*
X92464773Y-90231443D01*
X92456921Y-90253387D01*
X92446956Y-90274457D01*
X92434974Y-90294448D01*
X92421090Y-90313168D01*
X92405438Y-90330438D01*
X92388168Y-90346090D01*
X92369448Y-90359974D01*
X92349457Y-90371956D01*
X92328387Y-90381921D01*
X92306443Y-90389773D01*
X92283834Y-90395437D01*
X92260779Y-90398856D01*
X92237500Y-90400000D01*
X91762500Y-90400000D01*
X91739221Y-90398856D01*
X91716166Y-90395437D01*
X91693557Y-90389773D01*
X91671613Y-90381921D01*
X91650543Y-90371956D01*
X91630552Y-90359974D01*
X91611832Y-90346090D01*
X91594562Y-90330438D01*
X91578910Y-90313168D01*
X91565026Y-90294448D01*
X91553044Y-90274457D01*
X91543079Y-90253387D01*
X91535227Y-90231443D01*
X91529563Y-90208834D01*
X91526144Y-90185779D01*
X91525000Y-90162500D01*
X91525000Y-89587500D01*
X91526144Y-89564221D01*
X91529563Y-89541166D01*
X91535227Y-89518557D01*
X91543079Y-89496613D01*
X91553044Y-89475543D01*
X91565026Y-89455552D01*
X91578910Y-89436832D01*
X91594562Y-89419562D01*
X91611832Y-89403910D01*
X91630552Y-89390026D01*
X91650543Y-89378044D01*
X91671613Y-89368079D01*
X91693557Y-89360227D01*
X91716166Y-89354563D01*
X91739221Y-89351144D01*
X91762500Y-89350000D01*
X92237500Y-89350000D01*
X92260779Y-89351144D01*
X92260779Y-89351144D01*
G37*
D11*
G04 #@! TD*
G04 #@! TO.P,C1,2*
G04 #@! TO.N,GND*
X92000000Y-89875000D03*
D12*
G04 #@! TO.P,J1,2*
G04 #@! TO.N,+5V*
X98730000Y-108000000D03*
D13*
G04 #@! TO.P,J1,1*
G04 #@! TO.N,GND*
X101270000Y-108000000D03*
G04 #@! TD*
D14*
G04 #@! TO.P,J2,15*
G04 #@! TO.N,+5V*
X78000000Y-115780000D03*
G04 #@! TO.P,J2,14*
G04 #@! TO.N,GND*
X78000000Y-113240000D03*
G04 #@! TO.P,J2,13*
G04 #@! TO.N,N/C*
X78000000Y-110700000D03*
G04 #@! TO.P,J2,12*
X78000000Y-108160000D03*
G04 #@! TO.P,J2,11*
G04 #@! TO.N,+3V3*
X78000000Y-105620000D03*
G04 #@! TO.P,J2,10*
G04 #@! TO.N,GND*
X78000000Y-103080000D03*
G04 #@! TO.P,J2,9*
G04 #@! TO.N,N/C*
X78000000Y-100540000D03*
G04 #@! TO.P,J2,8*
X78000000Y-98000000D03*
G04 #@! TO.P,J2,7*
X78000000Y-95460000D03*
G04 #@! TO.P,J2,6*
X78000000Y-92920000D03*
G04 #@! TO.P,J2,5*
X78000000Y-90380000D03*
G04 #@! TO.P,J2,4*
X78000000Y-87840000D03*
G04 #@! TO.P,J2,3*
X78000000Y-85300000D03*
G04 #@! TO.P,J2,2*
G04 #@! TO.N,GND*
X78000000Y-82760000D03*
D15*
G04 #@! TO.P,J2,1*
G04 #@! TO.N,N/C*
X78000000Y-80220000D03*
G04 #@! TD*
D14*
G04 #@! TO.P,J3,15*
G04 #@! TO.N,+3V3*
X106000000Y-115780000D03*
G04 #@! TO.P,J3,14*
G04 #@! TO.N,GND*
X106000000Y-113240000D03*
G04 #@! TO.P,J3,13*
G04 #@! TO.N,N/C*
X106000000Y-110700000D03*
G04 #@! TO.P,J3,12*
X106000000Y-108160000D03*
G04 #@! TO.P,J3,11*
X106000000Y-105620000D03*
G04 #@! TO.P,J3,10*
X106000000Y-103080000D03*
G04 #@! TO.P,J3,9*
X106000000Y-100540000D03*
G04 #@! TO.P,J3,8*
X106000000Y-98000000D03*
G04 #@! TO.P,J3,7*
G04 #@! TO.N,GND*
X106000000Y-95460000D03*
G04 #@! TO.P,J3,6*
G04 #@! TO.N,+3V3*
X106000000Y-92920000D03*
G04 #@! TO.P,J3,5*
G04 #@! TO.N,1Q3*
X106000000Y-90380000D03*
G04 #@! TO.P,J3,4*
G04 #@! TO.N,1Q2*
X106000000Y-87840000D03*
G04 #@! TO.P,J3,3*
G04 #@! TO.N,1Q1*
X106000000Y-85300000D03*
G04 #@! TO.P,J3,2*
G04 #@! TO.N,1Q0*
X106000000Y-82760000D03*
D15*
G04 #@! TO.P,J3,1*
G04 #@! TO.N,MASTER_RESET*
X106000000Y-80220000D03*
G04 #@! TD*
D13*
G04 #@! TO.P,Q1,1*
G04 #@! TO.N,+3V3*
X94960000Y-74000000D03*
D12*
G04 #@! TO.P,Q1,2*
G04 #@! TO.N,Net-(C1-Pad1)*
X97500000Y-74000000D03*
G04 #@! TD*
D16*
G04 #@! TO.P,Q2,1*
G04 #@! TO.N,Net-(Q2-Pad1)*
X90050000Y-84500000D03*
G04 #@! TO.P,Q2,2*
G04 #@! TO.N,GND*
X91950000Y-84500000D03*
G04 #@! TO.P,Q2,3*
G04 #@! TO.N,Net-(Q2-Pad3)*
X91000000Y-82500000D03*
G04 #@! TD*
D10*
G04 #@! TO.N,Net-(Q2-Pad1)*
G04 #@! TO.C,R1*
G36*
X90260779Y-85601144D02*
X90283834Y-85604563D01*
X90306443Y-85610227D01*
X90328387Y-85618079D01*
X90349457Y-85628044D01*
X90369448Y-85640026D01*
X90388168Y-85653910D01*
X90405438Y-85669562D01*
X90421090Y-85686832D01*
X90434974Y-85705552D01*
X90446956Y-85725543D01*
X90456921Y-85746613D01*
X90464773Y-85768557D01*
X90470437Y-85791166D01*
X90473856Y-85814221D01*
X90475000Y-85837500D01*
X90475000Y-86412500D01*
X90473856Y-86435779D01*
X90470437Y-86458834D01*
X90464773Y-86481443D01*
X90456921Y-86503387D01*
X90446956Y-86524457D01*
X90434974Y-86544448D01*
X90421090Y-86563168D01*
X90405438Y-86580438D01*
X90388168Y-86596090D01*
X90369448Y-86609974D01*
X90349457Y-86621956D01*
X90328387Y-86631921D01*
X90306443Y-86639773D01*
X90283834Y-86645437D01*
X90260779Y-86648856D01*
X90237500Y-86650000D01*
X89762500Y-86650000D01*
X89739221Y-86648856D01*
X89716166Y-86645437D01*
X89693557Y-86639773D01*
X89671613Y-86631921D01*
X89650543Y-86621956D01*
X89630552Y-86609974D01*
X89611832Y-86596090D01*
X89594562Y-86580438D01*
X89578910Y-86563168D01*
X89565026Y-86544448D01*
X89553044Y-86524457D01*
X89543079Y-86503387D01*
X89535227Y-86481443D01*
X89529563Y-86458834D01*
X89526144Y-86435779D01*
X89525000Y-86412500D01*
X89525000Y-85837500D01*
X89526144Y-85814221D01*
X89529563Y-85791166D01*
X89535227Y-85768557D01*
X89543079Y-85746613D01*
X89553044Y-85725543D01*
X89565026Y-85705552D01*
X89578910Y-85686832D01*
X89594562Y-85669562D01*
X89611832Y-85653910D01*
X89630552Y-85640026D01*
X89650543Y-85628044D01*
X89671613Y-85618079D01*
X89693557Y-85610227D01*
X89716166Y-85604563D01*
X89739221Y-85601144D01*
X89762500Y-85600000D01*
X90237500Y-85600000D01*
X90260779Y-85601144D01*
X90260779Y-85601144D01*
G37*
D11*
G04 #@! TD*
G04 #@! TO.P,R1,1*
G04 #@! TO.N,Net-(Q2-Pad1)*
X90000000Y-86125000D03*
D10*
G04 #@! TO.N,Net-(C1-Pad1)*
G04 #@! TO.C,R1*
G36*
X90260779Y-87351144D02*
X90283834Y-87354563D01*
X90306443Y-87360227D01*
X90328387Y-87368079D01*
X90349457Y-87378044D01*
X90369448Y-87390026D01*
X90388168Y-87403910D01*
X90405438Y-87419562D01*
X90421090Y-87436832D01*
X90434974Y-87455552D01*
X90446956Y-87475543D01*
X90456921Y-87496613D01*
X90464773Y-87518557D01*
X90470437Y-87541166D01*
X90473856Y-87564221D01*
X90475000Y-87587500D01*
X90475000Y-88162500D01*
X90473856Y-88185779D01*
X90470437Y-88208834D01*
X90464773Y-88231443D01*
X90456921Y-88253387D01*
X90446956Y-88274457D01*
X90434974Y-88294448D01*
X90421090Y-88313168D01*
X90405438Y-88330438D01*
X90388168Y-88346090D01*
X90369448Y-88359974D01*
X90349457Y-88371956D01*
X90328387Y-88381921D01*
X90306443Y-88389773D01*
X90283834Y-88395437D01*
X90260779Y-88398856D01*
X90237500Y-88400000D01*
X89762500Y-88400000D01*
X89739221Y-88398856D01*
X89716166Y-88395437D01*
X89693557Y-88389773D01*
X89671613Y-88381921D01*
X89650543Y-88371956D01*
X89630552Y-88359974D01*
X89611832Y-88346090D01*
X89594562Y-88330438D01*
X89578910Y-88313168D01*
X89565026Y-88294448D01*
X89553044Y-88274457D01*
X89543079Y-88253387D01*
X89535227Y-88231443D01*
X89529563Y-88208834D01*
X89526144Y-88185779D01*
X89525000Y-88162500D01*
X89525000Y-87587500D01*
X89526144Y-87564221D01*
X89529563Y-87541166D01*
X89535227Y-87518557D01*
X89543079Y-87496613D01*
X89553044Y-87475543D01*
X89565026Y-87455552D01*
X89578910Y-87436832D01*
X89594562Y-87419562D01*
X89611832Y-87403910D01*
X89630552Y-87390026D01*
X89650543Y-87378044D01*
X89671613Y-87368079D01*
X89693557Y-87360227D01*
X89716166Y-87354563D01*
X89739221Y-87351144D01*
X89762500Y-87350000D01*
X90237500Y-87350000D01*
X90260779Y-87351144D01*
X90260779Y-87351144D01*
G37*
D11*
G04 #@! TD*
G04 #@! TO.P,R1,2*
G04 #@! TO.N,Net-(C1-Pad1)*
X90000000Y-87875000D03*
D10*
G04 #@! TO.N,+3V3*
G04 #@! TO.C,R2*
G36*
X91260779Y-78601144D02*
X91283834Y-78604563D01*
X91306443Y-78610227D01*
X91328387Y-78618079D01*
X91349457Y-78628044D01*
X91369448Y-78640026D01*
X91388168Y-78653910D01*
X91405438Y-78669562D01*
X91421090Y-78686832D01*
X91434974Y-78705552D01*
X91446956Y-78725543D01*
X91456921Y-78746613D01*
X91464773Y-78768557D01*
X91470437Y-78791166D01*
X91473856Y-78814221D01*
X91475000Y-78837500D01*
X91475000Y-79412500D01*
X91473856Y-79435779D01*
X91470437Y-79458834D01*
X91464773Y-79481443D01*
X91456921Y-79503387D01*
X91446956Y-79524457D01*
X91434974Y-79544448D01*
X91421090Y-79563168D01*
X91405438Y-79580438D01*
X91388168Y-79596090D01*
X91369448Y-79609974D01*
X91349457Y-79621956D01*
X91328387Y-79631921D01*
X91306443Y-79639773D01*
X91283834Y-79645437D01*
X91260779Y-79648856D01*
X91237500Y-79650000D01*
X90762500Y-79650000D01*
X90739221Y-79648856D01*
X90716166Y-79645437D01*
X90693557Y-79639773D01*
X90671613Y-79631921D01*
X90650543Y-79621956D01*
X90630552Y-79609974D01*
X90611832Y-79596090D01*
X90594562Y-79580438D01*
X90578910Y-79563168D01*
X90565026Y-79544448D01*
X90553044Y-79524457D01*
X90543079Y-79503387D01*
X90535227Y-79481443D01*
X90529563Y-79458834D01*
X90526144Y-79435779D01*
X90525000Y-79412500D01*
X90525000Y-78837500D01*
X90526144Y-78814221D01*
X90529563Y-78791166D01*
X90535227Y-78768557D01*
X90543079Y-78746613D01*
X90553044Y-78725543D01*
X90565026Y-78705552D01*
X90578910Y-78686832D01*
X90594562Y-78669562D01*
X90611832Y-78653910D01*
X90630552Y-78640026D01*
X90650543Y-78628044D01*
X90671613Y-78618079D01*
X90693557Y-78610227D01*
X90716166Y-78604563D01*
X90739221Y-78601144D01*
X90762500Y-78600000D01*
X91237500Y-78600000D01*
X91260779Y-78601144D01*
X91260779Y-78601144D01*
G37*
D11*
G04 #@! TD*
G04 #@! TO.P,R2,2*
G04 #@! TO.N,+3V3*
X91000000Y-79125000D03*
D10*
G04 #@! TO.N,Net-(Q2-Pad3)*
G04 #@! TO.C,R2*
G36*
X91260779Y-80351144D02*
X91283834Y-80354563D01*
X91306443Y-80360227D01*
X91328387Y-80368079D01*
X91349457Y-80378044D01*
X91369448Y-80390026D01*
X91388168Y-80403910D01*
X91405438Y-80419562D01*
X91421090Y-80436832D01*
X91434974Y-80455552D01*
X91446956Y-80475543D01*
X91456921Y-80496613D01*
X91464773Y-80518557D01*
X91470437Y-80541166D01*
X91473856Y-80564221D01*
X91475000Y-80587500D01*
X91475000Y-81162500D01*
X91473856Y-81185779D01*
X91470437Y-81208834D01*
X91464773Y-81231443D01*
X91456921Y-81253387D01*
X91446956Y-81274457D01*
X91434974Y-81294448D01*
X91421090Y-81313168D01*
X91405438Y-81330438D01*
X91388168Y-81346090D01*
X91369448Y-81359974D01*
X91349457Y-81371956D01*
X91328387Y-81381921D01*
X91306443Y-81389773D01*
X91283834Y-81395437D01*
X91260779Y-81398856D01*
X91237500Y-81400000D01*
X90762500Y-81400000D01*
X90739221Y-81398856D01*
X90716166Y-81395437D01*
X90693557Y-81389773D01*
X90671613Y-81381921D01*
X90650543Y-81371956D01*
X90630552Y-81359974D01*
X90611832Y-81346090D01*
X90594562Y-81330438D01*
X90578910Y-81313168D01*
X90565026Y-81294448D01*
X90553044Y-81274457D01*
X90543079Y-81253387D01*
X90535227Y-81231443D01*
X90529563Y-81208834D01*
X90526144Y-81185779D01*
X90525000Y-81162500D01*
X90525000Y-80587500D01*
X90526144Y-80564221D01*
X90529563Y-80541166D01*
X90535227Y-80518557D01*
X90543079Y-80496613D01*
X90553044Y-80475543D01*
X90565026Y-80455552D01*
X90578910Y-80436832D01*
X90594562Y-80419562D01*
X90611832Y-80403910D01*
X90630552Y-80390026D01*
X90650543Y-80378044D01*
X90671613Y-80368079D01*
X90693557Y-80360227D01*
X90716166Y-80354563D01*
X90739221Y-80351144D01*
X90762500Y-80350000D01*
X91237500Y-80350000D01*
X91260779Y-80351144D01*
X91260779Y-80351144D01*
G37*
D11*
G04 #@! TD*
G04 #@! TO.P,R2,1*
G04 #@! TO.N,Net-(Q2-Pad3)*
X91000000Y-80875000D03*
D10*
G04 #@! TO.N,GND*
G04 #@! TO.C,R3*
G36*
X101185779Y-79526144D02*
X101208834Y-79529563D01*
X101231443Y-79535227D01*
X101253387Y-79543079D01*
X101274457Y-79553044D01*
X101294448Y-79565026D01*
X101313168Y-79578910D01*
X101330438Y-79594562D01*
X101346090Y-79611832D01*
X101359974Y-79630552D01*
X101371956Y-79650543D01*
X101381921Y-79671613D01*
X101389773Y-79693557D01*
X101395437Y-79716166D01*
X101398856Y-79739221D01*
X101400000Y-79762500D01*
X101400000Y-80237500D01*
X101398856Y-80260779D01*
X101395437Y-80283834D01*
X101389773Y-80306443D01*
X101381921Y-80328387D01*
X101371956Y-80349457D01*
X101359974Y-80369448D01*
X101346090Y-80388168D01*
X101330438Y-80405438D01*
X101313168Y-80421090D01*
X101294448Y-80434974D01*
X101274457Y-80446956D01*
X101253387Y-80456921D01*
X101231443Y-80464773D01*
X101208834Y-80470437D01*
X101185779Y-80473856D01*
X101162500Y-80475000D01*
X100587500Y-80475000D01*
X100564221Y-80473856D01*
X100541166Y-80470437D01*
X100518557Y-80464773D01*
X100496613Y-80456921D01*
X100475543Y-80446956D01*
X100455552Y-80434974D01*
X100436832Y-80421090D01*
X100419562Y-80405438D01*
X100403910Y-80388168D01*
X100390026Y-80369448D01*
X100378044Y-80349457D01*
X100368079Y-80328387D01*
X100360227Y-80306443D01*
X100354563Y-80283834D01*
X100351144Y-80260779D01*
X100350000Y-80237500D01*
X100350000Y-79762500D01*
X100351144Y-79739221D01*
X100354563Y-79716166D01*
X100360227Y-79693557D01*
X100368079Y-79671613D01*
X100378044Y-79650543D01*
X100390026Y-79630552D01*
X100403910Y-79611832D01*
X100419562Y-79594562D01*
X100436832Y-79578910D01*
X100455552Y-79565026D01*
X100475543Y-79553044D01*
X100496613Y-79543079D01*
X100518557Y-79535227D01*
X100541166Y-79529563D01*
X100564221Y-79526144D01*
X100587500Y-79525000D01*
X101162500Y-79525000D01*
X101185779Y-79526144D01*
X101185779Y-79526144D01*
G37*
D11*
G04 #@! TD*
G04 #@! TO.P,R3,1*
G04 #@! TO.N,GND*
X100875000Y-80000000D03*
D10*
G04 #@! TO.N,MASTER_RESET*
G04 #@! TO.C,R3*
G36*
X102935779Y-79526144D02*
X102958834Y-79529563D01*
X102981443Y-79535227D01*
X103003387Y-79543079D01*
X103024457Y-79553044D01*
X103044448Y-79565026D01*
X103063168Y-79578910D01*
X103080438Y-79594562D01*
X103096090Y-79611832D01*
X103109974Y-79630552D01*
X103121956Y-79650543D01*
X103131921Y-79671613D01*
X103139773Y-79693557D01*
X103145437Y-79716166D01*
X103148856Y-79739221D01*
X103150000Y-79762500D01*
X103150000Y-80237500D01*
X103148856Y-80260779D01*
X103145437Y-80283834D01*
X103139773Y-80306443D01*
X103131921Y-80328387D01*
X103121956Y-80349457D01*
X103109974Y-80369448D01*
X103096090Y-80388168D01*
X103080438Y-80405438D01*
X103063168Y-80421090D01*
X103044448Y-80434974D01*
X103024457Y-80446956D01*
X103003387Y-80456921D01*
X102981443Y-80464773D01*
X102958834Y-80470437D01*
X102935779Y-80473856D01*
X102912500Y-80475000D01*
X102337500Y-80475000D01*
X102314221Y-80473856D01*
X102291166Y-80470437D01*
X102268557Y-80464773D01*
X102246613Y-80456921D01*
X102225543Y-80446956D01*
X102205552Y-80434974D01*
X102186832Y-80421090D01*
X102169562Y-80405438D01*
X102153910Y-80388168D01*
X102140026Y-80369448D01*
X102128044Y-80349457D01*
X102118079Y-80328387D01*
X102110227Y-80306443D01*
X102104563Y-80283834D01*
X102101144Y-80260779D01*
X102100000Y-80237500D01*
X102100000Y-79762500D01*
X102101144Y-79739221D01*
X102104563Y-79716166D01*
X102110227Y-79693557D01*
X102118079Y-79671613D01*
X102128044Y-79650543D01*
X102140026Y-79630552D01*
X102153910Y-79611832D01*
X102169562Y-79594562D01*
X102186832Y-79578910D01*
X102205552Y-79565026D01*
X102225543Y-79553044D01*
X102246613Y-79543079D01*
X102268557Y-79535227D01*
X102291166Y-79529563D01*
X102314221Y-79526144D01*
X102337500Y-79525000D01*
X102912500Y-79525000D01*
X102935779Y-79526144D01*
X102935779Y-79526144D01*
G37*
D11*
G04 #@! TD*
G04 #@! TO.P,R3,2*
G04 #@! TO.N,MASTER_RESET*
X102625000Y-80000000D03*
D17*
G04 #@! TO.N,GND*
X115000000Y-80000000D03*
X115000000Y-85000000D03*
X115000000Y-90000000D03*
X115000000Y-95000000D03*
X115000000Y-100000000D03*
X115000000Y-105000000D03*
X115000000Y-110000000D03*
X115000000Y-115000000D03*
X115000000Y-120000000D03*
X110000000Y-120000000D03*
X110000000Y-125000000D03*
X110000000Y-115000000D03*
X110000000Y-110000000D03*
X110000000Y-105000000D03*
X110000000Y-100000000D03*
X110000000Y-95000000D03*
X110000000Y-90000000D03*
X110000000Y-85000000D03*
X110000000Y-80000000D03*
X110000000Y-75000000D03*
X110000000Y-70000000D03*
X105000000Y-120000000D03*
X100000000Y-120000000D03*
X95000000Y-120000000D03*
X90000000Y-120000000D03*
X85000000Y-120000000D03*
X80000000Y-120000000D03*
X90000000Y-125000000D03*
X100000000Y-125000000D03*
X85000000Y-115000000D03*
X90000000Y-110000000D03*
X85000000Y-105000000D03*
X90000000Y-105000000D03*
X95000000Y-105000000D03*
X95000000Y-100000000D03*
X90000000Y-100000000D03*
X100000000Y-100000000D03*
X100000000Y-95000000D03*
X95000000Y-95000000D03*
X90000000Y-95000000D03*
X85000000Y-95000000D03*
X80000000Y-95000000D03*
X80000000Y-90000000D03*
X85000000Y-90000000D03*
X85000000Y-85000000D03*
X80000000Y-85000000D03*
X80000000Y-80000000D03*
X85000000Y-80000000D03*
X80000000Y-75000000D03*
X85000000Y-70000000D03*
X80000000Y-70000000D03*
X90000000Y-70000000D03*
X95000000Y-70000000D03*
X100000000Y-70000000D03*
X100000000Y-75000000D03*
X105000000Y-75000000D03*
X115000000Y-70000000D03*
G04 #@! TO.N,+3V3*
X86750000Y-79250000D03*
G04 #@! TO.N,Net-(Q2-Pad3)*
X96250000Y-81250000D03*
G04 #@! TD*
D18*
G04 #@! TO.N,Net-(C1-Pad1)*
X91750000Y-87875000D02*
X92000000Y-88125000D01*
X90000000Y-87875000D02*
X91750000Y-87875000D01*
X97500000Y-82625000D02*
X97500000Y-74000000D01*
X92000000Y-88125000D02*
X97500000Y-82625000D01*
D19*
G04 #@! TO.N,+5V*
X85780000Y-108000000D02*
X78000000Y-115780000D01*
X98730000Y-108000000D02*
X85780000Y-108000000D01*
D18*
G04 #@! TO.N,+3V3*
X90875000Y-79250000D02*
X91000000Y-79125000D01*
X86750000Y-79250000D02*
X90875000Y-79250000D01*
G04 #@! TO.N,MASTER_RESET*
X102845000Y-80220000D02*
X102625000Y-80000000D01*
X106000000Y-80220000D02*
X102845000Y-80220000D01*
G04 #@! TO.N,Net-(Q2-Pad1)*
X90050000Y-86075000D02*
X90000000Y-86125000D01*
X90050000Y-84500000D02*
X90050000Y-86075000D01*
G04 #@! TO.N,Net-(Q2-Pad3)*
X91000000Y-80875000D02*
X91000000Y-82500000D01*
X91000000Y-82500000D02*
X95000000Y-82500000D01*
X95000000Y-82500000D02*
X96250000Y-81250000D01*
G04 #@! TD*
D20*
G04 #@! TO.N,GND*
G36*
X116506589Y-68441543D02*
X116993880Y-68588664D01*
X117443317Y-68827633D01*
X117837777Y-69149347D01*
X118162239Y-69541554D01*
X118404339Y-69989309D01*
X118554859Y-70475559D01*
X118609998Y-71000174D01*
X118610000Y-71000785D01*
X118610001Y-125980913D01*
X118558457Y-126506589D01*
X118411336Y-126993880D01*
X118172366Y-127443319D01*
X117850651Y-127837780D01*
X117458449Y-128162237D01*
X117010693Y-128404337D01*
X116524441Y-128554859D01*
X115999826Y-128609998D01*
X115999215Y-128610000D01*
X78519077Y-128610000D01*
X77993411Y-128558457D01*
X77506120Y-128411336D01*
X77056681Y-128172366D01*
X76662220Y-127850651D01*
X76337763Y-127458449D01*
X76095663Y-127010693D01*
X75945141Y-126524441D01*
X75890002Y-125999826D01*
X75890000Y-125999215D01*
X75890000Y-124028064D01*
X77490196Y-124028064D01*
X77533923Y-124417902D01*
X77652538Y-124791823D01*
X77841522Y-125135584D01*
X78093677Y-125436090D01*
X78399398Y-125681896D01*
X78747041Y-125863640D01*
X79123364Y-125974397D01*
X79514032Y-126009951D01*
X79904167Y-125968946D01*
X80278906Y-125852945D01*
X80623978Y-125666366D01*
X80926237Y-125416315D01*
X81161613Y-125127715D01*
X82765193Y-125127715D01*
X82808377Y-125512705D01*
X82925516Y-125881975D01*
X83112150Y-126221460D01*
X83361168Y-126518228D01*
X83663087Y-126760977D01*
X84006406Y-126940460D01*
X84378048Y-127049840D01*
X84763858Y-127084952D01*
X85149140Y-127044457D01*
X85519218Y-126929898D01*
X85859998Y-126745640D01*
X86158498Y-126498699D01*
X86403349Y-126198482D01*
X86585224Y-125856425D01*
X86697196Y-125485555D01*
X86735000Y-125100000D01*
X86734226Y-125044576D01*
X86685671Y-124660226D01*
X86563388Y-124292628D01*
X86556305Y-124280158D01*
X94340211Y-124280158D01*
X94387201Y-124699089D01*
X94514668Y-125100915D01*
X94717755Y-125470329D01*
X94988727Y-125793261D01*
X95317263Y-126057411D01*
X95690850Y-126252717D01*
X96095256Y-126371740D01*
X96515080Y-126409947D01*
X96934328Y-126365883D01*
X97337034Y-126241224D01*
X97707857Y-126040721D01*
X98032673Y-125772010D01*
X98299110Y-125445326D01*
X98497019Y-125073112D01*
X98618863Y-124669546D01*
X98657042Y-124280158D01*
X101340211Y-124280158D01*
X101387201Y-124699089D01*
X101514668Y-125100915D01*
X101717755Y-125470329D01*
X101988727Y-125793261D01*
X102317263Y-126057411D01*
X102690850Y-126252717D01*
X103095256Y-126371740D01*
X103515080Y-126409947D01*
X103934328Y-126365883D01*
X104337034Y-126241224D01*
X104707857Y-126040721D01*
X105032673Y-125772010D01*
X105299110Y-125445326D01*
X105467986Y-125127715D01*
X113265193Y-125127715D01*
X113308377Y-125512705D01*
X113425516Y-125881975D01*
X113612150Y-126221460D01*
X113861168Y-126518228D01*
X114163087Y-126760977D01*
X114506406Y-126940460D01*
X114878048Y-127049840D01*
X115263858Y-127084952D01*
X115649140Y-127044457D01*
X116019218Y-126929898D01*
X116359998Y-126745640D01*
X116658498Y-126498699D01*
X116903349Y-126198482D01*
X117085224Y-125856425D01*
X117197196Y-125485555D01*
X117235000Y-125100000D01*
X117234226Y-125044576D01*
X117185671Y-124660226D01*
X117063388Y-124292628D01*
X116872033Y-123955782D01*
X116618895Y-123662519D01*
X116313616Y-123424009D01*
X115967825Y-123249337D01*
X115594692Y-123145157D01*
X115208429Y-123115435D01*
X114823750Y-123161306D01*
X114455307Y-123281020D01*
X114117134Y-123470019D01*
X113822110Y-123721103D01*
X113581475Y-124024709D01*
X113404394Y-124369273D01*
X113297611Y-124741669D01*
X113265193Y-125127715D01*
X105467986Y-125127715D01*
X105497019Y-125073112D01*
X105618863Y-124669546D01*
X105660000Y-124250000D01*
X105659158Y-124189689D01*
X105606323Y-123771455D01*
X105473258Y-123371449D01*
X105265033Y-123004906D01*
X104989578Y-122685789D01*
X104657386Y-122426252D01*
X104281109Y-122236181D01*
X103875080Y-122122815D01*
X103454764Y-122090474D01*
X103036172Y-122140388D01*
X102635246Y-122270657D01*
X102267259Y-122476318D01*
X101946226Y-122749538D01*
X101684376Y-123079910D01*
X101491683Y-123454851D01*
X101375486Y-123860079D01*
X101340211Y-124280158D01*
X98657042Y-124280158D01*
X98660000Y-124250000D01*
X98659158Y-124189689D01*
X98606323Y-123771455D01*
X98473258Y-123371449D01*
X98265033Y-123004906D01*
X97989578Y-122685789D01*
X97657386Y-122426252D01*
X97281109Y-122236181D01*
X96875080Y-122122815D01*
X96454764Y-122090474D01*
X96036172Y-122140388D01*
X95635246Y-122270657D01*
X95267259Y-122476318D01*
X94946226Y-122749538D01*
X94684376Y-123079910D01*
X94491683Y-123454851D01*
X94375486Y-123860079D01*
X94340211Y-124280158D01*
X86556305Y-124280158D01*
X86372033Y-123955782D01*
X86118895Y-123662519D01*
X85813616Y-123424009D01*
X85467825Y-123249337D01*
X85094692Y-123145157D01*
X84708429Y-123115435D01*
X84323750Y-123161306D01*
X83955307Y-123281020D01*
X83617134Y-123470019D01*
X83322110Y-123721103D01*
X83081475Y-124024709D01*
X82904394Y-124369273D01*
X82797611Y-124741669D01*
X82765193Y-125127715D01*
X81161613Y-125127715D01*
X81174172Y-125112317D01*
X81358338Y-124765951D01*
X81471720Y-124390411D01*
X81510000Y-124000000D01*
X81509216Y-123943878D01*
X81460050Y-123554688D01*
X81336226Y-123182459D01*
X81142461Y-122841371D01*
X80886135Y-122544415D01*
X80577012Y-122302901D01*
X80226865Y-122126029D01*
X79849033Y-122020536D01*
X79457906Y-121990441D01*
X79068382Y-122036889D01*
X78695298Y-122158111D01*
X78352866Y-122349490D01*
X78054127Y-122603737D01*
X77810461Y-122911166D01*
X77631149Y-123260070D01*
X77523021Y-123637157D01*
X77490196Y-124028064D01*
X75890000Y-124028064D01*
X75890000Y-115780000D01*
X76854485Y-115780000D01*
X76876496Y-116003479D01*
X76941682Y-116218370D01*
X77047539Y-116416414D01*
X77189999Y-116590001D01*
X77363586Y-116732461D01*
X77561630Y-116838318D01*
X77776521Y-116903504D01*
X77944006Y-116920000D01*
X78055994Y-116920000D01*
X78223479Y-116903504D01*
X78438370Y-116838318D01*
X78636414Y-116732461D01*
X78810001Y-116590001D01*
X78952461Y-116416414D01*
X79058318Y-116218370D01*
X79123504Y-116003479D01*
X79145515Y-115780000D01*
X104854485Y-115780000D01*
X104876496Y-116003479D01*
X104941682Y-116218370D01*
X105047539Y-116416414D01*
X105189999Y-116590001D01*
X105363586Y-116732461D01*
X105561630Y-116838318D01*
X105776521Y-116903504D01*
X105944006Y-116920000D01*
X106055994Y-116920000D01*
X106223479Y-116903504D01*
X106438370Y-116838318D01*
X106636414Y-116732461D01*
X106810001Y-116590001D01*
X106952461Y-116416414D01*
X107058318Y-116218370D01*
X107123504Y-116003479D01*
X107145515Y-115780000D01*
X107123504Y-115556521D01*
X107058318Y-115341630D01*
X106952461Y-115143586D01*
X106810001Y-114969999D01*
X106636414Y-114827539D01*
X106438370Y-114721682D01*
X106223479Y-114656496D01*
X106055994Y-114640000D01*
X105944006Y-114640000D01*
X105776521Y-114656496D01*
X105561630Y-114721682D01*
X105363586Y-114827539D01*
X105189999Y-114969999D01*
X105047539Y-115143586D01*
X104941682Y-115341630D01*
X104876496Y-115556521D01*
X104854485Y-115780000D01*
X79145515Y-115780000D01*
X79142979Y-115754249D01*
X81318767Y-113578461D01*
X104911403Y-113578461D01*
X104990912Y-113770432D01*
X105113783Y-113957103D01*
X105270711Y-114116216D01*
X105455665Y-114241657D01*
X105661538Y-114328605D01*
X105836000Y-114295650D01*
X105836000Y-113404000D01*
X106164000Y-113404000D01*
X106164000Y-114295650D01*
X106338462Y-114328605D01*
X106544335Y-114241657D01*
X106729289Y-114116216D01*
X106886217Y-113957103D01*
X107009088Y-113770432D01*
X107088597Y-113578461D01*
X107054827Y-113404000D01*
X106164000Y-113404000D01*
X105836000Y-113404000D01*
X104945173Y-113404000D01*
X104911403Y-113578461D01*
X81318767Y-113578461D01*
X81995689Y-112901539D01*
X104911403Y-112901539D01*
X104945173Y-113076000D01*
X105836000Y-113076000D01*
X105836000Y-112184350D01*
X106164000Y-112184350D01*
X106164000Y-113076000D01*
X107054827Y-113076000D01*
X107088597Y-112901539D01*
X107009088Y-112709568D01*
X106886217Y-112522897D01*
X106729289Y-112363784D01*
X106544335Y-112238343D01*
X106338462Y-112151395D01*
X106164000Y-112184350D01*
X105836000Y-112184350D01*
X105661538Y-112151395D01*
X105455665Y-112238343D01*
X105270711Y-112363784D01*
X105113783Y-112522897D01*
X104990912Y-112709568D01*
X104911403Y-112901539D01*
X81995689Y-112901539D01*
X84439961Y-110457267D01*
X97890000Y-110457267D01*
X97890000Y-110622733D01*
X97922281Y-110785019D01*
X97985602Y-110937889D01*
X98077530Y-111075469D01*
X98194531Y-111192470D01*
X98332111Y-111284398D01*
X98484981Y-111347719D01*
X98647267Y-111380000D01*
X98812733Y-111380000D01*
X98975019Y-111347719D01*
X99127889Y-111284398D01*
X99265469Y-111192470D01*
X99382470Y-111075469D01*
X99474398Y-110937889D01*
X99537719Y-110785019D01*
X99570000Y-110622733D01*
X99570000Y-110457267D01*
X100430000Y-110457267D01*
X100430000Y-110622733D01*
X100462281Y-110785019D01*
X100525602Y-110937889D01*
X100617530Y-111075469D01*
X100734531Y-111192470D01*
X100872111Y-111284398D01*
X101024981Y-111347719D01*
X101187267Y-111380000D01*
X101352733Y-111380000D01*
X101515019Y-111347719D01*
X101667889Y-111284398D01*
X101805469Y-111192470D01*
X101922470Y-111075469D01*
X102014398Y-110937889D01*
X102077719Y-110785019D01*
X102094630Y-110700000D01*
X104854485Y-110700000D01*
X104876496Y-110923479D01*
X104941682Y-111138370D01*
X105047539Y-111336414D01*
X105189999Y-111510001D01*
X105363586Y-111652461D01*
X105561630Y-111758318D01*
X105776521Y-111823504D01*
X105944006Y-111840000D01*
X106055994Y-111840000D01*
X106223479Y-111823504D01*
X106438370Y-111758318D01*
X106636414Y-111652461D01*
X106810001Y-111510001D01*
X106952461Y-111336414D01*
X107058318Y-111138370D01*
X107123504Y-110923479D01*
X107145515Y-110700000D01*
X107123504Y-110476521D01*
X107058318Y-110261630D01*
X106952461Y-110063586D01*
X106810001Y-109889999D01*
X106636414Y-109747539D01*
X106438370Y-109641682D01*
X106223479Y-109576496D01*
X106055994Y-109560000D01*
X105944006Y-109560000D01*
X105776521Y-109576496D01*
X105561630Y-109641682D01*
X105363586Y-109747539D01*
X105189999Y-109889999D01*
X105047539Y-110063586D01*
X104941682Y-110261630D01*
X104876496Y-110476521D01*
X104854485Y-110700000D01*
X102094630Y-110700000D01*
X102110000Y-110622733D01*
X102110000Y-110457267D01*
X102077719Y-110294981D01*
X102014398Y-110142111D01*
X101922470Y-110004531D01*
X101805469Y-109887530D01*
X101667889Y-109795602D01*
X101515019Y-109732281D01*
X101352733Y-109700000D01*
X101187267Y-109700000D01*
X101024981Y-109732281D01*
X100872111Y-109795602D01*
X100734531Y-109887530D01*
X100617530Y-110004531D01*
X100525602Y-110142111D01*
X100462281Y-110294981D01*
X100430000Y-110457267D01*
X99570000Y-110457267D01*
X99537719Y-110294981D01*
X99474398Y-110142111D01*
X99382470Y-110004531D01*
X99265469Y-109887530D01*
X99127889Y-109795602D01*
X98975019Y-109732281D01*
X98812733Y-109700000D01*
X98647267Y-109700000D01*
X98484981Y-109732281D01*
X98332111Y-109795602D01*
X98194531Y-109887530D01*
X98077530Y-110004531D01*
X97985602Y-110142111D01*
X97922281Y-110294981D01*
X97890000Y-110457267D01*
X84439961Y-110457267D01*
X86107229Y-108790000D01*
X97706391Y-108790000D01*
X97727991Y-108822327D01*
X97907673Y-109002009D01*
X98118956Y-109143183D01*
X98353721Y-109240426D01*
X98602946Y-109290000D01*
X98857054Y-109290000D01*
X99106279Y-109240426D01*
X99341044Y-109143183D01*
X99552327Y-109002009D01*
X99732009Y-108822327D01*
X99873183Y-108611044D01*
X99970426Y-108376279D01*
X99980000Y-108328147D01*
X99980000Y-109028563D01*
X99991145Y-109084590D01*
X100013006Y-109137367D01*
X100044743Y-109184865D01*
X100085136Y-109225258D01*
X100132634Y-109256995D01*
X100185411Y-109278856D01*
X100241438Y-109290000D01*
X101033500Y-109290000D01*
X101106000Y-109217500D01*
X101106000Y-108164000D01*
X101434000Y-108164000D01*
X101434000Y-109217500D01*
X101506500Y-109290000D01*
X102298562Y-109290000D01*
X102354589Y-109278856D01*
X102407366Y-109256995D01*
X102454864Y-109225258D01*
X102495257Y-109184865D01*
X102526994Y-109137367D01*
X102548855Y-109084590D01*
X102560000Y-109028563D01*
X102560000Y-108236500D01*
X102487500Y-108164000D01*
X101434000Y-108164000D01*
X101106000Y-108164000D01*
X101086000Y-108164000D01*
X101086000Y-108160000D01*
X104854485Y-108160000D01*
X104876496Y-108383479D01*
X104941682Y-108598370D01*
X105047539Y-108796414D01*
X105189999Y-108970001D01*
X105363586Y-109112461D01*
X105561630Y-109218318D01*
X105776521Y-109283504D01*
X105944006Y-109300000D01*
X106055994Y-109300000D01*
X106223479Y-109283504D01*
X106438370Y-109218318D01*
X106636414Y-109112461D01*
X106810001Y-108970001D01*
X106952461Y-108796414D01*
X107058318Y-108598370D01*
X107123504Y-108383479D01*
X107145515Y-108160000D01*
X107123504Y-107936521D01*
X107058318Y-107721630D01*
X106952461Y-107523586D01*
X106810001Y-107349999D01*
X106636414Y-107207539D01*
X106438370Y-107101682D01*
X106223479Y-107036496D01*
X106055994Y-107020000D01*
X105944006Y-107020000D01*
X105776521Y-107036496D01*
X105561630Y-107101682D01*
X105363586Y-107207539D01*
X105189999Y-107349999D01*
X105047539Y-107523586D01*
X104941682Y-107721630D01*
X104876496Y-107936521D01*
X104854485Y-108160000D01*
X101086000Y-108160000D01*
X101086000Y-107836000D01*
X101106000Y-107836000D01*
X101106000Y-106782500D01*
X101434000Y-106782500D01*
X101434000Y-107836000D01*
X102487500Y-107836000D01*
X102560000Y-107763500D01*
X102560000Y-106971437D01*
X102548855Y-106915410D01*
X102526994Y-106862633D01*
X102495257Y-106815135D01*
X102454864Y-106774742D01*
X102407366Y-106743005D01*
X102354589Y-106721144D01*
X102298562Y-106710000D01*
X101506500Y-106710000D01*
X101434000Y-106782500D01*
X101106000Y-106782500D01*
X101033500Y-106710000D01*
X100241438Y-106710000D01*
X100185411Y-106721144D01*
X100132634Y-106743005D01*
X100085136Y-106774742D01*
X100044743Y-106815135D01*
X100013006Y-106862633D01*
X99991145Y-106915410D01*
X99980000Y-106971437D01*
X99980000Y-107671853D01*
X99970426Y-107623721D01*
X99873183Y-107388956D01*
X99732009Y-107177673D01*
X99552327Y-106997991D01*
X99341044Y-106856817D01*
X99106279Y-106759574D01*
X98857054Y-106710000D01*
X98602946Y-106710000D01*
X98353721Y-106759574D01*
X98118956Y-106856817D01*
X97907673Y-106997991D01*
X97727991Y-107177673D01*
X97706391Y-107210000D01*
X85818806Y-107210000D01*
X85780000Y-107206178D01*
X85741194Y-107210000D01*
X85625133Y-107221431D01*
X85476217Y-107266604D01*
X85338976Y-107339961D01*
X85218683Y-107438683D01*
X85193946Y-107468825D01*
X79087902Y-113574870D01*
X79054827Y-113404000D01*
X78164000Y-113404000D01*
X78164000Y-114295650D01*
X78334849Y-114327923D01*
X78022772Y-114640000D01*
X77944006Y-114640000D01*
X77776521Y-114656496D01*
X77561630Y-114721682D01*
X77363586Y-114827539D01*
X77189999Y-114969999D01*
X77047539Y-115143586D01*
X76941682Y-115341630D01*
X76876496Y-115556521D01*
X76854485Y-115780000D01*
X75890000Y-115780000D01*
X75890000Y-113578461D01*
X76911403Y-113578461D01*
X76990912Y-113770432D01*
X77113783Y-113957103D01*
X77270711Y-114116216D01*
X77455665Y-114241657D01*
X77661538Y-114328605D01*
X77836000Y-114295650D01*
X77836000Y-113404000D01*
X76945173Y-113404000D01*
X76911403Y-113578461D01*
X75890000Y-113578461D01*
X75890000Y-112901539D01*
X76911403Y-112901539D01*
X76945173Y-113076000D01*
X77836000Y-113076000D01*
X77836000Y-112184350D01*
X78164000Y-112184350D01*
X78164000Y-113076000D01*
X79054827Y-113076000D01*
X79088597Y-112901539D01*
X79009088Y-112709568D01*
X78886217Y-112522897D01*
X78729289Y-112363784D01*
X78544335Y-112238343D01*
X78338462Y-112151395D01*
X78164000Y-112184350D01*
X77836000Y-112184350D01*
X77661538Y-112151395D01*
X77455665Y-112238343D01*
X77270711Y-112363784D01*
X77113783Y-112522897D01*
X76990912Y-112709568D01*
X76911403Y-112901539D01*
X75890000Y-112901539D01*
X75890000Y-110700000D01*
X76854485Y-110700000D01*
X76876496Y-110923479D01*
X76941682Y-111138370D01*
X77047539Y-111336414D01*
X77189999Y-111510001D01*
X77363586Y-111652461D01*
X77561630Y-111758318D01*
X77776521Y-111823504D01*
X77944006Y-111840000D01*
X78055994Y-111840000D01*
X78223479Y-111823504D01*
X78438370Y-111758318D01*
X78636414Y-111652461D01*
X78810001Y-111510001D01*
X78952461Y-111336414D01*
X79058318Y-111138370D01*
X79123504Y-110923479D01*
X79145515Y-110700000D01*
X79123504Y-110476521D01*
X79058318Y-110261630D01*
X78952461Y-110063586D01*
X78810001Y-109889999D01*
X78636414Y-109747539D01*
X78438370Y-109641682D01*
X78223479Y-109576496D01*
X78055994Y-109560000D01*
X77944006Y-109560000D01*
X77776521Y-109576496D01*
X77561630Y-109641682D01*
X77363586Y-109747539D01*
X77189999Y-109889999D01*
X77047539Y-110063586D01*
X76941682Y-110261630D01*
X76876496Y-110476521D01*
X76854485Y-110700000D01*
X75890000Y-110700000D01*
X75890000Y-108160000D01*
X76854485Y-108160000D01*
X76876496Y-108383479D01*
X76941682Y-108598370D01*
X77047539Y-108796414D01*
X77189999Y-108970001D01*
X77363586Y-109112461D01*
X77561630Y-109218318D01*
X77776521Y-109283504D01*
X77944006Y-109300000D01*
X78055994Y-109300000D01*
X78223479Y-109283504D01*
X78438370Y-109218318D01*
X78636414Y-109112461D01*
X78810001Y-108970001D01*
X78952461Y-108796414D01*
X79058318Y-108598370D01*
X79123504Y-108383479D01*
X79145515Y-108160000D01*
X79123504Y-107936521D01*
X79058318Y-107721630D01*
X78952461Y-107523586D01*
X78810001Y-107349999D01*
X78636414Y-107207539D01*
X78438370Y-107101682D01*
X78223479Y-107036496D01*
X78055994Y-107020000D01*
X77944006Y-107020000D01*
X77776521Y-107036496D01*
X77561630Y-107101682D01*
X77363586Y-107207539D01*
X77189999Y-107349999D01*
X77047539Y-107523586D01*
X76941682Y-107721630D01*
X76876496Y-107936521D01*
X76854485Y-108160000D01*
X75890000Y-108160000D01*
X75890000Y-105620000D01*
X76854485Y-105620000D01*
X76876496Y-105843479D01*
X76941682Y-106058370D01*
X77047539Y-106256414D01*
X77189999Y-106430001D01*
X77363586Y-106572461D01*
X77561630Y-106678318D01*
X77776521Y-106743504D01*
X77944006Y-106760000D01*
X78055994Y-106760000D01*
X78223479Y-106743504D01*
X78438370Y-106678318D01*
X78636414Y-106572461D01*
X78810001Y-106430001D01*
X78952461Y-106256414D01*
X79058318Y-106058370D01*
X79123504Y-105843479D01*
X79145515Y-105620000D01*
X104854485Y-105620000D01*
X104876496Y-105843479D01*
X104941682Y-106058370D01*
X105047539Y-106256414D01*
X105189999Y-106430001D01*
X105363586Y-106572461D01*
X105561630Y-106678318D01*
X105776521Y-106743504D01*
X105944006Y-106760000D01*
X106055994Y-106760000D01*
X106223479Y-106743504D01*
X106438370Y-106678318D01*
X106636414Y-106572461D01*
X106810001Y-106430001D01*
X106952461Y-106256414D01*
X107058318Y-106058370D01*
X107123504Y-105843479D01*
X107145515Y-105620000D01*
X107123504Y-105396521D01*
X107058318Y-105181630D01*
X106952461Y-104983586D01*
X106810001Y-104809999D01*
X106636414Y-104667539D01*
X106438370Y-104561682D01*
X106223479Y-104496496D01*
X106055994Y-104480000D01*
X105944006Y-104480000D01*
X105776521Y-104496496D01*
X105561630Y-104561682D01*
X105363586Y-104667539D01*
X105189999Y-104809999D01*
X105047539Y-104983586D01*
X104941682Y-105181630D01*
X104876496Y-105396521D01*
X104854485Y-105620000D01*
X79145515Y-105620000D01*
X79123504Y-105396521D01*
X79058318Y-105181630D01*
X78952461Y-104983586D01*
X78810001Y-104809999D01*
X78636414Y-104667539D01*
X78438370Y-104561682D01*
X78223479Y-104496496D01*
X78055994Y-104480000D01*
X77944006Y-104480000D01*
X77776521Y-104496496D01*
X77561630Y-104561682D01*
X77363586Y-104667539D01*
X77189999Y-104809999D01*
X77047539Y-104983586D01*
X76941682Y-105181630D01*
X76876496Y-105396521D01*
X76854485Y-105620000D01*
X75890000Y-105620000D01*
X75890000Y-103418461D01*
X76911403Y-103418461D01*
X76990912Y-103610432D01*
X77113783Y-103797103D01*
X77270711Y-103956216D01*
X77455665Y-104081657D01*
X77661538Y-104168605D01*
X77836000Y-104135650D01*
X77836000Y-103244000D01*
X78164000Y-103244000D01*
X78164000Y-104135650D01*
X78338462Y-104168605D01*
X78544335Y-104081657D01*
X78729289Y-103956216D01*
X78886217Y-103797103D01*
X79009088Y-103610432D01*
X79088597Y-103418461D01*
X79054827Y-103244000D01*
X78164000Y-103244000D01*
X77836000Y-103244000D01*
X76945173Y-103244000D01*
X76911403Y-103418461D01*
X75890000Y-103418461D01*
X75890000Y-103080000D01*
X104854485Y-103080000D01*
X104876496Y-103303479D01*
X104941682Y-103518370D01*
X105047539Y-103716414D01*
X105189999Y-103890001D01*
X105363586Y-104032461D01*
X105561630Y-104138318D01*
X105776521Y-104203504D01*
X105944006Y-104220000D01*
X106055994Y-104220000D01*
X106223479Y-104203504D01*
X106438370Y-104138318D01*
X106636414Y-104032461D01*
X106810001Y-103890001D01*
X106952461Y-103716414D01*
X107058318Y-103518370D01*
X107123504Y-103303479D01*
X107145515Y-103080000D01*
X107123504Y-102856521D01*
X107058318Y-102641630D01*
X106952461Y-102443586D01*
X106810001Y-102269999D01*
X106636414Y-102127539D01*
X106438370Y-102021682D01*
X106223479Y-101956496D01*
X106055994Y-101940000D01*
X105944006Y-101940000D01*
X105776521Y-101956496D01*
X105561630Y-102021682D01*
X105363586Y-102127539D01*
X105189999Y-102269999D01*
X105047539Y-102443586D01*
X104941682Y-102641630D01*
X104876496Y-102856521D01*
X104854485Y-103080000D01*
X75890000Y-103080000D01*
X75890000Y-102741539D01*
X76911403Y-102741539D01*
X76945173Y-102916000D01*
X77836000Y-102916000D01*
X77836000Y-102024350D01*
X78164000Y-102024350D01*
X78164000Y-102916000D01*
X79054827Y-102916000D01*
X79088597Y-102741539D01*
X79009088Y-102549568D01*
X78886217Y-102362897D01*
X78729289Y-102203784D01*
X78544335Y-102078343D01*
X78338462Y-101991395D01*
X78164000Y-102024350D01*
X77836000Y-102024350D01*
X77661538Y-101991395D01*
X77455665Y-102078343D01*
X77270711Y-102203784D01*
X77113783Y-102362897D01*
X76990912Y-102549568D01*
X76911403Y-102741539D01*
X75890000Y-102741539D01*
X75890000Y-100540000D01*
X76854485Y-100540000D01*
X76876496Y-100763479D01*
X76941682Y-100978370D01*
X77047539Y-101176414D01*
X77189999Y-101350001D01*
X77363586Y-101492461D01*
X77561630Y-101598318D01*
X77776521Y-101663504D01*
X77944006Y-101680000D01*
X78055994Y-101680000D01*
X78223479Y-101663504D01*
X78438370Y-101598318D01*
X78636414Y-101492461D01*
X78810001Y-101350001D01*
X78952461Y-101176414D01*
X79058318Y-100978370D01*
X79123504Y-100763479D01*
X79145515Y-100540000D01*
X104854485Y-100540000D01*
X104876496Y-100763479D01*
X104941682Y-100978370D01*
X105047539Y-101176414D01*
X105189999Y-101350001D01*
X105363586Y-101492461D01*
X105561630Y-101598318D01*
X105776521Y-101663504D01*
X105944006Y-101680000D01*
X106055994Y-101680000D01*
X106223479Y-101663504D01*
X106438370Y-101598318D01*
X106636414Y-101492461D01*
X106810001Y-101350001D01*
X106952461Y-101176414D01*
X107058318Y-100978370D01*
X107123504Y-100763479D01*
X107145515Y-100540000D01*
X107123504Y-100316521D01*
X107058318Y-100101630D01*
X106952461Y-99903586D01*
X106810001Y-99729999D01*
X106636414Y-99587539D01*
X106438370Y-99481682D01*
X106223479Y-99416496D01*
X106055994Y-99400000D01*
X105944006Y-99400000D01*
X105776521Y-99416496D01*
X105561630Y-99481682D01*
X105363586Y-99587539D01*
X105189999Y-99729999D01*
X105047539Y-99903586D01*
X104941682Y-100101630D01*
X104876496Y-100316521D01*
X104854485Y-100540000D01*
X79145515Y-100540000D01*
X79123504Y-100316521D01*
X79058318Y-100101630D01*
X78952461Y-99903586D01*
X78810001Y-99729999D01*
X78636414Y-99587539D01*
X78438370Y-99481682D01*
X78223479Y-99416496D01*
X78055994Y-99400000D01*
X77944006Y-99400000D01*
X77776521Y-99416496D01*
X77561630Y-99481682D01*
X77363586Y-99587539D01*
X77189999Y-99729999D01*
X77047539Y-99903586D01*
X76941682Y-100101630D01*
X76876496Y-100316521D01*
X76854485Y-100540000D01*
X75890000Y-100540000D01*
X75890000Y-98000000D01*
X76854485Y-98000000D01*
X76876496Y-98223479D01*
X76941682Y-98438370D01*
X77047539Y-98636414D01*
X77189999Y-98810001D01*
X77363586Y-98952461D01*
X77561630Y-99058318D01*
X77776521Y-99123504D01*
X77944006Y-99140000D01*
X78055994Y-99140000D01*
X78223479Y-99123504D01*
X78438370Y-99058318D01*
X78636414Y-98952461D01*
X78810001Y-98810001D01*
X78952461Y-98636414D01*
X79058318Y-98438370D01*
X79123504Y-98223479D01*
X79145515Y-98000000D01*
X104854485Y-98000000D01*
X104876496Y-98223479D01*
X104941682Y-98438370D01*
X105047539Y-98636414D01*
X105189999Y-98810001D01*
X105363586Y-98952461D01*
X105561630Y-99058318D01*
X105776521Y-99123504D01*
X105944006Y-99140000D01*
X106055994Y-99140000D01*
X106223479Y-99123504D01*
X106438370Y-99058318D01*
X106636414Y-98952461D01*
X106810001Y-98810001D01*
X106952461Y-98636414D01*
X107058318Y-98438370D01*
X107123504Y-98223479D01*
X107145515Y-98000000D01*
X107123504Y-97776521D01*
X107058318Y-97561630D01*
X106952461Y-97363586D01*
X106810001Y-97189999D01*
X106636414Y-97047539D01*
X106438370Y-96941682D01*
X106223479Y-96876496D01*
X106055994Y-96860000D01*
X105944006Y-96860000D01*
X105776521Y-96876496D01*
X105561630Y-96941682D01*
X105363586Y-97047539D01*
X105189999Y-97189999D01*
X105047539Y-97363586D01*
X104941682Y-97561630D01*
X104876496Y-97776521D01*
X104854485Y-98000000D01*
X79145515Y-98000000D01*
X79123504Y-97776521D01*
X79058318Y-97561630D01*
X78952461Y-97363586D01*
X78810001Y-97189999D01*
X78636414Y-97047539D01*
X78438370Y-96941682D01*
X78223479Y-96876496D01*
X78055994Y-96860000D01*
X77944006Y-96860000D01*
X77776521Y-96876496D01*
X77561630Y-96941682D01*
X77363586Y-97047539D01*
X77189999Y-97189999D01*
X77047539Y-97363586D01*
X76941682Y-97561630D01*
X76876496Y-97776521D01*
X76854485Y-98000000D01*
X75890000Y-98000000D01*
X75890000Y-95460000D01*
X76854485Y-95460000D01*
X76876496Y-95683479D01*
X76941682Y-95898370D01*
X77047539Y-96096414D01*
X77189999Y-96270001D01*
X77363586Y-96412461D01*
X77561630Y-96518318D01*
X77776521Y-96583504D01*
X77944006Y-96600000D01*
X78055994Y-96600000D01*
X78223479Y-96583504D01*
X78438370Y-96518318D01*
X78636414Y-96412461D01*
X78810001Y-96270001D01*
X78952461Y-96096414D01*
X79058318Y-95898370D01*
X79088624Y-95798461D01*
X104911403Y-95798461D01*
X104990912Y-95990432D01*
X105113783Y-96177103D01*
X105270711Y-96336216D01*
X105455665Y-96461657D01*
X105661538Y-96548605D01*
X105836000Y-96515650D01*
X105836000Y-95624000D01*
X106164000Y-95624000D01*
X106164000Y-96515650D01*
X106338462Y-96548605D01*
X106544335Y-96461657D01*
X106729289Y-96336216D01*
X106886217Y-96177103D01*
X107009088Y-95990432D01*
X107088597Y-95798461D01*
X107054827Y-95624000D01*
X106164000Y-95624000D01*
X105836000Y-95624000D01*
X104945173Y-95624000D01*
X104911403Y-95798461D01*
X79088624Y-95798461D01*
X79123504Y-95683479D01*
X79145515Y-95460000D01*
X79123504Y-95236521D01*
X79088625Y-95121539D01*
X104911403Y-95121539D01*
X104945173Y-95296000D01*
X105836000Y-95296000D01*
X105836000Y-94404350D01*
X106164000Y-94404350D01*
X106164000Y-95296000D01*
X107054827Y-95296000D01*
X107088597Y-95121539D01*
X107009088Y-94929568D01*
X106886217Y-94742897D01*
X106729289Y-94583784D01*
X106544335Y-94458343D01*
X106338462Y-94371395D01*
X106164000Y-94404350D01*
X105836000Y-94404350D01*
X105661538Y-94371395D01*
X105455665Y-94458343D01*
X105270711Y-94583784D01*
X105113783Y-94742897D01*
X104990912Y-94929568D01*
X104911403Y-95121539D01*
X79088625Y-95121539D01*
X79058318Y-95021630D01*
X78952461Y-94823586D01*
X78810001Y-94649999D01*
X78636414Y-94507539D01*
X78438370Y-94401682D01*
X78223479Y-94336496D01*
X78055994Y-94320000D01*
X77944006Y-94320000D01*
X77776521Y-94336496D01*
X77561630Y-94401682D01*
X77363586Y-94507539D01*
X77189999Y-94649999D01*
X77047539Y-94823586D01*
X76941682Y-95021630D01*
X76876496Y-95236521D01*
X76854485Y-95460000D01*
X75890000Y-95460000D01*
X75890000Y-92920000D01*
X76854485Y-92920000D01*
X76876496Y-93143479D01*
X76941682Y-93358370D01*
X77047539Y-93556414D01*
X77189999Y-93730001D01*
X77363586Y-93872461D01*
X77561630Y-93978318D01*
X77776521Y-94043504D01*
X77944006Y-94060000D01*
X78055994Y-94060000D01*
X78223479Y-94043504D01*
X78438370Y-93978318D01*
X78636414Y-93872461D01*
X78810001Y-93730001D01*
X78952461Y-93556414D01*
X79058318Y-93358370D01*
X79123504Y-93143479D01*
X79145515Y-92920000D01*
X104854485Y-92920000D01*
X104876496Y-93143479D01*
X104941682Y-93358370D01*
X105047539Y-93556414D01*
X105189999Y-93730001D01*
X105363586Y-93872461D01*
X105561630Y-93978318D01*
X105776521Y-94043504D01*
X105944006Y-94060000D01*
X106055994Y-94060000D01*
X106223479Y-94043504D01*
X106438370Y-93978318D01*
X106636414Y-93872461D01*
X106810001Y-93730001D01*
X106952461Y-93556414D01*
X107058318Y-93358370D01*
X107123504Y-93143479D01*
X107145515Y-92920000D01*
X107123504Y-92696521D01*
X107058318Y-92481630D01*
X106952461Y-92283586D01*
X106810001Y-92109999D01*
X106636414Y-91967539D01*
X106438370Y-91861682D01*
X106223479Y-91796496D01*
X106055994Y-91780000D01*
X105944006Y-91780000D01*
X105776521Y-91796496D01*
X105561630Y-91861682D01*
X105363586Y-91967539D01*
X105189999Y-92109999D01*
X105047539Y-92283586D01*
X104941682Y-92481630D01*
X104876496Y-92696521D01*
X104854485Y-92920000D01*
X79145515Y-92920000D01*
X79123504Y-92696521D01*
X79058318Y-92481630D01*
X78952461Y-92283586D01*
X78810001Y-92109999D01*
X78636414Y-91967539D01*
X78438370Y-91861682D01*
X78223479Y-91796496D01*
X78055994Y-91780000D01*
X77944006Y-91780000D01*
X77776521Y-91796496D01*
X77561630Y-91861682D01*
X77363586Y-91967539D01*
X77189999Y-92109999D01*
X77047539Y-92283586D01*
X76941682Y-92481630D01*
X76876496Y-92696521D01*
X76854485Y-92920000D01*
X75890000Y-92920000D01*
X75890000Y-90380000D01*
X76854485Y-90380000D01*
X76876496Y-90603479D01*
X76941682Y-90818370D01*
X77047539Y-91016414D01*
X77189999Y-91190001D01*
X77363586Y-91332461D01*
X77561630Y-91438318D01*
X77776521Y-91503504D01*
X77944006Y-91520000D01*
X78055994Y-91520000D01*
X78223479Y-91503504D01*
X78438370Y-91438318D01*
X78636414Y-91332461D01*
X78810001Y-91190001D01*
X78952461Y-91016414D01*
X79058318Y-90818370D01*
X79123504Y-90603479D01*
X79145515Y-90380000D01*
X79123504Y-90156521D01*
X79109848Y-90111500D01*
X91235000Y-90111500D01*
X91235000Y-90428562D01*
X91246144Y-90484589D01*
X91268005Y-90537366D01*
X91299742Y-90584864D01*
X91340135Y-90625257D01*
X91387633Y-90656994D01*
X91440410Y-90678855D01*
X91496437Y-90690000D01*
X91763500Y-90690000D01*
X91836000Y-90617500D01*
X91836000Y-90039000D01*
X92164000Y-90039000D01*
X92164000Y-90617500D01*
X92236500Y-90690000D01*
X92503563Y-90690000D01*
X92559590Y-90678855D01*
X92612367Y-90656994D01*
X92659865Y-90625257D01*
X92700258Y-90584864D01*
X92731995Y-90537366D01*
X92753856Y-90484589D01*
X92765000Y-90428562D01*
X92765000Y-90380000D01*
X104854485Y-90380000D01*
X104876496Y-90603479D01*
X104941682Y-90818370D01*
X105047539Y-91016414D01*
X105189999Y-91190001D01*
X105363586Y-91332461D01*
X105561630Y-91438318D01*
X105776521Y-91503504D01*
X105944006Y-91520000D01*
X106055994Y-91520000D01*
X106223479Y-91503504D01*
X106438370Y-91438318D01*
X106636414Y-91332461D01*
X106810001Y-91190001D01*
X106952461Y-91016414D01*
X107058318Y-90818370D01*
X107123504Y-90603479D01*
X107145515Y-90380000D01*
X107123504Y-90156521D01*
X107058318Y-89941630D01*
X106952461Y-89743586D01*
X106810001Y-89569999D01*
X106636414Y-89427539D01*
X106438370Y-89321682D01*
X106223479Y-89256496D01*
X106055994Y-89240000D01*
X105944006Y-89240000D01*
X105776521Y-89256496D01*
X105561630Y-89321682D01*
X105363586Y-89427539D01*
X105189999Y-89569999D01*
X105047539Y-89743586D01*
X104941682Y-89941630D01*
X104876496Y-90156521D01*
X104854485Y-90380000D01*
X92765000Y-90380000D01*
X92765000Y-90111500D01*
X92692500Y-90039000D01*
X92164000Y-90039000D01*
X91836000Y-90039000D01*
X91307500Y-90039000D01*
X91235000Y-90111500D01*
X79109848Y-90111500D01*
X79058318Y-89941630D01*
X78952461Y-89743586D01*
X78810001Y-89569999D01*
X78636414Y-89427539D01*
X78438370Y-89321682D01*
X78437566Y-89321438D01*
X91235000Y-89321438D01*
X91235000Y-89638500D01*
X91307500Y-89711000D01*
X91836000Y-89711000D01*
X91836000Y-89132500D01*
X92164000Y-89132500D01*
X92164000Y-89711000D01*
X92692500Y-89711000D01*
X92765000Y-89638500D01*
X92765000Y-89321438D01*
X92753856Y-89265411D01*
X92731995Y-89212634D01*
X92700258Y-89165136D01*
X92659865Y-89124743D01*
X92612367Y-89093006D01*
X92559590Y-89071145D01*
X92503563Y-89060000D01*
X92236500Y-89060000D01*
X92164000Y-89132500D01*
X91836000Y-89132500D01*
X91763500Y-89060000D01*
X91496437Y-89060000D01*
X91440410Y-89071145D01*
X91387633Y-89093006D01*
X91340135Y-89124743D01*
X91299742Y-89165136D01*
X91268005Y-89212634D01*
X91246144Y-89265411D01*
X91235000Y-89321438D01*
X78437566Y-89321438D01*
X78223479Y-89256496D01*
X78055994Y-89240000D01*
X77944006Y-89240000D01*
X77776521Y-89256496D01*
X77561630Y-89321682D01*
X77363586Y-89427539D01*
X77189999Y-89569999D01*
X77047539Y-89743586D01*
X76941682Y-89941630D01*
X76876496Y-90156521D01*
X76854485Y-90380000D01*
X75890000Y-90380000D01*
X75890000Y-87840000D01*
X76854485Y-87840000D01*
X76876496Y-88063479D01*
X76941682Y-88278370D01*
X77047539Y-88476414D01*
X77189999Y-88650001D01*
X77363586Y-88792461D01*
X77561630Y-88898318D01*
X77776521Y-88963504D01*
X77944006Y-88980000D01*
X78055994Y-88980000D01*
X78223479Y-88963504D01*
X78438370Y-88898318D01*
X78636414Y-88792461D01*
X78810001Y-88650001D01*
X78952461Y-88476414D01*
X79058318Y-88278370D01*
X79123504Y-88063479D01*
X79145515Y-87840000D01*
X79123504Y-87616521D01*
X79114701Y-87587500D01*
X89233597Y-87587500D01*
X89233597Y-88162500D01*
X89243760Y-88265684D01*
X89273857Y-88364902D01*
X89322733Y-88456343D01*
X89388509Y-88536491D01*
X89468657Y-88602267D01*
X89560098Y-88651143D01*
X89659316Y-88681240D01*
X89762500Y-88691403D01*
X90237500Y-88691403D01*
X90340684Y-88681240D01*
X90439902Y-88651143D01*
X90531343Y-88602267D01*
X90611491Y-88536491D01*
X90677267Y-88456343D01*
X90726143Y-88364902D01*
X90748864Y-88290000D01*
X91233597Y-88290000D01*
X91233597Y-88412500D01*
X91243760Y-88515684D01*
X91273857Y-88614902D01*
X91322733Y-88706343D01*
X91388509Y-88786491D01*
X91468657Y-88852267D01*
X91560098Y-88901143D01*
X91659316Y-88931240D01*
X91762500Y-88941403D01*
X92237500Y-88941403D01*
X92340684Y-88931240D01*
X92439902Y-88901143D01*
X92531343Y-88852267D01*
X92611491Y-88786491D01*
X92677267Y-88706343D01*
X92726143Y-88614902D01*
X92756240Y-88515684D01*
X92766403Y-88412500D01*
X92766403Y-87945495D01*
X92871898Y-87840000D01*
X104854485Y-87840000D01*
X104876496Y-88063479D01*
X104941682Y-88278370D01*
X105047539Y-88476414D01*
X105189999Y-88650001D01*
X105363586Y-88792461D01*
X105561630Y-88898318D01*
X105776521Y-88963504D01*
X105944006Y-88980000D01*
X106055994Y-88980000D01*
X106223479Y-88963504D01*
X106438370Y-88898318D01*
X106636414Y-88792461D01*
X106810001Y-88650001D01*
X106952461Y-88476414D01*
X107058318Y-88278370D01*
X107123504Y-88063479D01*
X107145515Y-87840000D01*
X107123504Y-87616521D01*
X107058318Y-87401630D01*
X106952461Y-87203586D01*
X106810001Y-87029999D01*
X106636414Y-86887539D01*
X106438370Y-86781682D01*
X106223479Y-86716496D01*
X106055994Y-86700000D01*
X105944006Y-86700000D01*
X105776521Y-86716496D01*
X105561630Y-86781682D01*
X105363586Y-86887539D01*
X105189999Y-87029999D01*
X105047539Y-87203586D01*
X104941682Y-87401630D01*
X104876496Y-87616521D01*
X104854485Y-87840000D01*
X92871898Y-87840000D01*
X95411898Y-85300000D01*
X104854485Y-85300000D01*
X104876496Y-85523479D01*
X104941682Y-85738370D01*
X105047539Y-85936414D01*
X105189999Y-86110001D01*
X105363586Y-86252461D01*
X105561630Y-86358318D01*
X105776521Y-86423504D01*
X105944006Y-86440000D01*
X106055994Y-86440000D01*
X106223479Y-86423504D01*
X106438370Y-86358318D01*
X106636414Y-86252461D01*
X106810001Y-86110001D01*
X106952461Y-85936414D01*
X107058318Y-85738370D01*
X107123504Y-85523479D01*
X107145515Y-85300000D01*
X107123504Y-85076521D01*
X107058318Y-84861630D01*
X106952461Y-84663586D01*
X106810001Y-84489999D01*
X106636414Y-84347539D01*
X106438370Y-84241682D01*
X106223479Y-84176496D01*
X106055994Y-84160000D01*
X105944006Y-84160000D01*
X105776521Y-84176496D01*
X105561630Y-84241682D01*
X105363586Y-84347539D01*
X105189999Y-84489999D01*
X105047539Y-84663586D01*
X104941682Y-84861630D01*
X104876496Y-85076521D01*
X104854485Y-85300000D01*
X95411898Y-85300000D01*
X97779039Y-82932860D01*
X97794869Y-82919869D01*
X97807861Y-82904038D01*
X97807865Y-82904034D01*
X97846729Y-82856677D01*
X97885265Y-82784582D01*
X97892721Y-82760000D01*
X104854485Y-82760000D01*
X104876496Y-82983479D01*
X104941682Y-83198370D01*
X105047539Y-83396414D01*
X105189999Y-83570001D01*
X105363586Y-83712461D01*
X105561630Y-83818318D01*
X105776521Y-83883504D01*
X105944006Y-83900000D01*
X106055994Y-83900000D01*
X106223479Y-83883504D01*
X106438370Y-83818318D01*
X106636414Y-83712461D01*
X106810001Y-83570001D01*
X106952461Y-83396414D01*
X107058318Y-83198370D01*
X107123504Y-82983479D01*
X107145515Y-82760000D01*
X107123504Y-82536521D01*
X107058318Y-82321630D01*
X106952461Y-82123586D01*
X106810001Y-81949999D01*
X106636414Y-81807539D01*
X106438370Y-81701682D01*
X106223479Y-81636496D01*
X106055994Y-81620000D01*
X105944006Y-81620000D01*
X105776521Y-81636496D01*
X105561630Y-81701682D01*
X105363586Y-81807539D01*
X105189999Y-81949999D01*
X105047539Y-82123586D01*
X104941682Y-82321630D01*
X104876496Y-82536521D01*
X104854485Y-82760000D01*
X97892721Y-82760000D01*
X97908995Y-82706354D01*
X97917008Y-82625000D01*
X97915000Y-82604613D01*
X97915000Y-80236500D01*
X100060000Y-80236500D01*
X100060000Y-80503563D01*
X100071145Y-80559590D01*
X100093006Y-80612367D01*
X100124743Y-80659865D01*
X100165136Y-80700258D01*
X100212634Y-80731995D01*
X100265411Y-80753856D01*
X100321438Y-80765000D01*
X100638500Y-80765000D01*
X100711000Y-80692500D01*
X100711000Y-80164000D01*
X101039000Y-80164000D01*
X101039000Y-80692500D01*
X101111500Y-80765000D01*
X101428562Y-80765000D01*
X101484589Y-80753856D01*
X101537366Y-80731995D01*
X101584864Y-80700258D01*
X101625257Y-80659865D01*
X101656994Y-80612367D01*
X101678855Y-80559590D01*
X101690000Y-80503563D01*
X101690000Y-80236500D01*
X101617500Y-80164000D01*
X101039000Y-80164000D01*
X100711000Y-80164000D01*
X100132500Y-80164000D01*
X100060000Y-80236500D01*
X97915000Y-80236500D01*
X97915000Y-79496437D01*
X100060000Y-79496437D01*
X100060000Y-79763500D01*
X100132500Y-79836000D01*
X100711000Y-79836000D01*
X100711000Y-79307500D01*
X101039000Y-79307500D01*
X101039000Y-79836000D01*
X101617500Y-79836000D01*
X101690000Y-79763500D01*
X101690000Y-79762500D01*
X101808597Y-79762500D01*
X101808597Y-80237500D01*
X101818760Y-80340684D01*
X101848857Y-80439902D01*
X101897733Y-80531343D01*
X101963509Y-80611491D01*
X102043657Y-80677267D01*
X102135098Y-80726143D01*
X102234316Y-80756240D01*
X102337500Y-80766403D01*
X102912500Y-80766403D01*
X103015684Y-80756240D01*
X103114902Y-80726143D01*
X103206343Y-80677267D01*
X103257845Y-80635000D01*
X104858597Y-80635000D01*
X104858597Y-81070000D01*
X104864196Y-81126850D01*
X104880779Y-81181515D01*
X104907707Y-81231895D01*
X104943947Y-81276053D01*
X104988105Y-81312293D01*
X105038485Y-81339221D01*
X105093150Y-81355804D01*
X105150000Y-81361403D01*
X106850000Y-81361403D01*
X106906850Y-81355804D01*
X106961515Y-81339221D01*
X107011895Y-81312293D01*
X107056053Y-81276053D01*
X107092293Y-81231895D01*
X107119221Y-81181515D01*
X107135804Y-81126850D01*
X107141403Y-81070000D01*
X107141403Y-79370000D01*
X107135804Y-79313150D01*
X107119221Y-79258485D01*
X107092293Y-79208105D01*
X107056053Y-79163947D01*
X107011895Y-79127707D01*
X106961515Y-79100779D01*
X106906850Y-79084196D01*
X106850000Y-79078597D01*
X105150000Y-79078597D01*
X105093150Y-79084196D01*
X105038485Y-79100779D01*
X104988105Y-79127707D01*
X104943947Y-79163947D01*
X104907707Y-79208105D01*
X104880779Y-79258485D01*
X104864196Y-79313150D01*
X104858597Y-79370000D01*
X104858597Y-79805000D01*
X103441403Y-79805000D01*
X103441403Y-79762500D01*
X103431240Y-79659316D01*
X103401143Y-79560098D01*
X103352267Y-79468657D01*
X103286491Y-79388509D01*
X103206343Y-79322733D01*
X103114902Y-79273857D01*
X103015684Y-79243760D01*
X102912500Y-79233597D01*
X102337500Y-79233597D01*
X102234316Y-79243760D01*
X102135098Y-79273857D01*
X102043657Y-79322733D01*
X101963509Y-79388509D01*
X101897733Y-79468657D01*
X101848857Y-79560098D01*
X101818760Y-79659316D01*
X101808597Y-79762500D01*
X101690000Y-79762500D01*
X101690000Y-79496437D01*
X101678855Y-79440410D01*
X101656994Y-79387633D01*
X101625257Y-79340135D01*
X101584864Y-79299742D01*
X101537366Y-79268005D01*
X101484589Y-79246144D01*
X101428562Y-79235000D01*
X101111500Y-79235000D01*
X101039000Y-79307500D01*
X100711000Y-79307500D01*
X100638500Y-79235000D01*
X100321438Y-79235000D01*
X100265411Y-79246144D01*
X100212634Y-79268005D01*
X100165136Y-79299742D01*
X100124743Y-79340135D01*
X100093006Y-79387633D01*
X100071145Y-79440410D01*
X100060000Y-79496437D01*
X97915000Y-79496437D01*
X97915000Y-75224387D01*
X98111044Y-75143183D01*
X98322327Y-75002009D01*
X98396621Y-74927715D01*
X113265193Y-74927715D01*
X113308377Y-75312705D01*
X113425516Y-75681975D01*
X113612150Y-76021460D01*
X113861168Y-76318228D01*
X114163087Y-76560977D01*
X114506406Y-76740460D01*
X114878048Y-76849840D01*
X115263858Y-76884952D01*
X115649140Y-76844457D01*
X116019218Y-76729898D01*
X116359998Y-76545640D01*
X116658498Y-76298699D01*
X116903349Y-75998482D01*
X117085224Y-75656425D01*
X117197196Y-75285555D01*
X117235000Y-74900000D01*
X117234226Y-74844576D01*
X117185671Y-74460226D01*
X117063388Y-74092628D01*
X116872033Y-73755782D01*
X116618895Y-73462519D01*
X116313616Y-73224009D01*
X115967825Y-73049337D01*
X115594692Y-72945157D01*
X115208429Y-72915435D01*
X114823750Y-72961306D01*
X114455307Y-73081020D01*
X114117134Y-73270019D01*
X113822110Y-73521103D01*
X113581475Y-73824709D01*
X113404394Y-74169273D01*
X113297611Y-74541669D01*
X113265193Y-74927715D01*
X98396621Y-74927715D01*
X98502009Y-74822327D01*
X98643183Y-74611044D01*
X98740426Y-74376279D01*
X98790000Y-74127054D01*
X98790000Y-73872946D01*
X98740426Y-73623721D01*
X98643183Y-73388956D01*
X98502009Y-73177673D01*
X98322327Y-72997991D01*
X98111044Y-72856817D01*
X97876279Y-72759574D01*
X97627054Y-72710000D01*
X97372946Y-72710000D01*
X97123721Y-72759574D01*
X96888956Y-72856817D01*
X96677673Y-72997991D01*
X96497991Y-73177673D01*
X96356817Y-73388956D01*
X96259574Y-73623721D01*
X96251403Y-73664799D01*
X96251403Y-73000000D01*
X96245804Y-72943150D01*
X96229221Y-72888485D01*
X96202293Y-72838105D01*
X96166053Y-72793947D01*
X96121895Y-72757707D01*
X96071515Y-72730779D01*
X96016850Y-72714196D01*
X95960000Y-72708597D01*
X93960000Y-72708597D01*
X93903150Y-72714196D01*
X93848485Y-72730779D01*
X93798105Y-72757707D01*
X93753947Y-72793947D01*
X93717707Y-72838105D01*
X93690779Y-72888485D01*
X93674196Y-72943150D01*
X93668597Y-73000000D01*
X93668597Y-75000000D01*
X93674196Y-75056850D01*
X93690779Y-75111515D01*
X93717707Y-75161895D01*
X93753947Y-75206053D01*
X93798105Y-75242293D01*
X93848485Y-75269221D01*
X93903150Y-75285804D01*
X93960000Y-75291403D01*
X95960000Y-75291403D01*
X96016850Y-75285804D01*
X96071515Y-75269221D01*
X96121895Y-75242293D01*
X96166053Y-75206053D01*
X96202293Y-75161895D01*
X96229221Y-75111515D01*
X96245804Y-75056850D01*
X96251403Y-75000000D01*
X96251403Y-74335201D01*
X96259574Y-74376279D01*
X96356817Y-74611044D01*
X96497991Y-74822327D01*
X96677673Y-75002009D01*
X96888956Y-75143183D01*
X97085001Y-75224388D01*
X97085000Y-82453101D01*
X92229505Y-87308597D01*
X91762500Y-87308597D01*
X91659316Y-87318760D01*
X91560098Y-87348857D01*
X91468657Y-87397733D01*
X91392785Y-87460000D01*
X90748864Y-87460000D01*
X90726143Y-87385098D01*
X90677267Y-87293657D01*
X90611491Y-87213509D01*
X90531343Y-87147733D01*
X90439902Y-87098857D01*
X90340684Y-87068760D01*
X90237500Y-87058597D01*
X89762500Y-87058597D01*
X89659316Y-87068760D01*
X89560098Y-87098857D01*
X89468657Y-87147733D01*
X89388509Y-87213509D01*
X89322733Y-87293657D01*
X89273857Y-87385098D01*
X89243760Y-87484316D01*
X89233597Y-87587500D01*
X79114701Y-87587500D01*
X79058318Y-87401630D01*
X78952461Y-87203586D01*
X78810001Y-87029999D01*
X78636414Y-86887539D01*
X78438370Y-86781682D01*
X78223479Y-86716496D01*
X78055994Y-86700000D01*
X77944006Y-86700000D01*
X77776521Y-86716496D01*
X77561630Y-86781682D01*
X77363586Y-86887539D01*
X77189999Y-87029999D01*
X77047539Y-87203586D01*
X76941682Y-87401630D01*
X76876496Y-87616521D01*
X76854485Y-87840000D01*
X75890000Y-87840000D01*
X75890000Y-85300000D01*
X76854485Y-85300000D01*
X76876496Y-85523479D01*
X76941682Y-85738370D01*
X77047539Y-85936414D01*
X77189999Y-86110001D01*
X77363586Y-86252461D01*
X77561630Y-86358318D01*
X77776521Y-86423504D01*
X77944006Y-86440000D01*
X78055994Y-86440000D01*
X78223479Y-86423504D01*
X78438370Y-86358318D01*
X78636414Y-86252461D01*
X78810001Y-86110001D01*
X78952461Y-85936414D01*
X79005331Y-85837500D01*
X89233597Y-85837500D01*
X89233597Y-86412500D01*
X89243760Y-86515684D01*
X89273857Y-86614902D01*
X89322733Y-86706343D01*
X89388509Y-86786491D01*
X89468657Y-86852267D01*
X89560098Y-86901143D01*
X89659316Y-86931240D01*
X89762500Y-86941403D01*
X90237500Y-86941403D01*
X90340684Y-86931240D01*
X90439902Y-86901143D01*
X90531343Y-86852267D01*
X90611491Y-86786491D01*
X90677267Y-86706343D01*
X90726143Y-86614902D01*
X90756240Y-86515684D01*
X90766403Y-86412500D01*
X90766403Y-85837500D01*
X90756240Y-85734316D01*
X90726143Y-85635098D01*
X90677267Y-85543657D01*
X90611491Y-85463509D01*
X90531343Y-85397733D01*
X90465000Y-85362272D01*
X90465000Y-85239926D01*
X90506850Y-85235804D01*
X90561515Y-85219221D01*
X90611895Y-85192293D01*
X90656053Y-85156053D01*
X90692293Y-85111895D01*
X90719221Y-85061515D01*
X90735804Y-85006850D01*
X90741403Y-84950000D01*
X90741403Y-84736500D01*
X91260000Y-84736500D01*
X91260000Y-84978562D01*
X91271144Y-85034589D01*
X91293005Y-85087366D01*
X91324742Y-85134864D01*
X91365135Y-85175257D01*
X91412633Y-85206994D01*
X91465410Y-85228855D01*
X91521437Y-85240000D01*
X91713500Y-85240000D01*
X91786000Y-85167500D01*
X91786000Y-84664000D01*
X92114000Y-84664000D01*
X92114000Y-85167500D01*
X92186500Y-85240000D01*
X92378563Y-85240000D01*
X92434590Y-85228855D01*
X92487367Y-85206994D01*
X92534865Y-85175257D01*
X92575258Y-85134864D01*
X92606995Y-85087366D01*
X92628856Y-85034589D01*
X92640000Y-84978562D01*
X92640000Y-84736500D01*
X92567500Y-84664000D01*
X92114000Y-84664000D01*
X91786000Y-84664000D01*
X91332500Y-84664000D01*
X91260000Y-84736500D01*
X90741403Y-84736500D01*
X90741403Y-84050000D01*
X90738591Y-84021438D01*
X91260000Y-84021438D01*
X91260000Y-84263500D01*
X91332500Y-84336000D01*
X91786000Y-84336000D01*
X91786000Y-83832500D01*
X92114000Y-83832500D01*
X92114000Y-84336000D01*
X92567500Y-84336000D01*
X92640000Y-84263500D01*
X92640000Y-84021438D01*
X92628856Y-83965411D01*
X92606995Y-83912634D01*
X92575258Y-83865136D01*
X92534865Y-83824743D01*
X92487367Y-83793006D01*
X92434590Y-83771145D01*
X92378563Y-83760000D01*
X92186500Y-83760000D01*
X92114000Y-83832500D01*
X91786000Y-83832500D01*
X91713500Y-83760000D01*
X91521437Y-83760000D01*
X91465410Y-83771145D01*
X91412633Y-83793006D01*
X91365135Y-83824743D01*
X91324742Y-83865136D01*
X91293005Y-83912634D01*
X91271144Y-83965411D01*
X91260000Y-84021438D01*
X90738591Y-84021438D01*
X90735804Y-83993150D01*
X90719221Y-83938485D01*
X90692293Y-83888105D01*
X90656053Y-83843947D01*
X90611895Y-83807707D01*
X90561515Y-83780779D01*
X90506850Y-83764196D01*
X90450000Y-83758597D01*
X89650000Y-83758597D01*
X89593150Y-83764196D01*
X89538485Y-83780779D01*
X89488105Y-83807707D01*
X89443947Y-83843947D01*
X89407707Y-83888105D01*
X89380779Y-83938485D01*
X89364196Y-83993150D01*
X89358597Y-84050000D01*
X89358597Y-84950000D01*
X89364196Y-85006850D01*
X89380779Y-85061515D01*
X89407707Y-85111895D01*
X89443947Y-85156053D01*
X89488105Y-85192293D01*
X89538485Y-85219221D01*
X89593150Y-85235804D01*
X89635000Y-85239926D01*
X89635001Y-85326136D01*
X89560098Y-85348857D01*
X89468657Y-85397733D01*
X89388509Y-85463509D01*
X89322733Y-85543657D01*
X89273857Y-85635098D01*
X89243760Y-85734316D01*
X89233597Y-85837500D01*
X79005331Y-85837500D01*
X79058318Y-85738370D01*
X79123504Y-85523479D01*
X79145515Y-85300000D01*
X79123504Y-85076521D01*
X79058318Y-84861630D01*
X78952461Y-84663586D01*
X78810001Y-84489999D01*
X78636414Y-84347539D01*
X78438370Y-84241682D01*
X78223479Y-84176496D01*
X78055994Y-84160000D01*
X77944006Y-84160000D01*
X77776521Y-84176496D01*
X77561630Y-84241682D01*
X77363586Y-84347539D01*
X77189999Y-84489999D01*
X77047539Y-84663586D01*
X76941682Y-84861630D01*
X76876496Y-85076521D01*
X76854485Y-85300000D01*
X75890000Y-85300000D01*
X75890000Y-83098461D01*
X76911403Y-83098461D01*
X76990912Y-83290432D01*
X77113783Y-83477103D01*
X77270711Y-83636216D01*
X77455665Y-83761657D01*
X77661538Y-83848605D01*
X77836000Y-83815650D01*
X77836000Y-82924000D01*
X78164000Y-82924000D01*
X78164000Y-83815650D01*
X78338462Y-83848605D01*
X78544335Y-83761657D01*
X78729289Y-83636216D01*
X78886217Y-83477103D01*
X79009088Y-83290432D01*
X79088597Y-83098461D01*
X79054827Y-82924000D01*
X78164000Y-82924000D01*
X77836000Y-82924000D01*
X76945173Y-82924000D01*
X76911403Y-83098461D01*
X75890000Y-83098461D01*
X75890000Y-82421539D01*
X76911403Y-82421539D01*
X76945173Y-82596000D01*
X77836000Y-82596000D01*
X77836000Y-81704350D01*
X78164000Y-81704350D01*
X78164000Y-82596000D01*
X79054827Y-82596000D01*
X79088597Y-82421539D01*
X79009088Y-82229568D01*
X78886217Y-82042897D01*
X78729289Y-81883784D01*
X78544335Y-81758343D01*
X78338462Y-81671395D01*
X78164000Y-81704350D01*
X77836000Y-81704350D01*
X77661538Y-81671395D01*
X77455665Y-81758343D01*
X77270711Y-81883784D01*
X77113783Y-82042897D01*
X76990912Y-82229568D01*
X76911403Y-82421539D01*
X75890000Y-82421539D01*
X75890000Y-79370000D01*
X76858597Y-79370000D01*
X76858597Y-81070000D01*
X76864196Y-81126850D01*
X76880779Y-81181515D01*
X76907707Y-81231895D01*
X76943947Y-81276053D01*
X76988105Y-81312293D01*
X77038485Y-81339221D01*
X77093150Y-81355804D01*
X77150000Y-81361403D01*
X78850000Y-81361403D01*
X78906850Y-81355804D01*
X78961515Y-81339221D01*
X79011895Y-81312293D01*
X79056053Y-81276053D01*
X79092293Y-81231895D01*
X79119221Y-81181515D01*
X79135804Y-81126850D01*
X79141403Y-81070000D01*
X79141403Y-80587500D01*
X90233597Y-80587500D01*
X90233597Y-81162500D01*
X90243760Y-81265684D01*
X90273857Y-81364902D01*
X90322733Y-81456343D01*
X90388509Y-81536491D01*
X90468657Y-81602267D01*
X90560098Y-81651143D01*
X90585000Y-81658697D01*
X90585001Y-81760074D01*
X90543150Y-81764196D01*
X90488485Y-81780779D01*
X90438105Y-81807707D01*
X90393947Y-81843947D01*
X90357707Y-81888105D01*
X90330779Y-81938485D01*
X90314196Y-81993150D01*
X90308597Y-82050000D01*
X90308597Y-82950000D01*
X90314196Y-83006850D01*
X90330779Y-83061515D01*
X90357707Y-83111895D01*
X90393947Y-83156053D01*
X90438105Y-83192293D01*
X90488485Y-83219221D01*
X90543150Y-83235804D01*
X90600000Y-83241403D01*
X91400000Y-83241403D01*
X91456850Y-83235804D01*
X91511515Y-83219221D01*
X91561895Y-83192293D01*
X91606053Y-83156053D01*
X91642293Y-83111895D01*
X91669221Y-83061515D01*
X91685804Y-83006850D01*
X91691403Y-82950000D01*
X91691403Y-82915000D01*
X94979623Y-82915000D01*
X95000000Y-82917007D01*
X95020377Y-82915000D01*
X95020387Y-82915000D01*
X95081354Y-82908995D01*
X95159582Y-82885265D01*
X95231677Y-82846729D01*
X95294869Y-82794869D01*
X95307866Y-82779032D01*
X96152729Y-81934170D01*
X96182041Y-81940000D01*
X96317959Y-81940000D01*
X96451266Y-81913484D01*
X96576838Y-81861470D01*
X96689850Y-81785958D01*
X96785958Y-81689850D01*
X96861470Y-81576838D01*
X96913484Y-81451266D01*
X96940000Y-81317959D01*
X96940000Y-81182041D01*
X96913484Y-81048734D01*
X96861470Y-80923162D01*
X96785958Y-80810150D01*
X96689850Y-80714042D01*
X96576838Y-80638530D01*
X96451266Y-80586516D01*
X96317959Y-80560000D01*
X96182041Y-80560000D01*
X96048734Y-80586516D01*
X95923162Y-80638530D01*
X95810150Y-80714042D01*
X95714042Y-80810150D01*
X95638530Y-80923162D01*
X95586516Y-81048734D01*
X95560000Y-81182041D01*
X95560000Y-81317959D01*
X95565830Y-81347271D01*
X94828102Y-82085000D01*
X91691403Y-82085000D01*
X91691403Y-82050000D01*
X91685804Y-81993150D01*
X91669221Y-81938485D01*
X91642293Y-81888105D01*
X91606053Y-81843947D01*
X91561895Y-81807707D01*
X91511515Y-81780779D01*
X91456850Y-81764196D01*
X91415000Y-81760074D01*
X91415000Y-81658697D01*
X91439902Y-81651143D01*
X91531343Y-81602267D01*
X91611491Y-81536491D01*
X91677267Y-81456343D01*
X91726143Y-81364902D01*
X91756240Y-81265684D01*
X91766403Y-81162500D01*
X91766403Y-80587500D01*
X91756240Y-80484316D01*
X91726143Y-80385098D01*
X91677267Y-80293657D01*
X91611491Y-80213509D01*
X91531343Y-80147733D01*
X91439902Y-80098857D01*
X91340684Y-80068760D01*
X91237500Y-80058597D01*
X90762500Y-80058597D01*
X90659316Y-80068760D01*
X90560098Y-80098857D01*
X90468657Y-80147733D01*
X90388509Y-80213509D01*
X90322733Y-80293657D01*
X90273857Y-80385098D01*
X90243760Y-80484316D01*
X90233597Y-80587500D01*
X79141403Y-80587500D01*
X79141403Y-79370000D01*
X79135804Y-79313150D01*
X79119221Y-79258485D01*
X79092293Y-79208105D01*
X79070903Y-79182041D01*
X86060000Y-79182041D01*
X86060000Y-79317959D01*
X86086516Y-79451266D01*
X86138530Y-79576838D01*
X86214042Y-79689850D01*
X86310150Y-79785958D01*
X86423162Y-79861470D01*
X86548734Y-79913484D01*
X86682041Y-79940000D01*
X86817959Y-79940000D01*
X86951266Y-79913484D01*
X87076838Y-79861470D01*
X87189850Y-79785958D01*
X87285958Y-79689850D01*
X87302562Y-79665000D01*
X90300635Y-79665000D01*
X90322733Y-79706343D01*
X90388509Y-79786491D01*
X90468657Y-79852267D01*
X90560098Y-79901143D01*
X90659316Y-79931240D01*
X90762500Y-79941403D01*
X91237500Y-79941403D01*
X91340684Y-79931240D01*
X91439902Y-79901143D01*
X91531343Y-79852267D01*
X91611491Y-79786491D01*
X91677267Y-79706343D01*
X91726143Y-79614902D01*
X91756240Y-79515684D01*
X91766403Y-79412500D01*
X91766403Y-78837500D01*
X91756240Y-78734316D01*
X91726143Y-78635098D01*
X91677267Y-78543657D01*
X91611491Y-78463509D01*
X91531343Y-78397733D01*
X91439902Y-78348857D01*
X91340684Y-78318760D01*
X91237500Y-78308597D01*
X90762500Y-78308597D01*
X90659316Y-78318760D01*
X90560098Y-78348857D01*
X90468657Y-78397733D01*
X90388509Y-78463509D01*
X90322733Y-78543657D01*
X90273857Y-78635098D01*
X90243760Y-78734316D01*
X90233843Y-78835000D01*
X87302562Y-78835000D01*
X87285958Y-78810150D01*
X87189850Y-78714042D01*
X87076838Y-78638530D01*
X86951266Y-78586516D01*
X86817959Y-78560000D01*
X86682041Y-78560000D01*
X86548734Y-78586516D01*
X86423162Y-78638530D01*
X86310150Y-78714042D01*
X86214042Y-78810150D01*
X86138530Y-78923162D01*
X86086516Y-79048734D01*
X86060000Y-79182041D01*
X79070903Y-79182041D01*
X79056053Y-79163947D01*
X79011895Y-79127707D01*
X78961515Y-79100779D01*
X78906850Y-79084196D01*
X78850000Y-79078597D01*
X77150000Y-79078597D01*
X77093150Y-79084196D01*
X77038485Y-79100779D01*
X76988105Y-79127707D01*
X76943947Y-79163947D01*
X76907707Y-79208105D01*
X76880779Y-79258485D01*
X76864196Y-79313150D01*
X76858597Y-79370000D01*
X75890000Y-79370000D01*
X75890000Y-74927715D01*
X82765193Y-74927715D01*
X82808377Y-75312705D01*
X82925516Y-75681975D01*
X83112150Y-76021460D01*
X83361168Y-76318228D01*
X83663087Y-76560977D01*
X84006406Y-76740460D01*
X84378048Y-76849840D01*
X84763858Y-76884952D01*
X85149140Y-76844457D01*
X85519218Y-76729898D01*
X85859998Y-76545640D01*
X86158498Y-76298699D01*
X86403349Y-75998482D01*
X86585224Y-75656425D01*
X86697196Y-75285555D01*
X86735000Y-74900000D01*
X86734226Y-74844576D01*
X86685671Y-74460226D01*
X86563388Y-74092628D01*
X86372033Y-73755782D01*
X86118895Y-73462519D01*
X85813616Y-73224009D01*
X85467825Y-73049337D01*
X85094692Y-72945157D01*
X84708429Y-72915435D01*
X84323750Y-72961306D01*
X83955307Y-73081020D01*
X83617134Y-73270019D01*
X83322110Y-73521103D01*
X83081475Y-73824709D01*
X82904394Y-74169273D01*
X82797611Y-74541669D01*
X82765193Y-74927715D01*
X75890000Y-74927715D01*
X75890000Y-71377267D01*
X94120000Y-71377267D01*
X94120000Y-71542733D01*
X94152281Y-71705019D01*
X94215602Y-71857889D01*
X94307530Y-71995469D01*
X94424531Y-72112470D01*
X94562111Y-72204398D01*
X94714981Y-72267719D01*
X94877267Y-72300000D01*
X95042733Y-72300000D01*
X95205019Y-72267719D01*
X95357889Y-72204398D01*
X95495469Y-72112470D01*
X95612470Y-71995469D01*
X95704398Y-71857889D01*
X95767719Y-71705019D01*
X95800000Y-71542733D01*
X95800000Y-71377267D01*
X96660000Y-71377267D01*
X96660000Y-71542733D01*
X96692281Y-71705019D01*
X96755602Y-71857889D01*
X96847530Y-71995469D01*
X96964531Y-72112470D01*
X97102111Y-72204398D01*
X97254981Y-72267719D01*
X97417267Y-72300000D01*
X97582733Y-72300000D01*
X97745019Y-72267719D01*
X97897889Y-72204398D01*
X98035469Y-72112470D01*
X98119875Y-72028064D01*
X102490196Y-72028064D01*
X102533923Y-72417902D01*
X102652538Y-72791823D01*
X102841522Y-73135584D01*
X103093677Y-73436090D01*
X103399398Y-73681896D01*
X103747041Y-73863640D01*
X104123364Y-73974397D01*
X104514032Y-74009951D01*
X104904167Y-73968946D01*
X105278906Y-73852945D01*
X105623978Y-73666366D01*
X105926237Y-73416315D01*
X106174172Y-73112317D01*
X106358338Y-72765951D01*
X106471720Y-72390411D01*
X106510000Y-72000000D01*
X106509216Y-71943878D01*
X106460050Y-71554688D01*
X106336226Y-71182459D01*
X106142461Y-70841371D01*
X105886135Y-70544415D01*
X105577012Y-70302901D01*
X105226865Y-70126029D01*
X104849033Y-70020536D01*
X104457906Y-69990441D01*
X104068382Y-70036889D01*
X103695298Y-70158111D01*
X103352866Y-70349490D01*
X103054127Y-70603737D01*
X102810461Y-70911166D01*
X102631149Y-71260070D01*
X102523021Y-71637157D01*
X102490196Y-72028064D01*
X98119875Y-72028064D01*
X98152470Y-71995469D01*
X98244398Y-71857889D01*
X98307719Y-71705019D01*
X98340000Y-71542733D01*
X98340000Y-71377267D01*
X98307719Y-71214981D01*
X98244398Y-71062111D01*
X98152470Y-70924531D01*
X98035469Y-70807530D01*
X97897889Y-70715602D01*
X97745019Y-70652281D01*
X97582733Y-70620000D01*
X97417267Y-70620000D01*
X97254981Y-70652281D01*
X97102111Y-70715602D01*
X96964531Y-70807530D01*
X96847530Y-70924531D01*
X96755602Y-71062111D01*
X96692281Y-71214981D01*
X96660000Y-71377267D01*
X95800000Y-71377267D01*
X95767719Y-71214981D01*
X95704398Y-71062111D01*
X95612470Y-70924531D01*
X95495469Y-70807530D01*
X95357889Y-70715602D01*
X95205019Y-70652281D01*
X95042733Y-70620000D01*
X94877267Y-70620000D01*
X94714981Y-70652281D01*
X94562111Y-70715602D01*
X94424531Y-70807530D01*
X94307530Y-70924531D01*
X94215602Y-71062111D01*
X94152281Y-71214981D01*
X94120000Y-71377267D01*
X75890000Y-71377267D01*
X75890000Y-71019078D01*
X75941543Y-70493411D01*
X76088664Y-70006120D01*
X76327633Y-69556683D01*
X76649347Y-69162223D01*
X77041554Y-68837761D01*
X77489309Y-68595661D01*
X77975559Y-68445141D01*
X78500174Y-68390002D01*
X78500785Y-68390000D01*
X115980922Y-68390000D01*
X116506589Y-68441543D01*
X116506589Y-68441543D01*
G37*
X116506589Y-68441543D02*
X116993880Y-68588664D01*
X117443317Y-68827633D01*
X117837777Y-69149347D01*
X118162239Y-69541554D01*
X118404339Y-69989309D01*
X118554859Y-70475559D01*
X118609998Y-71000174D01*
X118610000Y-71000785D01*
X118610001Y-125980913D01*
X118558457Y-126506589D01*
X118411336Y-126993880D01*
X118172366Y-127443319D01*
X117850651Y-127837780D01*
X117458449Y-128162237D01*
X117010693Y-128404337D01*
X116524441Y-128554859D01*
X115999826Y-128609998D01*
X115999215Y-128610000D01*
X78519077Y-128610000D01*
X77993411Y-128558457D01*
X77506120Y-128411336D01*
X77056681Y-128172366D01*
X76662220Y-127850651D01*
X76337763Y-127458449D01*
X76095663Y-127010693D01*
X75945141Y-126524441D01*
X75890002Y-125999826D01*
X75890000Y-125999215D01*
X75890000Y-124028064D01*
X77490196Y-124028064D01*
X77533923Y-124417902D01*
X77652538Y-124791823D01*
X77841522Y-125135584D01*
X78093677Y-125436090D01*
X78399398Y-125681896D01*
X78747041Y-125863640D01*
X79123364Y-125974397D01*
X79514032Y-126009951D01*
X79904167Y-125968946D01*
X80278906Y-125852945D01*
X80623978Y-125666366D01*
X80926237Y-125416315D01*
X81161613Y-125127715D01*
X82765193Y-125127715D01*
X82808377Y-125512705D01*
X82925516Y-125881975D01*
X83112150Y-126221460D01*
X83361168Y-126518228D01*
X83663087Y-126760977D01*
X84006406Y-126940460D01*
X84378048Y-127049840D01*
X84763858Y-127084952D01*
X85149140Y-127044457D01*
X85519218Y-126929898D01*
X85859998Y-126745640D01*
X86158498Y-126498699D01*
X86403349Y-126198482D01*
X86585224Y-125856425D01*
X86697196Y-125485555D01*
X86735000Y-125100000D01*
X86734226Y-125044576D01*
X86685671Y-124660226D01*
X86563388Y-124292628D01*
X86556305Y-124280158D01*
X94340211Y-124280158D01*
X94387201Y-124699089D01*
X94514668Y-125100915D01*
X94717755Y-125470329D01*
X94988727Y-125793261D01*
X95317263Y-126057411D01*
X95690850Y-126252717D01*
X96095256Y-126371740D01*
X96515080Y-126409947D01*
X96934328Y-126365883D01*
X97337034Y-126241224D01*
X97707857Y-126040721D01*
X98032673Y-125772010D01*
X98299110Y-125445326D01*
X98497019Y-125073112D01*
X98618863Y-124669546D01*
X98657042Y-124280158D01*
X101340211Y-124280158D01*
X101387201Y-124699089D01*
X101514668Y-125100915D01*
X101717755Y-125470329D01*
X101988727Y-125793261D01*
X102317263Y-126057411D01*
X102690850Y-126252717D01*
X103095256Y-126371740D01*
X103515080Y-126409947D01*
X103934328Y-126365883D01*
X104337034Y-126241224D01*
X104707857Y-126040721D01*
X105032673Y-125772010D01*
X105299110Y-125445326D01*
X105467986Y-125127715D01*
X113265193Y-125127715D01*
X113308377Y-125512705D01*
X113425516Y-125881975D01*
X113612150Y-126221460D01*
X113861168Y-126518228D01*
X114163087Y-126760977D01*
X114506406Y-126940460D01*
X114878048Y-127049840D01*
X115263858Y-127084952D01*
X115649140Y-127044457D01*
X116019218Y-126929898D01*
X116359998Y-126745640D01*
X116658498Y-126498699D01*
X116903349Y-126198482D01*
X117085224Y-125856425D01*
X117197196Y-125485555D01*
X117235000Y-125100000D01*
X117234226Y-125044576D01*
X117185671Y-124660226D01*
X117063388Y-124292628D01*
X116872033Y-123955782D01*
X116618895Y-123662519D01*
X116313616Y-123424009D01*
X115967825Y-123249337D01*
X115594692Y-123145157D01*
X115208429Y-123115435D01*
X114823750Y-123161306D01*
X114455307Y-123281020D01*
X114117134Y-123470019D01*
X113822110Y-123721103D01*
X113581475Y-124024709D01*
X113404394Y-124369273D01*
X113297611Y-124741669D01*
X113265193Y-125127715D01*
X105467986Y-125127715D01*
X105497019Y-125073112D01*
X105618863Y-124669546D01*
X105660000Y-124250000D01*
X105659158Y-124189689D01*
X105606323Y-123771455D01*
X105473258Y-123371449D01*
X105265033Y-123004906D01*
X104989578Y-122685789D01*
X104657386Y-122426252D01*
X104281109Y-122236181D01*
X103875080Y-122122815D01*
X103454764Y-122090474D01*
X103036172Y-122140388D01*
X102635246Y-122270657D01*
X102267259Y-122476318D01*
X101946226Y-122749538D01*
X101684376Y-123079910D01*
X101491683Y-123454851D01*
X101375486Y-123860079D01*
X101340211Y-124280158D01*
X98657042Y-124280158D01*
X98660000Y-124250000D01*
X98659158Y-124189689D01*
X98606323Y-123771455D01*
X98473258Y-123371449D01*
X98265033Y-123004906D01*
X97989578Y-122685789D01*
X97657386Y-122426252D01*
X97281109Y-122236181D01*
X96875080Y-122122815D01*
X96454764Y-122090474D01*
X96036172Y-122140388D01*
X95635246Y-122270657D01*
X95267259Y-122476318D01*
X94946226Y-122749538D01*
X94684376Y-123079910D01*
X94491683Y-123454851D01*
X94375486Y-123860079D01*
X94340211Y-124280158D01*
X86556305Y-124280158D01*
X86372033Y-123955782D01*
X86118895Y-123662519D01*
X85813616Y-123424009D01*
X85467825Y-123249337D01*
X85094692Y-123145157D01*
X84708429Y-123115435D01*
X84323750Y-123161306D01*
X83955307Y-123281020D01*
X83617134Y-123470019D01*
X83322110Y-123721103D01*
X83081475Y-124024709D01*
X82904394Y-124369273D01*
X82797611Y-124741669D01*
X82765193Y-125127715D01*
X81161613Y-125127715D01*
X81174172Y-125112317D01*
X81358338Y-124765951D01*
X81471720Y-124390411D01*
X81510000Y-124000000D01*
X81509216Y-123943878D01*
X81460050Y-123554688D01*
X81336226Y-123182459D01*
X81142461Y-122841371D01*
X80886135Y-122544415D01*
X80577012Y-122302901D01*
X80226865Y-122126029D01*
X79849033Y-122020536D01*
X79457906Y-121990441D01*
X79068382Y-122036889D01*
X78695298Y-122158111D01*
X78352866Y-122349490D01*
X78054127Y-122603737D01*
X77810461Y-122911166D01*
X77631149Y-123260070D01*
X77523021Y-123637157D01*
X77490196Y-124028064D01*
X75890000Y-124028064D01*
X75890000Y-115780000D01*
X76854485Y-115780000D01*
X76876496Y-116003479D01*
X76941682Y-116218370D01*
X77047539Y-116416414D01*
X77189999Y-116590001D01*
X77363586Y-116732461D01*
X77561630Y-116838318D01*
X77776521Y-116903504D01*
X77944006Y-116920000D01*
X78055994Y-116920000D01*
X78223479Y-116903504D01*
X78438370Y-116838318D01*
X78636414Y-116732461D01*
X78810001Y-116590001D01*
X78952461Y-116416414D01*
X79058318Y-116218370D01*
X79123504Y-116003479D01*
X79145515Y-115780000D01*
X104854485Y-115780000D01*
X104876496Y-116003479D01*
X104941682Y-116218370D01*
X105047539Y-116416414D01*
X105189999Y-116590001D01*
X105363586Y-116732461D01*
X105561630Y-116838318D01*
X105776521Y-116903504D01*
X105944006Y-116920000D01*
X106055994Y-116920000D01*
X106223479Y-116903504D01*
X106438370Y-116838318D01*
X106636414Y-116732461D01*
X106810001Y-116590001D01*
X106952461Y-116416414D01*
X107058318Y-116218370D01*
X107123504Y-116003479D01*
X107145515Y-115780000D01*
X107123504Y-115556521D01*
X107058318Y-115341630D01*
X106952461Y-115143586D01*
X106810001Y-114969999D01*
X106636414Y-114827539D01*
X106438370Y-114721682D01*
X106223479Y-114656496D01*
X106055994Y-114640000D01*
X105944006Y-114640000D01*
X105776521Y-114656496D01*
X105561630Y-114721682D01*
X105363586Y-114827539D01*
X105189999Y-114969999D01*
X105047539Y-115143586D01*
X104941682Y-115341630D01*
X104876496Y-115556521D01*
X104854485Y-115780000D01*
X79145515Y-115780000D01*
X79142979Y-115754249D01*
X81318767Y-113578461D01*
X104911403Y-113578461D01*
X104990912Y-113770432D01*
X105113783Y-113957103D01*
X105270711Y-114116216D01*
X105455665Y-114241657D01*
X105661538Y-114328605D01*
X105836000Y-114295650D01*
X105836000Y-113404000D01*
X106164000Y-113404000D01*
X106164000Y-114295650D01*
X106338462Y-114328605D01*
X106544335Y-114241657D01*
X106729289Y-114116216D01*
X106886217Y-113957103D01*
X107009088Y-113770432D01*
X107088597Y-113578461D01*
X107054827Y-113404000D01*
X106164000Y-113404000D01*
X105836000Y-113404000D01*
X104945173Y-113404000D01*
X104911403Y-113578461D01*
X81318767Y-113578461D01*
X81995689Y-112901539D01*
X104911403Y-112901539D01*
X104945173Y-113076000D01*
X105836000Y-113076000D01*
X105836000Y-112184350D01*
X106164000Y-112184350D01*
X106164000Y-113076000D01*
X107054827Y-113076000D01*
X107088597Y-112901539D01*
X107009088Y-112709568D01*
X106886217Y-112522897D01*
X106729289Y-112363784D01*
X106544335Y-112238343D01*
X106338462Y-112151395D01*
X106164000Y-112184350D01*
X105836000Y-112184350D01*
X105661538Y-112151395D01*
X105455665Y-112238343D01*
X105270711Y-112363784D01*
X105113783Y-112522897D01*
X104990912Y-112709568D01*
X104911403Y-112901539D01*
X81995689Y-112901539D01*
X84439961Y-110457267D01*
X97890000Y-110457267D01*
X97890000Y-110622733D01*
X97922281Y-110785019D01*
X97985602Y-110937889D01*
X98077530Y-111075469D01*
X98194531Y-111192470D01*
X98332111Y-111284398D01*
X98484981Y-111347719D01*
X98647267Y-111380000D01*
X98812733Y-111380000D01*
X98975019Y-111347719D01*
X99127889Y-111284398D01*
X99265469Y-111192470D01*
X99382470Y-111075469D01*
X99474398Y-110937889D01*
X99537719Y-110785019D01*
X99570000Y-110622733D01*
X99570000Y-110457267D01*
X100430000Y-110457267D01*
X100430000Y-110622733D01*
X100462281Y-110785019D01*
X100525602Y-110937889D01*
X100617530Y-111075469D01*
X100734531Y-111192470D01*
X100872111Y-111284398D01*
X101024981Y-111347719D01*
X101187267Y-111380000D01*
X101352733Y-111380000D01*
X101515019Y-111347719D01*
X101667889Y-111284398D01*
X101805469Y-111192470D01*
X101922470Y-111075469D01*
X102014398Y-110937889D01*
X102077719Y-110785019D01*
X102094630Y-110700000D01*
X104854485Y-110700000D01*
X104876496Y-110923479D01*
X104941682Y-111138370D01*
X105047539Y-111336414D01*
X105189999Y-111510001D01*
X105363586Y-111652461D01*
X105561630Y-111758318D01*
X105776521Y-111823504D01*
X105944006Y-111840000D01*
X106055994Y-111840000D01*
X106223479Y-111823504D01*
X106438370Y-111758318D01*
X106636414Y-111652461D01*
X106810001Y-111510001D01*
X106952461Y-111336414D01*
X107058318Y-111138370D01*
X107123504Y-110923479D01*
X107145515Y-110700000D01*
X107123504Y-110476521D01*
X107058318Y-110261630D01*
X106952461Y-110063586D01*
X106810001Y-109889999D01*
X106636414Y-109747539D01*
X106438370Y-109641682D01*
X106223479Y-109576496D01*
X106055994Y-109560000D01*
X105944006Y-109560000D01*
X105776521Y-109576496D01*
X105561630Y-109641682D01*
X105363586Y-109747539D01*
X105189999Y-109889999D01*
X105047539Y-110063586D01*
X104941682Y-110261630D01*
X104876496Y-110476521D01*
X104854485Y-110700000D01*
X102094630Y-110700000D01*
X102110000Y-110622733D01*
X102110000Y-110457267D01*
X102077719Y-110294981D01*
X102014398Y-110142111D01*
X101922470Y-110004531D01*
X101805469Y-109887530D01*
X101667889Y-109795602D01*
X101515019Y-109732281D01*
X101352733Y-109700000D01*
X101187267Y-109700000D01*
X101024981Y-109732281D01*
X100872111Y-109795602D01*
X100734531Y-109887530D01*
X100617530Y-110004531D01*
X100525602Y-110142111D01*
X100462281Y-110294981D01*
X100430000Y-110457267D01*
X99570000Y-110457267D01*
X99537719Y-110294981D01*
X99474398Y-110142111D01*
X99382470Y-110004531D01*
X99265469Y-109887530D01*
X99127889Y-109795602D01*
X98975019Y-109732281D01*
X98812733Y-109700000D01*
X98647267Y-109700000D01*
X98484981Y-109732281D01*
X98332111Y-109795602D01*
X98194531Y-109887530D01*
X98077530Y-110004531D01*
X97985602Y-110142111D01*
X97922281Y-110294981D01*
X97890000Y-110457267D01*
X84439961Y-110457267D01*
X86107229Y-108790000D01*
X97706391Y-108790000D01*
X97727991Y-108822327D01*
X97907673Y-109002009D01*
X98118956Y-109143183D01*
X98353721Y-109240426D01*
X98602946Y-109290000D01*
X98857054Y-109290000D01*
X99106279Y-109240426D01*
X99341044Y-109143183D01*
X99552327Y-109002009D01*
X99732009Y-108822327D01*
X99873183Y-108611044D01*
X99970426Y-108376279D01*
X99980000Y-108328147D01*
X99980000Y-109028563D01*
X99991145Y-109084590D01*
X100013006Y-109137367D01*
X100044743Y-109184865D01*
X100085136Y-109225258D01*
X100132634Y-109256995D01*
X100185411Y-109278856D01*
X100241438Y-109290000D01*
X101033500Y-109290000D01*
X101106000Y-109217500D01*
X101106000Y-108164000D01*
X101434000Y-108164000D01*
X101434000Y-109217500D01*
X101506500Y-109290000D01*
X102298562Y-109290000D01*
X102354589Y-109278856D01*
X102407366Y-109256995D01*
X102454864Y-109225258D01*
X102495257Y-109184865D01*
X102526994Y-109137367D01*
X102548855Y-109084590D01*
X102560000Y-109028563D01*
X102560000Y-108236500D01*
X102487500Y-108164000D01*
X101434000Y-108164000D01*
X101106000Y-108164000D01*
X101086000Y-108164000D01*
X101086000Y-108160000D01*
X104854485Y-108160000D01*
X104876496Y-108383479D01*
X104941682Y-108598370D01*
X105047539Y-108796414D01*
X105189999Y-108970001D01*
X105363586Y-109112461D01*
X105561630Y-109218318D01*
X105776521Y-109283504D01*
X105944006Y-109300000D01*
X106055994Y-109300000D01*
X106223479Y-109283504D01*
X106438370Y-109218318D01*
X106636414Y-109112461D01*
X106810001Y-108970001D01*
X106952461Y-108796414D01*
X107058318Y-108598370D01*
X107123504Y-108383479D01*
X107145515Y-108160000D01*
X107123504Y-107936521D01*
X107058318Y-107721630D01*
X106952461Y-107523586D01*
X106810001Y-107349999D01*
X106636414Y-107207539D01*
X106438370Y-107101682D01*
X106223479Y-107036496D01*
X106055994Y-107020000D01*
X105944006Y-107020000D01*
X105776521Y-107036496D01*
X105561630Y-107101682D01*
X105363586Y-107207539D01*
X105189999Y-107349999D01*
X105047539Y-107523586D01*
X104941682Y-107721630D01*
X104876496Y-107936521D01*
X104854485Y-108160000D01*
X101086000Y-108160000D01*
X101086000Y-107836000D01*
X101106000Y-107836000D01*
X101106000Y-106782500D01*
X101434000Y-106782500D01*
X101434000Y-107836000D01*
X102487500Y-107836000D01*
X102560000Y-107763500D01*
X102560000Y-106971437D01*
X102548855Y-106915410D01*
X102526994Y-106862633D01*
X102495257Y-106815135D01*
X102454864Y-106774742D01*
X102407366Y-106743005D01*
X102354589Y-106721144D01*
X102298562Y-106710000D01*
X101506500Y-106710000D01*
X101434000Y-106782500D01*
X101106000Y-106782500D01*
X101033500Y-106710000D01*
X100241438Y-106710000D01*
X100185411Y-106721144D01*
X100132634Y-106743005D01*
X100085136Y-106774742D01*
X100044743Y-106815135D01*
X100013006Y-106862633D01*
X99991145Y-106915410D01*
X99980000Y-106971437D01*
X99980000Y-107671853D01*
X99970426Y-107623721D01*
X99873183Y-107388956D01*
X99732009Y-107177673D01*
X99552327Y-106997991D01*
X99341044Y-106856817D01*
X99106279Y-106759574D01*
X98857054Y-106710000D01*
X98602946Y-106710000D01*
X98353721Y-106759574D01*
X98118956Y-106856817D01*
X97907673Y-106997991D01*
X97727991Y-107177673D01*
X97706391Y-107210000D01*
X85818806Y-107210000D01*
X85780000Y-107206178D01*
X85741194Y-107210000D01*
X85625133Y-107221431D01*
X85476217Y-107266604D01*
X85338976Y-107339961D01*
X85218683Y-107438683D01*
X85193946Y-107468825D01*
X79087902Y-113574870D01*
X79054827Y-113404000D01*
X78164000Y-113404000D01*
X78164000Y-114295650D01*
X78334849Y-114327923D01*
X78022772Y-114640000D01*
X77944006Y-114640000D01*
X77776521Y-114656496D01*
X77561630Y-114721682D01*
X77363586Y-114827539D01*
X77189999Y-114969999D01*
X77047539Y-115143586D01*
X76941682Y-115341630D01*
X76876496Y-115556521D01*
X76854485Y-115780000D01*
X75890000Y-115780000D01*
X75890000Y-113578461D01*
X76911403Y-113578461D01*
X76990912Y-113770432D01*
X77113783Y-113957103D01*
X77270711Y-114116216D01*
X77455665Y-114241657D01*
X77661538Y-114328605D01*
X77836000Y-114295650D01*
X77836000Y-113404000D01*
X76945173Y-113404000D01*
X76911403Y-113578461D01*
X75890000Y-113578461D01*
X75890000Y-112901539D01*
X76911403Y-112901539D01*
X76945173Y-113076000D01*
X77836000Y-113076000D01*
X77836000Y-112184350D01*
X78164000Y-112184350D01*
X78164000Y-113076000D01*
X79054827Y-113076000D01*
X79088597Y-112901539D01*
X79009088Y-112709568D01*
X78886217Y-112522897D01*
X78729289Y-112363784D01*
X78544335Y-112238343D01*
X78338462Y-112151395D01*
X78164000Y-112184350D01*
X77836000Y-112184350D01*
X77661538Y-112151395D01*
X77455665Y-112238343D01*
X77270711Y-112363784D01*
X77113783Y-112522897D01*
X76990912Y-112709568D01*
X76911403Y-112901539D01*
X75890000Y-112901539D01*
X75890000Y-110700000D01*
X76854485Y-110700000D01*
X76876496Y-110923479D01*
X76941682Y-111138370D01*
X77047539Y-111336414D01*
X77189999Y-111510001D01*
X77363586Y-111652461D01*
X77561630Y-111758318D01*
X77776521Y-111823504D01*
X77944006Y-111840000D01*
X78055994Y-111840000D01*
X78223479Y-111823504D01*
X78438370Y-111758318D01*
X78636414Y-111652461D01*
X78810001Y-111510001D01*
X78952461Y-111336414D01*
X79058318Y-111138370D01*
X79123504Y-110923479D01*
X79145515Y-110700000D01*
X79123504Y-110476521D01*
X79058318Y-110261630D01*
X78952461Y-110063586D01*
X78810001Y-109889999D01*
X78636414Y-109747539D01*
X78438370Y-109641682D01*
X78223479Y-109576496D01*
X78055994Y-109560000D01*
X77944006Y-109560000D01*
X77776521Y-109576496D01*
X77561630Y-109641682D01*
X77363586Y-109747539D01*
X77189999Y-109889999D01*
X77047539Y-110063586D01*
X76941682Y-110261630D01*
X76876496Y-110476521D01*
X76854485Y-110700000D01*
X75890000Y-110700000D01*
X75890000Y-108160000D01*
X76854485Y-108160000D01*
X76876496Y-108383479D01*
X76941682Y-108598370D01*
X77047539Y-108796414D01*
X77189999Y-108970001D01*
X77363586Y-109112461D01*
X77561630Y-109218318D01*
X77776521Y-109283504D01*
X77944006Y-109300000D01*
X78055994Y-109300000D01*
X78223479Y-109283504D01*
X78438370Y-109218318D01*
X78636414Y-109112461D01*
X78810001Y-108970001D01*
X78952461Y-108796414D01*
X79058318Y-108598370D01*
X79123504Y-108383479D01*
X79145515Y-108160000D01*
X79123504Y-107936521D01*
X79058318Y-107721630D01*
X78952461Y-107523586D01*
X78810001Y-107349999D01*
X78636414Y-107207539D01*
X78438370Y-107101682D01*
X78223479Y-107036496D01*
X78055994Y-107020000D01*
X77944006Y-107020000D01*
X77776521Y-107036496D01*
X77561630Y-107101682D01*
X77363586Y-107207539D01*
X77189999Y-107349999D01*
X77047539Y-107523586D01*
X76941682Y-107721630D01*
X76876496Y-107936521D01*
X76854485Y-108160000D01*
X75890000Y-108160000D01*
X75890000Y-105620000D01*
X76854485Y-105620000D01*
X76876496Y-105843479D01*
X76941682Y-106058370D01*
X77047539Y-106256414D01*
X77189999Y-106430001D01*
X77363586Y-106572461D01*
X77561630Y-106678318D01*
X77776521Y-106743504D01*
X77944006Y-106760000D01*
X78055994Y-106760000D01*
X78223479Y-106743504D01*
X78438370Y-106678318D01*
X78636414Y-106572461D01*
X78810001Y-106430001D01*
X78952461Y-106256414D01*
X79058318Y-106058370D01*
X79123504Y-105843479D01*
X79145515Y-105620000D01*
X104854485Y-105620000D01*
X104876496Y-105843479D01*
X104941682Y-106058370D01*
X105047539Y-106256414D01*
X105189999Y-106430001D01*
X105363586Y-106572461D01*
X105561630Y-106678318D01*
X105776521Y-106743504D01*
X105944006Y-106760000D01*
X106055994Y-106760000D01*
X106223479Y-106743504D01*
X106438370Y-106678318D01*
X106636414Y-106572461D01*
X106810001Y-106430001D01*
X106952461Y-106256414D01*
X107058318Y-106058370D01*
X107123504Y-105843479D01*
X107145515Y-105620000D01*
X107123504Y-105396521D01*
X107058318Y-105181630D01*
X106952461Y-104983586D01*
X106810001Y-104809999D01*
X106636414Y-104667539D01*
X106438370Y-104561682D01*
X106223479Y-104496496D01*
X106055994Y-104480000D01*
X105944006Y-104480000D01*
X105776521Y-104496496D01*
X105561630Y-104561682D01*
X105363586Y-104667539D01*
X105189999Y-104809999D01*
X105047539Y-104983586D01*
X104941682Y-105181630D01*
X104876496Y-105396521D01*
X104854485Y-105620000D01*
X79145515Y-105620000D01*
X79123504Y-105396521D01*
X79058318Y-105181630D01*
X78952461Y-104983586D01*
X78810001Y-104809999D01*
X78636414Y-104667539D01*
X78438370Y-104561682D01*
X78223479Y-104496496D01*
X78055994Y-104480000D01*
X77944006Y-104480000D01*
X77776521Y-104496496D01*
X77561630Y-104561682D01*
X77363586Y-104667539D01*
X77189999Y-104809999D01*
X77047539Y-104983586D01*
X76941682Y-105181630D01*
X76876496Y-105396521D01*
X76854485Y-105620000D01*
X75890000Y-105620000D01*
X75890000Y-103418461D01*
X76911403Y-103418461D01*
X76990912Y-103610432D01*
X77113783Y-103797103D01*
X77270711Y-103956216D01*
X77455665Y-104081657D01*
X77661538Y-104168605D01*
X77836000Y-104135650D01*
X77836000Y-103244000D01*
X78164000Y-103244000D01*
X78164000Y-104135650D01*
X78338462Y-104168605D01*
X78544335Y-104081657D01*
X78729289Y-103956216D01*
X78886217Y-103797103D01*
X79009088Y-103610432D01*
X79088597Y-103418461D01*
X79054827Y-103244000D01*
X78164000Y-103244000D01*
X77836000Y-103244000D01*
X76945173Y-103244000D01*
X76911403Y-103418461D01*
X75890000Y-103418461D01*
X75890000Y-103080000D01*
X104854485Y-103080000D01*
X104876496Y-103303479D01*
X104941682Y-103518370D01*
X105047539Y-103716414D01*
X105189999Y-103890001D01*
X105363586Y-104032461D01*
X105561630Y-104138318D01*
X105776521Y-104203504D01*
X105944006Y-104220000D01*
X106055994Y-104220000D01*
X106223479Y-104203504D01*
X106438370Y-104138318D01*
X106636414Y-104032461D01*
X106810001Y-103890001D01*
X106952461Y-103716414D01*
X107058318Y-103518370D01*
X107123504Y-103303479D01*
X107145515Y-103080000D01*
X107123504Y-102856521D01*
X107058318Y-102641630D01*
X106952461Y-102443586D01*
X106810001Y-102269999D01*
X106636414Y-102127539D01*
X106438370Y-102021682D01*
X106223479Y-101956496D01*
X106055994Y-101940000D01*
X105944006Y-101940000D01*
X105776521Y-101956496D01*
X105561630Y-102021682D01*
X105363586Y-102127539D01*
X105189999Y-102269999D01*
X105047539Y-102443586D01*
X104941682Y-102641630D01*
X104876496Y-102856521D01*
X104854485Y-103080000D01*
X75890000Y-103080000D01*
X75890000Y-102741539D01*
X76911403Y-102741539D01*
X76945173Y-102916000D01*
X77836000Y-102916000D01*
X77836000Y-102024350D01*
X78164000Y-102024350D01*
X78164000Y-102916000D01*
X79054827Y-102916000D01*
X79088597Y-102741539D01*
X79009088Y-102549568D01*
X78886217Y-102362897D01*
X78729289Y-102203784D01*
X78544335Y-102078343D01*
X78338462Y-101991395D01*
X78164000Y-102024350D01*
X77836000Y-102024350D01*
X77661538Y-101991395D01*
X77455665Y-102078343D01*
X77270711Y-102203784D01*
X77113783Y-102362897D01*
X76990912Y-102549568D01*
X76911403Y-102741539D01*
X75890000Y-102741539D01*
X75890000Y-100540000D01*
X76854485Y-100540000D01*
X76876496Y-100763479D01*
X76941682Y-100978370D01*
X77047539Y-101176414D01*
X77189999Y-101350001D01*
X77363586Y-101492461D01*
X77561630Y-101598318D01*
X77776521Y-101663504D01*
X77944006Y-101680000D01*
X78055994Y-101680000D01*
X78223479Y-101663504D01*
X78438370Y-101598318D01*
X78636414Y-101492461D01*
X78810001Y-101350001D01*
X78952461Y-101176414D01*
X79058318Y-100978370D01*
X79123504Y-100763479D01*
X79145515Y-100540000D01*
X104854485Y-100540000D01*
X104876496Y-100763479D01*
X104941682Y-100978370D01*
X105047539Y-101176414D01*
X105189999Y-101350001D01*
X105363586Y-101492461D01*
X105561630Y-101598318D01*
X105776521Y-101663504D01*
X105944006Y-101680000D01*
X106055994Y-101680000D01*
X106223479Y-101663504D01*
X106438370Y-101598318D01*
X106636414Y-101492461D01*
X106810001Y-101350001D01*
X106952461Y-101176414D01*
X107058318Y-100978370D01*
X107123504Y-100763479D01*
X107145515Y-100540000D01*
X107123504Y-100316521D01*
X107058318Y-100101630D01*
X106952461Y-99903586D01*
X106810001Y-99729999D01*
X106636414Y-99587539D01*
X106438370Y-99481682D01*
X106223479Y-99416496D01*
X106055994Y-99400000D01*
X105944006Y-99400000D01*
X105776521Y-99416496D01*
X105561630Y-99481682D01*
X105363586Y-99587539D01*
X105189999Y-99729999D01*
X105047539Y-99903586D01*
X104941682Y-100101630D01*
X104876496Y-100316521D01*
X104854485Y-100540000D01*
X79145515Y-100540000D01*
X79123504Y-100316521D01*
X79058318Y-100101630D01*
X78952461Y-99903586D01*
X78810001Y-99729999D01*
X78636414Y-99587539D01*
X78438370Y-99481682D01*
X78223479Y-99416496D01*
X78055994Y-99400000D01*
X77944006Y-99400000D01*
X77776521Y-99416496D01*
X77561630Y-99481682D01*
X77363586Y-99587539D01*
X77189999Y-99729999D01*
X77047539Y-99903586D01*
X76941682Y-100101630D01*
X76876496Y-100316521D01*
X76854485Y-100540000D01*
X75890000Y-100540000D01*
X75890000Y-98000000D01*
X76854485Y-98000000D01*
X76876496Y-98223479D01*
X76941682Y-98438370D01*
X77047539Y-98636414D01*
X77189999Y-98810001D01*
X77363586Y-98952461D01*
X77561630Y-99058318D01*
X77776521Y-99123504D01*
X77944006Y-99140000D01*
X78055994Y-99140000D01*
X78223479Y-99123504D01*
X78438370Y-99058318D01*
X78636414Y-98952461D01*
X78810001Y-98810001D01*
X78952461Y-98636414D01*
X79058318Y-98438370D01*
X79123504Y-98223479D01*
X79145515Y-98000000D01*
X104854485Y-98000000D01*
X104876496Y-98223479D01*
X104941682Y-98438370D01*
X105047539Y-98636414D01*
X105189999Y-98810001D01*
X105363586Y-98952461D01*
X105561630Y-99058318D01*
X105776521Y-99123504D01*
X105944006Y-99140000D01*
X106055994Y-99140000D01*
X106223479Y-99123504D01*
X106438370Y-99058318D01*
X106636414Y-98952461D01*
X106810001Y-98810001D01*
X106952461Y-98636414D01*
X107058318Y-98438370D01*
X107123504Y-98223479D01*
X107145515Y-98000000D01*
X107123504Y-97776521D01*
X107058318Y-97561630D01*
X106952461Y-97363586D01*
X106810001Y-97189999D01*
X106636414Y-97047539D01*
X106438370Y-96941682D01*
X106223479Y-96876496D01*
X106055994Y-96860000D01*
X105944006Y-96860000D01*
X105776521Y-96876496D01*
X105561630Y-96941682D01*
X105363586Y-97047539D01*
X105189999Y-97189999D01*
X105047539Y-97363586D01*
X104941682Y-97561630D01*
X104876496Y-97776521D01*
X104854485Y-98000000D01*
X79145515Y-98000000D01*
X79123504Y-97776521D01*
X79058318Y-97561630D01*
X78952461Y-97363586D01*
X78810001Y-97189999D01*
X78636414Y-97047539D01*
X78438370Y-96941682D01*
X78223479Y-96876496D01*
X78055994Y-96860000D01*
X77944006Y-96860000D01*
X77776521Y-96876496D01*
X77561630Y-96941682D01*
X77363586Y-97047539D01*
X77189999Y-97189999D01*
X77047539Y-97363586D01*
X76941682Y-97561630D01*
X76876496Y-97776521D01*
X76854485Y-98000000D01*
X75890000Y-98000000D01*
X75890000Y-95460000D01*
X76854485Y-95460000D01*
X76876496Y-95683479D01*
X76941682Y-95898370D01*
X77047539Y-96096414D01*
X77189999Y-96270001D01*
X77363586Y-96412461D01*
X77561630Y-96518318D01*
X77776521Y-96583504D01*
X77944006Y-96600000D01*
X78055994Y-96600000D01*
X78223479Y-96583504D01*
X78438370Y-96518318D01*
X78636414Y-96412461D01*
X78810001Y-96270001D01*
X78952461Y-96096414D01*
X79058318Y-95898370D01*
X79088624Y-95798461D01*
X104911403Y-95798461D01*
X104990912Y-95990432D01*
X105113783Y-96177103D01*
X105270711Y-96336216D01*
X105455665Y-96461657D01*
X105661538Y-96548605D01*
X105836000Y-96515650D01*
X105836000Y-95624000D01*
X106164000Y-95624000D01*
X106164000Y-96515650D01*
X106338462Y-96548605D01*
X106544335Y-96461657D01*
X106729289Y-96336216D01*
X106886217Y-96177103D01*
X107009088Y-95990432D01*
X107088597Y-95798461D01*
X107054827Y-95624000D01*
X106164000Y-95624000D01*
X105836000Y-95624000D01*
X104945173Y-95624000D01*
X104911403Y-95798461D01*
X79088624Y-95798461D01*
X79123504Y-95683479D01*
X79145515Y-95460000D01*
X79123504Y-95236521D01*
X79088625Y-95121539D01*
X104911403Y-95121539D01*
X104945173Y-95296000D01*
X105836000Y-95296000D01*
X105836000Y-94404350D01*
X106164000Y-94404350D01*
X106164000Y-95296000D01*
X107054827Y-95296000D01*
X107088597Y-95121539D01*
X107009088Y-94929568D01*
X106886217Y-94742897D01*
X106729289Y-94583784D01*
X106544335Y-94458343D01*
X106338462Y-94371395D01*
X106164000Y-94404350D01*
X105836000Y-94404350D01*
X105661538Y-94371395D01*
X105455665Y-94458343D01*
X105270711Y-94583784D01*
X105113783Y-94742897D01*
X104990912Y-94929568D01*
X104911403Y-95121539D01*
X79088625Y-95121539D01*
X79058318Y-95021630D01*
X78952461Y-94823586D01*
X78810001Y-94649999D01*
X78636414Y-94507539D01*
X78438370Y-94401682D01*
X78223479Y-94336496D01*
X78055994Y-94320000D01*
X77944006Y-94320000D01*
X77776521Y-94336496D01*
X77561630Y-94401682D01*
X77363586Y-94507539D01*
X77189999Y-94649999D01*
X77047539Y-94823586D01*
X76941682Y-95021630D01*
X76876496Y-95236521D01*
X76854485Y-95460000D01*
X75890000Y-95460000D01*
X75890000Y-92920000D01*
X76854485Y-92920000D01*
X76876496Y-93143479D01*
X76941682Y-93358370D01*
X77047539Y-93556414D01*
X77189999Y-93730001D01*
X77363586Y-93872461D01*
X77561630Y-93978318D01*
X77776521Y-94043504D01*
X77944006Y-94060000D01*
X78055994Y-94060000D01*
X78223479Y-94043504D01*
X78438370Y-93978318D01*
X78636414Y-93872461D01*
X78810001Y-93730001D01*
X78952461Y-93556414D01*
X79058318Y-93358370D01*
X79123504Y-93143479D01*
X79145515Y-92920000D01*
X104854485Y-92920000D01*
X104876496Y-93143479D01*
X104941682Y-93358370D01*
X105047539Y-93556414D01*
X105189999Y-93730001D01*
X105363586Y-93872461D01*
X105561630Y-93978318D01*
X105776521Y-94043504D01*
X105944006Y-94060000D01*
X106055994Y-94060000D01*
X106223479Y-94043504D01*
X106438370Y-93978318D01*
X106636414Y-93872461D01*
X106810001Y-93730001D01*
X106952461Y-93556414D01*
X107058318Y-93358370D01*
X107123504Y-93143479D01*
X107145515Y-92920000D01*
X107123504Y-92696521D01*
X107058318Y-92481630D01*
X106952461Y-92283586D01*
X106810001Y-92109999D01*
X106636414Y-91967539D01*
X106438370Y-91861682D01*
X106223479Y-91796496D01*
X106055994Y-91780000D01*
X105944006Y-91780000D01*
X105776521Y-91796496D01*
X105561630Y-91861682D01*
X105363586Y-91967539D01*
X105189999Y-92109999D01*
X105047539Y-92283586D01*
X104941682Y-92481630D01*
X104876496Y-92696521D01*
X104854485Y-92920000D01*
X79145515Y-92920000D01*
X79123504Y-92696521D01*
X79058318Y-92481630D01*
X78952461Y-92283586D01*
X78810001Y-92109999D01*
X78636414Y-91967539D01*
X78438370Y-91861682D01*
X78223479Y-91796496D01*
X78055994Y-91780000D01*
X77944006Y-91780000D01*
X77776521Y-91796496D01*
X77561630Y-91861682D01*
X77363586Y-91967539D01*
X77189999Y-92109999D01*
X77047539Y-92283586D01*
X76941682Y-92481630D01*
X76876496Y-92696521D01*
X76854485Y-92920000D01*
X75890000Y-92920000D01*
X75890000Y-90380000D01*
X76854485Y-90380000D01*
X76876496Y-90603479D01*
X76941682Y-90818370D01*
X77047539Y-91016414D01*
X77189999Y-91190001D01*
X77363586Y-91332461D01*
X77561630Y-91438318D01*
X77776521Y-91503504D01*
X77944006Y-91520000D01*
X78055994Y-91520000D01*
X78223479Y-91503504D01*
X78438370Y-91438318D01*
X78636414Y-91332461D01*
X78810001Y-91190001D01*
X78952461Y-91016414D01*
X79058318Y-90818370D01*
X79123504Y-90603479D01*
X79145515Y-90380000D01*
X79123504Y-90156521D01*
X79109848Y-90111500D01*
X91235000Y-90111500D01*
X91235000Y-90428562D01*
X91246144Y-90484589D01*
X91268005Y-90537366D01*
X91299742Y-90584864D01*
X91340135Y-90625257D01*
X91387633Y-90656994D01*
X91440410Y-90678855D01*
X91496437Y-90690000D01*
X91763500Y-90690000D01*
X91836000Y-90617500D01*
X91836000Y-90039000D01*
X92164000Y-90039000D01*
X92164000Y-90617500D01*
X92236500Y-90690000D01*
X92503563Y-90690000D01*
X92559590Y-90678855D01*
X92612367Y-90656994D01*
X92659865Y-90625257D01*
X92700258Y-90584864D01*
X92731995Y-90537366D01*
X92753856Y-90484589D01*
X92765000Y-90428562D01*
X92765000Y-90380000D01*
X104854485Y-90380000D01*
X104876496Y-90603479D01*
X104941682Y-90818370D01*
X105047539Y-91016414D01*
X105189999Y-91190001D01*
X105363586Y-91332461D01*
X105561630Y-91438318D01*
X105776521Y-91503504D01*
X105944006Y-91520000D01*
X106055994Y-91520000D01*
X106223479Y-91503504D01*
X106438370Y-91438318D01*
X106636414Y-91332461D01*
X106810001Y-91190001D01*
X106952461Y-91016414D01*
X107058318Y-90818370D01*
X107123504Y-90603479D01*
X107145515Y-90380000D01*
X107123504Y-90156521D01*
X107058318Y-89941630D01*
X106952461Y-89743586D01*
X106810001Y-89569999D01*
X106636414Y-89427539D01*
X106438370Y-89321682D01*
X106223479Y-89256496D01*
X106055994Y-89240000D01*
X105944006Y-89240000D01*
X105776521Y-89256496D01*
X105561630Y-89321682D01*
X105363586Y-89427539D01*
X105189999Y-89569999D01*
X105047539Y-89743586D01*
X104941682Y-89941630D01*
X104876496Y-90156521D01*
X104854485Y-90380000D01*
X92765000Y-90380000D01*
X92765000Y-90111500D01*
X92692500Y-90039000D01*
X92164000Y-90039000D01*
X91836000Y-90039000D01*
X91307500Y-90039000D01*
X91235000Y-90111500D01*
X79109848Y-90111500D01*
X79058318Y-89941630D01*
X78952461Y-89743586D01*
X78810001Y-89569999D01*
X78636414Y-89427539D01*
X78438370Y-89321682D01*
X78437566Y-89321438D01*
X91235000Y-89321438D01*
X91235000Y-89638500D01*
X91307500Y-89711000D01*
X91836000Y-89711000D01*
X91836000Y-89132500D01*
X92164000Y-89132500D01*
X92164000Y-89711000D01*
X92692500Y-89711000D01*
X92765000Y-89638500D01*
X92765000Y-89321438D01*
X92753856Y-89265411D01*
X92731995Y-89212634D01*
X92700258Y-89165136D01*
X92659865Y-89124743D01*
X92612367Y-89093006D01*
X92559590Y-89071145D01*
X92503563Y-89060000D01*
X92236500Y-89060000D01*
X92164000Y-89132500D01*
X91836000Y-89132500D01*
X91763500Y-89060000D01*
X91496437Y-89060000D01*
X91440410Y-89071145D01*
X91387633Y-89093006D01*
X91340135Y-89124743D01*
X91299742Y-89165136D01*
X91268005Y-89212634D01*
X91246144Y-89265411D01*
X91235000Y-89321438D01*
X78437566Y-89321438D01*
X78223479Y-89256496D01*
X78055994Y-89240000D01*
X77944006Y-89240000D01*
X77776521Y-89256496D01*
X77561630Y-89321682D01*
X77363586Y-89427539D01*
X77189999Y-89569999D01*
X77047539Y-89743586D01*
X76941682Y-89941630D01*
X76876496Y-90156521D01*
X76854485Y-90380000D01*
X75890000Y-90380000D01*
X75890000Y-87840000D01*
X76854485Y-87840000D01*
X76876496Y-88063479D01*
X76941682Y-88278370D01*
X77047539Y-88476414D01*
X77189999Y-88650001D01*
X77363586Y-88792461D01*
X77561630Y-88898318D01*
X77776521Y-88963504D01*
X77944006Y-88980000D01*
X78055994Y-88980000D01*
X78223479Y-88963504D01*
X78438370Y-88898318D01*
X78636414Y-88792461D01*
X78810001Y-88650001D01*
X78952461Y-88476414D01*
X79058318Y-88278370D01*
X79123504Y-88063479D01*
X79145515Y-87840000D01*
X79123504Y-87616521D01*
X79114701Y-87587500D01*
X89233597Y-87587500D01*
X89233597Y-88162500D01*
X89243760Y-88265684D01*
X89273857Y-88364902D01*
X89322733Y-88456343D01*
X89388509Y-88536491D01*
X89468657Y-88602267D01*
X89560098Y-88651143D01*
X89659316Y-88681240D01*
X89762500Y-88691403D01*
X90237500Y-88691403D01*
X90340684Y-88681240D01*
X90439902Y-88651143D01*
X90531343Y-88602267D01*
X90611491Y-88536491D01*
X90677267Y-88456343D01*
X90726143Y-88364902D01*
X90748864Y-88290000D01*
X91233597Y-88290000D01*
X91233597Y-88412500D01*
X91243760Y-88515684D01*
X91273857Y-88614902D01*
X91322733Y-88706343D01*
X91388509Y-88786491D01*
X91468657Y-88852267D01*
X91560098Y-88901143D01*
X91659316Y-88931240D01*
X91762500Y-88941403D01*
X92237500Y-88941403D01*
X92340684Y-88931240D01*
X92439902Y-88901143D01*
X92531343Y-88852267D01*
X92611491Y-88786491D01*
X92677267Y-88706343D01*
X92726143Y-88614902D01*
X92756240Y-88515684D01*
X92766403Y-88412500D01*
X92766403Y-87945495D01*
X92871898Y-87840000D01*
X104854485Y-87840000D01*
X104876496Y-88063479D01*
X104941682Y-88278370D01*
X105047539Y-88476414D01*
X105189999Y-88650001D01*
X105363586Y-88792461D01*
X105561630Y-88898318D01*
X105776521Y-88963504D01*
X105944006Y-88980000D01*
X106055994Y-88980000D01*
X106223479Y-88963504D01*
X106438370Y-88898318D01*
X106636414Y-88792461D01*
X106810001Y-88650001D01*
X106952461Y-88476414D01*
X107058318Y-88278370D01*
X107123504Y-88063479D01*
X107145515Y-87840000D01*
X107123504Y-87616521D01*
X107058318Y-87401630D01*
X106952461Y-87203586D01*
X106810001Y-87029999D01*
X106636414Y-86887539D01*
X106438370Y-86781682D01*
X106223479Y-86716496D01*
X106055994Y-86700000D01*
X105944006Y-86700000D01*
X105776521Y-86716496D01*
X105561630Y-86781682D01*
X105363586Y-86887539D01*
X105189999Y-87029999D01*
X105047539Y-87203586D01*
X104941682Y-87401630D01*
X104876496Y-87616521D01*
X104854485Y-87840000D01*
X92871898Y-87840000D01*
X95411898Y-85300000D01*
X104854485Y-85300000D01*
X104876496Y-85523479D01*
X104941682Y-85738370D01*
X105047539Y-85936414D01*
X105189999Y-86110001D01*
X105363586Y-86252461D01*
X105561630Y-86358318D01*
X105776521Y-86423504D01*
X105944006Y-86440000D01*
X106055994Y-86440000D01*
X106223479Y-86423504D01*
X106438370Y-86358318D01*
X106636414Y-86252461D01*
X106810001Y-86110001D01*
X106952461Y-85936414D01*
X107058318Y-85738370D01*
X107123504Y-85523479D01*
X107145515Y-85300000D01*
X107123504Y-85076521D01*
X107058318Y-84861630D01*
X106952461Y-84663586D01*
X106810001Y-84489999D01*
X106636414Y-84347539D01*
X106438370Y-84241682D01*
X106223479Y-84176496D01*
X106055994Y-84160000D01*
X105944006Y-84160000D01*
X105776521Y-84176496D01*
X105561630Y-84241682D01*
X105363586Y-84347539D01*
X105189999Y-84489999D01*
X105047539Y-84663586D01*
X104941682Y-84861630D01*
X104876496Y-85076521D01*
X104854485Y-85300000D01*
X95411898Y-85300000D01*
X97779039Y-82932860D01*
X97794869Y-82919869D01*
X97807861Y-82904038D01*
X97807865Y-82904034D01*
X97846729Y-82856677D01*
X97885265Y-82784582D01*
X97892721Y-82760000D01*
X104854485Y-82760000D01*
X104876496Y-82983479D01*
X104941682Y-83198370D01*
X105047539Y-83396414D01*
X105189999Y-83570001D01*
X105363586Y-83712461D01*
X105561630Y-83818318D01*
X105776521Y-83883504D01*
X105944006Y-83900000D01*
X106055994Y-83900000D01*
X106223479Y-83883504D01*
X106438370Y-83818318D01*
X106636414Y-83712461D01*
X106810001Y-83570001D01*
X106952461Y-83396414D01*
X107058318Y-83198370D01*
X107123504Y-82983479D01*
X107145515Y-82760000D01*
X107123504Y-82536521D01*
X107058318Y-82321630D01*
X106952461Y-82123586D01*
X106810001Y-81949999D01*
X106636414Y-81807539D01*
X106438370Y-81701682D01*
X106223479Y-81636496D01*
X106055994Y-81620000D01*
X105944006Y-81620000D01*
X105776521Y-81636496D01*
X105561630Y-81701682D01*
X105363586Y-81807539D01*
X105189999Y-81949999D01*
X105047539Y-82123586D01*
X104941682Y-82321630D01*
X104876496Y-82536521D01*
X104854485Y-82760000D01*
X97892721Y-82760000D01*
X97908995Y-82706354D01*
X97917008Y-82625000D01*
X97915000Y-82604613D01*
X97915000Y-80236500D01*
X100060000Y-80236500D01*
X100060000Y-80503563D01*
X100071145Y-80559590D01*
X100093006Y-80612367D01*
X100124743Y-80659865D01*
X100165136Y-80700258D01*
X100212634Y-80731995D01*
X100265411Y-80753856D01*
X100321438Y-80765000D01*
X100638500Y-80765000D01*
X100711000Y-80692500D01*
X100711000Y-80164000D01*
X101039000Y-80164000D01*
X101039000Y-80692500D01*
X101111500Y-80765000D01*
X101428562Y-80765000D01*
X101484589Y-80753856D01*
X101537366Y-80731995D01*
X101584864Y-80700258D01*
X101625257Y-80659865D01*
X101656994Y-80612367D01*
X101678855Y-80559590D01*
X101690000Y-80503563D01*
X101690000Y-80236500D01*
X101617500Y-80164000D01*
X101039000Y-80164000D01*
X100711000Y-80164000D01*
X100132500Y-80164000D01*
X100060000Y-80236500D01*
X97915000Y-80236500D01*
X97915000Y-79496437D01*
X100060000Y-79496437D01*
X100060000Y-79763500D01*
X100132500Y-79836000D01*
X100711000Y-79836000D01*
X100711000Y-79307500D01*
X101039000Y-79307500D01*
X101039000Y-79836000D01*
X101617500Y-79836000D01*
X101690000Y-79763500D01*
X101690000Y-79762500D01*
X101808597Y-79762500D01*
X101808597Y-80237500D01*
X101818760Y-80340684D01*
X101848857Y-80439902D01*
X101897733Y-80531343D01*
X101963509Y-80611491D01*
X102043657Y-80677267D01*
X102135098Y-80726143D01*
X102234316Y-80756240D01*
X102337500Y-80766403D01*
X102912500Y-80766403D01*
X103015684Y-80756240D01*
X103114902Y-80726143D01*
X103206343Y-80677267D01*
X103257845Y-80635000D01*
X104858597Y-80635000D01*
X104858597Y-81070000D01*
X104864196Y-81126850D01*
X104880779Y-81181515D01*
X104907707Y-81231895D01*
X104943947Y-81276053D01*
X104988105Y-81312293D01*
X105038485Y-81339221D01*
X105093150Y-81355804D01*
X105150000Y-81361403D01*
X106850000Y-81361403D01*
X106906850Y-81355804D01*
X106961515Y-81339221D01*
X107011895Y-81312293D01*
X107056053Y-81276053D01*
X107092293Y-81231895D01*
X107119221Y-81181515D01*
X107135804Y-81126850D01*
X107141403Y-81070000D01*
X107141403Y-79370000D01*
X107135804Y-79313150D01*
X107119221Y-79258485D01*
X107092293Y-79208105D01*
X107056053Y-79163947D01*
X107011895Y-79127707D01*
X106961515Y-79100779D01*
X106906850Y-79084196D01*
X106850000Y-79078597D01*
X105150000Y-79078597D01*
X105093150Y-79084196D01*
X105038485Y-79100779D01*
X104988105Y-79127707D01*
X104943947Y-79163947D01*
X104907707Y-79208105D01*
X104880779Y-79258485D01*
X104864196Y-79313150D01*
X104858597Y-79370000D01*
X104858597Y-79805000D01*
X103441403Y-79805000D01*
X103441403Y-79762500D01*
X103431240Y-79659316D01*
X103401143Y-79560098D01*
X103352267Y-79468657D01*
X103286491Y-79388509D01*
X103206343Y-79322733D01*
X103114902Y-79273857D01*
X103015684Y-79243760D01*
X102912500Y-79233597D01*
X102337500Y-79233597D01*
X102234316Y-79243760D01*
X102135098Y-79273857D01*
X102043657Y-79322733D01*
X101963509Y-79388509D01*
X101897733Y-79468657D01*
X101848857Y-79560098D01*
X101818760Y-79659316D01*
X101808597Y-79762500D01*
X101690000Y-79762500D01*
X101690000Y-79496437D01*
X101678855Y-79440410D01*
X101656994Y-79387633D01*
X101625257Y-79340135D01*
X101584864Y-79299742D01*
X101537366Y-79268005D01*
X101484589Y-79246144D01*
X101428562Y-79235000D01*
X101111500Y-79235000D01*
X101039000Y-79307500D01*
X100711000Y-79307500D01*
X100638500Y-79235000D01*
X100321438Y-79235000D01*
X100265411Y-79246144D01*
X100212634Y-79268005D01*
X100165136Y-79299742D01*
X100124743Y-79340135D01*
X100093006Y-79387633D01*
X100071145Y-79440410D01*
X100060000Y-79496437D01*
X97915000Y-79496437D01*
X97915000Y-75224387D01*
X98111044Y-75143183D01*
X98322327Y-75002009D01*
X98396621Y-74927715D01*
X113265193Y-74927715D01*
X113308377Y-75312705D01*
X113425516Y-75681975D01*
X113612150Y-76021460D01*
X113861168Y-76318228D01*
X114163087Y-76560977D01*
X114506406Y-76740460D01*
X114878048Y-76849840D01*
X115263858Y-76884952D01*
X115649140Y-76844457D01*
X116019218Y-76729898D01*
X116359998Y-76545640D01*
X116658498Y-76298699D01*
X116903349Y-75998482D01*
X117085224Y-75656425D01*
X117197196Y-75285555D01*
X117235000Y-74900000D01*
X117234226Y-74844576D01*
X117185671Y-74460226D01*
X117063388Y-74092628D01*
X116872033Y-73755782D01*
X116618895Y-73462519D01*
X116313616Y-73224009D01*
X115967825Y-73049337D01*
X115594692Y-72945157D01*
X115208429Y-72915435D01*
X114823750Y-72961306D01*
X114455307Y-73081020D01*
X114117134Y-73270019D01*
X113822110Y-73521103D01*
X113581475Y-73824709D01*
X113404394Y-74169273D01*
X113297611Y-74541669D01*
X113265193Y-74927715D01*
X98396621Y-74927715D01*
X98502009Y-74822327D01*
X98643183Y-74611044D01*
X98740426Y-74376279D01*
X98790000Y-74127054D01*
X98790000Y-73872946D01*
X98740426Y-73623721D01*
X98643183Y-73388956D01*
X98502009Y-73177673D01*
X98322327Y-72997991D01*
X98111044Y-72856817D01*
X97876279Y-72759574D01*
X97627054Y-72710000D01*
X97372946Y-72710000D01*
X97123721Y-72759574D01*
X96888956Y-72856817D01*
X96677673Y-72997991D01*
X96497991Y-73177673D01*
X96356817Y-73388956D01*
X96259574Y-73623721D01*
X96251403Y-73664799D01*
X96251403Y-73000000D01*
X96245804Y-72943150D01*
X96229221Y-72888485D01*
X96202293Y-72838105D01*
X96166053Y-72793947D01*
X96121895Y-72757707D01*
X96071515Y-72730779D01*
X96016850Y-72714196D01*
X95960000Y-72708597D01*
X93960000Y-72708597D01*
X93903150Y-72714196D01*
X93848485Y-72730779D01*
X93798105Y-72757707D01*
X93753947Y-72793947D01*
X93717707Y-72838105D01*
X93690779Y-72888485D01*
X93674196Y-72943150D01*
X93668597Y-73000000D01*
X93668597Y-75000000D01*
X93674196Y-75056850D01*
X93690779Y-75111515D01*
X93717707Y-75161895D01*
X93753947Y-75206053D01*
X93798105Y-75242293D01*
X93848485Y-75269221D01*
X93903150Y-75285804D01*
X93960000Y-75291403D01*
X95960000Y-75291403D01*
X96016850Y-75285804D01*
X96071515Y-75269221D01*
X96121895Y-75242293D01*
X96166053Y-75206053D01*
X96202293Y-75161895D01*
X96229221Y-75111515D01*
X96245804Y-75056850D01*
X96251403Y-75000000D01*
X96251403Y-74335201D01*
X96259574Y-74376279D01*
X96356817Y-74611044D01*
X96497991Y-74822327D01*
X96677673Y-75002009D01*
X96888956Y-75143183D01*
X97085001Y-75224388D01*
X97085000Y-82453101D01*
X92229505Y-87308597D01*
X91762500Y-87308597D01*
X91659316Y-87318760D01*
X91560098Y-87348857D01*
X91468657Y-87397733D01*
X91392785Y-87460000D01*
X90748864Y-87460000D01*
X90726143Y-87385098D01*
X90677267Y-87293657D01*
X90611491Y-87213509D01*
X90531343Y-87147733D01*
X90439902Y-87098857D01*
X90340684Y-87068760D01*
X90237500Y-87058597D01*
X89762500Y-87058597D01*
X89659316Y-87068760D01*
X89560098Y-87098857D01*
X89468657Y-87147733D01*
X89388509Y-87213509D01*
X89322733Y-87293657D01*
X89273857Y-87385098D01*
X89243760Y-87484316D01*
X89233597Y-87587500D01*
X79114701Y-87587500D01*
X79058318Y-87401630D01*
X78952461Y-87203586D01*
X78810001Y-87029999D01*
X78636414Y-86887539D01*
X78438370Y-86781682D01*
X78223479Y-86716496D01*
X78055994Y-86700000D01*
X77944006Y-86700000D01*
X77776521Y-86716496D01*
X77561630Y-86781682D01*
X77363586Y-86887539D01*
X77189999Y-87029999D01*
X77047539Y-87203586D01*
X76941682Y-87401630D01*
X76876496Y-87616521D01*
X76854485Y-87840000D01*
X75890000Y-87840000D01*
X75890000Y-85300000D01*
X76854485Y-85300000D01*
X76876496Y-85523479D01*
X76941682Y-85738370D01*
X77047539Y-85936414D01*
X77189999Y-86110001D01*
X77363586Y-86252461D01*
X77561630Y-86358318D01*
X77776521Y-86423504D01*
X77944006Y-86440000D01*
X78055994Y-86440000D01*
X78223479Y-86423504D01*
X78438370Y-86358318D01*
X78636414Y-86252461D01*
X78810001Y-86110001D01*
X78952461Y-85936414D01*
X79005331Y-85837500D01*
X89233597Y-85837500D01*
X89233597Y-86412500D01*
X89243760Y-86515684D01*
X89273857Y-86614902D01*
X89322733Y-86706343D01*
X89388509Y-86786491D01*
X89468657Y-86852267D01*
X89560098Y-86901143D01*
X89659316Y-86931240D01*
X89762500Y-86941403D01*
X90237500Y-86941403D01*
X90340684Y-86931240D01*
X90439902Y-86901143D01*
X90531343Y-86852267D01*
X90611491Y-86786491D01*
X90677267Y-86706343D01*
X90726143Y-86614902D01*
X90756240Y-86515684D01*
X90766403Y-86412500D01*
X90766403Y-85837500D01*
X90756240Y-85734316D01*
X90726143Y-85635098D01*
X90677267Y-85543657D01*
X90611491Y-85463509D01*
X90531343Y-85397733D01*
X90465000Y-85362272D01*
X90465000Y-85239926D01*
X90506850Y-85235804D01*
X90561515Y-85219221D01*
X90611895Y-85192293D01*
X90656053Y-85156053D01*
X90692293Y-85111895D01*
X90719221Y-85061515D01*
X90735804Y-85006850D01*
X90741403Y-84950000D01*
X90741403Y-84736500D01*
X91260000Y-84736500D01*
X91260000Y-84978562D01*
X91271144Y-85034589D01*
X91293005Y-85087366D01*
X91324742Y-85134864D01*
X91365135Y-85175257D01*
X91412633Y-85206994D01*
X91465410Y-85228855D01*
X91521437Y-85240000D01*
X91713500Y-85240000D01*
X91786000Y-85167500D01*
X91786000Y-84664000D01*
X92114000Y-84664000D01*
X92114000Y-85167500D01*
X92186500Y-85240000D01*
X92378563Y-85240000D01*
X92434590Y-85228855D01*
X92487367Y-85206994D01*
X92534865Y-85175257D01*
X92575258Y-85134864D01*
X92606995Y-85087366D01*
X92628856Y-85034589D01*
X92640000Y-84978562D01*
X92640000Y-84736500D01*
X92567500Y-84664000D01*
X92114000Y-84664000D01*
X91786000Y-84664000D01*
X91332500Y-84664000D01*
X91260000Y-84736500D01*
X90741403Y-84736500D01*
X90741403Y-84050000D01*
X90738591Y-84021438D01*
X91260000Y-84021438D01*
X91260000Y-84263500D01*
X91332500Y-84336000D01*
X91786000Y-84336000D01*
X91786000Y-83832500D01*
X92114000Y-83832500D01*
X92114000Y-84336000D01*
X92567500Y-84336000D01*
X92640000Y-84263500D01*
X92640000Y-84021438D01*
X92628856Y-83965411D01*
X92606995Y-83912634D01*
X92575258Y-83865136D01*
X92534865Y-83824743D01*
X92487367Y-83793006D01*
X92434590Y-83771145D01*
X92378563Y-83760000D01*
X92186500Y-83760000D01*
X92114000Y-83832500D01*
X91786000Y-83832500D01*
X91713500Y-83760000D01*
X91521437Y-83760000D01*
X91465410Y-83771145D01*
X91412633Y-83793006D01*
X91365135Y-83824743D01*
X91324742Y-83865136D01*
X91293005Y-83912634D01*
X91271144Y-83965411D01*
X91260000Y-84021438D01*
X90738591Y-84021438D01*
X90735804Y-83993150D01*
X90719221Y-83938485D01*
X90692293Y-83888105D01*
X90656053Y-83843947D01*
X90611895Y-83807707D01*
X90561515Y-83780779D01*
X90506850Y-83764196D01*
X90450000Y-83758597D01*
X89650000Y-83758597D01*
X89593150Y-83764196D01*
X89538485Y-83780779D01*
X89488105Y-83807707D01*
X89443947Y-83843947D01*
X89407707Y-83888105D01*
X89380779Y-83938485D01*
X89364196Y-83993150D01*
X89358597Y-84050000D01*
X89358597Y-84950000D01*
X89364196Y-85006850D01*
X89380779Y-85061515D01*
X89407707Y-85111895D01*
X89443947Y-85156053D01*
X89488105Y-85192293D01*
X89538485Y-85219221D01*
X89593150Y-85235804D01*
X89635000Y-85239926D01*
X89635001Y-85326136D01*
X89560098Y-85348857D01*
X89468657Y-85397733D01*
X89388509Y-85463509D01*
X89322733Y-85543657D01*
X89273857Y-85635098D01*
X89243760Y-85734316D01*
X89233597Y-85837500D01*
X79005331Y-85837500D01*
X79058318Y-85738370D01*
X79123504Y-85523479D01*
X79145515Y-85300000D01*
X79123504Y-85076521D01*
X79058318Y-84861630D01*
X78952461Y-84663586D01*
X78810001Y-84489999D01*
X78636414Y-84347539D01*
X78438370Y-84241682D01*
X78223479Y-84176496D01*
X78055994Y-84160000D01*
X77944006Y-84160000D01*
X77776521Y-84176496D01*
X77561630Y-84241682D01*
X77363586Y-84347539D01*
X77189999Y-84489999D01*
X77047539Y-84663586D01*
X76941682Y-84861630D01*
X76876496Y-85076521D01*
X76854485Y-85300000D01*
X75890000Y-85300000D01*
X75890000Y-83098461D01*
X76911403Y-83098461D01*
X76990912Y-83290432D01*
X77113783Y-83477103D01*
X77270711Y-83636216D01*
X77455665Y-83761657D01*
X77661538Y-83848605D01*
X77836000Y-83815650D01*
X77836000Y-82924000D01*
X78164000Y-82924000D01*
X78164000Y-83815650D01*
X78338462Y-83848605D01*
X78544335Y-83761657D01*
X78729289Y-83636216D01*
X78886217Y-83477103D01*
X79009088Y-83290432D01*
X79088597Y-83098461D01*
X79054827Y-82924000D01*
X78164000Y-82924000D01*
X77836000Y-82924000D01*
X76945173Y-82924000D01*
X76911403Y-83098461D01*
X75890000Y-83098461D01*
X75890000Y-82421539D01*
X76911403Y-82421539D01*
X76945173Y-82596000D01*
X77836000Y-82596000D01*
X77836000Y-81704350D01*
X78164000Y-81704350D01*
X78164000Y-82596000D01*
X79054827Y-82596000D01*
X79088597Y-82421539D01*
X79009088Y-82229568D01*
X78886217Y-82042897D01*
X78729289Y-81883784D01*
X78544335Y-81758343D01*
X78338462Y-81671395D01*
X78164000Y-81704350D01*
X77836000Y-81704350D01*
X77661538Y-81671395D01*
X77455665Y-81758343D01*
X77270711Y-81883784D01*
X77113783Y-82042897D01*
X76990912Y-82229568D01*
X76911403Y-82421539D01*
X75890000Y-82421539D01*
X75890000Y-79370000D01*
X76858597Y-79370000D01*
X76858597Y-81070000D01*
X76864196Y-81126850D01*
X76880779Y-81181515D01*
X76907707Y-81231895D01*
X76943947Y-81276053D01*
X76988105Y-81312293D01*
X77038485Y-81339221D01*
X77093150Y-81355804D01*
X77150000Y-81361403D01*
X78850000Y-81361403D01*
X78906850Y-81355804D01*
X78961515Y-81339221D01*
X79011895Y-81312293D01*
X79056053Y-81276053D01*
X79092293Y-81231895D01*
X79119221Y-81181515D01*
X79135804Y-81126850D01*
X79141403Y-81070000D01*
X79141403Y-80587500D01*
X90233597Y-80587500D01*
X90233597Y-81162500D01*
X90243760Y-81265684D01*
X90273857Y-81364902D01*
X90322733Y-81456343D01*
X90388509Y-81536491D01*
X90468657Y-81602267D01*
X90560098Y-81651143D01*
X90585000Y-81658697D01*
X90585001Y-81760074D01*
X90543150Y-81764196D01*
X90488485Y-81780779D01*
X90438105Y-81807707D01*
X90393947Y-81843947D01*
X90357707Y-81888105D01*
X90330779Y-81938485D01*
X90314196Y-81993150D01*
X90308597Y-82050000D01*
X90308597Y-82950000D01*
X90314196Y-83006850D01*
X90330779Y-83061515D01*
X90357707Y-83111895D01*
X90393947Y-83156053D01*
X90438105Y-83192293D01*
X90488485Y-83219221D01*
X90543150Y-83235804D01*
X90600000Y-83241403D01*
X91400000Y-83241403D01*
X91456850Y-83235804D01*
X91511515Y-83219221D01*
X91561895Y-83192293D01*
X91606053Y-83156053D01*
X91642293Y-83111895D01*
X91669221Y-83061515D01*
X91685804Y-83006850D01*
X91691403Y-82950000D01*
X91691403Y-82915000D01*
X94979623Y-82915000D01*
X95000000Y-82917007D01*
X95020377Y-82915000D01*
X95020387Y-82915000D01*
X95081354Y-82908995D01*
X95159582Y-82885265D01*
X95231677Y-82846729D01*
X95294869Y-82794869D01*
X95307866Y-82779032D01*
X96152729Y-81934170D01*
X96182041Y-81940000D01*
X96317959Y-81940000D01*
X96451266Y-81913484D01*
X96576838Y-81861470D01*
X96689850Y-81785958D01*
X96785958Y-81689850D01*
X96861470Y-81576838D01*
X96913484Y-81451266D01*
X96940000Y-81317959D01*
X96940000Y-81182041D01*
X96913484Y-81048734D01*
X96861470Y-80923162D01*
X96785958Y-80810150D01*
X96689850Y-80714042D01*
X96576838Y-80638530D01*
X96451266Y-80586516D01*
X96317959Y-80560000D01*
X96182041Y-80560000D01*
X96048734Y-80586516D01*
X95923162Y-80638530D01*
X95810150Y-80714042D01*
X95714042Y-80810150D01*
X95638530Y-80923162D01*
X95586516Y-81048734D01*
X95560000Y-81182041D01*
X95560000Y-81317959D01*
X95565830Y-81347271D01*
X94828102Y-82085000D01*
X91691403Y-82085000D01*
X91691403Y-82050000D01*
X91685804Y-81993150D01*
X91669221Y-81938485D01*
X91642293Y-81888105D01*
X91606053Y-81843947D01*
X91561895Y-81807707D01*
X91511515Y-81780779D01*
X91456850Y-81764196D01*
X91415000Y-81760074D01*
X91415000Y-81658697D01*
X91439902Y-81651143D01*
X91531343Y-81602267D01*
X91611491Y-81536491D01*
X91677267Y-81456343D01*
X91726143Y-81364902D01*
X91756240Y-81265684D01*
X91766403Y-81162500D01*
X91766403Y-80587500D01*
X91756240Y-80484316D01*
X91726143Y-80385098D01*
X91677267Y-80293657D01*
X91611491Y-80213509D01*
X91531343Y-80147733D01*
X91439902Y-80098857D01*
X91340684Y-80068760D01*
X91237500Y-80058597D01*
X90762500Y-80058597D01*
X90659316Y-80068760D01*
X90560098Y-80098857D01*
X90468657Y-80147733D01*
X90388509Y-80213509D01*
X90322733Y-80293657D01*
X90273857Y-80385098D01*
X90243760Y-80484316D01*
X90233597Y-80587500D01*
X79141403Y-80587500D01*
X79141403Y-79370000D01*
X79135804Y-79313150D01*
X79119221Y-79258485D01*
X79092293Y-79208105D01*
X79070903Y-79182041D01*
X86060000Y-79182041D01*
X86060000Y-79317959D01*
X86086516Y-79451266D01*
X86138530Y-79576838D01*
X86214042Y-79689850D01*
X86310150Y-79785958D01*
X86423162Y-79861470D01*
X86548734Y-79913484D01*
X86682041Y-79940000D01*
X86817959Y-79940000D01*
X86951266Y-79913484D01*
X87076838Y-79861470D01*
X87189850Y-79785958D01*
X87285958Y-79689850D01*
X87302562Y-79665000D01*
X90300635Y-79665000D01*
X90322733Y-79706343D01*
X90388509Y-79786491D01*
X90468657Y-79852267D01*
X90560098Y-79901143D01*
X90659316Y-79931240D01*
X90762500Y-79941403D01*
X91237500Y-79941403D01*
X91340684Y-79931240D01*
X91439902Y-79901143D01*
X91531343Y-79852267D01*
X91611491Y-79786491D01*
X91677267Y-79706343D01*
X91726143Y-79614902D01*
X91756240Y-79515684D01*
X91766403Y-79412500D01*
X91766403Y-78837500D01*
X91756240Y-78734316D01*
X91726143Y-78635098D01*
X91677267Y-78543657D01*
X91611491Y-78463509D01*
X91531343Y-78397733D01*
X91439902Y-78348857D01*
X91340684Y-78318760D01*
X91237500Y-78308597D01*
X90762500Y-78308597D01*
X90659316Y-78318760D01*
X90560098Y-78348857D01*
X90468657Y-78397733D01*
X90388509Y-78463509D01*
X90322733Y-78543657D01*
X90273857Y-78635098D01*
X90243760Y-78734316D01*
X90233843Y-78835000D01*
X87302562Y-78835000D01*
X87285958Y-78810150D01*
X87189850Y-78714042D01*
X87076838Y-78638530D01*
X86951266Y-78586516D01*
X86817959Y-78560000D01*
X86682041Y-78560000D01*
X86548734Y-78586516D01*
X86423162Y-78638530D01*
X86310150Y-78714042D01*
X86214042Y-78810150D01*
X86138530Y-78923162D01*
X86086516Y-79048734D01*
X86060000Y-79182041D01*
X79070903Y-79182041D01*
X79056053Y-79163947D01*
X79011895Y-79127707D01*
X78961515Y-79100779D01*
X78906850Y-79084196D01*
X78850000Y-79078597D01*
X77150000Y-79078597D01*
X77093150Y-79084196D01*
X77038485Y-79100779D01*
X76988105Y-79127707D01*
X76943947Y-79163947D01*
X76907707Y-79208105D01*
X76880779Y-79258485D01*
X76864196Y-79313150D01*
X76858597Y-79370000D01*
X75890000Y-79370000D01*
X75890000Y-74927715D01*
X82765193Y-74927715D01*
X82808377Y-75312705D01*
X82925516Y-75681975D01*
X83112150Y-76021460D01*
X83361168Y-76318228D01*
X83663087Y-76560977D01*
X84006406Y-76740460D01*
X84378048Y-76849840D01*
X84763858Y-76884952D01*
X85149140Y-76844457D01*
X85519218Y-76729898D01*
X85859998Y-76545640D01*
X86158498Y-76298699D01*
X86403349Y-75998482D01*
X86585224Y-75656425D01*
X86697196Y-75285555D01*
X86735000Y-74900000D01*
X86734226Y-74844576D01*
X86685671Y-74460226D01*
X86563388Y-74092628D01*
X86372033Y-73755782D01*
X86118895Y-73462519D01*
X85813616Y-73224009D01*
X85467825Y-73049337D01*
X85094692Y-72945157D01*
X84708429Y-72915435D01*
X84323750Y-72961306D01*
X83955307Y-73081020D01*
X83617134Y-73270019D01*
X83322110Y-73521103D01*
X83081475Y-73824709D01*
X82904394Y-74169273D01*
X82797611Y-74541669D01*
X82765193Y-74927715D01*
X75890000Y-74927715D01*
X75890000Y-71377267D01*
X94120000Y-71377267D01*
X94120000Y-71542733D01*
X94152281Y-71705019D01*
X94215602Y-71857889D01*
X94307530Y-71995469D01*
X94424531Y-72112470D01*
X94562111Y-72204398D01*
X94714981Y-72267719D01*
X94877267Y-72300000D01*
X95042733Y-72300000D01*
X95205019Y-72267719D01*
X95357889Y-72204398D01*
X95495469Y-72112470D01*
X95612470Y-71995469D01*
X95704398Y-71857889D01*
X95767719Y-71705019D01*
X95800000Y-71542733D01*
X95800000Y-71377267D01*
X96660000Y-71377267D01*
X96660000Y-71542733D01*
X96692281Y-71705019D01*
X96755602Y-71857889D01*
X96847530Y-71995469D01*
X96964531Y-72112470D01*
X97102111Y-72204398D01*
X97254981Y-72267719D01*
X97417267Y-72300000D01*
X97582733Y-72300000D01*
X97745019Y-72267719D01*
X97897889Y-72204398D01*
X98035469Y-72112470D01*
X98119875Y-72028064D01*
X102490196Y-72028064D01*
X102533923Y-72417902D01*
X102652538Y-72791823D01*
X102841522Y-73135584D01*
X103093677Y-73436090D01*
X103399398Y-73681896D01*
X103747041Y-73863640D01*
X104123364Y-73974397D01*
X104514032Y-74009951D01*
X104904167Y-73968946D01*
X105278906Y-73852945D01*
X105623978Y-73666366D01*
X105926237Y-73416315D01*
X106174172Y-73112317D01*
X106358338Y-72765951D01*
X106471720Y-72390411D01*
X106510000Y-72000000D01*
X106509216Y-71943878D01*
X106460050Y-71554688D01*
X106336226Y-71182459D01*
X106142461Y-70841371D01*
X105886135Y-70544415D01*
X105577012Y-70302901D01*
X105226865Y-70126029D01*
X104849033Y-70020536D01*
X104457906Y-69990441D01*
X104068382Y-70036889D01*
X103695298Y-70158111D01*
X103352866Y-70349490D01*
X103054127Y-70603737D01*
X102810461Y-70911166D01*
X102631149Y-71260070D01*
X102523021Y-71637157D01*
X102490196Y-72028064D01*
X98119875Y-72028064D01*
X98152470Y-71995469D01*
X98244398Y-71857889D01*
X98307719Y-71705019D01*
X98340000Y-71542733D01*
X98340000Y-71377267D01*
X98307719Y-71214981D01*
X98244398Y-71062111D01*
X98152470Y-70924531D01*
X98035469Y-70807530D01*
X97897889Y-70715602D01*
X97745019Y-70652281D01*
X97582733Y-70620000D01*
X97417267Y-70620000D01*
X97254981Y-70652281D01*
X97102111Y-70715602D01*
X96964531Y-70807530D01*
X96847530Y-70924531D01*
X96755602Y-71062111D01*
X96692281Y-71214981D01*
X96660000Y-71377267D01*
X95800000Y-71377267D01*
X95767719Y-71214981D01*
X95704398Y-71062111D01*
X95612470Y-70924531D01*
X95495469Y-70807530D01*
X95357889Y-70715602D01*
X95205019Y-70652281D01*
X95042733Y-70620000D01*
X94877267Y-70620000D01*
X94714981Y-70652281D01*
X94562111Y-70715602D01*
X94424531Y-70807530D01*
X94307530Y-70924531D01*
X94215602Y-71062111D01*
X94152281Y-71214981D01*
X94120000Y-71377267D01*
X75890000Y-71377267D01*
X75890000Y-71019078D01*
X75941543Y-70493411D01*
X76088664Y-70006120D01*
X76327633Y-69556683D01*
X76649347Y-69162223D01*
X77041554Y-68837761D01*
X77489309Y-68595661D01*
X77975559Y-68445141D01*
X78500174Y-68390002D01*
X78500785Y-68390000D01*
X115980922Y-68390000D01*
X116506589Y-68441543D01*
G04 #@! TD*
M02*
