M48
;DRILL file {KiCad (5.0.1)-3} date 09-Nov-18 14:34:09
;FORMAT={-:-/ absolute / metric / decimal}
FMAT,2
METRIC,TZ
T1C0.400
T2C1.000
T3C1.100
T4C1.100
%
G90
G05
M71
T1
X80.Y-70.
X80.Y-75.
X80.Y-80.
X80.Y-85.
X80.Y-90.
X80.Y-95.
X80.Y-120.
X85.Y-70.
X85.Y-80.
X85.Y-85.
X85.Y-90.
X85.Y-95.
X85.Y-105.
X85.Y-115.
X85.Y-120.
X86.75Y-79.25
X90.Y-70.
X90.Y-95.
X90.Y-100.
X90.Y-105.
X90.Y-110.
X90.Y-120.
X90.Y-125.
X95.Y-70.
X95.Y-95.
X95.Y-100.
X95.Y-105.
X95.Y-120.
X96.25Y-81.25
X100.Y-70.
X100.Y-75.
X100.Y-95.
X100.Y-100.
X100.Y-120.
X100.Y-125.
X105.Y-75.
X105.Y-120.
X110.Y-70.
X110.Y-75.
X110.Y-80.
X110.Y-85.
X110.Y-90.
X110.Y-95.
X110.Y-100.
X110.Y-105.
X110.Y-110.
X110.Y-115.
X110.Y-120.
X110.Y-125.
X115.Y-70.
X115.Y-80.
X115.Y-85.
X115.Y-90.
X115.Y-95.
X115.Y-100.
X115.Y-105.
X115.Y-110.
X115.Y-115.
X115.Y-120.
T2
X78.Y-80.22
X78.Y-82.76
X78.Y-85.3
X78.Y-87.84
X78.Y-90.38
X78.Y-92.92
X78.Y-95.46
X78.Y-98.
X78.Y-100.54
X78.Y-103.08
X78.Y-105.62
X78.Y-108.16
X78.Y-110.7
X78.Y-113.24
X78.Y-115.78
X106.Y-80.22
X106.Y-82.76
X106.Y-85.3
X106.Y-87.84
X106.Y-90.38
X106.Y-92.92
X106.Y-95.46
X106.Y-98.
X106.Y-100.54
X106.Y-103.08
X106.Y-105.62
X106.Y-108.16
X106.Y-110.7
X106.Y-113.24
X106.Y-115.78
T3
X94.96Y-74.
X97.5Y-74.
X98.73Y-108.
X101.27Y-108.
T4
X94.96Y-71.46
X97.5Y-71.46
X98.73Y-110.54
X101.27Y-110.54
T0
M30
