G04 #@! TF.GenerationSoftware,KiCad,Pcbnew,(5.0.1)-3*
G04 #@! TF.CreationDate,2018-11-09T14:35:38+01:00*
G04 #@! TF.ProjectId,power_stalker_esp,706F7765725F7374616C6B65725F6573,rev?*
G04 #@! TF.SameCoordinates,Original*
G04 #@! TF.FileFunction,Copper,L2,Bot,Signal*
G04 #@! TF.FilePolarity,Positive*
%FSLAX46Y46*%
G04 Gerber Fmt 4.6, Leading zero omitted, Abs format (unit mm)*
G04 Created by KiCad (PCBNEW (5.0.1)-3) date 09-Nov-18 14:35:38*
%MOMM*%
%LPD*%
G01*
G04 APERTURE LIST*
G04 #@! TA.AperFunction,ComponentPad*
%ADD10C,2.000000*%
G04 #@! TD*
G04 #@! TA.AperFunction,ComponentPad*
%ADD11R,2.000000X2.000000*%
G04 #@! TD*
G04 #@! TA.AperFunction,ComponentPad*
%ADD12O,1.700000X1.700000*%
G04 #@! TD*
G04 #@! TA.AperFunction,ComponentPad*
%ADD13R,1.700000X1.700000*%
G04 #@! TD*
G04 #@! TA.AperFunction,SMDPad,CuDef*
%ADD14R,1.500000X0.600000*%
G04 #@! TD*
G04 #@! TA.AperFunction,ViaPad*
%ADD15C,0.800000*%
G04 #@! TD*
G04 #@! TA.AperFunction,Conductor*
%ADD16C,0.700000*%
G04 #@! TD*
G04 #@! TA.AperFunction,Conductor*
%ADD17C,0.250000*%
G04 #@! TD*
G04 #@! TA.AperFunction,Conductor*
%ADD18C,0.180000*%
G04 #@! TD*
G04 APERTURE END LIST*
D10*
G04 #@! TO.P,J1,2*
G04 #@! TO.N,+5V*
X98730000Y-108000000D03*
D11*
G04 #@! TO.P,J1,1*
G04 #@! TO.N,GND*
X101270000Y-108000000D03*
G04 #@! TD*
D12*
G04 #@! TO.P,J2,15*
G04 #@! TO.N,+5V*
X78000000Y-115780000D03*
G04 #@! TO.P,J2,14*
G04 #@! TO.N,GND*
X78000000Y-113240000D03*
G04 #@! TO.P,J2,13*
G04 #@! TO.N,N/C*
X78000000Y-110700000D03*
G04 #@! TO.P,J2,12*
X78000000Y-108160000D03*
G04 #@! TO.P,J2,11*
G04 #@! TO.N,+3V3*
X78000000Y-105620000D03*
G04 #@! TO.P,J2,10*
G04 #@! TO.N,GND*
X78000000Y-103080000D03*
G04 #@! TO.P,J2,9*
G04 #@! TO.N,N/C*
X78000000Y-100540000D03*
G04 #@! TO.P,J2,8*
X78000000Y-98000000D03*
G04 #@! TO.P,J2,7*
X78000000Y-95460000D03*
G04 #@! TO.P,J2,6*
X78000000Y-92920000D03*
G04 #@! TO.P,J2,5*
X78000000Y-90380000D03*
G04 #@! TO.P,J2,4*
X78000000Y-87840000D03*
G04 #@! TO.P,J2,3*
X78000000Y-85300000D03*
G04 #@! TO.P,J2,2*
G04 #@! TO.N,GND*
X78000000Y-82760000D03*
D13*
G04 #@! TO.P,J2,1*
G04 #@! TO.N,N/C*
X78000000Y-80220000D03*
G04 #@! TD*
D12*
G04 #@! TO.P,J3,15*
G04 #@! TO.N,+3V3*
X106000000Y-115780000D03*
G04 #@! TO.P,J3,14*
G04 #@! TO.N,GND*
X106000000Y-113240000D03*
G04 #@! TO.P,J3,13*
G04 #@! TO.N,N/C*
X106000000Y-110700000D03*
G04 #@! TO.P,J3,12*
X106000000Y-108160000D03*
G04 #@! TO.P,J3,11*
X106000000Y-105620000D03*
G04 #@! TO.P,J3,10*
X106000000Y-103080000D03*
G04 #@! TO.P,J3,9*
X106000000Y-100540000D03*
G04 #@! TO.P,J3,8*
X106000000Y-98000000D03*
G04 #@! TO.P,J3,7*
G04 #@! TO.N,GND*
X106000000Y-95460000D03*
G04 #@! TO.P,J3,6*
G04 #@! TO.N,+3V3*
X106000000Y-92920000D03*
G04 #@! TO.P,J3,5*
G04 #@! TO.N,1Q3*
X106000000Y-90380000D03*
G04 #@! TO.P,J3,4*
G04 #@! TO.N,1Q2*
X106000000Y-87840000D03*
G04 #@! TO.P,J3,3*
G04 #@! TO.N,1Q1*
X106000000Y-85300000D03*
G04 #@! TO.P,J3,2*
G04 #@! TO.N,1Q0*
X106000000Y-82760000D03*
D13*
G04 #@! TO.P,J3,1*
G04 #@! TO.N,MASTER_RESET*
X106000000Y-80220000D03*
G04 #@! TD*
D11*
G04 #@! TO.P,Q1,1*
G04 #@! TO.N,+3V3*
X94960000Y-74000000D03*
D10*
G04 #@! TO.P,Q1,2*
G04 #@! TO.N,Net-(C1-Pad1)*
X97500000Y-74000000D03*
G04 #@! TD*
D14*
G04 #@! TO.P,U1,1*
G04 #@! TO.N,Net-(Q2-Pad3)*
X101700000Y-83190000D03*
G04 #@! TO.P,U1,2*
G04 #@! TO.N,MASTER_RESET*
X101700000Y-84460000D03*
G04 #@! TO.P,U1,3*
G04 #@! TO.N,1Q0*
X101700000Y-85730000D03*
G04 #@! TO.P,U1,4*
G04 #@! TO.N,1Q1*
X101700000Y-87000000D03*
G04 #@! TO.P,U1,5*
G04 #@! TO.N,1Q2*
X101700000Y-88270000D03*
G04 #@! TO.P,U1,6*
G04 #@! TO.N,1Q3*
X101700000Y-89540000D03*
G04 #@! TO.P,U1,7*
G04 #@! TO.N,GND*
X101700000Y-90810000D03*
G04 #@! TO.P,U1,8*
G04 #@! TO.N,N/C*
X96300000Y-90810000D03*
G04 #@! TO.P,U1,9*
X96300000Y-89540000D03*
G04 #@! TO.P,U1,10*
X96300000Y-88270000D03*
G04 #@! TO.P,U1,11*
X96300000Y-87000000D03*
G04 #@! TO.P,U1,12*
X96300000Y-85730000D03*
G04 #@! TO.P,U1,13*
X96300000Y-84460000D03*
G04 #@! TO.P,U1,14*
G04 #@! TO.N,+3V3*
X96300000Y-83190000D03*
G04 #@! TD*
D15*
G04 #@! TO.N,GND*
X115000000Y-80000000D03*
X115000000Y-85000000D03*
X115000000Y-90000000D03*
X115000000Y-95000000D03*
X115000000Y-100000000D03*
X115000000Y-105000000D03*
X115000000Y-110000000D03*
X115000000Y-115000000D03*
X115000000Y-120000000D03*
X110000000Y-120000000D03*
X110000000Y-125000000D03*
X110000000Y-115000000D03*
X110000000Y-110000000D03*
X110000000Y-105000000D03*
X110000000Y-100000000D03*
X110000000Y-95000000D03*
X110000000Y-90000000D03*
X110000000Y-85000000D03*
X110000000Y-80000000D03*
X110000000Y-75000000D03*
X110000000Y-70000000D03*
X105000000Y-120000000D03*
X100000000Y-120000000D03*
X95000000Y-120000000D03*
X90000000Y-120000000D03*
X85000000Y-120000000D03*
X80000000Y-120000000D03*
X90000000Y-125000000D03*
X100000000Y-125000000D03*
X85000000Y-115000000D03*
X90000000Y-110000000D03*
X85000000Y-105000000D03*
X90000000Y-105000000D03*
X95000000Y-105000000D03*
X95000000Y-100000000D03*
X90000000Y-100000000D03*
X100000000Y-100000000D03*
X100000000Y-95000000D03*
X95000000Y-95000000D03*
X90000000Y-95000000D03*
X85000000Y-95000000D03*
X80000000Y-95000000D03*
X80000000Y-90000000D03*
X85000000Y-90000000D03*
X85000000Y-85000000D03*
X80000000Y-85000000D03*
X80000000Y-80000000D03*
X85000000Y-80000000D03*
X80000000Y-75000000D03*
X85000000Y-70000000D03*
X80000000Y-70000000D03*
X90000000Y-70000000D03*
X95000000Y-70000000D03*
X100000000Y-70000000D03*
X100000000Y-75000000D03*
X105000000Y-75000000D03*
X115000000Y-70000000D03*
G04 #@! TO.N,+3V3*
X86750000Y-79250000D03*
G04 #@! TO.N,Net-(Q2-Pad3)*
X96250000Y-81250000D03*
G04 #@! TD*
D16*
G04 #@! TO.N,+3V3*
X78000000Y-105620000D02*
X86750000Y-96870000D01*
X86750000Y-96870000D02*
X86750000Y-79250000D01*
X92000000Y-74000000D02*
X94960000Y-74000000D01*
X86750000Y-79250000D02*
X92000000Y-74000000D01*
X88160000Y-115780000D02*
X106000000Y-115780000D01*
X78000000Y-105620000D02*
X88160000Y-115780000D01*
X105150001Y-114930001D02*
X106000000Y-115780000D01*
X104599999Y-114379999D02*
X105150001Y-114930001D01*
X104599999Y-93900001D02*
X104599999Y-114379999D01*
X106000000Y-92920000D02*
X105580000Y-92920000D01*
X105580000Y-92920000D02*
X104599999Y-93900001D01*
D17*
X96750000Y-83190000D02*
X96300000Y-83190000D01*
X97375001Y-83815001D02*
X96750000Y-83190000D01*
X97375001Y-88120003D02*
X97375001Y-83815001D01*
X102174998Y-92920000D02*
X97375001Y-88120003D01*
X106000000Y-92920000D02*
X102174998Y-92920000D01*
D16*
X86750000Y-79250000D02*
X86750000Y-79250000D01*
D17*
G04 #@! TO.N,1Q3*
X105160000Y-89540000D02*
X106000000Y-90380000D01*
X101700000Y-89540000D02*
X105160000Y-89540000D01*
G04 #@! TO.N,1Q2*
X105570000Y-88270000D02*
X106000000Y-87840000D01*
X101700000Y-88270000D02*
X105570000Y-88270000D01*
G04 #@! TO.N,1Q1*
X104300000Y-87000000D02*
X106000000Y-85300000D01*
X101700000Y-87000000D02*
X104300000Y-87000000D01*
G04 #@! TO.N,1Q0*
X103030000Y-85730000D02*
X106000000Y-82760000D01*
X101700000Y-85730000D02*
X103030000Y-85730000D01*
G04 #@! TO.N,MASTER_RESET*
X106000000Y-80610000D02*
X106000000Y-80220000D01*
X102150000Y-84460000D02*
X106000000Y-80610000D01*
X101700000Y-84460000D02*
X102150000Y-84460000D01*
G04 #@! TO.N,Net-(Q2-Pad3)*
X98190000Y-83190000D02*
X101700000Y-83190000D01*
X96250000Y-81250000D02*
X98190000Y-83190000D01*
G04 #@! TD*
D18*
G04 #@! TO.N,GND*
G36*
X116506589Y-68441543D02*
X116993880Y-68588664D01*
X117443317Y-68827633D01*
X117837777Y-69149347D01*
X118162239Y-69541554D01*
X118404339Y-69989309D01*
X118554859Y-70475559D01*
X118609998Y-71000174D01*
X118610000Y-71000785D01*
X118610001Y-125980913D01*
X118558457Y-126506589D01*
X118411336Y-126993880D01*
X118172366Y-127443319D01*
X117850651Y-127837780D01*
X117458449Y-128162237D01*
X117010693Y-128404337D01*
X116524441Y-128554859D01*
X115999826Y-128609998D01*
X115999215Y-128610000D01*
X78519077Y-128610000D01*
X77993411Y-128558457D01*
X77506120Y-128411336D01*
X77056681Y-128172366D01*
X76662220Y-127850651D01*
X76337763Y-127458449D01*
X76095663Y-127010693D01*
X75945141Y-126524441D01*
X75890002Y-125999826D01*
X75890000Y-125999215D01*
X75890000Y-124028064D01*
X77490196Y-124028064D01*
X77533923Y-124417902D01*
X77652538Y-124791823D01*
X77841522Y-125135584D01*
X78093677Y-125436090D01*
X78399398Y-125681896D01*
X78747041Y-125863640D01*
X79123364Y-125974397D01*
X79514032Y-126009951D01*
X79904167Y-125968946D01*
X80278906Y-125852945D01*
X80623978Y-125666366D01*
X80926237Y-125416315D01*
X81161613Y-125127715D01*
X82765193Y-125127715D01*
X82808377Y-125512705D01*
X82925516Y-125881975D01*
X83112150Y-126221460D01*
X83361168Y-126518228D01*
X83663087Y-126760977D01*
X84006406Y-126940460D01*
X84378048Y-127049840D01*
X84763858Y-127084952D01*
X85149140Y-127044457D01*
X85519218Y-126929898D01*
X85859998Y-126745640D01*
X86158498Y-126498699D01*
X86403349Y-126198482D01*
X86585224Y-125856425D01*
X86697196Y-125485555D01*
X86735000Y-125100000D01*
X86734226Y-125044576D01*
X86685671Y-124660226D01*
X86563388Y-124292628D01*
X86556305Y-124280158D01*
X94340211Y-124280158D01*
X94387201Y-124699089D01*
X94514668Y-125100915D01*
X94717755Y-125470329D01*
X94988727Y-125793261D01*
X95317263Y-126057411D01*
X95690850Y-126252717D01*
X96095256Y-126371740D01*
X96515080Y-126409947D01*
X96934328Y-126365883D01*
X97337034Y-126241224D01*
X97707857Y-126040721D01*
X98032673Y-125772010D01*
X98299110Y-125445326D01*
X98497019Y-125073112D01*
X98618863Y-124669546D01*
X98657042Y-124280158D01*
X101340211Y-124280158D01*
X101387201Y-124699089D01*
X101514668Y-125100915D01*
X101717755Y-125470329D01*
X101988727Y-125793261D01*
X102317263Y-126057411D01*
X102690850Y-126252717D01*
X103095256Y-126371740D01*
X103515080Y-126409947D01*
X103934328Y-126365883D01*
X104337034Y-126241224D01*
X104707857Y-126040721D01*
X105032673Y-125772010D01*
X105299110Y-125445326D01*
X105467986Y-125127715D01*
X113265193Y-125127715D01*
X113308377Y-125512705D01*
X113425516Y-125881975D01*
X113612150Y-126221460D01*
X113861168Y-126518228D01*
X114163087Y-126760977D01*
X114506406Y-126940460D01*
X114878048Y-127049840D01*
X115263858Y-127084952D01*
X115649140Y-127044457D01*
X116019218Y-126929898D01*
X116359998Y-126745640D01*
X116658498Y-126498699D01*
X116903349Y-126198482D01*
X117085224Y-125856425D01*
X117197196Y-125485555D01*
X117235000Y-125100000D01*
X117234226Y-125044576D01*
X117185671Y-124660226D01*
X117063388Y-124292628D01*
X116872033Y-123955782D01*
X116618895Y-123662519D01*
X116313616Y-123424009D01*
X115967825Y-123249337D01*
X115594692Y-123145157D01*
X115208429Y-123115435D01*
X114823750Y-123161306D01*
X114455307Y-123281020D01*
X114117134Y-123470019D01*
X113822110Y-123721103D01*
X113581475Y-124024709D01*
X113404394Y-124369273D01*
X113297611Y-124741669D01*
X113265193Y-125127715D01*
X105467986Y-125127715D01*
X105497019Y-125073112D01*
X105618863Y-124669546D01*
X105660000Y-124250000D01*
X105659158Y-124189689D01*
X105606323Y-123771455D01*
X105473258Y-123371449D01*
X105265033Y-123004906D01*
X104989578Y-122685789D01*
X104657386Y-122426252D01*
X104281109Y-122236181D01*
X103875080Y-122122815D01*
X103454764Y-122090474D01*
X103036172Y-122140388D01*
X102635246Y-122270657D01*
X102267259Y-122476318D01*
X101946226Y-122749538D01*
X101684376Y-123079910D01*
X101491683Y-123454851D01*
X101375486Y-123860079D01*
X101340211Y-124280158D01*
X98657042Y-124280158D01*
X98660000Y-124250000D01*
X98659158Y-124189689D01*
X98606323Y-123771455D01*
X98473258Y-123371449D01*
X98265033Y-123004906D01*
X97989578Y-122685789D01*
X97657386Y-122426252D01*
X97281109Y-122236181D01*
X96875080Y-122122815D01*
X96454764Y-122090474D01*
X96036172Y-122140388D01*
X95635246Y-122270657D01*
X95267259Y-122476318D01*
X94946226Y-122749538D01*
X94684376Y-123079910D01*
X94491683Y-123454851D01*
X94375486Y-123860079D01*
X94340211Y-124280158D01*
X86556305Y-124280158D01*
X86372033Y-123955782D01*
X86118895Y-123662519D01*
X85813616Y-123424009D01*
X85467825Y-123249337D01*
X85094692Y-123145157D01*
X84708429Y-123115435D01*
X84323750Y-123161306D01*
X83955307Y-123281020D01*
X83617134Y-123470019D01*
X83322110Y-123721103D01*
X83081475Y-124024709D01*
X82904394Y-124369273D01*
X82797611Y-124741669D01*
X82765193Y-125127715D01*
X81161613Y-125127715D01*
X81174172Y-125112317D01*
X81358338Y-124765951D01*
X81471720Y-124390411D01*
X81510000Y-124000000D01*
X81509216Y-123943878D01*
X81460050Y-123554688D01*
X81336226Y-123182459D01*
X81142461Y-122841371D01*
X80886135Y-122544415D01*
X80577012Y-122302901D01*
X80226865Y-122126029D01*
X79849033Y-122020536D01*
X79457906Y-121990441D01*
X79068382Y-122036889D01*
X78695298Y-122158111D01*
X78352866Y-122349490D01*
X78054127Y-122603737D01*
X77810461Y-122911166D01*
X77631149Y-123260070D01*
X77523021Y-123637157D01*
X77490196Y-124028064D01*
X75890000Y-124028064D01*
X75890000Y-115780000D01*
X76854485Y-115780000D01*
X76876496Y-116003479D01*
X76941682Y-116218370D01*
X77047539Y-116416414D01*
X77189999Y-116590001D01*
X77363586Y-116732461D01*
X77561630Y-116838318D01*
X77776521Y-116903504D01*
X77944006Y-116920000D01*
X78055994Y-116920000D01*
X78223479Y-116903504D01*
X78438370Y-116838318D01*
X78636414Y-116732461D01*
X78810001Y-116590001D01*
X78952461Y-116416414D01*
X79058318Y-116218370D01*
X79123504Y-116003479D01*
X79145515Y-115780000D01*
X79123504Y-115556521D01*
X79058318Y-115341630D01*
X78952461Y-115143586D01*
X78810001Y-114969999D01*
X78636414Y-114827539D01*
X78438370Y-114721682D01*
X78223479Y-114656496D01*
X78055994Y-114640000D01*
X77944006Y-114640000D01*
X77776521Y-114656496D01*
X77561630Y-114721682D01*
X77363586Y-114827539D01*
X77189999Y-114969999D01*
X77047539Y-115143586D01*
X76941682Y-115341630D01*
X76876496Y-115556521D01*
X76854485Y-115780000D01*
X75890000Y-115780000D01*
X75890000Y-113578461D01*
X76911403Y-113578461D01*
X76990912Y-113770432D01*
X77113783Y-113957103D01*
X77270711Y-114116216D01*
X77455665Y-114241657D01*
X77661538Y-114328605D01*
X77836000Y-114295650D01*
X77836000Y-113404000D01*
X78164000Y-113404000D01*
X78164000Y-114295650D01*
X78338462Y-114328605D01*
X78544335Y-114241657D01*
X78729289Y-114116216D01*
X78886217Y-113957103D01*
X79009088Y-113770432D01*
X79088597Y-113578461D01*
X79054827Y-113404000D01*
X78164000Y-113404000D01*
X77836000Y-113404000D01*
X76945173Y-113404000D01*
X76911403Y-113578461D01*
X75890000Y-113578461D01*
X75890000Y-112901539D01*
X76911403Y-112901539D01*
X76945173Y-113076000D01*
X77836000Y-113076000D01*
X77836000Y-112184350D01*
X78164000Y-112184350D01*
X78164000Y-113076000D01*
X79054827Y-113076000D01*
X79088597Y-112901539D01*
X79009088Y-112709568D01*
X78886217Y-112522897D01*
X78729289Y-112363784D01*
X78544335Y-112238343D01*
X78338462Y-112151395D01*
X78164000Y-112184350D01*
X77836000Y-112184350D01*
X77661538Y-112151395D01*
X77455665Y-112238343D01*
X77270711Y-112363784D01*
X77113783Y-112522897D01*
X76990912Y-112709568D01*
X76911403Y-112901539D01*
X75890000Y-112901539D01*
X75890000Y-110700000D01*
X76854485Y-110700000D01*
X76876496Y-110923479D01*
X76941682Y-111138370D01*
X77047539Y-111336414D01*
X77189999Y-111510001D01*
X77363586Y-111652461D01*
X77561630Y-111758318D01*
X77776521Y-111823504D01*
X77944006Y-111840000D01*
X78055994Y-111840000D01*
X78223479Y-111823504D01*
X78438370Y-111758318D01*
X78636414Y-111652461D01*
X78810001Y-111510001D01*
X78952461Y-111336414D01*
X79058318Y-111138370D01*
X79123504Y-110923479D01*
X79145515Y-110700000D01*
X79123504Y-110476521D01*
X79058318Y-110261630D01*
X78952461Y-110063586D01*
X78810001Y-109889999D01*
X78636414Y-109747539D01*
X78438370Y-109641682D01*
X78223479Y-109576496D01*
X78055994Y-109560000D01*
X77944006Y-109560000D01*
X77776521Y-109576496D01*
X77561630Y-109641682D01*
X77363586Y-109747539D01*
X77189999Y-109889999D01*
X77047539Y-110063586D01*
X76941682Y-110261630D01*
X76876496Y-110476521D01*
X76854485Y-110700000D01*
X75890000Y-110700000D01*
X75890000Y-108160000D01*
X76854485Y-108160000D01*
X76876496Y-108383479D01*
X76941682Y-108598370D01*
X77047539Y-108796414D01*
X77189999Y-108970001D01*
X77363586Y-109112461D01*
X77561630Y-109218318D01*
X77776521Y-109283504D01*
X77944006Y-109300000D01*
X78055994Y-109300000D01*
X78223479Y-109283504D01*
X78438370Y-109218318D01*
X78636414Y-109112461D01*
X78810001Y-108970001D01*
X78952461Y-108796414D01*
X79058318Y-108598370D01*
X79123504Y-108383479D01*
X79145515Y-108160000D01*
X79123504Y-107936521D01*
X79058318Y-107721630D01*
X78952461Y-107523586D01*
X78810001Y-107349999D01*
X78636414Y-107207539D01*
X78438370Y-107101682D01*
X78223479Y-107036496D01*
X78055994Y-107020000D01*
X77944006Y-107020000D01*
X77776521Y-107036496D01*
X77561630Y-107101682D01*
X77363586Y-107207539D01*
X77189999Y-107349999D01*
X77047539Y-107523586D01*
X76941682Y-107721630D01*
X76876496Y-107936521D01*
X76854485Y-108160000D01*
X75890000Y-108160000D01*
X75890000Y-105620000D01*
X76854485Y-105620000D01*
X76876496Y-105843479D01*
X76941682Y-106058370D01*
X77047539Y-106256414D01*
X77189999Y-106430001D01*
X77363586Y-106572461D01*
X77561630Y-106678318D01*
X77776521Y-106743504D01*
X77944006Y-106760000D01*
X78055994Y-106760000D01*
X78218863Y-106743959D01*
X87685217Y-116210313D01*
X87705262Y-116234738D01*
X87802714Y-116314714D01*
X87802715Y-116314715D01*
X87913897Y-116374143D01*
X88034538Y-116410739D01*
X88160000Y-116423096D01*
X88191434Y-116420000D01*
X105050482Y-116420000D01*
X105189999Y-116590001D01*
X105363586Y-116732461D01*
X105561630Y-116838318D01*
X105776521Y-116903504D01*
X105944006Y-116920000D01*
X106055994Y-116920000D01*
X106223479Y-116903504D01*
X106438370Y-116838318D01*
X106636414Y-116732461D01*
X106810001Y-116590001D01*
X106952461Y-116416414D01*
X107058318Y-116218370D01*
X107123504Y-116003479D01*
X107145515Y-115780000D01*
X107123504Y-115556521D01*
X107058318Y-115341630D01*
X106952461Y-115143586D01*
X106810001Y-114969999D01*
X106636414Y-114827539D01*
X106438370Y-114721682D01*
X106223479Y-114656496D01*
X106055994Y-114640000D01*
X105944006Y-114640000D01*
X105781138Y-114656041D01*
X105624780Y-114499684D01*
X105624776Y-114499679D01*
X105239999Y-114114903D01*
X105239999Y-114085076D01*
X105270711Y-114116216D01*
X105455665Y-114241657D01*
X105661538Y-114328605D01*
X105836000Y-114295650D01*
X105836000Y-113404000D01*
X106164000Y-113404000D01*
X106164000Y-114295650D01*
X106338462Y-114328605D01*
X106544335Y-114241657D01*
X106729289Y-114116216D01*
X106886217Y-113957103D01*
X107009088Y-113770432D01*
X107088597Y-113578461D01*
X107054827Y-113404000D01*
X106164000Y-113404000D01*
X105836000Y-113404000D01*
X105816000Y-113404000D01*
X105816000Y-113076000D01*
X105836000Y-113076000D01*
X105836000Y-112184350D01*
X106164000Y-112184350D01*
X106164000Y-113076000D01*
X107054827Y-113076000D01*
X107088597Y-112901539D01*
X107009088Y-112709568D01*
X106886217Y-112522897D01*
X106729289Y-112363784D01*
X106544335Y-112238343D01*
X106338462Y-112151395D01*
X106164000Y-112184350D01*
X105836000Y-112184350D01*
X105661538Y-112151395D01*
X105455665Y-112238343D01*
X105270711Y-112363784D01*
X105239999Y-112394924D01*
X105239999Y-111551035D01*
X105363586Y-111652461D01*
X105561630Y-111758318D01*
X105776521Y-111823504D01*
X105944006Y-111840000D01*
X106055994Y-111840000D01*
X106223479Y-111823504D01*
X106438370Y-111758318D01*
X106636414Y-111652461D01*
X106810001Y-111510001D01*
X106952461Y-111336414D01*
X107058318Y-111138370D01*
X107123504Y-110923479D01*
X107145515Y-110700000D01*
X107123504Y-110476521D01*
X107058318Y-110261630D01*
X106952461Y-110063586D01*
X106810001Y-109889999D01*
X106636414Y-109747539D01*
X106438370Y-109641682D01*
X106223479Y-109576496D01*
X106055994Y-109560000D01*
X105944006Y-109560000D01*
X105776521Y-109576496D01*
X105561630Y-109641682D01*
X105363586Y-109747539D01*
X105239999Y-109848965D01*
X105239999Y-109011035D01*
X105363586Y-109112461D01*
X105561630Y-109218318D01*
X105776521Y-109283504D01*
X105944006Y-109300000D01*
X106055994Y-109300000D01*
X106223479Y-109283504D01*
X106438370Y-109218318D01*
X106636414Y-109112461D01*
X106810001Y-108970001D01*
X106952461Y-108796414D01*
X107058318Y-108598370D01*
X107123504Y-108383479D01*
X107145515Y-108160000D01*
X107123504Y-107936521D01*
X107058318Y-107721630D01*
X106952461Y-107523586D01*
X106810001Y-107349999D01*
X106636414Y-107207539D01*
X106438370Y-107101682D01*
X106223479Y-107036496D01*
X106055994Y-107020000D01*
X105944006Y-107020000D01*
X105776521Y-107036496D01*
X105561630Y-107101682D01*
X105363586Y-107207539D01*
X105239999Y-107308965D01*
X105239999Y-106471035D01*
X105363586Y-106572461D01*
X105561630Y-106678318D01*
X105776521Y-106743504D01*
X105944006Y-106760000D01*
X106055994Y-106760000D01*
X106223479Y-106743504D01*
X106438370Y-106678318D01*
X106636414Y-106572461D01*
X106810001Y-106430001D01*
X106952461Y-106256414D01*
X107058318Y-106058370D01*
X107123504Y-105843479D01*
X107145515Y-105620000D01*
X107123504Y-105396521D01*
X107058318Y-105181630D01*
X106952461Y-104983586D01*
X106810001Y-104809999D01*
X106636414Y-104667539D01*
X106438370Y-104561682D01*
X106223479Y-104496496D01*
X106055994Y-104480000D01*
X105944006Y-104480000D01*
X105776521Y-104496496D01*
X105561630Y-104561682D01*
X105363586Y-104667539D01*
X105239999Y-104768965D01*
X105239999Y-103931035D01*
X105363586Y-104032461D01*
X105561630Y-104138318D01*
X105776521Y-104203504D01*
X105944006Y-104220000D01*
X106055994Y-104220000D01*
X106223479Y-104203504D01*
X106438370Y-104138318D01*
X106636414Y-104032461D01*
X106810001Y-103890001D01*
X106952461Y-103716414D01*
X107058318Y-103518370D01*
X107123504Y-103303479D01*
X107145515Y-103080000D01*
X107123504Y-102856521D01*
X107058318Y-102641630D01*
X106952461Y-102443586D01*
X106810001Y-102269999D01*
X106636414Y-102127539D01*
X106438370Y-102021682D01*
X106223479Y-101956496D01*
X106055994Y-101940000D01*
X105944006Y-101940000D01*
X105776521Y-101956496D01*
X105561630Y-102021682D01*
X105363586Y-102127539D01*
X105239999Y-102228965D01*
X105239999Y-101391035D01*
X105363586Y-101492461D01*
X105561630Y-101598318D01*
X105776521Y-101663504D01*
X105944006Y-101680000D01*
X106055994Y-101680000D01*
X106223479Y-101663504D01*
X106438370Y-101598318D01*
X106636414Y-101492461D01*
X106810001Y-101350001D01*
X106952461Y-101176414D01*
X107058318Y-100978370D01*
X107123504Y-100763479D01*
X107145515Y-100540000D01*
X107123504Y-100316521D01*
X107058318Y-100101630D01*
X106952461Y-99903586D01*
X106810001Y-99729999D01*
X106636414Y-99587539D01*
X106438370Y-99481682D01*
X106223479Y-99416496D01*
X106055994Y-99400000D01*
X105944006Y-99400000D01*
X105776521Y-99416496D01*
X105561630Y-99481682D01*
X105363586Y-99587539D01*
X105239999Y-99688965D01*
X105239999Y-98851035D01*
X105363586Y-98952461D01*
X105561630Y-99058318D01*
X105776521Y-99123504D01*
X105944006Y-99140000D01*
X106055994Y-99140000D01*
X106223479Y-99123504D01*
X106438370Y-99058318D01*
X106636414Y-98952461D01*
X106810001Y-98810001D01*
X106952461Y-98636414D01*
X107058318Y-98438370D01*
X107123504Y-98223479D01*
X107145515Y-98000000D01*
X107123504Y-97776521D01*
X107058318Y-97561630D01*
X106952461Y-97363586D01*
X106810001Y-97189999D01*
X106636414Y-97047539D01*
X106438370Y-96941682D01*
X106223479Y-96876496D01*
X106055994Y-96860000D01*
X105944006Y-96860000D01*
X105776521Y-96876496D01*
X105561630Y-96941682D01*
X105363586Y-97047539D01*
X105239999Y-97148965D01*
X105239999Y-96305076D01*
X105270711Y-96336216D01*
X105455665Y-96461657D01*
X105661538Y-96548605D01*
X105836000Y-96515650D01*
X105836000Y-95624000D01*
X106164000Y-95624000D01*
X106164000Y-96515650D01*
X106338462Y-96548605D01*
X106544335Y-96461657D01*
X106729289Y-96336216D01*
X106886217Y-96177103D01*
X107009088Y-95990432D01*
X107088597Y-95798461D01*
X107054827Y-95624000D01*
X106164000Y-95624000D01*
X105836000Y-95624000D01*
X105816000Y-95624000D01*
X105816000Y-95296000D01*
X105836000Y-95296000D01*
X105836000Y-94404350D01*
X106164000Y-94404350D01*
X106164000Y-95296000D01*
X107054827Y-95296000D01*
X107088597Y-95121539D01*
X107009088Y-94929568D01*
X106886217Y-94742897D01*
X106729289Y-94583784D01*
X106544335Y-94458343D01*
X106338462Y-94371395D01*
X106164000Y-94404350D01*
X105836000Y-94404350D01*
X105661538Y-94371395D01*
X105455665Y-94458343D01*
X105270711Y-94583784D01*
X105239999Y-94614924D01*
X105239999Y-94165097D01*
X105473751Y-93931345D01*
X105561630Y-93978318D01*
X105776521Y-94043504D01*
X105944006Y-94060000D01*
X106055994Y-94060000D01*
X106223479Y-94043504D01*
X106438370Y-93978318D01*
X106636414Y-93872461D01*
X106810001Y-93730001D01*
X106952461Y-93556414D01*
X107058318Y-93358370D01*
X107123504Y-93143479D01*
X107145515Y-92920000D01*
X107123504Y-92696521D01*
X107058318Y-92481630D01*
X106952461Y-92283586D01*
X106810001Y-92109999D01*
X106636414Y-91967539D01*
X106438370Y-91861682D01*
X106223479Y-91796496D01*
X106055994Y-91780000D01*
X105944006Y-91780000D01*
X105776521Y-91796496D01*
X105561630Y-91861682D01*
X105363586Y-91967539D01*
X105189999Y-92109999D01*
X105047539Y-92283586D01*
X104941682Y-92481630D01*
X104934593Y-92505000D01*
X102346897Y-92505000D01*
X101241897Y-91400000D01*
X101463500Y-91400000D01*
X101536000Y-91327500D01*
X101536000Y-90960000D01*
X101864000Y-90960000D01*
X101864000Y-91327500D01*
X101936500Y-91400000D01*
X102478562Y-91400000D01*
X102534589Y-91388856D01*
X102587366Y-91366995D01*
X102634864Y-91335258D01*
X102675257Y-91294865D01*
X102706994Y-91247367D01*
X102728855Y-91194590D01*
X102740000Y-91138563D01*
X102740000Y-91032500D01*
X102667500Y-90960000D01*
X101864000Y-90960000D01*
X101536000Y-90960000D01*
X100801897Y-90960000D01*
X100323334Y-90481437D01*
X100660000Y-90481437D01*
X100660000Y-90587500D01*
X100732500Y-90660000D01*
X101536000Y-90660000D01*
X101536000Y-90292500D01*
X101864000Y-90292500D01*
X101864000Y-90660000D01*
X102667500Y-90660000D01*
X102740000Y-90587500D01*
X102740000Y-90481437D01*
X102728855Y-90425410D01*
X102706994Y-90372633D01*
X102675257Y-90325135D01*
X102634864Y-90284742D01*
X102587366Y-90253005D01*
X102534589Y-90231144D01*
X102478562Y-90220000D01*
X101936500Y-90220000D01*
X101864000Y-90292500D01*
X101536000Y-90292500D01*
X101463500Y-90220000D01*
X100921438Y-90220000D01*
X100865411Y-90231144D01*
X100812634Y-90253005D01*
X100765136Y-90284742D01*
X100724743Y-90325135D01*
X100693006Y-90372633D01*
X100671145Y-90425410D01*
X100660000Y-90481437D01*
X100323334Y-90481437D01*
X99081897Y-89240000D01*
X100658597Y-89240000D01*
X100658597Y-89840000D01*
X100664196Y-89896850D01*
X100680779Y-89951515D01*
X100707707Y-90001895D01*
X100743947Y-90046053D01*
X100788105Y-90082293D01*
X100838485Y-90109221D01*
X100893150Y-90125804D01*
X100950000Y-90131403D01*
X102450000Y-90131403D01*
X102506850Y-90125804D01*
X102561515Y-90109221D01*
X102611895Y-90082293D01*
X102656053Y-90046053D01*
X102692293Y-90001895D01*
X102717358Y-89955000D01*
X104937626Y-89955000D01*
X104876496Y-90156521D01*
X104854485Y-90380000D01*
X104876496Y-90603479D01*
X104941682Y-90818370D01*
X105047539Y-91016414D01*
X105189999Y-91190001D01*
X105363586Y-91332461D01*
X105561630Y-91438318D01*
X105776521Y-91503504D01*
X105944006Y-91520000D01*
X106055994Y-91520000D01*
X106223479Y-91503504D01*
X106438370Y-91438318D01*
X106636414Y-91332461D01*
X106810001Y-91190001D01*
X106952461Y-91016414D01*
X107058318Y-90818370D01*
X107123504Y-90603479D01*
X107145515Y-90380000D01*
X107123504Y-90156521D01*
X107058318Y-89941630D01*
X106952461Y-89743586D01*
X106810001Y-89569999D01*
X106636414Y-89427539D01*
X106438370Y-89321682D01*
X106223479Y-89256496D01*
X106055994Y-89240000D01*
X105944006Y-89240000D01*
X105776521Y-89256496D01*
X105561630Y-89321682D01*
X105540092Y-89333194D01*
X105467866Y-89260968D01*
X105454869Y-89245131D01*
X105391677Y-89193271D01*
X105319582Y-89154735D01*
X105241354Y-89131005D01*
X105180387Y-89125000D01*
X105180377Y-89125000D01*
X105160000Y-89122993D01*
X105139623Y-89125000D01*
X102717358Y-89125000D01*
X102692293Y-89078105D01*
X102656053Y-89033947D01*
X102611895Y-88997707D01*
X102561515Y-88970779D01*
X102506850Y-88954196D01*
X102450000Y-88948597D01*
X100950000Y-88948597D01*
X100893150Y-88954196D01*
X100838485Y-88970779D01*
X100788105Y-88997707D01*
X100743947Y-89033947D01*
X100707707Y-89078105D01*
X100680779Y-89128485D01*
X100664196Y-89183150D01*
X100658597Y-89240000D01*
X99081897Y-89240000D01*
X97811897Y-87970000D01*
X100658597Y-87970000D01*
X100658597Y-88570000D01*
X100664196Y-88626850D01*
X100680779Y-88681515D01*
X100707707Y-88731895D01*
X100743947Y-88776053D01*
X100788105Y-88812293D01*
X100838485Y-88839221D01*
X100893150Y-88855804D01*
X100950000Y-88861403D01*
X102450000Y-88861403D01*
X102506850Y-88855804D01*
X102561515Y-88839221D01*
X102611895Y-88812293D01*
X102656053Y-88776053D01*
X102692293Y-88731895D01*
X102717358Y-88685000D01*
X105232645Y-88685000D01*
X105363586Y-88792461D01*
X105561630Y-88898318D01*
X105776521Y-88963504D01*
X105944006Y-88980000D01*
X106055994Y-88980000D01*
X106223479Y-88963504D01*
X106438370Y-88898318D01*
X106636414Y-88792461D01*
X106810001Y-88650001D01*
X106952461Y-88476414D01*
X107058318Y-88278370D01*
X107123504Y-88063479D01*
X107145515Y-87840000D01*
X107123504Y-87616521D01*
X107058318Y-87401630D01*
X106952461Y-87203586D01*
X106810001Y-87029999D01*
X106636414Y-86887539D01*
X106438370Y-86781682D01*
X106223479Y-86716496D01*
X106055994Y-86700000D01*
X105944006Y-86700000D01*
X105776521Y-86716496D01*
X105561630Y-86781682D01*
X105363586Y-86887539D01*
X105189999Y-87029999D01*
X105047539Y-87203586D01*
X104941682Y-87401630D01*
X104876496Y-87616521D01*
X104854485Y-87840000D01*
X104855962Y-87855000D01*
X102717358Y-87855000D01*
X102692293Y-87808105D01*
X102656053Y-87763947D01*
X102611895Y-87727707D01*
X102561515Y-87700779D01*
X102506850Y-87684196D01*
X102450000Y-87678597D01*
X100950000Y-87678597D01*
X100893150Y-87684196D01*
X100838485Y-87700779D01*
X100788105Y-87727707D01*
X100743947Y-87763947D01*
X100707707Y-87808105D01*
X100680779Y-87858485D01*
X100664196Y-87913150D01*
X100658597Y-87970000D01*
X97811897Y-87970000D01*
X97790001Y-87948105D01*
X97790001Y-86700000D01*
X100658597Y-86700000D01*
X100658597Y-87300000D01*
X100664196Y-87356850D01*
X100680779Y-87411515D01*
X100707707Y-87461895D01*
X100743947Y-87506053D01*
X100788105Y-87542293D01*
X100838485Y-87569221D01*
X100893150Y-87585804D01*
X100950000Y-87591403D01*
X102450000Y-87591403D01*
X102506850Y-87585804D01*
X102561515Y-87569221D01*
X102611895Y-87542293D01*
X102656053Y-87506053D01*
X102692293Y-87461895D01*
X102717358Y-87415000D01*
X104279623Y-87415000D01*
X104300000Y-87417007D01*
X104320377Y-87415000D01*
X104320387Y-87415000D01*
X104381354Y-87408995D01*
X104459582Y-87385265D01*
X104531677Y-87346729D01*
X104594869Y-87294869D01*
X104607866Y-87279032D01*
X105540093Y-86346806D01*
X105561630Y-86358318D01*
X105776521Y-86423504D01*
X105944006Y-86440000D01*
X106055994Y-86440000D01*
X106223479Y-86423504D01*
X106438370Y-86358318D01*
X106636414Y-86252461D01*
X106810001Y-86110001D01*
X106952461Y-85936414D01*
X107058318Y-85738370D01*
X107123504Y-85523479D01*
X107145515Y-85300000D01*
X107123504Y-85076521D01*
X107058318Y-84861630D01*
X106952461Y-84663586D01*
X106810001Y-84489999D01*
X106636414Y-84347539D01*
X106438370Y-84241682D01*
X106223479Y-84176496D01*
X106055994Y-84160000D01*
X105944006Y-84160000D01*
X105776521Y-84176496D01*
X105561630Y-84241682D01*
X105363586Y-84347539D01*
X105189999Y-84489999D01*
X105047539Y-84663586D01*
X104941682Y-84861630D01*
X104876496Y-85076521D01*
X104854485Y-85300000D01*
X104876496Y-85523479D01*
X104941682Y-85738370D01*
X104953194Y-85759907D01*
X104128102Y-86585000D01*
X102717358Y-86585000D01*
X102692293Y-86538105D01*
X102656053Y-86493947D01*
X102611895Y-86457707D01*
X102561515Y-86430779D01*
X102506850Y-86414196D01*
X102450000Y-86408597D01*
X100950000Y-86408597D01*
X100893150Y-86414196D01*
X100838485Y-86430779D01*
X100788105Y-86457707D01*
X100743947Y-86493947D01*
X100707707Y-86538105D01*
X100680779Y-86588485D01*
X100664196Y-86643150D01*
X100658597Y-86700000D01*
X97790001Y-86700000D01*
X97790001Y-83835378D01*
X97792008Y-83815001D01*
X97790001Y-83794624D01*
X97790001Y-83794614D01*
X97783996Y-83733647D01*
X97760266Y-83655419D01*
X97734389Y-83607007D01*
X97721730Y-83583323D01*
X97682866Y-83535967D01*
X97682862Y-83535963D01*
X97669870Y-83520132D01*
X97654038Y-83507139D01*
X97341403Y-83194505D01*
X97341403Y-82928301D01*
X97882134Y-83469032D01*
X97895131Y-83484869D01*
X97958323Y-83536729D01*
X98030418Y-83575265D01*
X98108646Y-83598995D01*
X98169613Y-83605000D01*
X98169622Y-83605000D01*
X98189999Y-83607007D01*
X98210376Y-83605000D01*
X100682642Y-83605000D01*
X100707707Y-83651895D01*
X100743947Y-83696053D01*
X100788105Y-83732293D01*
X100838485Y-83759221D01*
X100893150Y-83775804D01*
X100950000Y-83781403D01*
X102241699Y-83781403D01*
X102154505Y-83868597D01*
X100950000Y-83868597D01*
X100893150Y-83874196D01*
X100838485Y-83890779D01*
X100788105Y-83917707D01*
X100743947Y-83953947D01*
X100707707Y-83998105D01*
X100680779Y-84048485D01*
X100664196Y-84103150D01*
X100658597Y-84160000D01*
X100658597Y-84760000D01*
X100664196Y-84816850D01*
X100680779Y-84871515D01*
X100707707Y-84921895D01*
X100743947Y-84966053D01*
X100788105Y-85002293D01*
X100838485Y-85029221D01*
X100893150Y-85045804D01*
X100950000Y-85051403D01*
X102450000Y-85051403D01*
X102506850Y-85045804D01*
X102561515Y-85029221D01*
X102611895Y-85002293D01*
X102656053Y-84966053D01*
X102692293Y-84921895D01*
X102719221Y-84871515D01*
X102735804Y-84816850D01*
X102741403Y-84760000D01*
X102741403Y-84455495D01*
X105017944Y-82178954D01*
X104941682Y-82321630D01*
X104876496Y-82536521D01*
X104854485Y-82760000D01*
X104876496Y-82983479D01*
X104941682Y-83198370D01*
X104953194Y-83219908D01*
X102858102Y-85315000D01*
X102717358Y-85315000D01*
X102692293Y-85268105D01*
X102656053Y-85223947D01*
X102611895Y-85187707D01*
X102561515Y-85160779D01*
X102506850Y-85144196D01*
X102450000Y-85138597D01*
X100950000Y-85138597D01*
X100893150Y-85144196D01*
X100838485Y-85160779D01*
X100788105Y-85187707D01*
X100743947Y-85223947D01*
X100707707Y-85268105D01*
X100680779Y-85318485D01*
X100664196Y-85373150D01*
X100658597Y-85430000D01*
X100658597Y-86030000D01*
X100664196Y-86086850D01*
X100680779Y-86141515D01*
X100707707Y-86191895D01*
X100743947Y-86236053D01*
X100788105Y-86272293D01*
X100838485Y-86299221D01*
X100893150Y-86315804D01*
X100950000Y-86321403D01*
X102450000Y-86321403D01*
X102506850Y-86315804D01*
X102561515Y-86299221D01*
X102611895Y-86272293D01*
X102656053Y-86236053D01*
X102692293Y-86191895D01*
X102717358Y-86145000D01*
X103009623Y-86145000D01*
X103030000Y-86147007D01*
X103050377Y-86145000D01*
X103050387Y-86145000D01*
X103111354Y-86138995D01*
X103189582Y-86115265D01*
X103261677Y-86076729D01*
X103324869Y-86024869D01*
X103337866Y-86009032D01*
X105540092Y-83806806D01*
X105561630Y-83818318D01*
X105776521Y-83883504D01*
X105944006Y-83900000D01*
X106055994Y-83900000D01*
X106223479Y-83883504D01*
X106438370Y-83818318D01*
X106636414Y-83712461D01*
X106810001Y-83570001D01*
X106952461Y-83396414D01*
X107058318Y-83198370D01*
X107123504Y-82983479D01*
X107145515Y-82760000D01*
X107123504Y-82536521D01*
X107058318Y-82321630D01*
X106952461Y-82123586D01*
X106810001Y-81949999D01*
X106636414Y-81807539D01*
X106438370Y-81701682D01*
X106223479Y-81636496D01*
X106055994Y-81620000D01*
X105944006Y-81620000D01*
X105776521Y-81636496D01*
X105561630Y-81701682D01*
X105418954Y-81777944D01*
X105835495Y-81361403D01*
X106850000Y-81361403D01*
X106906850Y-81355804D01*
X106961515Y-81339221D01*
X107011895Y-81312293D01*
X107056053Y-81276053D01*
X107092293Y-81231895D01*
X107119221Y-81181515D01*
X107135804Y-81126850D01*
X107141403Y-81070000D01*
X107141403Y-79370000D01*
X107135804Y-79313150D01*
X107119221Y-79258485D01*
X107092293Y-79208105D01*
X107056053Y-79163947D01*
X107011895Y-79127707D01*
X106961515Y-79100779D01*
X106906850Y-79084196D01*
X106850000Y-79078597D01*
X105150000Y-79078597D01*
X105093150Y-79084196D01*
X105038485Y-79100779D01*
X104988105Y-79127707D01*
X104943947Y-79163947D01*
X104907707Y-79208105D01*
X104880779Y-79258485D01*
X104864196Y-79313150D01*
X104858597Y-79370000D01*
X104858597Y-81070000D01*
X104864196Y-81126850D01*
X104871657Y-81151445D01*
X102741403Y-83281699D01*
X102741403Y-82890000D01*
X102735804Y-82833150D01*
X102719221Y-82778485D01*
X102692293Y-82728105D01*
X102656053Y-82683947D01*
X102611895Y-82647707D01*
X102561515Y-82620779D01*
X102506850Y-82604196D01*
X102450000Y-82598597D01*
X100950000Y-82598597D01*
X100893150Y-82604196D01*
X100838485Y-82620779D01*
X100788105Y-82647707D01*
X100743947Y-82683947D01*
X100707707Y-82728105D01*
X100682642Y-82775000D01*
X98361898Y-82775000D01*
X96934169Y-81347271D01*
X96940000Y-81317959D01*
X96940000Y-81182041D01*
X96913484Y-81048734D01*
X96861470Y-80923162D01*
X96785958Y-80810150D01*
X96689850Y-80714042D01*
X96576838Y-80638530D01*
X96451266Y-80586516D01*
X96317959Y-80560000D01*
X96182041Y-80560000D01*
X96048734Y-80586516D01*
X95923162Y-80638530D01*
X95810150Y-80714042D01*
X95714042Y-80810150D01*
X95638530Y-80923162D01*
X95586516Y-81048734D01*
X95560000Y-81182041D01*
X95560000Y-81317959D01*
X95586516Y-81451266D01*
X95638530Y-81576838D01*
X95714042Y-81689850D01*
X95810150Y-81785958D01*
X95923162Y-81861470D01*
X96048734Y-81913484D01*
X96182041Y-81940000D01*
X96317959Y-81940000D01*
X96347271Y-81934169D01*
X97011699Y-82598597D01*
X95550000Y-82598597D01*
X95493150Y-82604196D01*
X95438485Y-82620779D01*
X95388105Y-82647707D01*
X95343947Y-82683947D01*
X95307707Y-82728105D01*
X95280779Y-82778485D01*
X95264196Y-82833150D01*
X95258597Y-82890000D01*
X95258597Y-83490000D01*
X95264196Y-83546850D01*
X95280779Y-83601515D01*
X95307707Y-83651895D01*
X95343947Y-83696053D01*
X95388105Y-83732293D01*
X95438485Y-83759221D01*
X95493150Y-83775804D01*
X95550000Y-83781403D01*
X96754505Y-83781403D01*
X96841698Y-83868597D01*
X95550000Y-83868597D01*
X95493150Y-83874196D01*
X95438485Y-83890779D01*
X95388105Y-83917707D01*
X95343947Y-83953947D01*
X95307707Y-83998105D01*
X95280779Y-84048485D01*
X95264196Y-84103150D01*
X95258597Y-84160000D01*
X95258597Y-84760000D01*
X95264196Y-84816850D01*
X95280779Y-84871515D01*
X95307707Y-84921895D01*
X95343947Y-84966053D01*
X95388105Y-85002293D01*
X95438485Y-85029221D01*
X95493150Y-85045804D01*
X95550000Y-85051403D01*
X96960002Y-85051403D01*
X96960002Y-85138597D01*
X95550000Y-85138597D01*
X95493150Y-85144196D01*
X95438485Y-85160779D01*
X95388105Y-85187707D01*
X95343947Y-85223947D01*
X95307707Y-85268105D01*
X95280779Y-85318485D01*
X95264196Y-85373150D01*
X95258597Y-85430000D01*
X95258597Y-86030000D01*
X95264196Y-86086850D01*
X95280779Y-86141515D01*
X95307707Y-86191895D01*
X95343947Y-86236053D01*
X95388105Y-86272293D01*
X95438485Y-86299221D01*
X95493150Y-86315804D01*
X95550000Y-86321403D01*
X96960001Y-86321403D01*
X96960001Y-86408597D01*
X95550000Y-86408597D01*
X95493150Y-86414196D01*
X95438485Y-86430779D01*
X95388105Y-86457707D01*
X95343947Y-86493947D01*
X95307707Y-86538105D01*
X95280779Y-86588485D01*
X95264196Y-86643150D01*
X95258597Y-86700000D01*
X95258597Y-87300000D01*
X95264196Y-87356850D01*
X95280779Y-87411515D01*
X95307707Y-87461895D01*
X95343947Y-87506053D01*
X95388105Y-87542293D01*
X95438485Y-87569221D01*
X95493150Y-87585804D01*
X95550000Y-87591403D01*
X96960001Y-87591403D01*
X96960001Y-87678597D01*
X95550000Y-87678597D01*
X95493150Y-87684196D01*
X95438485Y-87700779D01*
X95388105Y-87727707D01*
X95343947Y-87763947D01*
X95307707Y-87808105D01*
X95280779Y-87858485D01*
X95264196Y-87913150D01*
X95258597Y-87970000D01*
X95258597Y-88570000D01*
X95264196Y-88626850D01*
X95280779Y-88681515D01*
X95307707Y-88731895D01*
X95343947Y-88776053D01*
X95388105Y-88812293D01*
X95438485Y-88839221D01*
X95493150Y-88855804D01*
X95550000Y-88861403D01*
X97050000Y-88861403D01*
X97106850Y-88855804D01*
X97161515Y-88839221D01*
X97211895Y-88812293D01*
X97256053Y-88776053D01*
X97292293Y-88731895D01*
X97319221Y-88681515D01*
X97326295Y-88658195D01*
X101867137Y-93199038D01*
X101880129Y-93214869D01*
X101895960Y-93227861D01*
X101895964Y-93227865D01*
X101943320Y-93266729D01*
X102015416Y-93305265D01*
X102093644Y-93328995D01*
X102154611Y-93335000D01*
X102154621Y-93335000D01*
X102174998Y-93337007D01*
X102195375Y-93335000D01*
X104259904Y-93335000D01*
X104169686Y-93425218D01*
X104145261Y-93445263D01*
X104065284Y-93542717D01*
X104005856Y-93653900D01*
X103982771Y-93730001D01*
X103969260Y-93774540D01*
X103956903Y-93900001D01*
X103959999Y-93931435D01*
X103960000Y-114348555D01*
X103956903Y-114379999D01*
X103969260Y-114505460D01*
X103989663Y-114572717D01*
X104005857Y-114626101D01*
X104065285Y-114737284D01*
X104145262Y-114834737D01*
X104169681Y-114854777D01*
X104454903Y-115140000D01*
X88425096Y-115140000D01*
X83742363Y-110457267D01*
X97890000Y-110457267D01*
X97890000Y-110622733D01*
X97922281Y-110785019D01*
X97985602Y-110937889D01*
X98077530Y-111075469D01*
X98194531Y-111192470D01*
X98332111Y-111284398D01*
X98484981Y-111347719D01*
X98647267Y-111380000D01*
X98812733Y-111380000D01*
X98975019Y-111347719D01*
X99127889Y-111284398D01*
X99265469Y-111192470D01*
X99382470Y-111075469D01*
X99474398Y-110937889D01*
X99537719Y-110785019D01*
X99570000Y-110622733D01*
X99570000Y-110457267D01*
X100430000Y-110457267D01*
X100430000Y-110622733D01*
X100462281Y-110785019D01*
X100525602Y-110937889D01*
X100617530Y-111075469D01*
X100734531Y-111192470D01*
X100872111Y-111284398D01*
X101024981Y-111347719D01*
X101187267Y-111380000D01*
X101352733Y-111380000D01*
X101515019Y-111347719D01*
X101667889Y-111284398D01*
X101805469Y-111192470D01*
X101922470Y-111075469D01*
X102014398Y-110937889D01*
X102077719Y-110785019D01*
X102110000Y-110622733D01*
X102110000Y-110457267D01*
X102077719Y-110294981D01*
X102014398Y-110142111D01*
X101922470Y-110004531D01*
X101805469Y-109887530D01*
X101667889Y-109795602D01*
X101515019Y-109732281D01*
X101352733Y-109700000D01*
X101187267Y-109700000D01*
X101024981Y-109732281D01*
X100872111Y-109795602D01*
X100734531Y-109887530D01*
X100617530Y-110004531D01*
X100525602Y-110142111D01*
X100462281Y-110294981D01*
X100430000Y-110457267D01*
X99570000Y-110457267D01*
X99537719Y-110294981D01*
X99474398Y-110142111D01*
X99382470Y-110004531D01*
X99265469Y-109887530D01*
X99127889Y-109795602D01*
X98975019Y-109732281D01*
X98812733Y-109700000D01*
X98647267Y-109700000D01*
X98484981Y-109732281D01*
X98332111Y-109795602D01*
X98194531Y-109887530D01*
X98077530Y-110004531D01*
X97985602Y-110142111D01*
X97922281Y-110294981D01*
X97890000Y-110457267D01*
X83742363Y-110457267D01*
X81158042Y-107872946D01*
X97440000Y-107872946D01*
X97440000Y-108127054D01*
X97489574Y-108376279D01*
X97586817Y-108611044D01*
X97727991Y-108822327D01*
X97907673Y-109002009D01*
X98118956Y-109143183D01*
X98353721Y-109240426D01*
X98602946Y-109290000D01*
X98857054Y-109290000D01*
X99106279Y-109240426D01*
X99341044Y-109143183D01*
X99552327Y-109002009D01*
X99732009Y-108822327D01*
X99873183Y-108611044D01*
X99970426Y-108376279D01*
X99980000Y-108328147D01*
X99980000Y-109028563D01*
X99991145Y-109084590D01*
X100013006Y-109137367D01*
X100044743Y-109184865D01*
X100085136Y-109225258D01*
X100132634Y-109256995D01*
X100185411Y-109278856D01*
X100241438Y-109290000D01*
X101033500Y-109290000D01*
X101106000Y-109217500D01*
X101106000Y-108164000D01*
X101434000Y-108164000D01*
X101434000Y-109217500D01*
X101506500Y-109290000D01*
X102298562Y-109290000D01*
X102354589Y-109278856D01*
X102407366Y-109256995D01*
X102454864Y-109225258D01*
X102495257Y-109184865D01*
X102526994Y-109137367D01*
X102548855Y-109084590D01*
X102560000Y-109028563D01*
X102560000Y-108236500D01*
X102487500Y-108164000D01*
X101434000Y-108164000D01*
X101106000Y-108164000D01*
X101086000Y-108164000D01*
X101086000Y-107836000D01*
X101106000Y-107836000D01*
X101106000Y-106782500D01*
X101434000Y-106782500D01*
X101434000Y-107836000D01*
X102487500Y-107836000D01*
X102560000Y-107763500D01*
X102560000Y-106971437D01*
X102548855Y-106915410D01*
X102526994Y-106862633D01*
X102495257Y-106815135D01*
X102454864Y-106774742D01*
X102407366Y-106743005D01*
X102354589Y-106721144D01*
X102298562Y-106710000D01*
X101506500Y-106710000D01*
X101434000Y-106782500D01*
X101106000Y-106782500D01*
X101033500Y-106710000D01*
X100241438Y-106710000D01*
X100185411Y-106721144D01*
X100132634Y-106743005D01*
X100085136Y-106774742D01*
X100044743Y-106815135D01*
X100013006Y-106862633D01*
X99991145Y-106915410D01*
X99980000Y-106971437D01*
X99980000Y-107671853D01*
X99970426Y-107623721D01*
X99873183Y-107388956D01*
X99732009Y-107177673D01*
X99552327Y-106997991D01*
X99341044Y-106856817D01*
X99106279Y-106759574D01*
X98857054Y-106710000D01*
X98602946Y-106710000D01*
X98353721Y-106759574D01*
X98118956Y-106856817D01*
X97907673Y-106997991D01*
X97727991Y-107177673D01*
X97586817Y-107388956D01*
X97489574Y-107623721D01*
X97440000Y-107872946D01*
X81158042Y-107872946D01*
X79123959Y-105838863D01*
X79145515Y-105620000D01*
X79123959Y-105401137D01*
X87180315Y-97344781D01*
X87204738Y-97324738D01*
X87284715Y-97227285D01*
X87344143Y-97116102D01*
X87380739Y-96995462D01*
X87390000Y-96901434D01*
X87390000Y-96901433D01*
X87393096Y-96870000D01*
X87390000Y-96838566D01*
X87390000Y-90510000D01*
X95258597Y-90510000D01*
X95258597Y-91110000D01*
X95264196Y-91166850D01*
X95280779Y-91221515D01*
X95307707Y-91271895D01*
X95343947Y-91316053D01*
X95388105Y-91352293D01*
X95438485Y-91379221D01*
X95493150Y-91395804D01*
X95550000Y-91401403D01*
X97050000Y-91401403D01*
X97106850Y-91395804D01*
X97161515Y-91379221D01*
X97211895Y-91352293D01*
X97256053Y-91316053D01*
X97292293Y-91271895D01*
X97319221Y-91221515D01*
X97335804Y-91166850D01*
X97341403Y-91110000D01*
X97341403Y-90510000D01*
X97335804Y-90453150D01*
X97319221Y-90398485D01*
X97292293Y-90348105D01*
X97256053Y-90303947D01*
X97211895Y-90267707D01*
X97161515Y-90240779D01*
X97106850Y-90224196D01*
X97050000Y-90218597D01*
X95550000Y-90218597D01*
X95493150Y-90224196D01*
X95438485Y-90240779D01*
X95388105Y-90267707D01*
X95343947Y-90303947D01*
X95307707Y-90348105D01*
X95280779Y-90398485D01*
X95264196Y-90453150D01*
X95258597Y-90510000D01*
X87390000Y-90510000D01*
X87390000Y-89240000D01*
X95258597Y-89240000D01*
X95258597Y-89840000D01*
X95264196Y-89896850D01*
X95280779Y-89951515D01*
X95307707Y-90001895D01*
X95343947Y-90046053D01*
X95388105Y-90082293D01*
X95438485Y-90109221D01*
X95493150Y-90125804D01*
X95550000Y-90131403D01*
X97050000Y-90131403D01*
X97106850Y-90125804D01*
X97161515Y-90109221D01*
X97211895Y-90082293D01*
X97256053Y-90046053D01*
X97292293Y-90001895D01*
X97319221Y-89951515D01*
X97335804Y-89896850D01*
X97341403Y-89840000D01*
X97341403Y-89240000D01*
X97335804Y-89183150D01*
X97319221Y-89128485D01*
X97292293Y-89078105D01*
X97256053Y-89033947D01*
X97211895Y-88997707D01*
X97161515Y-88970779D01*
X97106850Y-88954196D01*
X97050000Y-88948597D01*
X95550000Y-88948597D01*
X95493150Y-88954196D01*
X95438485Y-88970779D01*
X95388105Y-88997707D01*
X95343947Y-89033947D01*
X95307707Y-89078105D01*
X95280779Y-89128485D01*
X95264196Y-89183150D01*
X95258597Y-89240000D01*
X87390000Y-89240000D01*
X87390000Y-79515096D01*
X92265097Y-74640000D01*
X93668597Y-74640000D01*
X93668597Y-75000000D01*
X93674196Y-75056850D01*
X93690779Y-75111515D01*
X93717707Y-75161895D01*
X93753947Y-75206053D01*
X93798105Y-75242293D01*
X93848485Y-75269221D01*
X93903150Y-75285804D01*
X93960000Y-75291403D01*
X95960000Y-75291403D01*
X96016850Y-75285804D01*
X96071515Y-75269221D01*
X96121895Y-75242293D01*
X96166053Y-75206053D01*
X96202293Y-75161895D01*
X96229221Y-75111515D01*
X96245804Y-75056850D01*
X96251403Y-75000000D01*
X96251403Y-74335201D01*
X96259574Y-74376279D01*
X96356817Y-74611044D01*
X96497991Y-74822327D01*
X96677673Y-75002009D01*
X96888956Y-75143183D01*
X97123721Y-75240426D01*
X97372946Y-75290000D01*
X97627054Y-75290000D01*
X97876279Y-75240426D01*
X98111044Y-75143183D01*
X98322327Y-75002009D01*
X98396621Y-74927715D01*
X113265193Y-74927715D01*
X113308377Y-75312705D01*
X113425516Y-75681975D01*
X113612150Y-76021460D01*
X113861168Y-76318228D01*
X114163087Y-76560977D01*
X114506406Y-76740460D01*
X114878048Y-76849840D01*
X115263858Y-76884952D01*
X115649140Y-76844457D01*
X116019218Y-76729898D01*
X116359998Y-76545640D01*
X116658498Y-76298699D01*
X116903349Y-75998482D01*
X117085224Y-75656425D01*
X117197196Y-75285555D01*
X117235000Y-74900000D01*
X117234226Y-74844576D01*
X117185671Y-74460226D01*
X117063388Y-74092628D01*
X116872033Y-73755782D01*
X116618895Y-73462519D01*
X116313616Y-73224009D01*
X115967825Y-73049337D01*
X115594692Y-72945157D01*
X115208429Y-72915435D01*
X114823750Y-72961306D01*
X114455307Y-73081020D01*
X114117134Y-73270019D01*
X113822110Y-73521103D01*
X113581475Y-73824709D01*
X113404394Y-74169273D01*
X113297611Y-74541669D01*
X113265193Y-74927715D01*
X98396621Y-74927715D01*
X98502009Y-74822327D01*
X98643183Y-74611044D01*
X98740426Y-74376279D01*
X98790000Y-74127054D01*
X98790000Y-73872946D01*
X98740426Y-73623721D01*
X98643183Y-73388956D01*
X98502009Y-73177673D01*
X98322327Y-72997991D01*
X98111044Y-72856817D01*
X97876279Y-72759574D01*
X97627054Y-72710000D01*
X97372946Y-72710000D01*
X97123721Y-72759574D01*
X96888956Y-72856817D01*
X96677673Y-72997991D01*
X96497991Y-73177673D01*
X96356817Y-73388956D01*
X96259574Y-73623721D01*
X96251403Y-73664799D01*
X96251403Y-73000000D01*
X96245804Y-72943150D01*
X96229221Y-72888485D01*
X96202293Y-72838105D01*
X96166053Y-72793947D01*
X96121895Y-72757707D01*
X96071515Y-72730779D01*
X96016850Y-72714196D01*
X95960000Y-72708597D01*
X93960000Y-72708597D01*
X93903150Y-72714196D01*
X93848485Y-72730779D01*
X93798105Y-72757707D01*
X93753947Y-72793947D01*
X93717707Y-72838105D01*
X93690779Y-72888485D01*
X93674196Y-72943150D01*
X93668597Y-73000000D01*
X93668597Y-73360000D01*
X92031433Y-73360000D01*
X91999999Y-73356904D01*
X91874537Y-73369261D01*
X91837941Y-73380363D01*
X91753898Y-73405857D01*
X91642715Y-73465285D01*
X91545262Y-73545262D01*
X91525222Y-73569681D01*
X86479859Y-78615045D01*
X86423162Y-78638530D01*
X86310150Y-78714042D01*
X86214042Y-78810150D01*
X86138530Y-78923162D01*
X86086516Y-79048734D01*
X86060000Y-79182041D01*
X86060000Y-79317959D01*
X86086516Y-79451266D01*
X86110001Y-79507963D01*
X86110000Y-96604904D01*
X78218863Y-104496041D01*
X78055994Y-104480000D01*
X77944006Y-104480000D01*
X77776521Y-104496496D01*
X77561630Y-104561682D01*
X77363586Y-104667539D01*
X77189999Y-104809999D01*
X77047539Y-104983586D01*
X76941682Y-105181630D01*
X76876496Y-105396521D01*
X76854485Y-105620000D01*
X75890000Y-105620000D01*
X75890000Y-103418461D01*
X76911403Y-103418461D01*
X76990912Y-103610432D01*
X77113783Y-103797103D01*
X77270711Y-103956216D01*
X77455665Y-104081657D01*
X77661538Y-104168605D01*
X77836000Y-104135650D01*
X77836000Y-103244000D01*
X78164000Y-103244000D01*
X78164000Y-104135650D01*
X78338462Y-104168605D01*
X78544335Y-104081657D01*
X78729289Y-103956216D01*
X78886217Y-103797103D01*
X79009088Y-103610432D01*
X79088597Y-103418461D01*
X79054827Y-103244000D01*
X78164000Y-103244000D01*
X77836000Y-103244000D01*
X76945173Y-103244000D01*
X76911403Y-103418461D01*
X75890000Y-103418461D01*
X75890000Y-102741539D01*
X76911403Y-102741539D01*
X76945173Y-102916000D01*
X77836000Y-102916000D01*
X77836000Y-102024350D01*
X78164000Y-102024350D01*
X78164000Y-102916000D01*
X79054827Y-102916000D01*
X79088597Y-102741539D01*
X79009088Y-102549568D01*
X78886217Y-102362897D01*
X78729289Y-102203784D01*
X78544335Y-102078343D01*
X78338462Y-101991395D01*
X78164000Y-102024350D01*
X77836000Y-102024350D01*
X77661538Y-101991395D01*
X77455665Y-102078343D01*
X77270711Y-102203784D01*
X77113783Y-102362897D01*
X76990912Y-102549568D01*
X76911403Y-102741539D01*
X75890000Y-102741539D01*
X75890000Y-100540000D01*
X76854485Y-100540000D01*
X76876496Y-100763479D01*
X76941682Y-100978370D01*
X77047539Y-101176414D01*
X77189999Y-101350001D01*
X77363586Y-101492461D01*
X77561630Y-101598318D01*
X77776521Y-101663504D01*
X77944006Y-101680000D01*
X78055994Y-101680000D01*
X78223479Y-101663504D01*
X78438370Y-101598318D01*
X78636414Y-101492461D01*
X78810001Y-101350001D01*
X78952461Y-101176414D01*
X79058318Y-100978370D01*
X79123504Y-100763479D01*
X79145515Y-100540000D01*
X79123504Y-100316521D01*
X79058318Y-100101630D01*
X78952461Y-99903586D01*
X78810001Y-99729999D01*
X78636414Y-99587539D01*
X78438370Y-99481682D01*
X78223479Y-99416496D01*
X78055994Y-99400000D01*
X77944006Y-99400000D01*
X77776521Y-99416496D01*
X77561630Y-99481682D01*
X77363586Y-99587539D01*
X77189999Y-99729999D01*
X77047539Y-99903586D01*
X76941682Y-100101630D01*
X76876496Y-100316521D01*
X76854485Y-100540000D01*
X75890000Y-100540000D01*
X75890000Y-98000000D01*
X76854485Y-98000000D01*
X76876496Y-98223479D01*
X76941682Y-98438370D01*
X77047539Y-98636414D01*
X77189999Y-98810001D01*
X77363586Y-98952461D01*
X77561630Y-99058318D01*
X77776521Y-99123504D01*
X77944006Y-99140000D01*
X78055994Y-99140000D01*
X78223479Y-99123504D01*
X78438370Y-99058318D01*
X78636414Y-98952461D01*
X78810001Y-98810001D01*
X78952461Y-98636414D01*
X79058318Y-98438370D01*
X79123504Y-98223479D01*
X79145515Y-98000000D01*
X79123504Y-97776521D01*
X79058318Y-97561630D01*
X78952461Y-97363586D01*
X78810001Y-97189999D01*
X78636414Y-97047539D01*
X78438370Y-96941682D01*
X78223479Y-96876496D01*
X78055994Y-96860000D01*
X77944006Y-96860000D01*
X77776521Y-96876496D01*
X77561630Y-96941682D01*
X77363586Y-97047539D01*
X77189999Y-97189999D01*
X77047539Y-97363586D01*
X76941682Y-97561630D01*
X76876496Y-97776521D01*
X76854485Y-98000000D01*
X75890000Y-98000000D01*
X75890000Y-95460000D01*
X76854485Y-95460000D01*
X76876496Y-95683479D01*
X76941682Y-95898370D01*
X77047539Y-96096414D01*
X77189999Y-96270001D01*
X77363586Y-96412461D01*
X77561630Y-96518318D01*
X77776521Y-96583504D01*
X77944006Y-96600000D01*
X78055994Y-96600000D01*
X78223479Y-96583504D01*
X78438370Y-96518318D01*
X78636414Y-96412461D01*
X78810001Y-96270001D01*
X78952461Y-96096414D01*
X79058318Y-95898370D01*
X79123504Y-95683479D01*
X79145515Y-95460000D01*
X79123504Y-95236521D01*
X79058318Y-95021630D01*
X78952461Y-94823586D01*
X78810001Y-94649999D01*
X78636414Y-94507539D01*
X78438370Y-94401682D01*
X78223479Y-94336496D01*
X78055994Y-94320000D01*
X77944006Y-94320000D01*
X77776521Y-94336496D01*
X77561630Y-94401682D01*
X77363586Y-94507539D01*
X77189999Y-94649999D01*
X77047539Y-94823586D01*
X76941682Y-95021630D01*
X76876496Y-95236521D01*
X76854485Y-95460000D01*
X75890000Y-95460000D01*
X75890000Y-92920000D01*
X76854485Y-92920000D01*
X76876496Y-93143479D01*
X76941682Y-93358370D01*
X77047539Y-93556414D01*
X77189999Y-93730001D01*
X77363586Y-93872461D01*
X77561630Y-93978318D01*
X77776521Y-94043504D01*
X77944006Y-94060000D01*
X78055994Y-94060000D01*
X78223479Y-94043504D01*
X78438370Y-93978318D01*
X78636414Y-93872461D01*
X78810001Y-93730001D01*
X78952461Y-93556414D01*
X79058318Y-93358370D01*
X79123504Y-93143479D01*
X79145515Y-92920000D01*
X79123504Y-92696521D01*
X79058318Y-92481630D01*
X78952461Y-92283586D01*
X78810001Y-92109999D01*
X78636414Y-91967539D01*
X78438370Y-91861682D01*
X78223479Y-91796496D01*
X78055994Y-91780000D01*
X77944006Y-91780000D01*
X77776521Y-91796496D01*
X77561630Y-91861682D01*
X77363586Y-91967539D01*
X77189999Y-92109999D01*
X77047539Y-92283586D01*
X76941682Y-92481630D01*
X76876496Y-92696521D01*
X76854485Y-92920000D01*
X75890000Y-92920000D01*
X75890000Y-90380000D01*
X76854485Y-90380000D01*
X76876496Y-90603479D01*
X76941682Y-90818370D01*
X77047539Y-91016414D01*
X77189999Y-91190001D01*
X77363586Y-91332461D01*
X77561630Y-91438318D01*
X77776521Y-91503504D01*
X77944006Y-91520000D01*
X78055994Y-91520000D01*
X78223479Y-91503504D01*
X78438370Y-91438318D01*
X78636414Y-91332461D01*
X78810001Y-91190001D01*
X78952461Y-91016414D01*
X79058318Y-90818370D01*
X79123504Y-90603479D01*
X79145515Y-90380000D01*
X79123504Y-90156521D01*
X79058318Y-89941630D01*
X78952461Y-89743586D01*
X78810001Y-89569999D01*
X78636414Y-89427539D01*
X78438370Y-89321682D01*
X78223479Y-89256496D01*
X78055994Y-89240000D01*
X77944006Y-89240000D01*
X77776521Y-89256496D01*
X77561630Y-89321682D01*
X77363586Y-89427539D01*
X77189999Y-89569999D01*
X77047539Y-89743586D01*
X76941682Y-89941630D01*
X76876496Y-90156521D01*
X76854485Y-90380000D01*
X75890000Y-90380000D01*
X75890000Y-87840000D01*
X76854485Y-87840000D01*
X76876496Y-88063479D01*
X76941682Y-88278370D01*
X77047539Y-88476414D01*
X77189999Y-88650001D01*
X77363586Y-88792461D01*
X77561630Y-88898318D01*
X77776521Y-88963504D01*
X77944006Y-88980000D01*
X78055994Y-88980000D01*
X78223479Y-88963504D01*
X78438370Y-88898318D01*
X78636414Y-88792461D01*
X78810001Y-88650001D01*
X78952461Y-88476414D01*
X79058318Y-88278370D01*
X79123504Y-88063479D01*
X79145515Y-87840000D01*
X79123504Y-87616521D01*
X79058318Y-87401630D01*
X78952461Y-87203586D01*
X78810001Y-87029999D01*
X78636414Y-86887539D01*
X78438370Y-86781682D01*
X78223479Y-86716496D01*
X78055994Y-86700000D01*
X77944006Y-86700000D01*
X77776521Y-86716496D01*
X77561630Y-86781682D01*
X77363586Y-86887539D01*
X77189999Y-87029999D01*
X77047539Y-87203586D01*
X76941682Y-87401630D01*
X76876496Y-87616521D01*
X76854485Y-87840000D01*
X75890000Y-87840000D01*
X75890000Y-85300000D01*
X76854485Y-85300000D01*
X76876496Y-85523479D01*
X76941682Y-85738370D01*
X77047539Y-85936414D01*
X77189999Y-86110001D01*
X77363586Y-86252461D01*
X77561630Y-86358318D01*
X77776521Y-86423504D01*
X77944006Y-86440000D01*
X78055994Y-86440000D01*
X78223479Y-86423504D01*
X78438370Y-86358318D01*
X78636414Y-86252461D01*
X78810001Y-86110001D01*
X78952461Y-85936414D01*
X79058318Y-85738370D01*
X79123504Y-85523479D01*
X79145515Y-85300000D01*
X79123504Y-85076521D01*
X79058318Y-84861630D01*
X78952461Y-84663586D01*
X78810001Y-84489999D01*
X78636414Y-84347539D01*
X78438370Y-84241682D01*
X78223479Y-84176496D01*
X78055994Y-84160000D01*
X77944006Y-84160000D01*
X77776521Y-84176496D01*
X77561630Y-84241682D01*
X77363586Y-84347539D01*
X77189999Y-84489999D01*
X77047539Y-84663586D01*
X76941682Y-84861630D01*
X76876496Y-85076521D01*
X76854485Y-85300000D01*
X75890000Y-85300000D01*
X75890000Y-83098461D01*
X76911403Y-83098461D01*
X76990912Y-83290432D01*
X77113783Y-83477103D01*
X77270711Y-83636216D01*
X77455665Y-83761657D01*
X77661538Y-83848605D01*
X77836000Y-83815650D01*
X77836000Y-82924000D01*
X78164000Y-82924000D01*
X78164000Y-83815650D01*
X78338462Y-83848605D01*
X78544335Y-83761657D01*
X78729289Y-83636216D01*
X78886217Y-83477103D01*
X79009088Y-83290432D01*
X79088597Y-83098461D01*
X79054827Y-82924000D01*
X78164000Y-82924000D01*
X77836000Y-82924000D01*
X76945173Y-82924000D01*
X76911403Y-83098461D01*
X75890000Y-83098461D01*
X75890000Y-82421539D01*
X76911403Y-82421539D01*
X76945173Y-82596000D01*
X77836000Y-82596000D01*
X77836000Y-81704350D01*
X78164000Y-81704350D01*
X78164000Y-82596000D01*
X79054827Y-82596000D01*
X79088597Y-82421539D01*
X79009088Y-82229568D01*
X78886217Y-82042897D01*
X78729289Y-81883784D01*
X78544335Y-81758343D01*
X78338462Y-81671395D01*
X78164000Y-81704350D01*
X77836000Y-81704350D01*
X77661538Y-81671395D01*
X77455665Y-81758343D01*
X77270711Y-81883784D01*
X77113783Y-82042897D01*
X76990912Y-82229568D01*
X76911403Y-82421539D01*
X75890000Y-82421539D01*
X75890000Y-79370000D01*
X76858597Y-79370000D01*
X76858597Y-81070000D01*
X76864196Y-81126850D01*
X76880779Y-81181515D01*
X76907707Y-81231895D01*
X76943947Y-81276053D01*
X76988105Y-81312293D01*
X77038485Y-81339221D01*
X77093150Y-81355804D01*
X77150000Y-81361403D01*
X78850000Y-81361403D01*
X78906850Y-81355804D01*
X78961515Y-81339221D01*
X79011895Y-81312293D01*
X79056053Y-81276053D01*
X79092293Y-81231895D01*
X79119221Y-81181515D01*
X79135804Y-81126850D01*
X79141403Y-81070000D01*
X79141403Y-79370000D01*
X79135804Y-79313150D01*
X79119221Y-79258485D01*
X79092293Y-79208105D01*
X79056053Y-79163947D01*
X79011895Y-79127707D01*
X78961515Y-79100779D01*
X78906850Y-79084196D01*
X78850000Y-79078597D01*
X77150000Y-79078597D01*
X77093150Y-79084196D01*
X77038485Y-79100779D01*
X76988105Y-79127707D01*
X76943947Y-79163947D01*
X76907707Y-79208105D01*
X76880779Y-79258485D01*
X76864196Y-79313150D01*
X76858597Y-79370000D01*
X75890000Y-79370000D01*
X75890000Y-74927715D01*
X82765193Y-74927715D01*
X82808377Y-75312705D01*
X82925516Y-75681975D01*
X83112150Y-76021460D01*
X83361168Y-76318228D01*
X83663087Y-76560977D01*
X84006406Y-76740460D01*
X84378048Y-76849840D01*
X84763858Y-76884952D01*
X85149140Y-76844457D01*
X85519218Y-76729898D01*
X85859998Y-76545640D01*
X86158498Y-76298699D01*
X86403349Y-75998482D01*
X86585224Y-75656425D01*
X86697196Y-75285555D01*
X86735000Y-74900000D01*
X86734226Y-74844576D01*
X86685671Y-74460226D01*
X86563388Y-74092628D01*
X86372033Y-73755782D01*
X86118895Y-73462519D01*
X85813616Y-73224009D01*
X85467825Y-73049337D01*
X85094692Y-72945157D01*
X84708429Y-72915435D01*
X84323750Y-72961306D01*
X83955307Y-73081020D01*
X83617134Y-73270019D01*
X83322110Y-73521103D01*
X83081475Y-73824709D01*
X82904394Y-74169273D01*
X82797611Y-74541669D01*
X82765193Y-74927715D01*
X75890000Y-74927715D01*
X75890000Y-71377267D01*
X94120000Y-71377267D01*
X94120000Y-71542733D01*
X94152281Y-71705019D01*
X94215602Y-71857889D01*
X94307530Y-71995469D01*
X94424531Y-72112470D01*
X94562111Y-72204398D01*
X94714981Y-72267719D01*
X94877267Y-72300000D01*
X95042733Y-72300000D01*
X95205019Y-72267719D01*
X95357889Y-72204398D01*
X95495469Y-72112470D01*
X95612470Y-71995469D01*
X95704398Y-71857889D01*
X95767719Y-71705019D01*
X95800000Y-71542733D01*
X95800000Y-71377267D01*
X96660000Y-71377267D01*
X96660000Y-71542733D01*
X96692281Y-71705019D01*
X96755602Y-71857889D01*
X96847530Y-71995469D01*
X96964531Y-72112470D01*
X97102111Y-72204398D01*
X97254981Y-72267719D01*
X97417267Y-72300000D01*
X97582733Y-72300000D01*
X97745019Y-72267719D01*
X97897889Y-72204398D01*
X98035469Y-72112470D01*
X98119875Y-72028064D01*
X102490196Y-72028064D01*
X102533923Y-72417902D01*
X102652538Y-72791823D01*
X102841522Y-73135584D01*
X103093677Y-73436090D01*
X103399398Y-73681896D01*
X103747041Y-73863640D01*
X104123364Y-73974397D01*
X104514032Y-74009951D01*
X104904167Y-73968946D01*
X105278906Y-73852945D01*
X105623978Y-73666366D01*
X105926237Y-73416315D01*
X106174172Y-73112317D01*
X106358338Y-72765951D01*
X106471720Y-72390411D01*
X106510000Y-72000000D01*
X106509216Y-71943878D01*
X106460050Y-71554688D01*
X106336226Y-71182459D01*
X106142461Y-70841371D01*
X105886135Y-70544415D01*
X105577012Y-70302901D01*
X105226865Y-70126029D01*
X104849033Y-70020536D01*
X104457906Y-69990441D01*
X104068382Y-70036889D01*
X103695298Y-70158111D01*
X103352866Y-70349490D01*
X103054127Y-70603737D01*
X102810461Y-70911166D01*
X102631149Y-71260070D01*
X102523021Y-71637157D01*
X102490196Y-72028064D01*
X98119875Y-72028064D01*
X98152470Y-71995469D01*
X98244398Y-71857889D01*
X98307719Y-71705019D01*
X98340000Y-71542733D01*
X98340000Y-71377267D01*
X98307719Y-71214981D01*
X98244398Y-71062111D01*
X98152470Y-70924531D01*
X98035469Y-70807530D01*
X97897889Y-70715602D01*
X97745019Y-70652281D01*
X97582733Y-70620000D01*
X97417267Y-70620000D01*
X97254981Y-70652281D01*
X97102111Y-70715602D01*
X96964531Y-70807530D01*
X96847530Y-70924531D01*
X96755602Y-71062111D01*
X96692281Y-71214981D01*
X96660000Y-71377267D01*
X95800000Y-71377267D01*
X95767719Y-71214981D01*
X95704398Y-71062111D01*
X95612470Y-70924531D01*
X95495469Y-70807530D01*
X95357889Y-70715602D01*
X95205019Y-70652281D01*
X95042733Y-70620000D01*
X94877267Y-70620000D01*
X94714981Y-70652281D01*
X94562111Y-70715602D01*
X94424531Y-70807530D01*
X94307530Y-70924531D01*
X94215602Y-71062111D01*
X94152281Y-71214981D01*
X94120000Y-71377267D01*
X75890000Y-71377267D01*
X75890000Y-71019078D01*
X75941543Y-70493411D01*
X76088664Y-70006120D01*
X76327633Y-69556683D01*
X76649347Y-69162223D01*
X77041554Y-68837761D01*
X77489309Y-68595661D01*
X77975559Y-68445141D01*
X78500174Y-68390002D01*
X78500785Y-68390000D01*
X115980922Y-68390000D01*
X116506589Y-68441543D01*
X116506589Y-68441543D01*
G37*
X116506589Y-68441543D02*
X116993880Y-68588664D01*
X117443317Y-68827633D01*
X117837777Y-69149347D01*
X118162239Y-69541554D01*
X118404339Y-69989309D01*
X118554859Y-70475559D01*
X118609998Y-71000174D01*
X118610000Y-71000785D01*
X118610001Y-125980913D01*
X118558457Y-126506589D01*
X118411336Y-126993880D01*
X118172366Y-127443319D01*
X117850651Y-127837780D01*
X117458449Y-128162237D01*
X117010693Y-128404337D01*
X116524441Y-128554859D01*
X115999826Y-128609998D01*
X115999215Y-128610000D01*
X78519077Y-128610000D01*
X77993411Y-128558457D01*
X77506120Y-128411336D01*
X77056681Y-128172366D01*
X76662220Y-127850651D01*
X76337763Y-127458449D01*
X76095663Y-127010693D01*
X75945141Y-126524441D01*
X75890002Y-125999826D01*
X75890000Y-125999215D01*
X75890000Y-124028064D01*
X77490196Y-124028064D01*
X77533923Y-124417902D01*
X77652538Y-124791823D01*
X77841522Y-125135584D01*
X78093677Y-125436090D01*
X78399398Y-125681896D01*
X78747041Y-125863640D01*
X79123364Y-125974397D01*
X79514032Y-126009951D01*
X79904167Y-125968946D01*
X80278906Y-125852945D01*
X80623978Y-125666366D01*
X80926237Y-125416315D01*
X81161613Y-125127715D01*
X82765193Y-125127715D01*
X82808377Y-125512705D01*
X82925516Y-125881975D01*
X83112150Y-126221460D01*
X83361168Y-126518228D01*
X83663087Y-126760977D01*
X84006406Y-126940460D01*
X84378048Y-127049840D01*
X84763858Y-127084952D01*
X85149140Y-127044457D01*
X85519218Y-126929898D01*
X85859998Y-126745640D01*
X86158498Y-126498699D01*
X86403349Y-126198482D01*
X86585224Y-125856425D01*
X86697196Y-125485555D01*
X86735000Y-125100000D01*
X86734226Y-125044576D01*
X86685671Y-124660226D01*
X86563388Y-124292628D01*
X86556305Y-124280158D01*
X94340211Y-124280158D01*
X94387201Y-124699089D01*
X94514668Y-125100915D01*
X94717755Y-125470329D01*
X94988727Y-125793261D01*
X95317263Y-126057411D01*
X95690850Y-126252717D01*
X96095256Y-126371740D01*
X96515080Y-126409947D01*
X96934328Y-126365883D01*
X97337034Y-126241224D01*
X97707857Y-126040721D01*
X98032673Y-125772010D01*
X98299110Y-125445326D01*
X98497019Y-125073112D01*
X98618863Y-124669546D01*
X98657042Y-124280158D01*
X101340211Y-124280158D01*
X101387201Y-124699089D01*
X101514668Y-125100915D01*
X101717755Y-125470329D01*
X101988727Y-125793261D01*
X102317263Y-126057411D01*
X102690850Y-126252717D01*
X103095256Y-126371740D01*
X103515080Y-126409947D01*
X103934328Y-126365883D01*
X104337034Y-126241224D01*
X104707857Y-126040721D01*
X105032673Y-125772010D01*
X105299110Y-125445326D01*
X105467986Y-125127715D01*
X113265193Y-125127715D01*
X113308377Y-125512705D01*
X113425516Y-125881975D01*
X113612150Y-126221460D01*
X113861168Y-126518228D01*
X114163087Y-126760977D01*
X114506406Y-126940460D01*
X114878048Y-127049840D01*
X115263858Y-127084952D01*
X115649140Y-127044457D01*
X116019218Y-126929898D01*
X116359998Y-126745640D01*
X116658498Y-126498699D01*
X116903349Y-126198482D01*
X117085224Y-125856425D01*
X117197196Y-125485555D01*
X117235000Y-125100000D01*
X117234226Y-125044576D01*
X117185671Y-124660226D01*
X117063388Y-124292628D01*
X116872033Y-123955782D01*
X116618895Y-123662519D01*
X116313616Y-123424009D01*
X115967825Y-123249337D01*
X115594692Y-123145157D01*
X115208429Y-123115435D01*
X114823750Y-123161306D01*
X114455307Y-123281020D01*
X114117134Y-123470019D01*
X113822110Y-123721103D01*
X113581475Y-124024709D01*
X113404394Y-124369273D01*
X113297611Y-124741669D01*
X113265193Y-125127715D01*
X105467986Y-125127715D01*
X105497019Y-125073112D01*
X105618863Y-124669546D01*
X105660000Y-124250000D01*
X105659158Y-124189689D01*
X105606323Y-123771455D01*
X105473258Y-123371449D01*
X105265033Y-123004906D01*
X104989578Y-122685789D01*
X104657386Y-122426252D01*
X104281109Y-122236181D01*
X103875080Y-122122815D01*
X103454764Y-122090474D01*
X103036172Y-122140388D01*
X102635246Y-122270657D01*
X102267259Y-122476318D01*
X101946226Y-122749538D01*
X101684376Y-123079910D01*
X101491683Y-123454851D01*
X101375486Y-123860079D01*
X101340211Y-124280158D01*
X98657042Y-124280158D01*
X98660000Y-124250000D01*
X98659158Y-124189689D01*
X98606323Y-123771455D01*
X98473258Y-123371449D01*
X98265033Y-123004906D01*
X97989578Y-122685789D01*
X97657386Y-122426252D01*
X97281109Y-122236181D01*
X96875080Y-122122815D01*
X96454764Y-122090474D01*
X96036172Y-122140388D01*
X95635246Y-122270657D01*
X95267259Y-122476318D01*
X94946226Y-122749538D01*
X94684376Y-123079910D01*
X94491683Y-123454851D01*
X94375486Y-123860079D01*
X94340211Y-124280158D01*
X86556305Y-124280158D01*
X86372033Y-123955782D01*
X86118895Y-123662519D01*
X85813616Y-123424009D01*
X85467825Y-123249337D01*
X85094692Y-123145157D01*
X84708429Y-123115435D01*
X84323750Y-123161306D01*
X83955307Y-123281020D01*
X83617134Y-123470019D01*
X83322110Y-123721103D01*
X83081475Y-124024709D01*
X82904394Y-124369273D01*
X82797611Y-124741669D01*
X82765193Y-125127715D01*
X81161613Y-125127715D01*
X81174172Y-125112317D01*
X81358338Y-124765951D01*
X81471720Y-124390411D01*
X81510000Y-124000000D01*
X81509216Y-123943878D01*
X81460050Y-123554688D01*
X81336226Y-123182459D01*
X81142461Y-122841371D01*
X80886135Y-122544415D01*
X80577012Y-122302901D01*
X80226865Y-122126029D01*
X79849033Y-122020536D01*
X79457906Y-121990441D01*
X79068382Y-122036889D01*
X78695298Y-122158111D01*
X78352866Y-122349490D01*
X78054127Y-122603737D01*
X77810461Y-122911166D01*
X77631149Y-123260070D01*
X77523021Y-123637157D01*
X77490196Y-124028064D01*
X75890000Y-124028064D01*
X75890000Y-115780000D01*
X76854485Y-115780000D01*
X76876496Y-116003479D01*
X76941682Y-116218370D01*
X77047539Y-116416414D01*
X77189999Y-116590001D01*
X77363586Y-116732461D01*
X77561630Y-116838318D01*
X77776521Y-116903504D01*
X77944006Y-116920000D01*
X78055994Y-116920000D01*
X78223479Y-116903504D01*
X78438370Y-116838318D01*
X78636414Y-116732461D01*
X78810001Y-116590001D01*
X78952461Y-116416414D01*
X79058318Y-116218370D01*
X79123504Y-116003479D01*
X79145515Y-115780000D01*
X79123504Y-115556521D01*
X79058318Y-115341630D01*
X78952461Y-115143586D01*
X78810001Y-114969999D01*
X78636414Y-114827539D01*
X78438370Y-114721682D01*
X78223479Y-114656496D01*
X78055994Y-114640000D01*
X77944006Y-114640000D01*
X77776521Y-114656496D01*
X77561630Y-114721682D01*
X77363586Y-114827539D01*
X77189999Y-114969999D01*
X77047539Y-115143586D01*
X76941682Y-115341630D01*
X76876496Y-115556521D01*
X76854485Y-115780000D01*
X75890000Y-115780000D01*
X75890000Y-113578461D01*
X76911403Y-113578461D01*
X76990912Y-113770432D01*
X77113783Y-113957103D01*
X77270711Y-114116216D01*
X77455665Y-114241657D01*
X77661538Y-114328605D01*
X77836000Y-114295650D01*
X77836000Y-113404000D01*
X78164000Y-113404000D01*
X78164000Y-114295650D01*
X78338462Y-114328605D01*
X78544335Y-114241657D01*
X78729289Y-114116216D01*
X78886217Y-113957103D01*
X79009088Y-113770432D01*
X79088597Y-113578461D01*
X79054827Y-113404000D01*
X78164000Y-113404000D01*
X77836000Y-113404000D01*
X76945173Y-113404000D01*
X76911403Y-113578461D01*
X75890000Y-113578461D01*
X75890000Y-112901539D01*
X76911403Y-112901539D01*
X76945173Y-113076000D01*
X77836000Y-113076000D01*
X77836000Y-112184350D01*
X78164000Y-112184350D01*
X78164000Y-113076000D01*
X79054827Y-113076000D01*
X79088597Y-112901539D01*
X79009088Y-112709568D01*
X78886217Y-112522897D01*
X78729289Y-112363784D01*
X78544335Y-112238343D01*
X78338462Y-112151395D01*
X78164000Y-112184350D01*
X77836000Y-112184350D01*
X77661538Y-112151395D01*
X77455665Y-112238343D01*
X77270711Y-112363784D01*
X77113783Y-112522897D01*
X76990912Y-112709568D01*
X76911403Y-112901539D01*
X75890000Y-112901539D01*
X75890000Y-110700000D01*
X76854485Y-110700000D01*
X76876496Y-110923479D01*
X76941682Y-111138370D01*
X77047539Y-111336414D01*
X77189999Y-111510001D01*
X77363586Y-111652461D01*
X77561630Y-111758318D01*
X77776521Y-111823504D01*
X77944006Y-111840000D01*
X78055994Y-111840000D01*
X78223479Y-111823504D01*
X78438370Y-111758318D01*
X78636414Y-111652461D01*
X78810001Y-111510001D01*
X78952461Y-111336414D01*
X79058318Y-111138370D01*
X79123504Y-110923479D01*
X79145515Y-110700000D01*
X79123504Y-110476521D01*
X79058318Y-110261630D01*
X78952461Y-110063586D01*
X78810001Y-109889999D01*
X78636414Y-109747539D01*
X78438370Y-109641682D01*
X78223479Y-109576496D01*
X78055994Y-109560000D01*
X77944006Y-109560000D01*
X77776521Y-109576496D01*
X77561630Y-109641682D01*
X77363586Y-109747539D01*
X77189999Y-109889999D01*
X77047539Y-110063586D01*
X76941682Y-110261630D01*
X76876496Y-110476521D01*
X76854485Y-110700000D01*
X75890000Y-110700000D01*
X75890000Y-108160000D01*
X76854485Y-108160000D01*
X76876496Y-108383479D01*
X76941682Y-108598370D01*
X77047539Y-108796414D01*
X77189999Y-108970001D01*
X77363586Y-109112461D01*
X77561630Y-109218318D01*
X77776521Y-109283504D01*
X77944006Y-109300000D01*
X78055994Y-109300000D01*
X78223479Y-109283504D01*
X78438370Y-109218318D01*
X78636414Y-109112461D01*
X78810001Y-108970001D01*
X78952461Y-108796414D01*
X79058318Y-108598370D01*
X79123504Y-108383479D01*
X79145515Y-108160000D01*
X79123504Y-107936521D01*
X79058318Y-107721630D01*
X78952461Y-107523586D01*
X78810001Y-107349999D01*
X78636414Y-107207539D01*
X78438370Y-107101682D01*
X78223479Y-107036496D01*
X78055994Y-107020000D01*
X77944006Y-107020000D01*
X77776521Y-107036496D01*
X77561630Y-107101682D01*
X77363586Y-107207539D01*
X77189999Y-107349999D01*
X77047539Y-107523586D01*
X76941682Y-107721630D01*
X76876496Y-107936521D01*
X76854485Y-108160000D01*
X75890000Y-108160000D01*
X75890000Y-105620000D01*
X76854485Y-105620000D01*
X76876496Y-105843479D01*
X76941682Y-106058370D01*
X77047539Y-106256414D01*
X77189999Y-106430001D01*
X77363586Y-106572461D01*
X77561630Y-106678318D01*
X77776521Y-106743504D01*
X77944006Y-106760000D01*
X78055994Y-106760000D01*
X78218863Y-106743959D01*
X87685217Y-116210313D01*
X87705262Y-116234738D01*
X87802714Y-116314714D01*
X87802715Y-116314715D01*
X87913897Y-116374143D01*
X88034538Y-116410739D01*
X88160000Y-116423096D01*
X88191434Y-116420000D01*
X105050482Y-116420000D01*
X105189999Y-116590001D01*
X105363586Y-116732461D01*
X105561630Y-116838318D01*
X105776521Y-116903504D01*
X105944006Y-116920000D01*
X106055994Y-116920000D01*
X106223479Y-116903504D01*
X106438370Y-116838318D01*
X106636414Y-116732461D01*
X106810001Y-116590001D01*
X106952461Y-116416414D01*
X107058318Y-116218370D01*
X107123504Y-116003479D01*
X107145515Y-115780000D01*
X107123504Y-115556521D01*
X107058318Y-115341630D01*
X106952461Y-115143586D01*
X106810001Y-114969999D01*
X106636414Y-114827539D01*
X106438370Y-114721682D01*
X106223479Y-114656496D01*
X106055994Y-114640000D01*
X105944006Y-114640000D01*
X105781138Y-114656041D01*
X105624780Y-114499684D01*
X105624776Y-114499679D01*
X105239999Y-114114903D01*
X105239999Y-114085076D01*
X105270711Y-114116216D01*
X105455665Y-114241657D01*
X105661538Y-114328605D01*
X105836000Y-114295650D01*
X105836000Y-113404000D01*
X106164000Y-113404000D01*
X106164000Y-114295650D01*
X106338462Y-114328605D01*
X106544335Y-114241657D01*
X106729289Y-114116216D01*
X106886217Y-113957103D01*
X107009088Y-113770432D01*
X107088597Y-113578461D01*
X107054827Y-113404000D01*
X106164000Y-113404000D01*
X105836000Y-113404000D01*
X105816000Y-113404000D01*
X105816000Y-113076000D01*
X105836000Y-113076000D01*
X105836000Y-112184350D01*
X106164000Y-112184350D01*
X106164000Y-113076000D01*
X107054827Y-113076000D01*
X107088597Y-112901539D01*
X107009088Y-112709568D01*
X106886217Y-112522897D01*
X106729289Y-112363784D01*
X106544335Y-112238343D01*
X106338462Y-112151395D01*
X106164000Y-112184350D01*
X105836000Y-112184350D01*
X105661538Y-112151395D01*
X105455665Y-112238343D01*
X105270711Y-112363784D01*
X105239999Y-112394924D01*
X105239999Y-111551035D01*
X105363586Y-111652461D01*
X105561630Y-111758318D01*
X105776521Y-111823504D01*
X105944006Y-111840000D01*
X106055994Y-111840000D01*
X106223479Y-111823504D01*
X106438370Y-111758318D01*
X106636414Y-111652461D01*
X106810001Y-111510001D01*
X106952461Y-111336414D01*
X107058318Y-111138370D01*
X107123504Y-110923479D01*
X107145515Y-110700000D01*
X107123504Y-110476521D01*
X107058318Y-110261630D01*
X106952461Y-110063586D01*
X106810001Y-109889999D01*
X106636414Y-109747539D01*
X106438370Y-109641682D01*
X106223479Y-109576496D01*
X106055994Y-109560000D01*
X105944006Y-109560000D01*
X105776521Y-109576496D01*
X105561630Y-109641682D01*
X105363586Y-109747539D01*
X105239999Y-109848965D01*
X105239999Y-109011035D01*
X105363586Y-109112461D01*
X105561630Y-109218318D01*
X105776521Y-109283504D01*
X105944006Y-109300000D01*
X106055994Y-109300000D01*
X106223479Y-109283504D01*
X106438370Y-109218318D01*
X106636414Y-109112461D01*
X106810001Y-108970001D01*
X106952461Y-108796414D01*
X107058318Y-108598370D01*
X107123504Y-108383479D01*
X107145515Y-108160000D01*
X107123504Y-107936521D01*
X107058318Y-107721630D01*
X106952461Y-107523586D01*
X106810001Y-107349999D01*
X106636414Y-107207539D01*
X106438370Y-107101682D01*
X106223479Y-107036496D01*
X106055994Y-107020000D01*
X105944006Y-107020000D01*
X105776521Y-107036496D01*
X105561630Y-107101682D01*
X105363586Y-107207539D01*
X105239999Y-107308965D01*
X105239999Y-106471035D01*
X105363586Y-106572461D01*
X105561630Y-106678318D01*
X105776521Y-106743504D01*
X105944006Y-106760000D01*
X106055994Y-106760000D01*
X106223479Y-106743504D01*
X106438370Y-106678318D01*
X106636414Y-106572461D01*
X106810001Y-106430001D01*
X106952461Y-106256414D01*
X107058318Y-106058370D01*
X107123504Y-105843479D01*
X107145515Y-105620000D01*
X107123504Y-105396521D01*
X107058318Y-105181630D01*
X106952461Y-104983586D01*
X106810001Y-104809999D01*
X106636414Y-104667539D01*
X106438370Y-104561682D01*
X106223479Y-104496496D01*
X106055994Y-104480000D01*
X105944006Y-104480000D01*
X105776521Y-104496496D01*
X105561630Y-104561682D01*
X105363586Y-104667539D01*
X105239999Y-104768965D01*
X105239999Y-103931035D01*
X105363586Y-104032461D01*
X105561630Y-104138318D01*
X105776521Y-104203504D01*
X105944006Y-104220000D01*
X106055994Y-104220000D01*
X106223479Y-104203504D01*
X106438370Y-104138318D01*
X106636414Y-104032461D01*
X106810001Y-103890001D01*
X106952461Y-103716414D01*
X107058318Y-103518370D01*
X107123504Y-103303479D01*
X107145515Y-103080000D01*
X107123504Y-102856521D01*
X107058318Y-102641630D01*
X106952461Y-102443586D01*
X106810001Y-102269999D01*
X106636414Y-102127539D01*
X106438370Y-102021682D01*
X106223479Y-101956496D01*
X106055994Y-101940000D01*
X105944006Y-101940000D01*
X105776521Y-101956496D01*
X105561630Y-102021682D01*
X105363586Y-102127539D01*
X105239999Y-102228965D01*
X105239999Y-101391035D01*
X105363586Y-101492461D01*
X105561630Y-101598318D01*
X105776521Y-101663504D01*
X105944006Y-101680000D01*
X106055994Y-101680000D01*
X106223479Y-101663504D01*
X106438370Y-101598318D01*
X106636414Y-101492461D01*
X106810001Y-101350001D01*
X106952461Y-101176414D01*
X107058318Y-100978370D01*
X107123504Y-100763479D01*
X107145515Y-100540000D01*
X107123504Y-100316521D01*
X107058318Y-100101630D01*
X106952461Y-99903586D01*
X106810001Y-99729999D01*
X106636414Y-99587539D01*
X106438370Y-99481682D01*
X106223479Y-99416496D01*
X106055994Y-99400000D01*
X105944006Y-99400000D01*
X105776521Y-99416496D01*
X105561630Y-99481682D01*
X105363586Y-99587539D01*
X105239999Y-99688965D01*
X105239999Y-98851035D01*
X105363586Y-98952461D01*
X105561630Y-99058318D01*
X105776521Y-99123504D01*
X105944006Y-99140000D01*
X106055994Y-99140000D01*
X106223479Y-99123504D01*
X106438370Y-99058318D01*
X106636414Y-98952461D01*
X106810001Y-98810001D01*
X106952461Y-98636414D01*
X107058318Y-98438370D01*
X107123504Y-98223479D01*
X107145515Y-98000000D01*
X107123504Y-97776521D01*
X107058318Y-97561630D01*
X106952461Y-97363586D01*
X106810001Y-97189999D01*
X106636414Y-97047539D01*
X106438370Y-96941682D01*
X106223479Y-96876496D01*
X106055994Y-96860000D01*
X105944006Y-96860000D01*
X105776521Y-96876496D01*
X105561630Y-96941682D01*
X105363586Y-97047539D01*
X105239999Y-97148965D01*
X105239999Y-96305076D01*
X105270711Y-96336216D01*
X105455665Y-96461657D01*
X105661538Y-96548605D01*
X105836000Y-96515650D01*
X105836000Y-95624000D01*
X106164000Y-95624000D01*
X106164000Y-96515650D01*
X106338462Y-96548605D01*
X106544335Y-96461657D01*
X106729289Y-96336216D01*
X106886217Y-96177103D01*
X107009088Y-95990432D01*
X107088597Y-95798461D01*
X107054827Y-95624000D01*
X106164000Y-95624000D01*
X105836000Y-95624000D01*
X105816000Y-95624000D01*
X105816000Y-95296000D01*
X105836000Y-95296000D01*
X105836000Y-94404350D01*
X106164000Y-94404350D01*
X106164000Y-95296000D01*
X107054827Y-95296000D01*
X107088597Y-95121539D01*
X107009088Y-94929568D01*
X106886217Y-94742897D01*
X106729289Y-94583784D01*
X106544335Y-94458343D01*
X106338462Y-94371395D01*
X106164000Y-94404350D01*
X105836000Y-94404350D01*
X105661538Y-94371395D01*
X105455665Y-94458343D01*
X105270711Y-94583784D01*
X105239999Y-94614924D01*
X105239999Y-94165097D01*
X105473751Y-93931345D01*
X105561630Y-93978318D01*
X105776521Y-94043504D01*
X105944006Y-94060000D01*
X106055994Y-94060000D01*
X106223479Y-94043504D01*
X106438370Y-93978318D01*
X106636414Y-93872461D01*
X106810001Y-93730001D01*
X106952461Y-93556414D01*
X107058318Y-93358370D01*
X107123504Y-93143479D01*
X107145515Y-92920000D01*
X107123504Y-92696521D01*
X107058318Y-92481630D01*
X106952461Y-92283586D01*
X106810001Y-92109999D01*
X106636414Y-91967539D01*
X106438370Y-91861682D01*
X106223479Y-91796496D01*
X106055994Y-91780000D01*
X105944006Y-91780000D01*
X105776521Y-91796496D01*
X105561630Y-91861682D01*
X105363586Y-91967539D01*
X105189999Y-92109999D01*
X105047539Y-92283586D01*
X104941682Y-92481630D01*
X104934593Y-92505000D01*
X102346897Y-92505000D01*
X101241897Y-91400000D01*
X101463500Y-91400000D01*
X101536000Y-91327500D01*
X101536000Y-90960000D01*
X101864000Y-90960000D01*
X101864000Y-91327500D01*
X101936500Y-91400000D01*
X102478562Y-91400000D01*
X102534589Y-91388856D01*
X102587366Y-91366995D01*
X102634864Y-91335258D01*
X102675257Y-91294865D01*
X102706994Y-91247367D01*
X102728855Y-91194590D01*
X102740000Y-91138563D01*
X102740000Y-91032500D01*
X102667500Y-90960000D01*
X101864000Y-90960000D01*
X101536000Y-90960000D01*
X100801897Y-90960000D01*
X100323334Y-90481437D01*
X100660000Y-90481437D01*
X100660000Y-90587500D01*
X100732500Y-90660000D01*
X101536000Y-90660000D01*
X101536000Y-90292500D01*
X101864000Y-90292500D01*
X101864000Y-90660000D01*
X102667500Y-90660000D01*
X102740000Y-90587500D01*
X102740000Y-90481437D01*
X102728855Y-90425410D01*
X102706994Y-90372633D01*
X102675257Y-90325135D01*
X102634864Y-90284742D01*
X102587366Y-90253005D01*
X102534589Y-90231144D01*
X102478562Y-90220000D01*
X101936500Y-90220000D01*
X101864000Y-90292500D01*
X101536000Y-90292500D01*
X101463500Y-90220000D01*
X100921438Y-90220000D01*
X100865411Y-90231144D01*
X100812634Y-90253005D01*
X100765136Y-90284742D01*
X100724743Y-90325135D01*
X100693006Y-90372633D01*
X100671145Y-90425410D01*
X100660000Y-90481437D01*
X100323334Y-90481437D01*
X99081897Y-89240000D01*
X100658597Y-89240000D01*
X100658597Y-89840000D01*
X100664196Y-89896850D01*
X100680779Y-89951515D01*
X100707707Y-90001895D01*
X100743947Y-90046053D01*
X100788105Y-90082293D01*
X100838485Y-90109221D01*
X100893150Y-90125804D01*
X100950000Y-90131403D01*
X102450000Y-90131403D01*
X102506850Y-90125804D01*
X102561515Y-90109221D01*
X102611895Y-90082293D01*
X102656053Y-90046053D01*
X102692293Y-90001895D01*
X102717358Y-89955000D01*
X104937626Y-89955000D01*
X104876496Y-90156521D01*
X104854485Y-90380000D01*
X104876496Y-90603479D01*
X104941682Y-90818370D01*
X105047539Y-91016414D01*
X105189999Y-91190001D01*
X105363586Y-91332461D01*
X105561630Y-91438318D01*
X105776521Y-91503504D01*
X105944006Y-91520000D01*
X106055994Y-91520000D01*
X106223479Y-91503504D01*
X106438370Y-91438318D01*
X106636414Y-91332461D01*
X106810001Y-91190001D01*
X106952461Y-91016414D01*
X107058318Y-90818370D01*
X107123504Y-90603479D01*
X107145515Y-90380000D01*
X107123504Y-90156521D01*
X107058318Y-89941630D01*
X106952461Y-89743586D01*
X106810001Y-89569999D01*
X106636414Y-89427539D01*
X106438370Y-89321682D01*
X106223479Y-89256496D01*
X106055994Y-89240000D01*
X105944006Y-89240000D01*
X105776521Y-89256496D01*
X105561630Y-89321682D01*
X105540092Y-89333194D01*
X105467866Y-89260968D01*
X105454869Y-89245131D01*
X105391677Y-89193271D01*
X105319582Y-89154735D01*
X105241354Y-89131005D01*
X105180387Y-89125000D01*
X105180377Y-89125000D01*
X105160000Y-89122993D01*
X105139623Y-89125000D01*
X102717358Y-89125000D01*
X102692293Y-89078105D01*
X102656053Y-89033947D01*
X102611895Y-88997707D01*
X102561515Y-88970779D01*
X102506850Y-88954196D01*
X102450000Y-88948597D01*
X100950000Y-88948597D01*
X100893150Y-88954196D01*
X100838485Y-88970779D01*
X100788105Y-88997707D01*
X100743947Y-89033947D01*
X100707707Y-89078105D01*
X100680779Y-89128485D01*
X100664196Y-89183150D01*
X100658597Y-89240000D01*
X99081897Y-89240000D01*
X97811897Y-87970000D01*
X100658597Y-87970000D01*
X100658597Y-88570000D01*
X100664196Y-88626850D01*
X100680779Y-88681515D01*
X100707707Y-88731895D01*
X100743947Y-88776053D01*
X100788105Y-88812293D01*
X100838485Y-88839221D01*
X100893150Y-88855804D01*
X100950000Y-88861403D01*
X102450000Y-88861403D01*
X102506850Y-88855804D01*
X102561515Y-88839221D01*
X102611895Y-88812293D01*
X102656053Y-88776053D01*
X102692293Y-88731895D01*
X102717358Y-88685000D01*
X105232645Y-88685000D01*
X105363586Y-88792461D01*
X105561630Y-88898318D01*
X105776521Y-88963504D01*
X105944006Y-88980000D01*
X106055994Y-88980000D01*
X106223479Y-88963504D01*
X106438370Y-88898318D01*
X106636414Y-88792461D01*
X106810001Y-88650001D01*
X106952461Y-88476414D01*
X107058318Y-88278370D01*
X107123504Y-88063479D01*
X107145515Y-87840000D01*
X107123504Y-87616521D01*
X107058318Y-87401630D01*
X106952461Y-87203586D01*
X106810001Y-87029999D01*
X106636414Y-86887539D01*
X106438370Y-86781682D01*
X106223479Y-86716496D01*
X106055994Y-86700000D01*
X105944006Y-86700000D01*
X105776521Y-86716496D01*
X105561630Y-86781682D01*
X105363586Y-86887539D01*
X105189999Y-87029999D01*
X105047539Y-87203586D01*
X104941682Y-87401630D01*
X104876496Y-87616521D01*
X104854485Y-87840000D01*
X104855962Y-87855000D01*
X102717358Y-87855000D01*
X102692293Y-87808105D01*
X102656053Y-87763947D01*
X102611895Y-87727707D01*
X102561515Y-87700779D01*
X102506850Y-87684196D01*
X102450000Y-87678597D01*
X100950000Y-87678597D01*
X100893150Y-87684196D01*
X100838485Y-87700779D01*
X100788105Y-87727707D01*
X100743947Y-87763947D01*
X100707707Y-87808105D01*
X100680779Y-87858485D01*
X100664196Y-87913150D01*
X100658597Y-87970000D01*
X97811897Y-87970000D01*
X97790001Y-87948105D01*
X97790001Y-86700000D01*
X100658597Y-86700000D01*
X100658597Y-87300000D01*
X100664196Y-87356850D01*
X100680779Y-87411515D01*
X100707707Y-87461895D01*
X100743947Y-87506053D01*
X100788105Y-87542293D01*
X100838485Y-87569221D01*
X100893150Y-87585804D01*
X100950000Y-87591403D01*
X102450000Y-87591403D01*
X102506850Y-87585804D01*
X102561515Y-87569221D01*
X102611895Y-87542293D01*
X102656053Y-87506053D01*
X102692293Y-87461895D01*
X102717358Y-87415000D01*
X104279623Y-87415000D01*
X104300000Y-87417007D01*
X104320377Y-87415000D01*
X104320387Y-87415000D01*
X104381354Y-87408995D01*
X104459582Y-87385265D01*
X104531677Y-87346729D01*
X104594869Y-87294869D01*
X104607866Y-87279032D01*
X105540093Y-86346806D01*
X105561630Y-86358318D01*
X105776521Y-86423504D01*
X105944006Y-86440000D01*
X106055994Y-86440000D01*
X106223479Y-86423504D01*
X106438370Y-86358318D01*
X106636414Y-86252461D01*
X106810001Y-86110001D01*
X106952461Y-85936414D01*
X107058318Y-85738370D01*
X107123504Y-85523479D01*
X107145515Y-85300000D01*
X107123504Y-85076521D01*
X107058318Y-84861630D01*
X106952461Y-84663586D01*
X106810001Y-84489999D01*
X106636414Y-84347539D01*
X106438370Y-84241682D01*
X106223479Y-84176496D01*
X106055994Y-84160000D01*
X105944006Y-84160000D01*
X105776521Y-84176496D01*
X105561630Y-84241682D01*
X105363586Y-84347539D01*
X105189999Y-84489999D01*
X105047539Y-84663586D01*
X104941682Y-84861630D01*
X104876496Y-85076521D01*
X104854485Y-85300000D01*
X104876496Y-85523479D01*
X104941682Y-85738370D01*
X104953194Y-85759907D01*
X104128102Y-86585000D01*
X102717358Y-86585000D01*
X102692293Y-86538105D01*
X102656053Y-86493947D01*
X102611895Y-86457707D01*
X102561515Y-86430779D01*
X102506850Y-86414196D01*
X102450000Y-86408597D01*
X100950000Y-86408597D01*
X100893150Y-86414196D01*
X100838485Y-86430779D01*
X100788105Y-86457707D01*
X100743947Y-86493947D01*
X100707707Y-86538105D01*
X100680779Y-86588485D01*
X100664196Y-86643150D01*
X100658597Y-86700000D01*
X97790001Y-86700000D01*
X97790001Y-83835378D01*
X97792008Y-83815001D01*
X97790001Y-83794624D01*
X97790001Y-83794614D01*
X97783996Y-83733647D01*
X97760266Y-83655419D01*
X97734389Y-83607007D01*
X97721730Y-83583323D01*
X97682866Y-83535967D01*
X97682862Y-83535963D01*
X97669870Y-83520132D01*
X97654038Y-83507139D01*
X97341403Y-83194505D01*
X97341403Y-82928301D01*
X97882134Y-83469032D01*
X97895131Y-83484869D01*
X97958323Y-83536729D01*
X98030418Y-83575265D01*
X98108646Y-83598995D01*
X98169613Y-83605000D01*
X98169622Y-83605000D01*
X98189999Y-83607007D01*
X98210376Y-83605000D01*
X100682642Y-83605000D01*
X100707707Y-83651895D01*
X100743947Y-83696053D01*
X100788105Y-83732293D01*
X100838485Y-83759221D01*
X100893150Y-83775804D01*
X100950000Y-83781403D01*
X102241699Y-83781403D01*
X102154505Y-83868597D01*
X100950000Y-83868597D01*
X100893150Y-83874196D01*
X100838485Y-83890779D01*
X100788105Y-83917707D01*
X100743947Y-83953947D01*
X100707707Y-83998105D01*
X100680779Y-84048485D01*
X100664196Y-84103150D01*
X100658597Y-84160000D01*
X100658597Y-84760000D01*
X100664196Y-84816850D01*
X100680779Y-84871515D01*
X100707707Y-84921895D01*
X100743947Y-84966053D01*
X100788105Y-85002293D01*
X100838485Y-85029221D01*
X100893150Y-85045804D01*
X100950000Y-85051403D01*
X102450000Y-85051403D01*
X102506850Y-85045804D01*
X102561515Y-85029221D01*
X102611895Y-85002293D01*
X102656053Y-84966053D01*
X102692293Y-84921895D01*
X102719221Y-84871515D01*
X102735804Y-84816850D01*
X102741403Y-84760000D01*
X102741403Y-84455495D01*
X105017944Y-82178954D01*
X104941682Y-82321630D01*
X104876496Y-82536521D01*
X104854485Y-82760000D01*
X104876496Y-82983479D01*
X104941682Y-83198370D01*
X104953194Y-83219908D01*
X102858102Y-85315000D01*
X102717358Y-85315000D01*
X102692293Y-85268105D01*
X102656053Y-85223947D01*
X102611895Y-85187707D01*
X102561515Y-85160779D01*
X102506850Y-85144196D01*
X102450000Y-85138597D01*
X100950000Y-85138597D01*
X100893150Y-85144196D01*
X100838485Y-85160779D01*
X100788105Y-85187707D01*
X100743947Y-85223947D01*
X100707707Y-85268105D01*
X100680779Y-85318485D01*
X100664196Y-85373150D01*
X100658597Y-85430000D01*
X100658597Y-86030000D01*
X100664196Y-86086850D01*
X100680779Y-86141515D01*
X100707707Y-86191895D01*
X100743947Y-86236053D01*
X100788105Y-86272293D01*
X100838485Y-86299221D01*
X100893150Y-86315804D01*
X100950000Y-86321403D01*
X102450000Y-86321403D01*
X102506850Y-86315804D01*
X102561515Y-86299221D01*
X102611895Y-86272293D01*
X102656053Y-86236053D01*
X102692293Y-86191895D01*
X102717358Y-86145000D01*
X103009623Y-86145000D01*
X103030000Y-86147007D01*
X103050377Y-86145000D01*
X103050387Y-86145000D01*
X103111354Y-86138995D01*
X103189582Y-86115265D01*
X103261677Y-86076729D01*
X103324869Y-86024869D01*
X103337866Y-86009032D01*
X105540092Y-83806806D01*
X105561630Y-83818318D01*
X105776521Y-83883504D01*
X105944006Y-83900000D01*
X106055994Y-83900000D01*
X106223479Y-83883504D01*
X106438370Y-83818318D01*
X106636414Y-83712461D01*
X106810001Y-83570001D01*
X106952461Y-83396414D01*
X107058318Y-83198370D01*
X107123504Y-82983479D01*
X107145515Y-82760000D01*
X107123504Y-82536521D01*
X107058318Y-82321630D01*
X106952461Y-82123586D01*
X106810001Y-81949999D01*
X106636414Y-81807539D01*
X106438370Y-81701682D01*
X106223479Y-81636496D01*
X106055994Y-81620000D01*
X105944006Y-81620000D01*
X105776521Y-81636496D01*
X105561630Y-81701682D01*
X105418954Y-81777944D01*
X105835495Y-81361403D01*
X106850000Y-81361403D01*
X106906850Y-81355804D01*
X106961515Y-81339221D01*
X107011895Y-81312293D01*
X107056053Y-81276053D01*
X107092293Y-81231895D01*
X107119221Y-81181515D01*
X107135804Y-81126850D01*
X107141403Y-81070000D01*
X107141403Y-79370000D01*
X107135804Y-79313150D01*
X107119221Y-79258485D01*
X107092293Y-79208105D01*
X107056053Y-79163947D01*
X107011895Y-79127707D01*
X106961515Y-79100779D01*
X106906850Y-79084196D01*
X106850000Y-79078597D01*
X105150000Y-79078597D01*
X105093150Y-79084196D01*
X105038485Y-79100779D01*
X104988105Y-79127707D01*
X104943947Y-79163947D01*
X104907707Y-79208105D01*
X104880779Y-79258485D01*
X104864196Y-79313150D01*
X104858597Y-79370000D01*
X104858597Y-81070000D01*
X104864196Y-81126850D01*
X104871657Y-81151445D01*
X102741403Y-83281699D01*
X102741403Y-82890000D01*
X102735804Y-82833150D01*
X102719221Y-82778485D01*
X102692293Y-82728105D01*
X102656053Y-82683947D01*
X102611895Y-82647707D01*
X102561515Y-82620779D01*
X102506850Y-82604196D01*
X102450000Y-82598597D01*
X100950000Y-82598597D01*
X100893150Y-82604196D01*
X100838485Y-82620779D01*
X100788105Y-82647707D01*
X100743947Y-82683947D01*
X100707707Y-82728105D01*
X100682642Y-82775000D01*
X98361898Y-82775000D01*
X96934169Y-81347271D01*
X96940000Y-81317959D01*
X96940000Y-81182041D01*
X96913484Y-81048734D01*
X96861470Y-80923162D01*
X96785958Y-80810150D01*
X96689850Y-80714042D01*
X96576838Y-80638530D01*
X96451266Y-80586516D01*
X96317959Y-80560000D01*
X96182041Y-80560000D01*
X96048734Y-80586516D01*
X95923162Y-80638530D01*
X95810150Y-80714042D01*
X95714042Y-80810150D01*
X95638530Y-80923162D01*
X95586516Y-81048734D01*
X95560000Y-81182041D01*
X95560000Y-81317959D01*
X95586516Y-81451266D01*
X95638530Y-81576838D01*
X95714042Y-81689850D01*
X95810150Y-81785958D01*
X95923162Y-81861470D01*
X96048734Y-81913484D01*
X96182041Y-81940000D01*
X96317959Y-81940000D01*
X96347271Y-81934169D01*
X97011699Y-82598597D01*
X95550000Y-82598597D01*
X95493150Y-82604196D01*
X95438485Y-82620779D01*
X95388105Y-82647707D01*
X95343947Y-82683947D01*
X95307707Y-82728105D01*
X95280779Y-82778485D01*
X95264196Y-82833150D01*
X95258597Y-82890000D01*
X95258597Y-83490000D01*
X95264196Y-83546850D01*
X95280779Y-83601515D01*
X95307707Y-83651895D01*
X95343947Y-83696053D01*
X95388105Y-83732293D01*
X95438485Y-83759221D01*
X95493150Y-83775804D01*
X95550000Y-83781403D01*
X96754505Y-83781403D01*
X96841698Y-83868597D01*
X95550000Y-83868597D01*
X95493150Y-83874196D01*
X95438485Y-83890779D01*
X95388105Y-83917707D01*
X95343947Y-83953947D01*
X95307707Y-83998105D01*
X95280779Y-84048485D01*
X95264196Y-84103150D01*
X95258597Y-84160000D01*
X95258597Y-84760000D01*
X95264196Y-84816850D01*
X95280779Y-84871515D01*
X95307707Y-84921895D01*
X95343947Y-84966053D01*
X95388105Y-85002293D01*
X95438485Y-85029221D01*
X95493150Y-85045804D01*
X95550000Y-85051403D01*
X96960002Y-85051403D01*
X96960002Y-85138597D01*
X95550000Y-85138597D01*
X95493150Y-85144196D01*
X95438485Y-85160779D01*
X95388105Y-85187707D01*
X95343947Y-85223947D01*
X95307707Y-85268105D01*
X95280779Y-85318485D01*
X95264196Y-85373150D01*
X95258597Y-85430000D01*
X95258597Y-86030000D01*
X95264196Y-86086850D01*
X95280779Y-86141515D01*
X95307707Y-86191895D01*
X95343947Y-86236053D01*
X95388105Y-86272293D01*
X95438485Y-86299221D01*
X95493150Y-86315804D01*
X95550000Y-86321403D01*
X96960001Y-86321403D01*
X96960001Y-86408597D01*
X95550000Y-86408597D01*
X95493150Y-86414196D01*
X95438485Y-86430779D01*
X95388105Y-86457707D01*
X95343947Y-86493947D01*
X95307707Y-86538105D01*
X95280779Y-86588485D01*
X95264196Y-86643150D01*
X95258597Y-86700000D01*
X95258597Y-87300000D01*
X95264196Y-87356850D01*
X95280779Y-87411515D01*
X95307707Y-87461895D01*
X95343947Y-87506053D01*
X95388105Y-87542293D01*
X95438485Y-87569221D01*
X95493150Y-87585804D01*
X95550000Y-87591403D01*
X96960001Y-87591403D01*
X96960001Y-87678597D01*
X95550000Y-87678597D01*
X95493150Y-87684196D01*
X95438485Y-87700779D01*
X95388105Y-87727707D01*
X95343947Y-87763947D01*
X95307707Y-87808105D01*
X95280779Y-87858485D01*
X95264196Y-87913150D01*
X95258597Y-87970000D01*
X95258597Y-88570000D01*
X95264196Y-88626850D01*
X95280779Y-88681515D01*
X95307707Y-88731895D01*
X95343947Y-88776053D01*
X95388105Y-88812293D01*
X95438485Y-88839221D01*
X95493150Y-88855804D01*
X95550000Y-88861403D01*
X97050000Y-88861403D01*
X97106850Y-88855804D01*
X97161515Y-88839221D01*
X97211895Y-88812293D01*
X97256053Y-88776053D01*
X97292293Y-88731895D01*
X97319221Y-88681515D01*
X97326295Y-88658195D01*
X101867137Y-93199038D01*
X101880129Y-93214869D01*
X101895960Y-93227861D01*
X101895964Y-93227865D01*
X101943320Y-93266729D01*
X102015416Y-93305265D01*
X102093644Y-93328995D01*
X102154611Y-93335000D01*
X102154621Y-93335000D01*
X102174998Y-93337007D01*
X102195375Y-93335000D01*
X104259904Y-93335000D01*
X104169686Y-93425218D01*
X104145261Y-93445263D01*
X104065284Y-93542717D01*
X104005856Y-93653900D01*
X103982771Y-93730001D01*
X103969260Y-93774540D01*
X103956903Y-93900001D01*
X103959999Y-93931435D01*
X103960000Y-114348555D01*
X103956903Y-114379999D01*
X103969260Y-114505460D01*
X103989663Y-114572717D01*
X104005857Y-114626101D01*
X104065285Y-114737284D01*
X104145262Y-114834737D01*
X104169681Y-114854777D01*
X104454903Y-115140000D01*
X88425096Y-115140000D01*
X83742363Y-110457267D01*
X97890000Y-110457267D01*
X97890000Y-110622733D01*
X97922281Y-110785019D01*
X97985602Y-110937889D01*
X98077530Y-111075469D01*
X98194531Y-111192470D01*
X98332111Y-111284398D01*
X98484981Y-111347719D01*
X98647267Y-111380000D01*
X98812733Y-111380000D01*
X98975019Y-111347719D01*
X99127889Y-111284398D01*
X99265469Y-111192470D01*
X99382470Y-111075469D01*
X99474398Y-110937889D01*
X99537719Y-110785019D01*
X99570000Y-110622733D01*
X99570000Y-110457267D01*
X100430000Y-110457267D01*
X100430000Y-110622733D01*
X100462281Y-110785019D01*
X100525602Y-110937889D01*
X100617530Y-111075469D01*
X100734531Y-111192470D01*
X100872111Y-111284398D01*
X101024981Y-111347719D01*
X101187267Y-111380000D01*
X101352733Y-111380000D01*
X101515019Y-111347719D01*
X101667889Y-111284398D01*
X101805469Y-111192470D01*
X101922470Y-111075469D01*
X102014398Y-110937889D01*
X102077719Y-110785019D01*
X102110000Y-110622733D01*
X102110000Y-110457267D01*
X102077719Y-110294981D01*
X102014398Y-110142111D01*
X101922470Y-110004531D01*
X101805469Y-109887530D01*
X101667889Y-109795602D01*
X101515019Y-109732281D01*
X101352733Y-109700000D01*
X101187267Y-109700000D01*
X101024981Y-109732281D01*
X100872111Y-109795602D01*
X100734531Y-109887530D01*
X100617530Y-110004531D01*
X100525602Y-110142111D01*
X100462281Y-110294981D01*
X100430000Y-110457267D01*
X99570000Y-110457267D01*
X99537719Y-110294981D01*
X99474398Y-110142111D01*
X99382470Y-110004531D01*
X99265469Y-109887530D01*
X99127889Y-109795602D01*
X98975019Y-109732281D01*
X98812733Y-109700000D01*
X98647267Y-109700000D01*
X98484981Y-109732281D01*
X98332111Y-109795602D01*
X98194531Y-109887530D01*
X98077530Y-110004531D01*
X97985602Y-110142111D01*
X97922281Y-110294981D01*
X97890000Y-110457267D01*
X83742363Y-110457267D01*
X81158042Y-107872946D01*
X97440000Y-107872946D01*
X97440000Y-108127054D01*
X97489574Y-108376279D01*
X97586817Y-108611044D01*
X97727991Y-108822327D01*
X97907673Y-109002009D01*
X98118956Y-109143183D01*
X98353721Y-109240426D01*
X98602946Y-109290000D01*
X98857054Y-109290000D01*
X99106279Y-109240426D01*
X99341044Y-109143183D01*
X99552327Y-109002009D01*
X99732009Y-108822327D01*
X99873183Y-108611044D01*
X99970426Y-108376279D01*
X99980000Y-108328147D01*
X99980000Y-109028563D01*
X99991145Y-109084590D01*
X100013006Y-109137367D01*
X100044743Y-109184865D01*
X100085136Y-109225258D01*
X100132634Y-109256995D01*
X100185411Y-109278856D01*
X100241438Y-109290000D01*
X101033500Y-109290000D01*
X101106000Y-109217500D01*
X101106000Y-108164000D01*
X101434000Y-108164000D01*
X101434000Y-109217500D01*
X101506500Y-109290000D01*
X102298562Y-109290000D01*
X102354589Y-109278856D01*
X102407366Y-109256995D01*
X102454864Y-109225258D01*
X102495257Y-109184865D01*
X102526994Y-109137367D01*
X102548855Y-109084590D01*
X102560000Y-109028563D01*
X102560000Y-108236500D01*
X102487500Y-108164000D01*
X101434000Y-108164000D01*
X101106000Y-108164000D01*
X101086000Y-108164000D01*
X101086000Y-107836000D01*
X101106000Y-107836000D01*
X101106000Y-106782500D01*
X101434000Y-106782500D01*
X101434000Y-107836000D01*
X102487500Y-107836000D01*
X102560000Y-107763500D01*
X102560000Y-106971437D01*
X102548855Y-106915410D01*
X102526994Y-106862633D01*
X102495257Y-106815135D01*
X102454864Y-106774742D01*
X102407366Y-106743005D01*
X102354589Y-106721144D01*
X102298562Y-106710000D01*
X101506500Y-106710000D01*
X101434000Y-106782500D01*
X101106000Y-106782500D01*
X101033500Y-106710000D01*
X100241438Y-106710000D01*
X100185411Y-106721144D01*
X100132634Y-106743005D01*
X100085136Y-106774742D01*
X100044743Y-106815135D01*
X100013006Y-106862633D01*
X99991145Y-106915410D01*
X99980000Y-106971437D01*
X99980000Y-107671853D01*
X99970426Y-107623721D01*
X99873183Y-107388956D01*
X99732009Y-107177673D01*
X99552327Y-106997991D01*
X99341044Y-106856817D01*
X99106279Y-106759574D01*
X98857054Y-106710000D01*
X98602946Y-106710000D01*
X98353721Y-106759574D01*
X98118956Y-106856817D01*
X97907673Y-106997991D01*
X97727991Y-107177673D01*
X97586817Y-107388956D01*
X97489574Y-107623721D01*
X97440000Y-107872946D01*
X81158042Y-107872946D01*
X79123959Y-105838863D01*
X79145515Y-105620000D01*
X79123959Y-105401137D01*
X87180315Y-97344781D01*
X87204738Y-97324738D01*
X87284715Y-97227285D01*
X87344143Y-97116102D01*
X87380739Y-96995462D01*
X87390000Y-96901434D01*
X87390000Y-96901433D01*
X87393096Y-96870000D01*
X87390000Y-96838566D01*
X87390000Y-90510000D01*
X95258597Y-90510000D01*
X95258597Y-91110000D01*
X95264196Y-91166850D01*
X95280779Y-91221515D01*
X95307707Y-91271895D01*
X95343947Y-91316053D01*
X95388105Y-91352293D01*
X95438485Y-91379221D01*
X95493150Y-91395804D01*
X95550000Y-91401403D01*
X97050000Y-91401403D01*
X97106850Y-91395804D01*
X97161515Y-91379221D01*
X97211895Y-91352293D01*
X97256053Y-91316053D01*
X97292293Y-91271895D01*
X97319221Y-91221515D01*
X97335804Y-91166850D01*
X97341403Y-91110000D01*
X97341403Y-90510000D01*
X97335804Y-90453150D01*
X97319221Y-90398485D01*
X97292293Y-90348105D01*
X97256053Y-90303947D01*
X97211895Y-90267707D01*
X97161515Y-90240779D01*
X97106850Y-90224196D01*
X97050000Y-90218597D01*
X95550000Y-90218597D01*
X95493150Y-90224196D01*
X95438485Y-90240779D01*
X95388105Y-90267707D01*
X95343947Y-90303947D01*
X95307707Y-90348105D01*
X95280779Y-90398485D01*
X95264196Y-90453150D01*
X95258597Y-90510000D01*
X87390000Y-90510000D01*
X87390000Y-89240000D01*
X95258597Y-89240000D01*
X95258597Y-89840000D01*
X95264196Y-89896850D01*
X95280779Y-89951515D01*
X95307707Y-90001895D01*
X95343947Y-90046053D01*
X95388105Y-90082293D01*
X95438485Y-90109221D01*
X95493150Y-90125804D01*
X95550000Y-90131403D01*
X97050000Y-90131403D01*
X97106850Y-90125804D01*
X97161515Y-90109221D01*
X97211895Y-90082293D01*
X97256053Y-90046053D01*
X97292293Y-90001895D01*
X97319221Y-89951515D01*
X97335804Y-89896850D01*
X97341403Y-89840000D01*
X97341403Y-89240000D01*
X97335804Y-89183150D01*
X97319221Y-89128485D01*
X97292293Y-89078105D01*
X97256053Y-89033947D01*
X97211895Y-88997707D01*
X97161515Y-88970779D01*
X97106850Y-88954196D01*
X97050000Y-88948597D01*
X95550000Y-88948597D01*
X95493150Y-88954196D01*
X95438485Y-88970779D01*
X95388105Y-88997707D01*
X95343947Y-89033947D01*
X95307707Y-89078105D01*
X95280779Y-89128485D01*
X95264196Y-89183150D01*
X95258597Y-89240000D01*
X87390000Y-89240000D01*
X87390000Y-79515096D01*
X92265097Y-74640000D01*
X93668597Y-74640000D01*
X93668597Y-75000000D01*
X93674196Y-75056850D01*
X93690779Y-75111515D01*
X93717707Y-75161895D01*
X93753947Y-75206053D01*
X93798105Y-75242293D01*
X93848485Y-75269221D01*
X93903150Y-75285804D01*
X93960000Y-75291403D01*
X95960000Y-75291403D01*
X96016850Y-75285804D01*
X96071515Y-75269221D01*
X96121895Y-75242293D01*
X96166053Y-75206053D01*
X96202293Y-75161895D01*
X96229221Y-75111515D01*
X96245804Y-75056850D01*
X96251403Y-75000000D01*
X96251403Y-74335201D01*
X96259574Y-74376279D01*
X96356817Y-74611044D01*
X96497991Y-74822327D01*
X96677673Y-75002009D01*
X96888956Y-75143183D01*
X97123721Y-75240426D01*
X97372946Y-75290000D01*
X97627054Y-75290000D01*
X97876279Y-75240426D01*
X98111044Y-75143183D01*
X98322327Y-75002009D01*
X98396621Y-74927715D01*
X113265193Y-74927715D01*
X113308377Y-75312705D01*
X113425516Y-75681975D01*
X113612150Y-76021460D01*
X113861168Y-76318228D01*
X114163087Y-76560977D01*
X114506406Y-76740460D01*
X114878048Y-76849840D01*
X115263858Y-76884952D01*
X115649140Y-76844457D01*
X116019218Y-76729898D01*
X116359998Y-76545640D01*
X116658498Y-76298699D01*
X116903349Y-75998482D01*
X117085224Y-75656425D01*
X117197196Y-75285555D01*
X117235000Y-74900000D01*
X117234226Y-74844576D01*
X117185671Y-74460226D01*
X117063388Y-74092628D01*
X116872033Y-73755782D01*
X116618895Y-73462519D01*
X116313616Y-73224009D01*
X115967825Y-73049337D01*
X115594692Y-72945157D01*
X115208429Y-72915435D01*
X114823750Y-72961306D01*
X114455307Y-73081020D01*
X114117134Y-73270019D01*
X113822110Y-73521103D01*
X113581475Y-73824709D01*
X113404394Y-74169273D01*
X113297611Y-74541669D01*
X113265193Y-74927715D01*
X98396621Y-74927715D01*
X98502009Y-74822327D01*
X98643183Y-74611044D01*
X98740426Y-74376279D01*
X98790000Y-74127054D01*
X98790000Y-73872946D01*
X98740426Y-73623721D01*
X98643183Y-73388956D01*
X98502009Y-73177673D01*
X98322327Y-72997991D01*
X98111044Y-72856817D01*
X97876279Y-72759574D01*
X97627054Y-72710000D01*
X97372946Y-72710000D01*
X97123721Y-72759574D01*
X96888956Y-72856817D01*
X96677673Y-72997991D01*
X96497991Y-73177673D01*
X96356817Y-73388956D01*
X96259574Y-73623721D01*
X96251403Y-73664799D01*
X96251403Y-73000000D01*
X96245804Y-72943150D01*
X96229221Y-72888485D01*
X96202293Y-72838105D01*
X96166053Y-72793947D01*
X96121895Y-72757707D01*
X96071515Y-72730779D01*
X96016850Y-72714196D01*
X95960000Y-72708597D01*
X93960000Y-72708597D01*
X93903150Y-72714196D01*
X93848485Y-72730779D01*
X93798105Y-72757707D01*
X93753947Y-72793947D01*
X93717707Y-72838105D01*
X93690779Y-72888485D01*
X93674196Y-72943150D01*
X93668597Y-73000000D01*
X93668597Y-73360000D01*
X92031433Y-73360000D01*
X91999999Y-73356904D01*
X91874537Y-73369261D01*
X91837941Y-73380363D01*
X91753898Y-73405857D01*
X91642715Y-73465285D01*
X91545262Y-73545262D01*
X91525222Y-73569681D01*
X86479859Y-78615045D01*
X86423162Y-78638530D01*
X86310150Y-78714042D01*
X86214042Y-78810150D01*
X86138530Y-78923162D01*
X86086516Y-79048734D01*
X86060000Y-79182041D01*
X86060000Y-79317959D01*
X86086516Y-79451266D01*
X86110001Y-79507963D01*
X86110000Y-96604904D01*
X78218863Y-104496041D01*
X78055994Y-104480000D01*
X77944006Y-104480000D01*
X77776521Y-104496496D01*
X77561630Y-104561682D01*
X77363586Y-104667539D01*
X77189999Y-104809999D01*
X77047539Y-104983586D01*
X76941682Y-105181630D01*
X76876496Y-105396521D01*
X76854485Y-105620000D01*
X75890000Y-105620000D01*
X75890000Y-103418461D01*
X76911403Y-103418461D01*
X76990912Y-103610432D01*
X77113783Y-103797103D01*
X77270711Y-103956216D01*
X77455665Y-104081657D01*
X77661538Y-104168605D01*
X77836000Y-104135650D01*
X77836000Y-103244000D01*
X78164000Y-103244000D01*
X78164000Y-104135650D01*
X78338462Y-104168605D01*
X78544335Y-104081657D01*
X78729289Y-103956216D01*
X78886217Y-103797103D01*
X79009088Y-103610432D01*
X79088597Y-103418461D01*
X79054827Y-103244000D01*
X78164000Y-103244000D01*
X77836000Y-103244000D01*
X76945173Y-103244000D01*
X76911403Y-103418461D01*
X75890000Y-103418461D01*
X75890000Y-102741539D01*
X76911403Y-102741539D01*
X76945173Y-102916000D01*
X77836000Y-102916000D01*
X77836000Y-102024350D01*
X78164000Y-102024350D01*
X78164000Y-102916000D01*
X79054827Y-102916000D01*
X79088597Y-102741539D01*
X79009088Y-102549568D01*
X78886217Y-102362897D01*
X78729289Y-102203784D01*
X78544335Y-102078343D01*
X78338462Y-101991395D01*
X78164000Y-102024350D01*
X77836000Y-102024350D01*
X77661538Y-101991395D01*
X77455665Y-102078343D01*
X77270711Y-102203784D01*
X77113783Y-102362897D01*
X76990912Y-102549568D01*
X76911403Y-102741539D01*
X75890000Y-102741539D01*
X75890000Y-100540000D01*
X76854485Y-100540000D01*
X76876496Y-100763479D01*
X76941682Y-100978370D01*
X77047539Y-101176414D01*
X77189999Y-101350001D01*
X77363586Y-101492461D01*
X77561630Y-101598318D01*
X77776521Y-101663504D01*
X77944006Y-101680000D01*
X78055994Y-101680000D01*
X78223479Y-101663504D01*
X78438370Y-101598318D01*
X78636414Y-101492461D01*
X78810001Y-101350001D01*
X78952461Y-101176414D01*
X79058318Y-100978370D01*
X79123504Y-100763479D01*
X79145515Y-100540000D01*
X79123504Y-100316521D01*
X79058318Y-100101630D01*
X78952461Y-99903586D01*
X78810001Y-99729999D01*
X78636414Y-99587539D01*
X78438370Y-99481682D01*
X78223479Y-99416496D01*
X78055994Y-99400000D01*
X77944006Y-99400000D01*
X77776521Y-99416496D01*
X77561630Y-99481682D01*
X77363586Y-99587539D01*
X77189999Y-99729999D01*
X77047539Y-99903586D01*
X76941682Y-100101630D01*
X76876496Y-100316521D01*
X76854485Y-100540000D01*
X75890000Y-100540000D01*
X75890000Y-98000000D01*
X76854485Y-98000000D01*
X76876496Y-98223479D01*
X76941682Y-98438370D01*
X77047539Y-98636414D01*
X77189999Y-98810001D01*
X77363586Y-98952461D01*
X77561630Y-99058318D01*
X77776521Y-99123504D01*
X77944006Y-99140000D01*
X78055994Y-99140000D01*
X78223479Y-99123504D01*
X78438370Y-99058318D01*
X78636414Y-98952461D01*
X78810001Y-98810001D01*
X78952461Y-98636414D01*
X79058318Y-98438370D01*
X79123504Y-98223479D01*
X79145515Y-98000000D01*
X79123504Y-97776521D01*
X79058318Y-97561630D01*
X78952461Y-97363586D01*
X78810001Y-97189999D01*
X78636414Y-97047539D01*
X78438370Y-96941682D01*
X78223479Y-96876496D01*
X78055994Y-96860000D01*
X77944006Y-96860000D01*
X77776521Y-96876496D01*
X77561630Y-96941682D01*
X77363586Y-97047539D01*
X77189999Y-97189999D01*
X77047539Y-97363586D01*
X76941682Y-97561630D01*
X76876496Y-97776521D01*
X76854485Y-98000000D01*
X75890000Y-98000000D01*
X75890000Y-95460000D01*
X76854485Y-95460000D01*
X76876496Y-95683479D01*
X76941682Y-95898370D01*
X77047539Y-96096414D01*
X77189999Y-96270001D01*
X77363586Y-96412461D01*
X77561630Y-96518318D01*
X77776521Y-96583504D01*
X77944006Y-96600000D01*
X78055994Y-96600000D01*
X78223479Y-96583504D01*
X78438370Y-96518318D01*
X78636414Y-96412461D01*
X78810001Y-96270001D01*
X78952461Y-96096414D01*
X79058318Y-95898370D01*
X79123504Y-95683479D01*
X79145515Y-95460000D01*
X79123504Y-95236521D01*
X79058318Y-95021630D01*
X78952461Y-94823586D01*
X78810001Y-94649999D01*
X78636414Y-94507539D01*
X78438370Y-94401682D01*
X78223479Y-94336496D01*
X78055994Y-94320000D01*
X77944006Y-94320000D01*
X77776521Y-94336496D01*
X77561630Y-94401682D01*
X77363586Y-94507539D01*
X77189999Y-94649999D01*
X77047539Y-94823586D01*
X76941682Y-95021630D01*
X76876496Y-95236521D01*
X76854485Y-95460000D01*
X75890000Y-95460000D01*
X75890000Y-92920000D01*
X76854485Y-92920000D01*
X76876496Y-93143479D01*
X76941682Y-93358370D01*
X77047539Y-93556414D01*
X77189999Y-93730001D01*
X77363586Y-93872461D01*
X77561630Y-93978318D01*
X77776521Y-94043504D01*
X77944006Y-94060000D01*
X78055994Y-94060000D01*
X78223479Y-94043504D01*
X78438370Y-93978318D01*
X78636414Y-93872461D01*
X78810001Y-93730001D01*
X78952461Y-93556414D01*
X79058318Y-93358370D01*
X79123504Y-93143479D01*
X79145515Y-92920000D01*
X79123504Y-92696521D01*
X79058318Y-92481630D01*
X78952461Y-92283586D01*
X78810001Y-92109999D01*
X78636414Y-91967539D01*
X78438370Y-91861682D01*
X78223479Y-91796496D01*
X78055994Y-91780000D01*
X77944006Y-91780000D01*
X77776521Y-91796496D01*
X77561630Y-91861682D01*
X77363586Y-91967539D01*
X77189999Y-92109999D01*
X77047539Y-92283586D01*
X76941682Y-92481630D01*
X76876496Y-92696521D01*
X76854485Y-92920000D01*
X75890000Y-92920000D01*
X75890000Y-90380000D01*
X76854485Y-90380000D01*
X76876496Y-90603479D01*
X76941682Y-90818370D01*
X77047539Y-91016414D01*
X77189999Y-91190001D01*
X77363586Y-91332461D01*
X77561630Y-91438318D01*
X77776521Y-91503504D01*
X77944006Y-91520000D01*
X78055994Y-91520000D01*
X78223479Y-91503504D01*
X78438370Y-91438318D01*
X78636414Y-91332461D01*
X78810001Y-91190001D01*
X78952461Y-91016414D01*
X79058318Y-90818370D01*
X79123504Y-90603479D01*
X79145515Y-90380000D01*
X79123504Y-90156521D01*
X79058318Y-89941630D01*
X78952461Y-89743586D01*
X78810001Y-89569999D01*
X78636414Y-89427539D01*
X78438370Y-89321682D01*
X78223479Y-89256496D01*
X78055994Y-89240000D01*
X77944006Y-89240000D01*
X77776521Y-89256496D01*
X77561630Y-89321682D01*
X77363586Y-89427539D01*
X77189999Y-89569999D01*
X77047539Y-89743586D01*
X76941682Y-89941630D01*
X76876496Y-90156521D01*
X76854485Y-90380000D01*
X75890000Y-90380000D01*
X75890000Y-87840000D01*
X76854485Y-87840000D01*
X76876496Y-88063479D01*
X76941682Y-88278370D01*
X77047539Y-88476414D01*
X77189999Y-88650001D01*
X77363586Y-88792461D01*
X77561630Y-88898318D01*
X77776521Y-88963504D01*
X77944006Y-88980000D01*
X78055994Y-88980000D01*
X78223479Y-88963504D01*
X78438370Y-88898318D01*
X78636414Y-88792461D01*
X78810001Y-88650001D01*
X78952461Y-88476414D01*
X79058318Y-88278370D01*
X79123504Y-88063479D01*
X79145515Y-87840000D01*
X79123504Y-87616521D01*
X79058318Y-87401630D01*
X78952461Y-87203586D01*
X78810001Y-87029999D01*
X78636414Y-86887539D01*
X78438370Y-86781682D01*
X78223479Y-86716496D01*
X78055994Y-86700000D01*
X77944006Y-86700000D01*
X77776521Y-86716496D01*
X77561630Y-86781682D01*
X77363586Y-86887539D01*
X77189999Y-87029999D01*
X77047539Y-87203586D01*
X76941682Y-87401630D01*
X76876496Y-87616521D01*
X76854485Y-87840000D01*
X75890000Y-87840000D01*
X75890000Y-85300000D01*
X76854485Y-85300000D01*
X76876496Y-85523479D01*
X76941682Y-85738370D01*
X77047539Y-85936414D01*
X77189999Y-86110001D01*
X77363586Y-86252461D01*
X77561630Y-86358318D01*
X77776521Y-86423504D01*
X77944006Y-86440000D01*
X78055994Y-86440000D01*
X78223479Y-86423504D01*
X78438370Y-86358318D01*
X78636414Y-86252461D01*
X78810001Y-86110001D01*
X78952461Y-85936414D01*
X79058318Y-85738370D01*
X79123504Y-85523479D01*
X79145515Y-85300000D01*
X79123504Y-85076521D01*
X79058318Y-84861630D01*
X78952461Y-84663586D01*
X78810001Y-84489999D01*
X78636414Y-84347539D01*
X78438370Y-84241682D01*
X78223479Y-84176496D01*
X78055994Y-84160000D01*
X77944006Y-84160000D01*
X77776521Y-84176496D01*
X77561630Y-84241682D01*
X77363586Y-84347539D01*
X77189999Y-84489999D01*
X77047539Y-84663586D01*
X76941682Y-84861630D01*
X76876496Y-85076521D01*
X76854485Y-85300000D01*
X75890000Y-85300000D01*
X75890000Y-83098461D01*
X76911403Y-83098461D01*
X76990912Y-83290432D01*
X77113783Y-83477103D01*
X77270711Y-83636216D01*
X77455665Y-83761657D01*
X77661538Y-83848605D01*
X77836000Y-83815650D01*
X77836000Y-82924000D01*
X78164000Y-82924000D01*
X78164000Y-83815650D01*
X78338462Y-83848605D01*
X78544335Y-83761657D01*
X78729289Y-83636216D01*
X78886217Y-83477103D01*
X79009088Y-83290432D01*
X79088597Y-83098461D01*
X79054827Y-82924000D01*
X78164000Y-82924000D01*
X77836000Y-82924000D01*
X76945173Y-82924000D01*
X76911403Y-83098461D01*
X75890000Y-83098461D01*
X75890000Y-82421539D01*
X76911403Y-82421539D01*
X76945173Y-82596000D01*
X77836000Y-82596000D01*
X77836000Y-81704350D01*
X78164000Y-81704350D01*
X78164000Y-82596000D01*
X79054827Y-82596000D01*
X79088597Y-82421539D01*
X79009088Y-82229568D01*
X78886217Y-82042897D01*
X78729289Y-81883784D01*
X78544335Y-81758343D01*
X78338462Y-81671395D01*
X78164000Y-81704350D01*
X77836000Y-81704350D01*
X77661538Y-81671395D01*
X77455665Y-81758343D01*
X77270711Y-81883784D01*
X77113783Y-82042897D01*
X76990912Y-82229568D01*
X76911403Y-82421539D01*
X75890000Y-82421539D01*
X75890000Y-79370000D01*
X76858597Y-79370000D01*
X76858597Y-81070000D01*
X76864196Y-81126850D01*
X76880779Y-81181515D01*
X76907707Y-81231895D01*
X76943947Y-81276053D01*
X76988105Y-81312293D01*
X77038485Y-81339221D01*
X77093150Y-81355804D01*
X77150000Y-81361403D01*
X78850000Y-81361403D01*
X78906850Y-81355804D01*
X78961515Y-81339221D01*
X79011895Y-81312293D01*
X79056053Y-81276053D01*
X79092293Y-81231895D01*
X79119221Y-81181515D01*
X79135804Y-81126850D01*
X79141403Y-81070000D01*
X79141403Y-79370000D01*
X79135804Y-79313150D01*
X79119221Y-79258485D01*
X79092293Y-79208105D01*
X79056053Y-79163947D01*
X79011895Y-79127707D01*
X78961515Y-79100779D01*
X78906850Y-79084196D01*
X78850000Y-79078597D01*
X77150000Y-79078597D01*
X77093150Y-79084196D01*
X77038485Y-79100779D01*
X76988105Y-79127707D01*
X76943947Y-79163947D01*
X76907707Y-79208105D01*
X76880779Y-79258485D01*
X76864196Y-79313150D01*
X76858597Y-79370000D01*
X75890000Y-79370000D01*
X75890000Y-74927715D01*
X82765193Y-74927715D01*
X82808377Y-75312705D01*
X82925516Y-75681975D01*
X83112150Y-76021460D01*
X83361168Y-76318228D01*
X83663087Y-76560977D01*
X84006406Y-76740460D01*
X84378048Y-76849840D01*
X84763858Y-76884952D01*
X85149140Y-76844457D01*
X85519218Y-76729898D01*
X85859998Y-76545640D01*
X86158498Y-76298699D01*
X86403349Y-75998482D01*
X86585224Y-75656425D01*
X86697196Y-75285555D01*
X86735000Y-74900000D01*
X86734226Y-74844576D01*
X86685671Y-74460226D01*
X86563388Y-74092628D01*
X86372033Y-73755782D01*
X86118895Y-73462519D01*
X85813616Y-73224009D01*
X85467825Y-73049337D01*
X85094692Y-72945157D01*
X84708429Y-72915435D01*
X84323750Y-72961306D01*
X83955307Y-73081020D01*
X83617134Y-73270019D01*
X83322110Y-73521103D01*
X83081475Y-73824709D01*
X82904394Y-74169273D01*
X82797611Y-74541669D01*
X82765193Y-74927715D01*
X75890000Y-74927715D01*
X75890000Y-71377267D01*
X94120000Y-71377267D01*
X94120000Y-71542733D01*
X94152281Y-71705019D01*
X94215602Y-71857889D01*
X94307530Y-71995469D01*
X94424531Y-72112470D01*
X94562111Y-72204398D01*
X94714981Y-72267719D01*
X94877267Y-72300000D01*
X95042733Y-72300000D01*
X95205019Y-72267719D01*
X95357889Y-72204398D01*
X95495469Y-72112470D01*
X95612470Y-71995469D01*
X95704398Y-71857889D01*
X95767719Y-71705019D01*
X95800000Y-71542733D01*
X95800000Y-71377267D01*
X96660000Y-71377267D01*
X96660000Y-71542733D01*
X96692281Y-71705019D01*
X96755602Y-71857889D01*
X96847530Y-71995469D01*
X96964531Y-72112470D01*
X97102111Y-72204398D01*
X97254981Y-72267719D01*
X97417267Y-72300000D01*
X97582733Y-72300000D01*
X97745019Y-72267719D01*
X97897889Y-72204398D01*
X98035469Y-72112470D01*
X98119875Y-72028064D01*
X102490196Y-72028064D01*
X102533923Y-72417902D01*
X102652538Y-72791823D01*
X102841522Y-73135584D01*
X103093677Y-73436090D01*
X103399398Y-73681896D01*
X103747041Y-73863640D01*
X104123364Y-73974397D01*
X104514032Y-74009951D01*
X104904167Y-73968946D01*
X105278906Y-73852945D01*
X105623978Y-73666366D01*
X105926237Y-73416315D01*
X106174172Y-73112317D01*
X106358338Y-72765951D01*
X106471720Y-72390411D01*
X106510000Y-72000000D01*
X106509216Y-71943878D01*
X106460050Y-71554688D01*
X106336226Y-71182459D01*
X106142461Y-70841371D01*
X105886135Y-70544415D01*
X105577012Y-70302901D01*
X105226865Y-70126029D01*
X104849033Y-70020536D01*
X104457906Y-69990441D01*
X104068382Y-70036889D01*
X103695298Y-70158111D01*
X103352866Y-70349490D01*
X103054127Y-70603737D01*
X102810461Y-70911166D01*
X102631149Y-71260070D01*
X102523021Y-71637157D01*
X102490196Y-72028064D01*
X98119875Y-72028064D01*
X98152470Y-71995469D01*
X98244398Y-71857889D01*
X98307719Y-71705019D01*
X98340000Y-71542733D01*
X98340000Y-71377267D01*
X98307719Y-71214981D01*
X98244398Y-71062111D01*
X98152470Y-70924531D01*
X98035469Y-70807530D01*
X97897889Y-70715602D01*
X97745019Y-70652281D01*
X97582733Y-70620000D01*
X97417267Y-70620000D01*
X97254981Y-70652281D01*
X97102111Y-70715602D01*
X96964531Y-70807530D01*
X96847530Y-70924531D01*
X96755602Y-71062111D01*
X96692281Y-71214981D01*
X96660000Y-71377267D01*
X95800000Y-71377267D01*
X95767719Y-71214981D01*
X95704398Y-71062111D01*
X95612470Y-70924531D01*
X95495469Y-70807530D01*
X95357889Y-70715602D01*
X95205019Y-70652281D01*
X95042733Y-70620000D01*
X94877267Y-70620000D01*
X94714981Y-70652281D01*
X94562111Y-70715602D01*
X94424531Y-70807530D01*
X94307530Y-70924531D01*
X94215602Y-71062111D01*
X94152281Y-71214981D01*
X94120000Y-71377267D01*
X75890000Y-71377267D01*
X75890000Y-71019078D01*
X75941543Y-70493411D01*
X76088664Y-70006120D01*
X76327633Y-69556683D01*
X76649347Y-69162223D01*
X77041554Y-68837761D01*
X77489309Y-68595661D01*
X77975559Y-68445141D01*
X78500174Y-68390002D01*
X78500785Y-68390000D01*
X115980922Y-68390000D01*
X116506589Y-68441543D01*
G04 #@! TD*
M02*
