G04 #@! TF.GenerationSoftware,KiCad,Pcbnew,(5.0.1)-3*
G04 #@! TF.CreationDate,2018-11-09T14:35:38+01:00*
G04 #@! TF.ProjectId,power_stalker_esp,706F7765725F7374616C6B65725F6573,rev?*
G04 #@! TF.SameCoordinates,Original*
G04 #@! TF.FileFunction,Legend,Top*
G04 #@! TF.FilePolarity,Positive*
%FSLAX46Y46*%
G04 Gerber Fmt 4.6, Leading zero omitted, Abs format (unit mm)*
G04 Created by KiCad (PCBNEW (5.0.1)-3) date 09-Nov-18 14:35:38*
%MOMM*%
%LPD*%
G01*
G04 APERTURE LIST*
%ADD10C,0.200000*%
%ADD11C,0.300000*%
%ADD12C,0.120000*%
%ADD13C,0.254000*%
%ADD14C,0.150000*%
%ADD15C,0.304800*%
G04 APERTURE END LIST*
D10*
X94725000Y-126900000D02*
X94025000Y-126900000D01*
X94725000Y-127217775D02*
X94025000Y-127217775D01*
X94025000Y-126900000D02*
X94025000Y-127300283D01*
X94725000Y-126900000D02*
X94725000Y-127300283D01*
X89275000Y-127217775D02*
X89975000Y-127217775D01*
X76550000Y-69250000D02*
X76550000Y-126750000D01*
X94725000Y-127153431D02*
X94025000Y-127153431D01*
X88250000Y-127850000D02*
X95750000Y-127850000D01*
X88800000Y-123150000D02*
X88800000Y-128138657D01*
X83850000Y-69250000D02*
X76550000Y-69250000D01*
X90650000Y-124150000D02*
X89790000Y-124150000D01*
X89640000Y-123850000D02*
X90500000Y-123850000D01*
X89975000Y-126900000D02*
X89975000Y-127300283D01*
X89841285Y-123850000D02*
X89841285Y-123150000D01*
X94158715Y-123150000D02*
X94158715Y-123850000D01*
X89275000Y-127153431D02*
X89975000Y-127153431D01*
X89275000Y-126900000D02*
X89975000Y-126900000D01*
X94210000Y-124150000D02*
X93350000Y-124150000D01*
X89975000Y-127300283D02*
X89275000Y-127300283D01*
X95200000Y-128138657D02*
X95200000Y-123150000D01*
X93500000Y-123850000D02*
X94360000Y-123850000D01*
X94360000Y-123850000D02*
X94360000Y-124000000D01*
X94725000Y-127300283D02*
X94025000Y-127300283D01*
X95000000Y-128000789D02*
X95000000Y-128250000D01*
X89000000Y-128250000D02*
X89000000Y-128000789D01*
X89000000Y-128250000D02*
X95000000Y-128250000D01*
X89275000Y-126900000D02*
X89275000Y-127300283D01*
X89000000Y-128000789D02*
X95000000Y-128000789D01*
X107450000Y-69250000D02*
X100150000Y-69250000D01*
X82150000Y-125050000D02*
X82150000Y-121050000D01*
X95076537Y-128241525D02*
X95039018Y-128247861D01*
X88800000Y-127889446D02*
X88803843Y-127911168D01*
X88858579Y-128217388D02*
X88833706Y-128200516D01*
X79550000Y-74950000D02*
X79550000Y-76250000D01*
X98850000Y-125050000D02*
X101850000Y-125050000D01*
X81550000Y-76250000D02*
X81550000Y-74950000D01*
X100150000Y-68850000D02*
X83850000Y-68850000D01*
X98000000Y-76650000D02*
X86000000Y-76650000D01*
X88833706Y-128200516D02*
X88815224Y-128181266D01*
X83850000Y-68850000D02*
X83850000Y-92850000D01*
X95166294Y-127951305D02*
X95184776Y-127932055D01*
X88803843Y-127911168D02*
X88815224Y-127932055D01*
X86000000Y-91650000D02*
X98000000Y-91650000D01*
X82150000Y-121050000D02*
X85150000Y-121050000D01*
X100150000Y-92850000D02*
X100150000Y-68850000D01*
X85150000Y-121050000D02*
X85150000Y-125050000D01*
X98000000Y-91650000D02*
X98000000Y-76650000D01*
X88923463Y-128241525D02*
X88888886Y-128231235D01*
X88888886Y-128231235D02*
X88858579Y-128217388D01*
X95141421Y-127968177D02*
X95166294Y-127951305D01*
X95166294Y-128200516D02*
X95141421Y-128217388D01*
X95141421Y-128217388D02*
X95111114Y-128231235D01*
X85150000Y-125050000D02*
X82150000Y-125050000D01*
X95076537Y-127992313D02*
X95111114Y-127982024D01*
X101850000Y-121050000D02*
X98850000Y-121050000D01*
X86000000Y-76650000D02*
X86000000Y-91650000D01*
X95196157Y-128160379D02*
X95184776Y-128181266D01*
X95200000Y-128138657D02*
X95196157Y-128160379D01*
X89000000Y-128250000D02*
X88960982Y-128247861D01*
X95039018Y-127998650D02*
X95076537Y-127992313D01*
X95000000Y-128000789D02*
X95039018Y-127998650D01*
X95111114Y-128231235D02*
X95076537Y-128241525D01*
X88960982Y-127998650D02*
X89000000Y-128000789D01*
X88960982Y-128247861D02*
X88923463Y-128241525D01*
X95196157Y-127911168D02*
X95200000Y-127889446D01*
X88815224Y-128181266D02*
X88803843Y-128160379D01*
X95184776Y-127932055D02*
X95196157Y-127911168D01*
X88858579Y-127968177D02*
X88888886Y-127982024D01*
X95039018Y-128247861D02*
X95000000Y-128250000D01*
X88815224Y-127932055D02*
X88833706Y-127951305D01*
X98850000Y-121050000D02*
X98850000Y-125050000D01*
X95750000Y-126750000D02*
X107450000Y-126750000D01*
X88803843Y-128160379D02*
X88800000Y-128138657D01*
X88888886Y-127982024D02*
X88923463Y-127992313D01*
X101850000Y-125050000D02*
X101850000Y-121050000D01*
X79550000Y-76250000D02*
X81550000Y-76250000D01*
X81550000Y-74950000D02*
X79550000Y-74950000D01*
X83850000Y-92850000D02*
X100150000Y-92850000D01*
X76550000Y-126750000D02*
X88250000Y-126750000D01*
X88923463Y-127992313D02*
X88960982Y-127998650D01*
X95184776Y-128181266D02*
X95166294Y-128200516D01*
X107450000Y-126750000D02*
X107450000Y-69250000D01*
X95111114Y-127982024D02*
X95141421Y-127968177D01*
X88833706Y-127951305D02*
X88858579Y-127968177D01*
X93775000Y-126800000D02*
X93775000Y-126650000D01*
X94975000Y-126650000D02*
X94975000Y-126800000D01*
X91625000Y-124250000D02*
X91600000Y-124250000D01*
X92400000Y-124250000D02*
X92375000Y-124250000D01*
X89225000Y-126850000D02*
X89075000Y-126850000D01*
X94925000Y-126850000D02*
X94775000Y-126850000D01*
X90025000Y-126600000D02*
X90175000Y-126600000D01*
X89025000Y-126800000D02*
X89025000Y-126650000D01*
X89075000Y-126600000D02*
X89225000Y-126600000D01*
X90175000Y-126850000D02*
X90025000Y-126850000D01*
X95750000Y-127850000D02*
X95750000Y-123150000D01*
X94025000Y-126550000D02*
X94025000Y-125450000D01*
X90500000Y-123850000D02*
X90500000Y-123150000D01*
X89325000Y-125400000D02*
X89925000Y-125400000D01*
X91625000Y-123817084D02*
X91625000Y-124250000D01*
X93975000Y-126850000D02*
X93825000Y-126850000D01*
X91625000Y-124000000D02*
X92375000Y-124000000D01*
X90224308Y-123850000D02*
X90224308Y-123150000D01*
X92400000Y-123900000D02*
X92400000Y-124250000D01*
X92375000Y-124050000D02*
X91625000Y-124050000D01*
X88250000Y-123150000D02*
X88250000Y-127850000D01*
X91600000Y-124250000D02*
X91600000Y-123900000D01*
X91750000Y-123750000D02*
X92250000Y-123750000D01*
X89275000Y-126550000D02*
X89275000Y-125450000D01*
X94075000Y-125400000D02*
X94675000Y-125400000D01*
X89975000Y-125450000D02*
X89975000Y-126550000D01*
X90800000Y-122850000D02*
X90800000Y-124000000D01*
X92375000Y-124250000D02*
X92375000Y-123817084D01*
X93775692Y-123150000D02*
X93775692Y-123850000D01*
X94800000Y-122850000D02*
X89200000Y-122850000D01*
X89640000Y-124000000D02*
X89640000Y-123850000D01*
X90225000Y-126650000D02*
X90225000Y-126800000D01*
X93825000Y-126600000D02*
X93975000Y-126600000D01*
X94775000Y-126600000D02*
X94925000Y-126600000D01*
X93200000Y-124000000D02*
X93200000Y-122850000D01*
X95750000Y-123150000D02*
X88250000Y-123150000D01*
X92375000Y-124100000D02*
X91625000Y-124100000D01*
X94725000Y-125450000D02*
X94725000Y-126550000D01*
X88550001Y-127853620D02*
G75*
G02X88347076Y-128133883I-295001J0D01*
G01*
X87900000Y-127964987D02*
X88250000Y-127850000D01*
X89750000Y-123950000D02*
X89750000Y-123850000D01*
X94800000Y-123150000D02*
X94800000Y-122850000D01*
X94675000Y-125400000D02*
G75*
G02X94725000Y-125450000I0J-50000D01*
G01*
X89925000Y-125400000D02*
G75*
G02X89975000Y-125450000I0J-50000D01*
G01*
X90025000Y-126600000D02*
G75*
G02X89975000Y-126550000I0J50000D01*
G01*
X93825000Y-126850000D02*
G75*
G02X93775000Y-126800000I0J50000D01*
G01*
X95750000Y-127850000D02*
X96100000Y-127964987D01*
X90225000Y-126800000D02*
G75*
G02X90175000Y-126850000I-50000J0D01*
G01*
X89975000Y-126900000D02*
G75*
G02X90025000Y-126850000I50000J0D01*
G01*
X89750000Y-126150000D02*
X89750000Y-126450000D01*
X93975000Y-126850000D02*
G75*
G02X94025000Y-126900000I0J-50000D01*
G01*
X94725000Y-126900000D02*
G75*
G02X94775000Y-126850000I50000J0D01*
G01*
X94025000Y-126550000D02*
G75*
G02X93975000Y-126600000I-50000J0D01*
G01*
X90215000Y-122850000D02*
X90215000Y-123150000D01*
X88550000Y-127850000D02*
X88550000Y-127853620D01*
X88183645Y-128187575D02*
X88090008Y-127902563D01*
X94025000Y-125450000D02*
G75*
G02X94075000Y-125400000I50000J0D01*
G01*
X87900000Y-127964987D02*
X87993637Y-128250000D01*
X95450000Y-127853620D02*
X95450000Y-127850000D01*
X90800000Y-124000000D02*
G75*
G02X90650000Y-124150000I-150000J0D01*
G01*
X94300000Y-122850000D02*
X94300000Y-123150000D01*
X94596447Y-126900000D02*
X94596447Y-126450000D01*
X93300000Y-123950000D02*
X93300000Y-123230000D01*
X93200000Y-123230000D02*
X93500000Y-123230000D01*
X94775000Y-126600000D02*
G75*
G02X94725000Y-126550000I0J50000D01*
G01*
X89200000Y-122850000D02*
X89200000Y-123150000D01*
X94925000Y-126600000D02*
G75*
G02X94975000Y-126650000I0J-50000D01*
G01*
X94360000Y-124000000D02*
G75*
G02X94210000Y-124150000I-150000J0D01*
G01*
X94975000Y-126800000D02*
G75*
G02X94925000Y-126850000I-50000J0D01*
G01*
X93785000Y-123150000D02*
X93785000Y-122850000D01*
X89790000Y-124150000D02*
G75*
G02X89640000Y-124000000I0J150000D01*
G01*
X94250000Y-126150000D02*
X94725000Y-126150000D01*
X88347076Y-128133883D02*
X87993637Y-128250000D01*
X94725000Y-126450000D02*
X94250000Y-126450000D01*
X89403553Y-126450000D02*
X89403553Y-126900000D01*
X89275000Y-126150000D02*
X89750000Y-126150000D01*
X93425000Y-123150000D02*
X93425000Y-123230000D01*
X89750000Y-126450000D02*
X89275000Y-126450000D01*
X94250000Y-123950000D02*
X93300000Y-123950000D01*
X90700000Y-123950000D02*
X89750000Y-123950000D01*
X90700000Y-123230000D02*
X90700000Y-123950000D01*
X93500000Y-123150000D02*
X93500000Y-123850000D01*
X89700000Y-122850000D02*
X89700000Y-123150000D01*
X95652924Y-128133882D02*
G75*
G02X95450000Y-127853620I92076J280262D01*
G01*
X89226777Y-126850032D02*
X89226777Y-126599968D01*
X90175000Y-126600000D02*
G75*
G02X90225000Y-126650000I0J-50000D01*
G01*
X93350000Y-124150000D02*
G75*
G02X93200000Y-124000000I0J150000D01*
G01*
X95909992Y-127902563D02*
X95816355Y-128187575D01*
X94250000Y-123850000D02*
X94250000Y-123950000D01*
X91600000Y-123900000D02*
G75*
G02X91750000Y-123750000I150000J0D01*
G01*
X92250000Y-123750000D02*
G75*
G02X92400000Y-123900000I0J-150000D01*
G01*
X93775000Y-126650000D02*
G75*
G02X93825000Y-126600000I50000J0D01*
G01*
X90575000Y-123150000D02*
X90575000Y-123230000D01*
X94250000Y-126450000D02*
X94250000Y-126150000D01*
X90500000Y-123230000D02*
X90800000Y-123230000D01*
X94773223Y-126599968D02*
X94773223Y-126850032D01*
X89225000Y-126850000D02*
G75*
G02X89275000Y-126900000I0J-50000D01*
G01*
X96006363Y-128250000D02*
X95652924Y-128133883D01*
X89075000Y-126850000D02*
G75*
G02X89025000Y-126800000I0J50000D01*
G01*
X96006363Y-128250000D02*
X96100000Y-127964987D01*
X89275000Y-126550000D02*
G75*
G02X89225000Y-126600000I-50000J0D01*
G01*
X89025000Y-126650000D02*
G75*
G02X89075000Y-126600000I50000J0D01*
G01*
X89275000Y-125450000D02*
G75*
G02X89325000Y-125400000I50000J0D01*
G01*
D11*
X101907142Y-75135714D02*
X101978571Y-74921428D01*
X101978571Y-74564285D01*
X101907142Y-74421428D01*
X101835714Y-74350000D01*
X101692857Y-74278571D01*
X101550000Y-74278571D01*
X101407142Y-74350000D01*
X101335714Y-74421428D01*
X101264285Y-74564285D01*
X101192857Y-74850000D01*
X101121428Y-74992857D01*
X101050000Y-75064285D01*
X100907142Y-75135714D01*
X100764285Y-75135714D01*
X100621428Y-75064285D01*
X100550000Y-74992857D01*
X100478571Y-74850000D01*
X100478571Y-74492857D01*
X100550000Y-74278571D01*
X101978571Y-73635714D02*
X100478571Y-73635714D01*
X100550000Y-72135714D02*
X100478571Y-72278571D01*
X100478571Y-72492857D01*
X100550000Y-72707142D01*
X100692857Y-72850000D01*
X100835714Y-72921428D01*
X101121428Y-72992857D01*
X101335714Y-72992857D01*
X101621428Y-72921428D01*
X101764285Y-72850000D01*
X101907142Y-72707142D01*
X101978571Y-72492857D01*
X101978571Y-72350000D01*
X101907142Y-72135714D01*
X101835714Y-72064285D01*
X101335714Y-72064285D01*
X101335714Y-72350000D01*
X92207142Y-76442857D02*
X92207142Y-75300000D01*
X92778571Y-75871428D02*
X91635714Y-75871428D01*
X91278571Y-74728571D02*
X91278571Y-73800000D01*
X91850000Y-74300000D01*
X91850000Y-74085714D01*
X91921428Y-73942857D01*
X91992857Y-73871428D01*
X92135714Y-73800000D01*
X92492857Y-73800000D01*
X92635714Y-73871428D01*
X92707142Y-73942857D01*
X92778571Y-74085714D01*
X92778571Y-74514285D01*
X92707142Y-74657142D01*
X92635714Y-74728571D01*
X91278571Y-73371428D02*
X92778571Y-72871428D01*
X91278571Y-72371428D01*
X91278571Y-72014285D02*
X91278571Y-71085714D01*
X91850000Y-71585714D01*
X91850000Y-71371428D01*
X91921428Y-71228571D01*
X91992857Y-71157142D01*
X92135714Y-71085714D01*
X92492857Y-71085714D01*
X92635714Y-71157142D01*
X92707142Y-71228571D01*
X92778571Y-71371428D01*
X92778571Y-71800000D01*
X92707142Y-71942857D01*
X92635714Y-72014285D01*
X100750000Y-115542857D02*
X100678571Y-115685714D01*
X100678571Y-115900000D01*
X100750000Y-116114285D01*
X100892857Y-116257142D01*
X101035714Y-116328571D01*
X101321428Y-116400000D01*
X101535714Y-116400000D01*
X101821428Y-116328571D01*
X101964285Y-116257142D01*
X102107142Y-116114285D01*
X102178571Y-115900000D01*
X102178571Y-115757142D01*
X102107142Y-115542857D01*
X102035714Y-115471428D01*
X101535714Y-115471428D01*
X101535714Y-115757142D01*
X102178571Y-114828571D02*
X100678571Y-114828571D01*
X102178571Y-113971428D01*
X100678571Y-113971428D01*
X102178571Y-113257142D02*
X100678571Y-113257142D01*
X100678571Y-112900000D01*
X100750000Y-112685714D01*
X100892857Y-112542857D01*
X101035714Y-112471428D01*
X101321428Y-112400000D01*
X101535714Y-112400000D01*
X101821428Y-112471428D01*
X101964285Y-112542857D01*
X102107142Y-112685714D01*
X102178571Y-112900000D01*
X102178571Y-113257142D01*
X98807142Y-116428571D02*
X98807142Y-115285714D01*
X99378571Y-115857142D02*
X98235714Y-115857142D01*
X97878571Y-113857142D02*
X97878571Y-114571428D01*
X98592857Y-114642857D01*
X98521428Y-114571428D01*
X98450000Y-114428571D01*
X98450000Y-114071428D01*
X98521428Y-113928571D01*
X98592857Y-113857142D01*
X98735714Y-113785714D01*
X99092857Y-113785714D01*
X99235714Y-113857142D01*
X99307142Y-113928571D01*
X99378571Y-114071428D01*
X99378571Y-114428571D01*
X99307142Y-114571428D01*
X99235714Y-114642857D01*
X97878571Y-113357142D02*
X99378571Y-112857142D01*
X97878571Y-112357142D01*
D12*
G04 #@! TO.C,C1*
X92510000Y-88828733D02*
X92510000Y-89171267D01*
X91490000Y-88828733D02*
X91490000Y-89171267D01*
D13*
G04 #@! TO.C,J1*
X102799080Y-110600960D02*
X97200920Y-110600960D01*
X97399040Y-111098800D02*
X97399040Y-110600960D01*
X102600960Y-110600960D02*
X102600960Y-111098800D01*
X100000000Y-111098800D02*
X100000000Y-110600960D01*
X97200920Y-105299980D02*
X102799080Y-105299980D01*
X97200920Y-111098800D02*
X102799080Y-111098800D01*
X102799080Y-111098800D02*
X102799080Y-104901200D01*
X102799080Y-104901200D02*
X97200920Y-104901200D01*
X97200920Y-104901200D02*
X97200920Y-111098800D01*
D12*
G04 #@! TO.C,J2*
X78000000Y-78890000D02*
X79330000Y-78890000D01*
X79330000Y-78890000D02*
X79330000Y-80220000D01*
X79330000Y-81490000D02*
X79330000Y-117110000D01*
X76670000Y-117110000D02*
X79330000Y-117110000D01*
X76670000Y-81490000D02*
X76670000Y-117110000D01*
X76670000Y-81490000D02*
X79330000Y-81490000D01*
G04 #@! TO.C,J3*
X106000000Y-78890000D02*
X107330000Y-78890000D01*
X107330000Y-78890000D02*
X107330000Y-80220000D01*
X107330000Y-81490000D02*
X107330000Y-117110000D01*
X104670000Y-117110000D02*
X107330000Y-117110000D01*
X104670000Y-81490000D02*
X104670000Y-117110000D01*
X104670000Y-81490000D02*
X107330000Y-81490000D01*
D13*
G04 #@! TO.C,Q1*
X99029080Y-77098800D02*
X99029080Y-70901200D01*
X93430920Y-77098800D02*
X99029080Y-77098800D01*
X93430920Y-70901200D02*
X93430920Y-77098800D01*
X99029080Y-70901200D02*
X93430920Y-70901200D01*
X99029080Y-76700020D02*
X93430920Y-76700020D01*
X96230000Y-70901200D02*
X96230000Y-71399040D01*
X93629040Y-71399040D02*
X93629040Y-70901200D01*
X98830960Y-70901200D02*
X98830960Y-71399040D01*
X93430920Y-71399040D02*
X99029080Y-71399040D01*
D12*
G04 #@! TO.C,Q2*
X92580000Y-82740000D02*
X91650000Y-82740000D01*
X89420000Y-82740000D02*
X90350000Y-82740000D01*
X89420000Y-82740000D02*
X89420000Y-84900000D01*
X92580000Y-82740000D02*
X92580000Y-84200000D01*
G04 #@! TO.C,R1*
X90510000Y-86828733D02*
X90510000Y-87171267D01*
X89490000Y-86828733D02*
X89490000Y-87171267D01*
G04 #@! TO.C,R2*
X91510000Y-80171267D02*
X91510000Y-79828733D01*
X90490000Y-80171267D02*
X90490000Y-79828733D01*
G04 #@! TO.C,R3*
X101578733Y-79490000D02*
X101921267Y-79490000D01*
X101578733Y-80510000D02*
X101921267Y-80510000D01*
G04 #@! TO.C,C1*
D14*
X93787142Y-89166666D02*
X93834761Y-89214285D01*
X93882380Y-89357142D01*
X93882380Y-89452380D01*
X93834761Y-89595238D01*
X93739523Y-89690476D01*
X93644285Y-89738095D01*
X93453809Y-89785714D01*
X93310952Y-89785714D01*
X93120476Y-89738095D01*
X93025238Y-89690476D01*
X92930000Y-89595238D01*
X92882380Y-89452380D01*
X92882380Y-89357142D01*
X92930000Y-89214285D01*
X92977619Y-89166666D01*
X93882380Y-88214285D02*
X93882380Y-88785714D01*
X93882380Y-88500000D02*
X92882380Y-88500000D01*
X93025238Y-88595238D01*
X93120476Y-88690476D01*
X93168095Y-88785714D01*
G04 #@! TO.C,J1*
D15*
X92638571Y-104189428D02*
X92638571Y-102665428D01*
X93219142Y-102665428D01*
X93364285Y-102738000D01*
X93436857Y-102810571D01*
X93509428Y-102955714D01*
X93509428Y-103173428D01*
X93436857Y-103318571D01*
X93364285Y-103391142D01*
X93219142Y-103463714D01*
X92638571Y-103463714D01*
X94452857Y-102665428D02*
X94743142Y-102665428D01*
X94888285Y-102738000D01*
X95033428Y-102883142D01*
X95106000Y-103173428D01*
X95106000Y-103681428D01*
X95033428Y-103971714D01*
X94888285Y-104116857D01*
X94743142Y-104189428D01*
X94452857Y-104189428D01*
X94307714Y-104116857D01*
X94162571Y-103971714D01*
X94090000Y-103681428D01*
X94090000Y-103173428D01*
X94162571Y-102883142D01*
X94307714Y-102738000D01*
X94452857Y-102665428D01*
X95614000Y-102665428D02*
X95976857Y-104189428D01*
X96267142Y-103100857D01*
X96557428Y-104189428D01*
X96920285Y-102665428D01*
X97500857Y-103391142D02*
X98008857Y-103391142D01*
X98226571Y-104189428D02*
X97500857Y-104189428D01*
X97500857Y-102665428D01*
X98226571Y-102665428D01*
X99750571Y-104189428D02*
X99242571Y-103463714D01*
X98879714Y-104189428D02*
X98879714Y-102665428D01*
X99460285Y-102665428D01*
X99605428Y-102738000D01*
X99678000Y-102810571D01*
X99750571Y-102955714D01*
X99750571Y-103173428D01*
X99678000Y-103318571D01*
X99605428Y-103391142D01*
X99460285Y-103463714D01*
X98879714Y-103463714D01*
X101564857Y-104189428D02*
X101564857Y-102665428D01*
X102290571Y-104189428D02*
X102290571Y-102665428D01*
X103161428Y-104189428D01*
X103161428Y-102665428D01*
G04 #@! TO.C,Q2*
D14*
X89047619Y-83595238D02*
X89000000Y-83690476D01*
X88904761Y-83785714D01*
X88761904Y-83928571D01*
X88714285Y-84023809D01*
X88714285Y-84119047D01*
X88952380Y-84071428D02*
X88904761Y-84166666D01*
X88809523Y-84261904D01*
X88619047Y-84309523D01*
X88285714Y-84309523D01*
X88095238Y-84261904D01*
X88000000Y-84166666D01*
X87952380Y-84071428D01*
X87952380Y-83880952D01*
X88000000Y-83785714D01*
X88095238Y-83690476D01*
X88285714Y-83642857D01*
X88619047Y-83642857D01*
X88809523Y-83690476D01*
X88904761Y-83785714D01*
X88952380Y-83880952D01*
X88952380Y-84071428D01*
X88047619Y-83261904D02*
X88000000Y-83214285D01*
X87952380Y-83119047D01*
X87952380Y-82880952D01*
X88000000Y-82785714D01*
X88047619Y-82738095D01*
X88142857Y-82690476D01*
X88238095Y-82690476D01*
X88380952Y-82738095D01*
X88952380Y-83309523D01*
X88952380Y-82690476D01*
G04 #@! TO.C,R1*
X88952380Y-87066666D02*
X88476190Y-87400000D01*
X88952380Y-87638095D02*
X87952380Y-87638095D01*
X87952380Y-87257142D01*
X88000000Y-87161904D01*
X88047619Y-87114285D01*
X88142857Y-87066666D01*
X88285714Y-87066666D01*
X88380952Y-87114285D01*
X88428571Y-87161904D01*
X88476190Y-87257142D01*
X88476190Y-87638095D01*
X88952380Y-86114285D02*
X88952380Y-86685714D01*
X88952380Y-86400000D02*
X87952380Y-86400000D01*
X88095238Y-86495238D01*
X88190476Y-86590476D01*
X88238095Y-86685714D01*
G04 #@! TO.C,R2*
X90022380Y-80166666D02*
X89546190Y-80500000D01*
X90022380Y-80738095D02*
X89022380Y-80738095D01*
X89022380Y-80357142D01*
X89070000Y-80261904D01*
X89117619Y-80214285D01*
X89212857Y-80166666D01*
X89355714Y-80166666D01*
X89450952Y-80214285D01*
X89498571Y-80261904D01*
X89546190Y-80357142D01*
X89546190Y-80738095D01*
X89117619Y-79785714D02*
X89070000Y-79738095D01*
X89022380Y-79642857D01*
X89022380Y-79404761D01*
X89070000Y-79309523D01*
X89117619Y-79261904D01*
X89212857Y-79214285D01*
X89308095Y-79214285D01*
X89450952Y-79261904D01*
X90022380Y-79833333D01*
X90022380Y-79214285D01*
G04 #@! TO.C,R3*
X101583333Y-79022380D02*
X101250000Y-78546190D01*
X101011904Y-79022380D02*
X101011904Y-78022380D01*
X101392857Y-78022380D01*
X101488095Y-78070000D01*
X101535714Y-78117619D01*
X101583333Y-78212857D01*
X101583333Y-78355714D01*
X101535714Y-78450952D01*
X101488095Y-78498571D01*
X101392857Y-78546190D01*
X101011904Y-78546190D01*
X101916666Y-78022380D02*
X102535714Y-78022380D01*
X102202380Y-78403333D01*
X102345238Y-78403333D01*
X102440476Y-78450952D01*
X102488095Y-78498571D01*
X102535714Y-78593809D01*
X102535714Y-78831904D01*
X102488095Y-78927142D01*
X102440476Y-78974761D01*
X102345238Y-79022380D01*
X102059523Y-79022380D01*
X101964285Y-78974761D01*
X101916666Y-78927142D01*
G04 #@! TD*
M02*
