G04 #@! TF.GenerationSoftware,KiCad,Pcbnew,(5.0.1)-3*
G04 #@! TF.CreationDate,2018-11-09T14:35:38+01:00*
G04 #@! TF.ProjectId,power_stalker_esp,706F7765725F7374616C6B65725F6573,rev?*
G04 #@! TF.SameCoordinates,Original*
G04 #@! TF.FileFunction,Legend,Bot*
G04 #@! TF.FilePolarity,Positive*
%FSLAX46Y46*%
G04 Gerber Fmt 4.6, Leading zero omitted, Abs format (unit mm)*
G04 Created by KiCad (PCBNEW (5.0.1)-3) date 09-Nov-18 14:35:38*
%MOMM*%
%LPD*%
G01*
G04 APERTURE LIST*
%ADD10C,0.300000*%
%ADD11C,0.150000*%
G04 APERTURE END LIST*
D10*
X99671428Y-115203571D02*
X100171428Y-114489285D01*
X100528571Y-115203571D02*
X100528571Y-113703571D01*
X99957142Y-113703571D01*
X99814285Y-113775000D01*
X99742857Y-113846428D01*
X99671428Y-113989285D01*
X99671428Y-114203571D01*
X99742857Y-114346428D01*
X99814285Y-114417857D01*
X99957142Y-114489285D01*
X100528571Y-114489285D01*
X99028571Y-114417857D02*
X98528571Y-114417857D01*
X98314285Y-115203571D02*
X99028571Y-115203571D01*
X99028571Y-113703571D01*
X98314285Y-113703571D01*
X97885714Y-113703571D02*
X97385714Y-115203571D01*
X96885714Y-113703571D01*
X95314285Y-114775000D02*
X94600000Y-114775000D01*
X95457142Y-115203571D02*
X94957142Y-113703571D01*
X94457142Y-115203571D01*
X101528571Y-117753571D02*
X102385714Y-117753571D01*
X101957142Y-117753571D02*
X101957142Y-116253571D01*
X102100000Y-116467857D01*
X102242857Y-116610714D01*
X102385714Y-116682142D01*
X100100000Y-117753571D02*
X100957142Y-117753571D01*
X100528571Y-117753571D02*
X100528571Y-116253571D01*
X100671428Y-116467857D01*
X100814285Y-116610714D01*
X100957142Y-116682142D01*
X98385714Y-116182142D02*
X99671428Y-118110714D01*
X97957142Y-116396428D02*
X97885714Y-116325000D01*
X97742857Y-116253571D01*
X97385714Y-116253571D01*
X97242857Y-116325000D01*
X97171428Y-116396428D01*
X97100000Y-116539285D01*
X97100000Y-116682142D01*
X97171428Y-116896428D01*
X98028571Y-117753571D01*
X97100000Y-117753571D01*
X96171428Y-116253571D02*
X96028571Y-116253571D01*
X95885714Y-116325000D01*
X95814285Y-116396428D01*
X95742857Y-116539285D01*
X95671428Y-116825000D01*
X95671428Y-117182142D01*
X95742857Y-117467857D01*
X95814285Y-117610714D01*
X95885714Y-117682142D01*
X96028571Y-117753571D01*
X96171428Y-117753571D01*
X96314285Y-117682142D01*
X96385714Y-117610714D01*
X96457142Y-117467857D01*
X96528571Y-117182142D01*
X96528571Y-116825000D01*
X96457142Y-116539285D01*
X96385714Y-116396428D01*
X96314285Y-116325000D01*
X96171428Y-116253571D01*
X94242857Y-117753571D02*
X95100000Y-117753571D01*
X94671428Y-117753571D02*
X94671428Y-116253571D01*
X94814285Y-116467857D01*
X94957142Y-116610714D01*
X95100000Y-116682142D01*
X93385714Y-116896428D02*
X93528571Y-116825000D01*
X93600000Y-116753571D01*
X93671428Y-116610714D01*
X93671428Y-116539285D01*
X93600000Y-116396428D01*
X93528571Y-116325000D01*
X93385714Y-116253571D01*
X93100000Y-116253571D01*
X92957142Y-116325000D01*
X92885714Y-116396428D01*
X92814285Y-116539285D01*
X92814285Y-116610714D01*
X92885714Y-116753571D01*
X92957142Y-116825000D01*
X93100000Y-116896428D01*
X93385714Y-116896428D01*
X93528571Y-116967857D01*
X93600000Y-117039285D01*
X93671428Y-117182142D01*
X93671428Y-117467857D01*
X93600000Y-117610714D01*
X93528571Y-117682142D01*
X93385714Y-117753571D01*
X93100000Y-117753571D01*
X92957142Y-117682142D01*
X92885714Y-117610714D01*
X92814285Y-117467857D01*
X92814285Y-117182142D01*
X92885714Y-117039285D01*
X92957142Y-116967857D01*
X93100000Y-116896428D01*
D11*
G04 #@! TO.C,U1*
X101075000Y-82550000D02*
X101075000Y-82575000D01*
X96925000Y-82550000D02*
X96925000Y-82665000D01*
X96925000Y-91450000D02*
X96925000Y-91335000D01*
X101075000Y-91450000D02*
X101075000Y-91335000D01*
X101075000Y-82550000D02*
X96925000Y-82550000D01*
X101075000Y-91450000D02*
X96925000Y-91450000D01*
X101075000Y-82575000D02*
X102450000Y-82575000D01*
X99761904Y-81077380D02*
X99761904Y-81886904D01*
X99714285Y-81982142D01*
X99666666Y-82029761D01*
X99571428Y-82077380D01*
X99380952Y-82077380D01*
X99285714Y-82029761D01*
X99238095Y-81982142D01*
X99190476Y-81886904D01*
X99190476Y-81077380D01*
X98190476Y-82077380D02*
X98761904Y-82077380D01*
X98476190Y-82077380D02*
X98476190Y-81077380D01*
X98571428Y-81220238D01*
X98666666Y-81315476D01*
X98761904Y-81363095D01*
G04 #@! TD*
M02*
