G04 #@! TF.GenerationSoftware,KiCad,Pcbnew,(5.0.1)-3*
G04 #@! TF.CreationDate,2018-11-09T14:35:38+01:00*
G04 #@! TF.ProjectId,power_stalker_esp,706F7765725F7374616C6B65725F6573,rev?*
G04 #@! TF.SameCoordinates,Original*
G04 #@! TF.FileFunction,Soldermask,Top*
G04 #@! TF.FilePolarity,Negative*
%FSLAX46Y46*%
G04 Gerber Fmt 4.6, Leading zero omitted, Abs format (unit mm)*
G04 Created by KiCad (PCBNEW (5.0.1)-3) date 09-Nov-18 14:35:38*
%MOMM*%
%LPD*%
G01*
G04 APERTURE LIST*
%ADD10C,0.100000*%
G04 APERTURE END LIST*
D10*
G36*
X106110442Y-114885518D02*
X106176627Y-114892037D01*
X106289853Y-114926384D01*
X106346467Y-114943557D01*
X106485087Y-115017652D01*
X106502991Y-115027222D01*
X106538729Y-115056552D01*
X106640186Y-115139814D01*
X106723448Y-115241271D01*
X106752778Y-115277009D01*
X106752779Y-115277011D01*
X106836443Y-115433533D01*
X106836443Y-115433534D01*
X106887963Y-115603373D01*
X106905359Y-115780000D01*
X106887963Y-115956627D01*
X106853616Y-116069853D01*
X106836443Y-116126467D01*
X106762348Y-116265087D01*
X106752778Y-116282991D01*
X106723448Y-116318729D01*
X106640186Y-116420186D01*
X106538729Y-116503448D01*
X106502991Y-116532778D01*
X106502989Y-116532779D01*
X106346467Y-116616443D01*
X106289853Y-116633616D01*
X106176627Y-116667963D01*
X106110443Y-116674481D01*
X106044260Y-116681000D01*
X105955740Y-116681000D01*
X105889557Y-116674481D01*
X105823373Y-116667963D01*
X105710147Y-116633616D01*
X105653533Y-116616443D01*
X105497011Y-116532779D01*
X105497009Y-116532778D01*
X105461271Y-116503448D01*
X105359814Y-116420186D01*
X105276552Y-116318729D01*
X105247222Y-116282991D01*
X105237652Y-116265087D01*
X105163557Y-116126467D01*
X105146384Y-116069853D01*
X105112037Y-115956627D01*
X105094641Y-115780000D01*
X105112037Y-115603373D01*
X105163557Y-115433534D01*
X105163557Y-115433533D01*
X105247221Y-115277011D01*
X105247222Y-115277009D01*
X105276552Y-115241271D01*
X105359814Y-115139814D01*
X105461271Y-115056552D01*
X105497009Y-115027222D01*
X105514913Y-115017652D01*
X105653533Y-114943557D01*
X105710147Y-114926384D01*
X105823373Y-114892037D01*
X105889558Y-114885518D01*
X105955740Y-114879000D01*
X106044260Y-114879000D01*
X106110442Y-114885518D01*
X106110442Y-114885518D01*
G37*
G36*
X78110442Y-114885518D02*
X78176627Y-114892037D01*
X78289853Y-114926384D01*
X78346467Y-114943557D01*
X78485087Y-115017652D01*
X78502991Y-115027222D01*
X78538729Y-115056552D01*
X78640186Y-115139814D01*
X78723448Y-115241271D01*
X78752778Y-115277009D01*
X78752779Y-115277011D01*
X78836443Y-115433533D01*
X78836443Y-115433534D01*
X78887963Y-115603373D01*
X78905359Y-115780000D01*
X78887963Y-115956627D01*
X78853616Y-116069853D01*
X78836443Y-116126467D01*
X78762348Y-116265087D01*
X78752778Y-116282991D01*
X78723448Y-116318729D01*
X78640186Y-116420186D01*
X78538729Y-116503448D01*
X78502991Y-116532778D01*
X78502989Y-116532779D01*
X78346467Y-116616443D01*
X78289853Y-116633616D01*
X78176627Y-116667963D01*
X78110443Y-116674481D01*
X78044260Y-116681000D01*
X77955740Y-116681000D01*
X77889557Y-116674481D01*
X77823373Y-116667963D01*
X77710147Y-116633616D01*
X77653533Y-116616443D01*
X77497011Y-116532779D01*
X77497009Y-116532778D01*
X77461271Y-116503448D01*
X77359814Y-116420186D01*
X77276552Y-116318729D01*
X77247222Y-116282991D01*
X77237652Y-116265087D01*
X77163557Y-116126467D01*
X77146384Y-116069853D01*
X77112037Y-115956627D01*
X77094641Y-115780000D01*
X77112037Y-115603373D01*
X77163557Y-115433534D01*
X77163557Y-115433533D01*
X77247221Y-115277011D01*
X77247222Y-115277009D01*
X77276552Y-115241271D01*
X77359814Y-115139814D01*
X77461271Y-115056552D01*
X77497009Y-115027222D01*
X77514913Y-115017652D01*
X77653533Y-114943557D01*
X77710147Y-114926384D01*
X77823373Y-114892037D01*
X77889558Y-114885518D01*
X77955740Y-114879000D01*
X78044260Y-114879000D01*
X78110442Y-114885518D01*
X78110442Y-114885518D01*
G37*
G36*
X106110442Y-112345518D02*
X106176627Y-112352037D01*
X106289853Y-112386384D01*
X106346467Y-112403557D01*
X106485087Y-112477652D01*
X106502991Y-112487222D01*
X106538729Y-112516552D01*
X106640186Y-112599814D01*
X106723448Y-112701271D01*
X106752778Y-112737009D01*
X106752779Y-112737011D01*
X106836443Y-112893533D01*
X106836443Y-112893534D01*
X106887963Y-113063373D01*
X106905359Y-113240000D01*
X106887963Y-113416627D01*
X106853616Y-113529853D01*
X106836443Y-113586467D01*
X106762348Y-113725087D01*
X106752778Y-113742991D01*
X106723448Y-113778729D01*
X106640186Y-113880186D01*
X106538729Y-113963448D01*
X106502991Y-113992778D01*
X106502989Y-113992779D01*
X106346467Y-114076443D01*
X106289853Y-114093616D01*
X106176627Y-114127963D01*
X106110443Y-114134481D01*
X106044260Y-114141000D01*
X105955740Y-114141000D01*
X105889557Y-114134481D01*
X105823373Y-114127963D01*
X105710147Y-114093616D01*
X105653533Y-114076443D01*
X105497011Y-113992779D01*
X105497009Y-113992778D01*
X105461271Y-113963448D01*
X105359814Y-113880186D01*
X105276552Y-113778729D01*
X105247222Y-113742991D01*
X105237652Y-113725087D01*
X105163557Y-113586467D01*
X105146384Y-113529853D01*
X105112037Y-113416627D01*
X105094641Y-113240000D01*
X105112037Y-113063373D01*
X105163557Y-112893534D01*
X105163557Y-112893533D01*
X105247221Y-112737011D01*
X105247222Y-112737009D01*
X105276552Y-112701271D01*
X105359814Y-112599814D01*
X105461271Y-112516552D01*
X105497009Y-112487222D01*
X105514913Y-112477652D01*
X105653533Y-112403557D01*
X105710147Y-112386384D01*
X105823373Y-112352037D01*
X105889558Y-112345518D01*
X105955740Y-112339000D01*
X106044260Y-112339000D01*
X106110442Y-112345518D01*
X106110442Y-112345518D01*
G37*
G36*
X78110442Y-112345518D02*
X78176627Y-112352037D01*
X78289853Y-112386384D01*
X78346467Y-112403557D01*
X78485087Y-112477652D01*
X78502991Y-112487222D01*
X78538729Y-112516552D01*
X78640186Y-112599814D01*
X78723448Y-112701271D01*
X78752778Y-112737009D01*
X78752779Y-112737011D01*
X78836443Y-112893533D01*
X78836443Y-112893534D01*
X78887963Y-113063373D01*
X78905359Y-113240000D01*
X78887963Y-113416627D01*
X78853616Y-113529853D01*
X78836443Y-113586467D01*
X78762348Y-113725087D01*
X78752778Y-113742991D01*
X78723448Y-113778729D01*
X78640186Y-113880186D01*
X78538729Y-113963448D01*
X78502991Y-113992778D01*
X78502989Y-113992779D01*
X78346467Y-114076443D01*
X78289853Y-114093616D01*
X78176627Y-114127963D01*
X78110443Y-114134481D01*
X78044260Y-114141000D01*
X77955740Y-114141000D01*
X77889557Y-114134481D01*
X77823373Y-114127963D01*
X77710147Y-114093616D01*
X77653533Y-114076443D01*
X77497011Y-113992779D01*
X77497009Y-113992778D01*
X77461271Y-113963448D01*
X77359814Y-113880186D01*
X77276552Y-113778729D01*
X77247222Y-113742991D01*
X77237652Y-113725087D01*
X77163557Y-113586467D01*
X77146384Y-113529853D01*
X77112037Y-113416627D01*
X77094641Y-113240000D01*
X77112037Y-113063373D01*
X77163557Y-112893534D01*
X77163557Y-112893533D01*
X77247221Y-112737011D01*
X77247222Y-112737009D01*
X77276552Y-112701271D01*
X77359814Y-112599814D01*
X77461271Y-112516552D01*
X77497009Y-112487222D01*
X77514913Y-112477652D01*
X77653533Y-112403557D01*
X77710147Y-112386384D01*
X77823373Y-112352037D01*
X77889558Y-112345518D01*
X77955740Y-112339000D01*
X78044260Y-112339000D01*
X78110442Y-112345518D01*
X78110442Y-112345518D01*
G37*
G36*
X78110442Y-109805518D02*
X78176627Y-109812037D01*
X78289853Y-109846384D01*
X78346467Y-109863557D01*
X78485087Y-109937652D01*
X78502991Y-109947222D01*
X78521115Y-109962096D01*
X78640186Y-110059814D01*
X78719846Y-110156882D01*
X78752778Y-110197009D01*
X78752779Y-110197011D01*
X78836443Y-110353533D01*
X78836443Y-110353534D01*
X78887963Y-110523373D01*
X78905359Y-110700000D01*
X78887963Y-110876627D01*
X78873861Y-110923115D01*
X78836443Y-111046467D01*
X78785913Y-111141000D01*
X78752778Y-111202991D01*
X78723448Y-111238729D01*
X78640186Y-111340186D01*
X78538729Y-111423448D01*
X78502991Y-111452778D01*
X78502989Y-111452779D01*
X78346467Y-111536443D01*
X78289853Y-111553616D01*
X78176627Y-111587963D01*
X78110442Y-111594482D01*
X78044260Y-111601000D01*
X77955740Y-111601000D01*
X77889558Y-111594482D01*
X77823373Y-111587963D01*
X77710147Y-111553616D01*
X77653533Y-111536443D01*
X77497011Y-111452779D01*
X77497009Y-111452778D01*
X77461271Y-111423448D01*
X77359814Y-111340186D01*
X77276552Y-111238729D01*
X77247222Y-111202991D01*
X77214087Y-111141000D01*
X77163557Y-111046467D01*
X77126139Y-110923115D01*
X77112037Y-110876627D01*
X77094641Y-110700000D01*
X77112037Y-110523373D01*
X77163557Y-110353534D01*
X77163557Y-110353533D01*
X77247221Y-110197011D01*
X77247222Y-110197009D01*
X77280154Y-110156882D01*
X77359814Y-110059814D01*
X77478885Y-109962096D01*
X77497009Y-109947222D01*
X77514913Y-109937652D01*
X77653533Y-109863557D01*
X77710147Y-109846384D01*
X77823373Y-109812037D01*
X77889558Y-109805518D01*
X77955740Y-109799000D01*
X78044260Y-109799000D01*
X78110442Y-109805518D01*
X78110442Y-109805518D01*
G37*
G36*
X106110442Y-109805518D02*
X106176627Y-109812037D01*
X106289853Y-109846384D01*
X106346467Y-109863557D01*
X106485087Y-109937652D01*
X106502991Y-109947222D01*
X106521115Y-109962096D01*
X106640186Y-110059814D01*
X106719846Y-110156882D01*
X106752778Y-110197009D01*
X106752779Y-110197011D01*
X106836443Y-110353533D01*
X106836443Y-110353534D01*
X106887963Y-110523373D01*
X106905359Y-110700000D01*
X106887963Y-110876627D01*
X106873861Y-110923115D01*
X106836443Y-111046467D01*
X106785913Y-111141000D01*
X106752778Y-111202991D01*
X106723448Y-111238729D01*
X106640186Y-111340186D01*
X106538729Y-111423448D01*
X106502991Y-111452778D01*
X106502989Y-111452779D01*
X106346467Y-111536443D01*
X106289853Y-111553616D01*
X106176627Y-111587963D01*
X106110442Y-111594482D01*
X106044260Y-111601000D01*
X105955740Y-111601000D01*
X105889558Y-111594482D01*
X105823373Y-111587963D01*
X105710147Y-111553616D01*
X105653533Y-111536443D01*
X105497011Y-111452779D01*
X105497009Y-111452778D01*
X105461271Y-111423448D01*
X105359814Y-111340186D01*
X105276552Y-111238729D01*
X105247222Y-111202991D01*
X105214087Y-111141000D01*
X105163557Y-111046467D01*
X105126139Y-110923115D01*
X105112037Y-110876627D01*
X105094641Y-110700000D01*
X105112037Y-110523373D01*
X105163557Y-110353534D01*
X105163557Y-110353533D01*
X105247221Y-110197011D01*
X105247222Y-110197009D01*
X105280154Y-110156882D01*
X105359814Y-110059814D01*
X105478885Y-109962096D01*
X105497009Y-109947222D01*
X105514913Y-109937652D01*
X105653533Y-109863557D01*
X105710147Y-109846384D01*
X105823373Y-109812037D01*
X105889558Y-109805518D01*
X105955740Y-109799000D01*
X106044260Y-109799000D01*
X106110442Y-109805518D01*
X106110442Y-109805518D01*
G37*
G36*
X101445305Y-109962096D02*
X101554680Y-110007400D01*
X101653118Y-110073175D01*
X101736825Y-110156882D01*
X101802600Y-110255320D01*
X101847904Y-110364695D01*
X101871000Y-110480806D01*
X101871000Y-110599194D01*
X101847904Y-110715305D01*
X101802600Y-110824680D01*
X101736825Y-110923118D01*
X101653118Y-111006825D01*
X101554680Y-111072600D01*
X101445305Y-111117904D01*
X101329194Y-111141000D01*
X101210806Y-111141000D01*
X101094695Y-111117904D01*
X100985320Y-111072600D01*
X100886882Y-111006825D01*
X100803175Y-110923118D01*
X100737400Y-110824680D01*
X100692096Y-110715305D01*
X100669000Y-110599194D01*
X100669000Y-110480806D01*
X100692096Y-110364695D01*
X100737400Y-110255320D01*
X100803175Y-110156882D01*
X100886882Y-110073175D01*
X100985320Y-110007400D01*
X101094695Y-109962096D01*
X101210806Y-109939000D01*
X101329194Y-109939000D01*
X101445305Y-109962096D01*
X101445305Y-109962096D01*
G37*
G36*
X98905305Y-109962096D02*
X99014680Y-110007400D01*
X99113118Y-110073175D01*
X99196825Y-110156882D01*
X99262600Y-110255320D01*
X99307904Y-110364695D01*
X99331000Y-110480806D01*
X99331000Y-110599194D01*
X99307904Y-110715305D01*
X99262600Y-110824680D01*
X99196825Y-110923118D01*
X99113118Y-111006825D01*
X99014680Y-111072600D01*
X98905305Y-111117904D01*
X98789194Y-111141000D01*
X98670806Y-111141000D01*
X98554695Y-111117904D01*
X98445320Y-111072600D01*
X98346882Y-111006825D01*
X98263175Y-110923118D01*
X98197400Y-110824680D01*
X98152096Y-110715305D01*
X98129000Y-110599194D01*
X98129000Y-110480806D01*
X98152096Y-110364695D01*
X98197400Y-110255320D01*
X98263175Y-110156882D01*
X98346882Y-110073175D01*
X98445320Y-110007400D01*
X98554695Y-109962096D01*
X98670806Y-109939000D01*
X98789194Y-109939000D01*
X98905305Y-109962096D01*
X98905305Y-109962096D01*
G37*
G36*
X78110443Y-107265519D02*
X78176627Y-107272037D01*
X78289853Y-107306384D01*
X78346467Y-107323557D01*
X78485087Y-107397652D01*
X78502991Y-107407222D01*
X78538729Y-107436552D01*
X78640186Y-107519814D01*
X78723448Y-107621271D01*
X78752778Y-107657009D01*
X78752779Y-107657011D01*
X78836443Y-107813533D01*
X78836443Y-107813534D01*
X78887963Y-107983373D01*
X78905359Y-108160000D01*
X78887963Y-108336627D01*
X78853616Y-108449853D01*
X78836443Y-108506467D01*
X78762348Y-108645087D01*
X78752778Y-108662991D01*
X78723448Y-108698729D01*
X78640186Y-108800186D01*
X78538729Y-108883448D01*
X78502991Y-108912778D01*
X78502989Y-108912779D01*
X78346467Y-108996443D01*
X78299764Y-109010610D01*
X78176627Y-109047963D01*
X78110442Y-109054482D01*
X78044260Y-109061000D01*
X77955740Y-109061000D01*
X77889558Y-109054482D01*
X77823373Y-109047963D01*
X77700236Y-109010610D01*
X77653533Y-108996443D01*
X77497011Y-108912779D01*
X77497009Y-108912778D01*
X77461271Y-108883448D01*
X77359814Y-108800186D01*
X77276552Y-108698729D01*
X77247222Y-108662991D01*
X77237652Y-108645087D01*
X77163557Y-108506467D01*
X77146384Y-108449853D01*
X77112037Y-108336627D01*
X77094641Y-108160000D01*
X77112037Y-107983373D01*
X77163557Y-107813534D01*
X77163557Y-107813533D01*
X77247221Y-107657011D01*
X77247222Y-107657009D01*
X77276552Y-107621271D01*
X77359814Y-107519814D01*
X77461271Y-107436552D01*
X77497009Y-107407222D01*
X77514913Y-107397652D01*
X77653533Y-107323557D01*
X77710147Y-107306384D01*
X77823373Y-107272037D01*
X77889557Y-107265519D01*
X77955740Y-107259000D01*
X78044260Y-107259000D01*
X78110443Y-107265519D01*
X78110443Y-107265519D01*
G37*
G36*
X106110443Y-107265519D02*
X106176627Y-107272037D01*
X106289853Y-107306384D01*
X106346467Y-107323557D01*
X106485087Y-107397652D01*
X106502991Y-107407222D01*
X106538729Y-107436552D01*
X106640186Y-107519814D01*
X106723448Y-107621271D01*
X106752778Y-107657009D01*
X106752779Y-107657011D01*
X106836443Y-107813533D01*
X106836443Y-107813534D01*
X106887963Y-107983373D01*
X106905359Y-108160000D01*
X106887963Y-108336627D01*
X106853616Y-108449853D01*
X106836443Y-108506467D01*
X106762348Y-108645087D01*
X106752778Y-108662991D01*
X106723448Y-108698729D01*
X106640186Y-108800186D01*
X106538729Y-108883448D01*
X106502991Y-108912778D01*
X106502989Y-108912779D01*
X106346467Y-108996443D01*
X106299764Y-109010610D01*
X106176627Y-109047963D01*
X106110442Y-109054482D01*
X106044260Y-109061000D01*
X105955740Y-109061000D01*
X105889558Y-109054482D01*
X105823373Y-109047963D01*
X105700236Y-109010610D01*
X105653533Y-108996443D01*
X105497011Y-108912779D01*
X105497009Y-108912778D01*
X105461271Y-108883448D01*
X105359814Y-108800186D01*
X105276552Y-108698729D01*
X105247222Y-108662991D01*
X105237652Y-108645087D01*
X105163557Y-108506467D01*
X105146384Y-108449853D01*
X105112037Y-108336627D01*
X105094641Y-108160000D01*
X105112037Y-107983373D01*
X105163557Y-107813534D01*
X105163557Y-107813533D01*
X105247221Y-107657011D01*
X105247222Y-107657009D01*
X105276552Y-107621271D01*
X105359814Y-107519814D01*
X105461271Y-107436552D01*
X105497009Y-107407222D01*
X105514913Y-107397652D01*
X105653533Y-107323557D01*
X105710147Y-107306384D01*
X105823373Y-107272037D01*
X105889557Y-107265519D01*
X105955740Y-107259000D01*
X106044260Y-107259000D01*
X106110443Y-107265519D01*
X106110443Y-107265519D01*
G37*
G36*
X102321000Y-109051000D02*
X100219000Y-109051000D01*
X100219000Y-106949000D01*
X102321000Y-106949000D01*
X102321000Y-109051000D01*
X102321000Y-109051000D01*
G37*
G36*
X99036565Y-106989389D02*
X99227834Y-107068615D01*
X99399976Y-107183637D01*
X99546363Y-107330024D01*
X99661385Y-107502166D01*
X99740611Y-107693435D01*
X99781000Y-107896484D01*
X99781000Y-108103516D01*
X99740611Y-108306565D01*
X99661385Y-108497834D01*
X99546363Y-108669976D01*
X99399976Y-108816363D01*
X99227834Y-108931385D01*
X99036565Y-109010611D01*
X98833516Y-109051000D01*
X98626484Y-109051000D01*
X98423435Y-109010611D01*
X98232166Y-108931385D01*
X98060024Y-108816363D01*
X97913637Y-108669976D01*
X97798615Y-108497834D01*
X97719389Y-108306565D01*
X97679000Y-108103516D01*
X97679000Y-107896484D01*
X97719389Y-107693435D01*
X97798615Y-107502166D01*
X97913637Y-107330024D01*
X98060024Y-107183637D01*
X98232166Y-107068615D01*
X98423435Y-106989389D01*
X98626484Y-106949000D01*
X98833516Y-106949000D01*
X99036565Y-106989389D01*
X99036565Y-106989389D01*
G37*
G36*
X78110443Y-104725519D02*
X78176627Y-104732037D01*
X78289853Y-104766384D01*
X78346467Y-104783557D01*
X78485087Y-104857652D01*
X78502991Y-104867222D01*
X78538729Y-104896552D01*
X78640186Y-104979814D01*
X78723448Y-105081271D01*
X78752778Y-105117009D01*
X78752779Y-105117011D01*
X78836443Y-105273533D01*
X78836443Y-105273534D01*
X78887963Y-105443373D01*
X78905359Y-105620000D01*
X78887963Y-105796627D01*
X78853616Y-105909853D01*
X78836443Y-105966467D01*
X78762348Y-106105087D01*
X78752778Y-106122991D01*
X78723448Y-106158729D01*
X78640186Y-106260186D01*
X78538729Y-106343448D01*
X78502991Y-106372778D01*
X78502989Y-106372779D01*
X78346467Y-106456443D01*
X78289853Y-106473616D01*
X78176627Y-106507963D01*
X78110442Y-106514482D01*
X78044260Y-106521000D01*
X77955740Y-106521000D01*
X77889558Y-106514482D01*
X77823373Y-106507963D01*
X77710147Y-106473616D01*
X77653533Y-106456443D01*
X77497011Y-106372779D01*
X77497009Y-106372778D01*
X77461271Y-106343448D01*
X77359814Y-106260186D01*
X77276552Y-106158729D01*
X77247222Y-106122991D01*
X77237652Y-106105087D01*
X77163557Y-105966467D01*
X77146384Y-105909853D01*
X77112037Y-105796627D01*
X77094641Y-105620000D01*
X77112037Y-105443373D01*
X77163557Y-105273534D01*
X77163557Y-105273533D01*
X77247221Y-105117011D01*
X77247222Y-105117009D01*
X77276552Y-105081271D01*
X77359814Y-104979814D01*
X77461271Y-104896552D01*
X77497009Y-104867222D01*
X77514913Y-104857652D01*
X77653533Y-104783557D01*
X77710147Y-104766384D01*
X77823373Y-104732037D01*
X77889558Y-104725518D01*
X77955740Y-104719000D01*
X78044260Y-104719000D01*
X78110443Y-104725519D01*
X78110443Y-104725519D01*
G37*
G36*
X106110443Y-104725519D02*
X106176627Y-104732037D01*
X106289853Y-104766384D01*
X106346467Y-104783557D01*
X106485087Y-104857652D01*
X106502991Y-104867222D01*
X106538729Y-104896552D01*
X106640186Y-104979814D01*
X106723448Y-105081271D01*
X106752778Y-105117009D01*
X106752779Y-105117011D01*
X106836443Y-105273533D01*
X106836443Y-105273534D01*
X106887963Y-105443373D01*
X106905359Y-105620000D01*
X106887963Y-105796627D01*
X106853616Y-105909853D01*
X106836443Y-105966467D01*
X106762348Y-106105087D01*
X106752778Y-106122991D01*
X106723448Y-106158729D01*
X106640186Y-106260186D01*
X106538729Y-106343448D01*
X106502991Y-106372778D01*
X106502989Y-106372779D01*
X106346467Y-106456443D01*
X106289853Y-106473616D01*
X106176627Y-106507963D01*
X106110442Y-106514482D01*
X106044260Y-106521000D01*
X105955740Y-106521000D01*
X105889558Y-106514482D01*
X105823373Y-106507963D01*
X105710147Y-106473616D01*
X105653533Y-106456443D01*
X105497011Y-106372779D01*
X105497009Y-106372778D01*
X105461271Y-106343448D01*
X105359814Y-106260186D01*
X105276552Y-106158729D01*
X105247222Y-106122991D01*
X105237652Y-106105087D01*
X105163557Y-105966467D01*
X105146384Y-105909853D01*
X105112037Y-105796627D01*
X105094641Y-105620000D01*
X105112037Y-105443373D01*
X105163557Y-105273534D01*
X105163557Y-105273533D01*
X105247221Y-105117011D01*
X105247222Y-105117009D01*
X105276552Y-105081271D01*
X105359814Y-104979814D01*
X105461271Y-104896552D01*
X105497009Y-104867222D01*
X105514913Y-104857652D01*
X105653533Y-104783557D01*
X105710147Y-104766384D01*
X105823373Y-104732037D01*
X105889558Y-104725518D01*
X105955740Y-104719000D01*
X106044260Y-104719000D01*
X106110443Y-104725519D01*
X106110443Y-104725519D01*
G37*
G36*
X78110442Y-102185518D02*
X78176627Y-102192037D01*
X78289853Y-102226384D01*
X78346467Y-102243557D01*
X78485087Y-102317652D01*
X78502991Y-102327222D01*
X78538729Y-102356552D01*
X78640186Y-102439814D01*
X78723448Y-102541271D01*
X78752778Y-102577009D01*
X78752779Y-102577011D01*
X78836443Y-102733533D01*
X78836443Y-102733534D01*
X78887963Y-102903373D01*
X78905359Y-103080000D01*
X78887963Y-103256627D01*
X78853616Y-103369853D01*
X78836443Y-103426467D01*
X78762348Y-103565087D01*
X78752778Y-103582991D01*
X78723448Y-103618729D01*
X78640186Y-103720186D01*
X78538729Y-103803448D01*
X78502991Y-103832778D01*
X78502989Y-103832779D01*
X78346467Y-103916443D01*
X78289853Y-103933616D01*
X78176627Y-103967963D01*
X78110443Y-103974481D01*
X78044260Y-103981000D01*
X77955740Y-103981000D01*
X77889557Y-103974481D01*
X77823373Y-103967963D01*
X77710147Y-103933616D01*
X77653533Y-103916443D01*
X77497011Y-103832779D01*
X77497009Y-103832778D01*
X77461271Y-103803448D01*
X77359814Y-103720186D01*
X77276552Y-103618729D01*
X77247222Y-103582991D01*
X77237652Y-103565087D01*
X77163557Y-103426467D01*
X77146384Y-103369853D01*
X77112037Y-103256627D01*
X77094641Y-103080000D01*
X77112037Y-102903373D01*
X77163557Y-102733534D01*
X77163557Y-102733533D01*
X77247221Y-102577011D01*
X77247222Y-102577009D01*
X77276552Y-102541271D01*
X77359814Y-102439814D01*
X77461271Y-102356552D01*
X77497009Y-102327222D01*
X77514913Y-102317652D01*
X77653533Y-102243557D01*
X77710147Y-102226384D01*
X77823373Y-102192037D01*
X77889558Y-102185518D01*
X77955740Y-102179000D01*
X78044260Y-102179000D01*
X78110442Y-102185518D01*
X78110442Y-102185518D01*
G37*
G36*
X106110442Y-102185518D02*
X106176627Y-102192037D01*
X106289853Y-102226384D01*
X106346467Y-102243557D01*
X106485087Y-102317652D01*
X106502991Y-102327222D01*
X106538729Y-102356552D01*
X106640186Y-102439814D01*
X106723448Y-102541271D01*
X106752778Y-102577009D01*
X106752779Y-102577011D01*
X106836443Y-102733533D01*
X106836443Y-102733534D01*
X106887963Y-102903373D01*
X106905359Y-103080000D01*
X106887963Y-103256627D01*
X106853616Y-103369853D01*
X106836443Y-103426467D01*
X106762348Y-103565087D01*
X106752778Y-103582991D01*
X106723448Y-103618729D01*
X106640186Y-103720186D01*
X106538729Y-103803448D01*
X106502991Y-103832778D01*
X106502989Y-103832779D01*
X106346467Y-103916443D01*
X106289853Y-103933616D01*
X106176627Y-103967963D01*
X106110443Y-103974481D01*
X106044260Y-103981000D01*
X105955740Y-103981000D01*
X105889557Y-103974481D01*
X105823373Y-103967963D01*
X105710147Y-103933616D01*
X105653533Y-103916443D01*
X105497011Y-103832779D01*
X105497009Y-103832778D01*
X105461271Y-103803448D01*
X105359814Y-103720186D01*
X105276552Y-103618729D01*
X105247222Y-103582991D01*
X105237652Y-103565087D01*
X105163557Y-103426467D01*
X105146384Y-103369853D01*
X105112037Y-103256627D01*
X105094641Y-103080000D01*
X105112037Y-102903373D01*
X105163557Y-102733534D01*
X105163557Y-102733533D01*
X105247221Y-102577011D01*
X105247222Y-102577009D01*
X105276552Y-102541271D01*
X105359814Y-102439814D01*
X105461271Y-102356552D01*
X105497009Y-102327222D01*
X105514913Y-102317652D01*
X105653533Y-102243557D01*
X105710147Y-102226384D01*
X105823373Y-102192037D01*
X105889558Y-102185518D01*
X105955740Y-102179000D01*
X106044260Y-102179000D01*
X106110442Y-102185518D01*
X106110442Y-102185518D01*
G37*
G36*
X106110442Y-99645518D02*
X106176627Y-99652037D01*
X106289853Y-99686384D01*
X106346467Y-99703557D01*
X106485087Y-99777652D01*
X106502991Y-99787222D01*
X106538729Y-99816552D01*
X106640186Y-99899814D01*
X106723448Y-100001271D01*
X106752778Y-100037009D01*
X106752779Y-100037011D01*
X106836443Y-100193533D01*
X106836443Y-100193534D01*
X106887963Y-100363373D01*
X106905359Y-100540000D01*
X106887963Y-100716627D01*
X106853616Y-100829853D01*
X106836443Y-100886467D01*
X106762348Y-101025087D01*
X106752778Y-101042991D01*
X106723448Y-101078729D01*
X106640186Y-101180186D01*
X106538729Y-101263448D01*
X106502991Y-101292778D01*
X106502989Y-101292779D01*
X106346467Y-101376443D01*
X106289853Y-101393616D01*
X106176627Y-101427963D01*
X106110442Y-101434482D01*
X106044260Y-101441000D01*
X105955740Y-101441000D01*
X105889558Y-101434482D01*
X105823373Y-101427963D01*
X105710147Y-101393616D01*
X105653533Y-101376443D01*
X105497011Y-101292779D01*
X105497009Y-101292778D01*
X105461271Y-101263448D01*
X105359814Y-101180186D01*
X105276552Y-101078729D01*
X105247222Y-101042991D01*
X105237652Y-101025087D01*
X105163557Y-100886467D01*
X105146384Y-100829853D01*
X105112037Y-100716627D01*
X105094641Y-100540000D01*
X105112037Y-100363373D01*
X105163557Y-100193534D01*
X105163557Y-100193533D01*
X105247221Y-100037011D01*
X105247222Y-100037009D01*
X105276552Y-100001271D01*
X105359814Y-99899814D01*
X105461271Y-99816552D01*
X105497009Y-99787222D01*
X105514913Y-99777652D01*
X105653533Y-99703557D01*
X105710147Y-99686384D01*
X105823373Y-99652037D01*
X105889558Y-99645518D01*
X105955740Y-99639000D01*
X106044260Y-99639000D01*
X106110442Y-99645518D01*
X106110442Y-99645518D01*
G37*
G36*
X78110442Y-99645518D02*
X78176627Y-99652037D01*
X78289853Y-99686384D01*
X78346467Y-99703557D01*
X78485087Y-99777652D01*
X78502991Y-99787222D01*
X78538729Y-99816552D01*
X78640186Y-99899814D01*
X78723448Y-100001271D01*
X78752778Y-100037009D01*
X78752779Y-100037011D01*
X78836443Y-100193533D01*
X78836443Y-100193534D01*
X78887963Y-100363373D01*
X78905359Y-100540000D01*
X78887963Y-100716627D01*
X78853616Y-100829853D01*
X78836443Y-100886467D01*
X78762348Y-101025087D01*
X78752778Y-101042991D01*
X78723448Y-101078729D01*
X78640186Y-101180186D01*
X78538729Y-101263448D01*
X78502991Y-101292778D01*
X78502989Y-101292779D01*
X78346467Y-101376443D01*
X78289853Y-101393616D01*
X78176627Y-101427963D01*
X78110442Y-101434482D01*
X78044260Y-101441000D01*
X77955740Y-101441000D01*
X77889558Y-101434482D01*
X77823373Y-101427963D01*
X77710147Y-101393616D01*
X77653533Y-101376443D01*
X77497011Y-101292779D01*
X77497009Y-101292778D01*
X77461271Y-101263448D01*
X77359814Y-101180186D01*
X77276552Y-101078729D01*
X77247222Y-101042991D01*
X77237652Y-101025087D01*
X77163557Y-100886467D01*
X77146384Y-100829853D01*
X77112037Y-100716627D01*
X77094641Y-100540000D01*
X77112037Y-100363373D01*
X77163557Y-100193534D01*
X77163557Y-100193533D01*
X77247221Y-100037011D01*
X77247222Y-100037009D01*
X77276552Y-100001271D01*
X77359814Y-99899814D01*
X77461271Y-99816552D01*
X77497009Y-99787222D01*
X77514913Y-99777652D01*
X77653533Y-99703557D01*
X77710147Y-99686384D01*
X77823373Y-99652037D01*
X77889558Y-99645518D01*
X77955740Y-99639000D01*
X78044260Y-99639000D01*
X78110442Y-99645518D01*
X78110442Y-99645518D01*
G37*
G36*
X78110443Y-97105519D02*
X78176627Y-97112037D01*
X78289853Y-97146384D01*
X78346467Y-97163557D01*
X78485087Y-97237652D01*
X78502991Y-97247222D01*
X78538729Y-97276552D01*
X78640186Y-97359814D01*
X78723448Y-97461271D01*
X78752778Y-97497009D01*
X78752779Y-97497011D01*
X78836443Y-97653533D01*
X78836443Y-97653534D01*
X78887963Y-97823373D01*
X78905359Y-98000000D01*
X78887963Y-98176627D01*
X78853616Y-98289853D01*
X78836443Y-98346467D01*
X78762348Y-98485087D01*
X78752778Y-98502991D01*
X78723448Y-98538729D01*
X78640186Y-98640186D01*
X78538729Y-98723448D01*
X78502991Y-98752778D01*
X78502989Y-98752779D01*
X78346467Y-98836443D01*
X78289853Y-98853616D01*
X78176627Y-98887963D01*
X78110442Y-98894482D01*
X78044260Y-98901000D01*
X77955740Y-98901000D01*
X77889557Y-98894481D01*
X77823373Y-98887963D01*
X77710147Y-98853616D01*
X77653533Y-98836443D01*
X77497011Y-98752779D01*
X77497009Y-98752778D01*
X77461271Y-98723448D01*
X77359814Y-98640186D01*
X77276552Y-98538729D01*
X77247222Y-98502991D01*
X77237652Y-98485087D01*
X77163557Y-98346467D01*
X77146384Y-98289853D01*
X77112037Y-98176627D01*
X77094641Y-98000000D01*
X77112037Y-97823373D01*
X77163557Y-97653534D01*
X77163557Y-97653533D01*
X77247221Y-97497011D01*
X77247222Y-97497009D01*
X77276552Y-97461271D01*
X77359814Y-97359814D01*
X77461271Y-97276552D01*
X77497009Y-97247222D01*
X77514913Y-97237652D01*
X77653533Y-97163557D01*
X77710147Y-97146384D01*
X77823373Y-97112037D01*
X77889557Y-97105519D01*
X77955740Y-97099000D01*
X78044260Y-97099000D01*
X78110443Y-97105519D01*
X78110443Y-97105519D01*
G37*
G36*
X106110443Y-97105519D02*
X106176627Y-97112037D01*
X106289853Y-97146384D01*
X106346467Y-97163557D01*
X106485087Y-97237652D01*
X106502991Y-97247222D01*
X106538729Y-97276552D01*
X106640186Y-97359814D01*
X106723448Y-97461271D01*
X106752778Y-97497009D01*
X106752779Y-97497011D01*
X106836443Y-97653533D01*
X106836443Y-97653534D01*
X106887963Y-97823373D01*
X106905359Y-98000000D01*
X106887963Y-98176627D01*
X106853616Y-98289853D01*
X106836443Y-98346467D01*
X106762348Y-98485087D01*
X106752778Y-98502991D01*
X106723448Y-98538729D01*
X106640186Y-98640186D01*
X106538729Y-98723448D01*
X106502991Y-98752778D01*
X106502989Y-98752779D01*
X106346467Y-98836443D01*
X106289853Y-98853616D01*
X106176627Y-98887963D01*
X106110442Y-98894482D01*
X106044260Y-98901000D01*
X105955740Y-98901000D01*
X105889557Y-98894481D01*
X105823373Y-98887963D01*
X105710147Y-98853616D01*
X105653533Y-98836443D01*
X105497011Y-98752779D01*
X105497009Y-98752778D01*
X105461271Y-98723448D01*
X105359814Y-98640186D01*
X105276552Y-98538729D01*
X105247222Y-98502991D01*
X105237652Y-98485087D01*
X105163557Y-98346467D01*
X105146384Y-98289853D01*
X105112037Y-98176627D01*
X105094641Y-98000000D01*
X105112037Y-97823373D01*
X105163557Y-97653534D01*
X105163557Y-97653533D01*
X105247221Y-97497011D01*
X105247222Y-97497009D01*
X105276552Y-97461271D01*
X105359814Y-97359814D01*
X105461271Y-97276552D01*
X105497009Y-97247222D01*
X105514913Y-97237652D01*
X105653533Y-97163557D01*
X105710147Y-97146384D01*
X105823373Y-97112037D01*
X105889557Y-97105519D01*
X105955740Y-97099000D01*
X106044260Y-97099000D01*
X106110443Y-97105519D01*
X106110443Y-97105519D01*
G37*
G36*
X106110443Y-94565519D02*
X106176627Y-94572037D01*
X106289853Y-94606384D01*
X106346467Y-94623557D01*
X106485087Y-94697652D01*
X106502991Y-94707222D01*
X106538729Y-94736552D01*
X106640186Y-94819814D01*
X106723448Y-94921271D01*
X106752778Y-94957009D01*
X106752779Y-94957011D01*
X106836443Y-95113533D01*
X106836443Y-95113534D01*
X106887963Y-95283373D01*
X106905359Y-95460000D01*
X106887963Y-95636627D01*
X106853616Y-95749853D01*
X106836443Y-95806467D01*
X106762348Y-95945087D01*
X106752778Y-95962991D01*
X106723448Y-95998729D01*
X106640186Y-96100186D01*
X106538729Y-96183448D01*
X106502991Y-96212778D01*
X106502989Y-96212779D01*
X106346467Y-96296443D01*
X106289853Y-96313616D01*
X106176627Y-96347963D01*
X106110442Y-96354482D01*
X106044260Y-96361000D01*
X105955740Y-96361000D01*
X105889557Y-96354481D01*
X105823373Y-96347963D01*
X105710147Y-96313616D01*
X105653533Y-96296443D01*
X105497011Y-96212779D01*
X105497009Y-96212778D01*
X105461271Y-96183448D01*
X105359814Y-96100186D01*
X105276552Y-95998729D01*
X105247222Y-95962991D01*
X105237652Y-95945087D01*
X105163557Y-95806467D01*
X105146384Y-95749853D01*
X105112037Y-95636627D01*
X105094641Y-95460000D01*
X105112037Y-95283373D01*
X105163557Y-95113534D01*
X105163557Y-95113533D01*
X105247221Y-94957011D01*
X105247222Y-94957009D01*
X105276552Y-94921271D01*
X105359814Y-94819814D01*
X105461271Y-94736552D01*
X105497009Y-94707222D01*
X105514913Y-94697652D01*
X105653533Y-94623557D01*
X105710147Y-94606384D01*
X105823373Y-94572037D01*
X105889557Y-94565519D01*
X105955740Y-94559000D01*
X106044260Y-94559000D01*
X106110443Y-94565519D01*
X106110443Y-94565519D01*
G37*
G36*
X78110443Y-94565519D02*
X78176627Y-94572037D01*
X78289853Y-94606384D01*
X78346467Y-94623557D01*
X78485087Y-94697652D01*
X78502991Y-94707222D01*
X78538729Y-94736552D01*
X78640186Y-94819814D01*
X78723448Y-94921271D01*
X78752778Y-94957009D01*
X78752779Y-94957011D01*
X78836443Y-95113533D01*
X78836443Y-95113534D01*
X78887963Y-95283373D01*
X78905359Y-95460000D01*
X78887963Y-95636627D01*
X78853616Y-95749853D01*
X78836443Y-95806467D01*
X78762348Y-95945087D01*
X78752778Y-95962991D01*
X78723448Y-95998729D01*
X78640186Y-96100186D01*
X78538729Y-96183448D01*
X78502991Y-96212778D01*
X78502989Y-96212779D01*
X78346467Y-96296443D01*
X78289853Y-96313616D01*
X78176627Y-96347963D01*
X78110443Y-96354481D01*
X78044260Y-96361000D01*
X77955740Y-96361000D01*
X77889557Y-96354481D01*
X77823373Y-96347963D01*
X77710147Y-96313616D01*
X77653533Y-96296443D01*
X77497011Y-96212779D01*
X77497009Y-96212778D01*
X77461271Y-96183448D01*
X77359814Y-96100186D01*
X77276552Y-95998729D01*
X77247222Y-95962991D01*
X77237652Y-95945087D01*
X77163557Y-95806467D01*
X77146384Y-95749853D01*
X77112037Y-95636627D01*
X77094641Y-95460000D01*
X77112037Y-95283373D01*
X77163557Y-95113534D01*
X77163557Y-95113533D01*
X77247221Y-94957011D01*
X77247222Y-94957009D01*
X77276552Y-94921271D01*
X77359814Y-94819814D01*
X77461271Y-94736552D01*
X77497009Y-94707222D01*
X77514913Y-94697652D01*
X77653533Y-94623557D01*
X77710147Y-94606384D01*
X77823373Y-94572037D01*
X77889557Y-94565519D01*
X77955740Y-94559000D01*
X78044260Y-94559000D01*
X78110443Y-94565519D01*
X78110443Y-94565519D01*
G37*
G36*
X78110443Y-92025519D02*
X78176627Y-92032037D01*
X78289853Y-92066384D01*
X78346467Y-92083557D01*
X78485087Y-92157652D01*
X78502991Y-92167222D01*
X78538729Y-92196552D01*
X78640186Y-92279814D01*
X78723448Y-92381271D01*
X78752778Y-92417009D01*
X78752779Y-92417011D01*
X78836443Y-92573533D01*
X78836443Y-92573534D01*
X78887963Y-92743373D01*
X78905359Y-92920000D01*
X78887963Y-93096627D01*
X78853616Y-93209853D01*
X78836443Y-93266467D01*
X78762348Y-93405087D01*
X78752778Y-93422991D01*
X78723448Y-93458729D01*
X78640186Y-93560186D01*
X78538729Y-93643448D01*
X78502991Y-93672778D01*
X78502989Y-93672779D01*
X78346467Y-93756443D01*
X78289853Y-93773616D01*
X78176627Y-93807963D01*
X78110443Y-93814481D01*
X78044260Y-93821000D01*
X77955740Y-93821000D01*
X77889557Y-93814481D01*
X77823373Y-93807963D01*
X77710147Y-93773616D01*
X77653533Y-93756443D01*
X77497011Y-93672779D01*
X77497009Y-93672778D01*
X77461271Y-93643448D01*
X77359814Y-93560186D01*
X77276552Y-93458729D01*
X77247222Y-93422991D01*
X77237652Y-93405087D01*
X77163557Y-93266467D01*
X77146384Y-93209853D01*
X77112037Y-93096627D01*
X77094641Y-92920000D01*
X77112037Y-92743373D01*
X77163557Y-92573534D01*
X77163557Y-92573533D01*
X77247221Y-92417011D01*
X77247222Y-92417009D01*
X77276552Y-92381271D01*
X77359814Y-92279814D01*
X77461271Y-92196552D01*
X77497009Y-92167222D01*
X77514913Y-92157652D01*
X77653533Y-92083557D01*
X77710147Y-92066384D01*
X77823373Y-92032037D01*
X77889557Y-92025519D01*
X77955740Y-92019000D01*
X78044260Y-92019000D01*
X78110443Y-92025519D01*
X78110443Y-92025519D01*
G37*
G36*
X106110443Y-92025519D02*
X106176627Y-92032037D01*
X106289853Y-92066384D01*
X106346467Y-92083557D01*
X106485087Y-92157652D01*
X106502991Y-92167222D01*
X106538729Y-92196552D01*
X106640186Y-92279814D01*
X106723448Y-92381271D01*
X106752778Y-92417009D01*
X106752779Y-92417011D01*
X106836443Y-92573533D01*
X106836443Y-92573534D01*
X106887963Y-92743373D01*
X106905359Y-92920000D01*
X106887963Y-93096627D01*
X106853616Y-93209853D01*
X106836443Y-93266467D01*
X106762348Y-93405087D01*
X106752778Y-93422991D01*
X106723448Y-93458729D01*
X106640186Y-93560186D01*
X106538729Y-93643448D01*
X106502991Y-93672778D01*
X106502989Y-93672779D01*
X106346467Y-93756443D01*
X106289853Y-93773616D01*
X106176627Y-93807963D01*
X106110443Y-93814481D01*
X106044260Y-93821000D01*
X105955740Y-93821000D01*
X105889557Y-93814481D01*
X105823373Y-93807963D01*
X105710147Y-93773616D01*
X105653533Y-93756443D01*
X105497011Y-93672779D01*
X105497009Y-93672778D01*
X105461271Y-93643448D01*
X105359814Y-93560186D01*
X105276552Y-93458729D01*
X105247222Y-93422991D01*
X105237652Y-93405087D01*
X105163557Y-93266467D01*
X105146384Y-93209853D01*
X105112037Y-93096627D01*
X105094641Y-92920000D01*
X105112037Y-92743373D01*
X105163557Y-92573534D01*
X105163557Y-92573533D01*
X105247221Y-92417011D01*
X105247222Y-92417009D01*
X105276552Y-92381271D01*
X105359814Y-92279814D01*
X105461271Y-92196552D01*
X105497009Y-92167222D01*
X105514913Y-92157652D01*
X105653533Y-92083557D01*
X105710147Y-92066384D01*
X105823373Y-92032037D01*
X105889557Y-92025519D01*
X105955740Y-92019000D01*
X106044260Y-92019000D01*
X106110443Y-92025519D01*
X106110443Y-92025519D01*
G37*
G36*
X106110442Y-89485518D02*
X106176627Y-89492037D01*
X106289853Y-89526384D01*
X106346467Y-89543557D01*
X106485087Y-89617652D01*
X106502991Y-89627222D01*
X106538729Y-89656552D01*
X106640186Y-89739814D01*
X106723448Y-89841271D01*
X106752778Y-89877009D01*
X106752779Y-89877011D01*
X106836443Y-90033533D01*
X106836443Y-90033534D01*
X106887963Y-90203373D01*
X106905359Y-90380000D01*
X106887963Y-90556627D01*
X106853616Y-90669853D01*
X106836443Y-90726467D01*
X106762348Y-90865087D01*
X106752778Y-90882991D01*
X106723448Y-90918729D01*
X106640186Y-91020186D01*
X106538729Y-91103448D01*
X106502991Y-91132778D01*
X106502989Y-91132779D01*
X106346467Y-91216443D01*
X106289853Y-91233616D01*
X106176627Y-91267963D01*
X106110442Y-91274482D01*
X106044260Y-91281000D01*
X105955740Y-91281000D01*
X105889558Y-91274482D01*
X105823373Y-91267963D01*
X105710147Y-91233616D01*
X105653533Y-91216443D01*
X105497011Y-91132779D01*
X105497009Y-91132778D01*
X105461271Y-91103448D01*
X105359814Y-91020186D01*
X105276552Y-90918729D01*
X105247222Y-90882991D01*
X105237652Y-90865087D01*
X105163557Y-90726467D01*
X105146384Y-90669853D01*
X105112037Y-90556627D01*
X105094641Y-90380000D01*
X105112037Y-90203373D01*
X105163557Y-90033534D01*
X105163557Y-90033533D01*
X105247221Y-89877011D01*
X105247222Y-89877009D01*
X105276552Y-89841271D01*
X105359814Y-89739814D01*
X105461271Y-89656552D01*
X105497009Y-89627222D01*
X105514913Y-89617652D01*
X105653533Y-89543557D01*
X105710147Y-89526384D01*
X105823373Y-89492037D01*
X105889558Y-89485518D01*
X105955740Y-89479000D01*
X106044260Y-89479000D01*
X106110442Y-89485518D01*
X106110442Y-89485518D01*
G37*
G36*
X78110442Y-89485518D02*
X78176627Y-89492037D01*
X78289853Y-89526384D01*
X78346467Y-89543557D01*
X78485087Y-89617652D01*
X78502991Y-89627222D01*
X78538729Y-89656552D01*
X78640186Y-89739814D01*
X78723448Y-89841271D01*
X78752778Y-89877009D01*
X78752779Y-89877011D01*
X78836443Y-90033533D01*
X78836443Y-90033534D01*
X78887963Y-90203373D01*
X78905359Y-90380000D01*
X78887963Y-90556627D01*
X78853616Y-90669853D01*
X78836443Y-90726467D01*
X78762348Y-90865087D01*
X78752778Y-90882991D01*
X78723448Y-90918729D01*
X78640186Y-91020186D01*
X78538729Y-91103448D01*
X78502991Y-91132778D01*
X78502989Y-91132779D01*
X78346467Y-91216443D01*
X78289853Y-91233616D01*
X78176627Y-91267963D01*
X78110442Y-91274482D01*
X78044260Y-91281000D01*
X77955740Y-91281000D01*
X77889558Y-91274482D01*
X77823373Y-91267963D01*
X77710147Y-91233616D01*
X77653533Y-91216443D01*
X77497011Y-91132779D01*
X77497009Y-91132778D01*
X77461271Y-91103448D01*
X77359814Y-91020186D01*
X77276552Y-90918729D01*
X77247222Y-90882991D01*
X77237652Y-90865087D01*
X77163557Y-90726467D01*
X77146384Y-90669853D01*
X77112037Y-90556627D01*
X77094641Y-90380000D01*
X77112037Y-90203373D01*
X77163557Y-90033534D01*
X77163557Y-90033533D01*
X77247221Y-89877011D01*
X77247222Y-89877009D01*
X77276552Y-89841271D01*
X77359814Y-89739814D01*
X77461271Y-89656552D01*
X77497009Y-89627222D01*
X77514913Y-89617652D01*
X77653533Y-89543557D01*
X77710147Y-89526384D01*
X77823373Y-89492037D01*
X77889558Y-89485518D01*
X77955740Y-89479000D01*
X78044260Y-89479000D01*
X78110442Y-89485518D01*
X78110442Y-89485518D01*
G37*
G36*
X92364499Y-89303445D02*
X92401993Y-89314819D01*
X92436557Y-89333294D01*
X92466847Y-89358153D01*
X92491706Y-89388443D01*
X92510181Y-89423007D01*
X92521555Y-89460501D01*
X92526000Y-89505638D01*
X92526000Y-90244362D01*
X92521555Y-90289499D01*
X92510181Y-90326993D01*
X92491706Y-90361557D01*
X92466847Y-90391847D01*
X92436557Y-90416706D01*
X92401993Y-90435181D01*
X92364499Y-90446555D01*
X92319362Y-90451000D01*
X91680638Y-90451000D01*
X91635501Y-90446555D01*
X91598007Y-90435181D01*
X91563443Y-90416706D01*
X91533153Y-90391847D01*
X91508294Y-90361557D01*
X91489819Y-90326993D01*
X91478445Y-90289499D01*
X91474000Y-90244362D01*
X91474000Y-89505638D01*
X91478445Y-89460501D01*
X91489819Y-89423007D01*
X91508294Y-89388443D01*
X91533153Y-89358153D01*
X91563443Y-89333294D01*
X91598007Y-89314819D01*
X91635501Y-89303445D01*
X91680638Y-89299000D01*
X92319362Y-89299000D01*
X92364499Y-89303445D01*
X92364499Y-89303445D01*
G37*
G36*
X106110443Y-86945519D02*
X106176627Y-86952037D01*
X106289853Y-86986384D01*
X106346467Y-87003557D01*
X106485087Y-87077652D01*
X106502991Y-87087222D01*
X106538729Y-87116552D01*
X106640186Y-87199814D01*
X106721585Y-87299000D01*
X106752778Y-87337009D01*
X106752779Y-87337011D01*
X106836443Y-87493533D01*
X106836443Y-87493534D01*
X106887963Y-87663373D01*
X106905359Y-87840000D01*
X106887963Y-88016627D01*
X106853616Y-88129853D01*
X106836443Y-88186467D01*
X106808198Y-88239309D01*
X106752778Y-88342991D01*
X106737541Y-88361557D01*
X106640186Y-88480186D01*
X106538729Y-88563448D01*
X106502991Y-88592778D01*
X106502989Y-88592779D01*
X106346467Y-88676443D01*
X106317661Y-88685181D01*
X106176627Y-88727963D01*
X106110442Y-88734482D01*
X106044260Y-88741000D01*
X105955740Y-88741000D01*
X105889558Y-88734482D01*
X105823373Y-88727963D01*
X105682339Y-88685181D01*
X105653533Y-88676443D01*
X105497011Y-88592779D01*
X105497009Y-88592778D01*
X105461271Y-88563448D01*
X105359814Y-88480186D01*
X105262459Y-88361557D01*
X105247222Y-88342991D01*
X105191802Y-88239309D01*
X105163557Y-88186467D01*
X105146384Y-88129853D01*
X105112037Y-88016627D01*
X105094641Y-87840000D01*
X105112037Y-87663373D01*
X105163557Y-87493534D01*
X105163557Y-87493533D01*
X105247221Y-87337011D01*
X105247222Y-87337009D01*
X105278415Y-87299000D01*
X105359814Y-87199814D01*
X105461271Y-87116552D01*
X105497009Y-87087222D01*
X105514913Y-87077652D01*
X105653533Y-87003557D01*
X105710147Y-86986384D01*
X105823373Y-86952037D01*
X105889557Y-86945519D01*
X105955740Y-86939000D01*
X106044260Y-86939000D01*
X106110443Y-86945519D01*
X106110443Y-86945519D01*
G37*
G36*
X78110443Y-86945519D02*
X78176627Y-86952037D01*
X78289853Y-86986384D01*
X78346467Y-87003557D01*
X78485087Y-87077652D01*
X78502991Y-87087222D01*
X78538729Y-87116552D01*
X78640186Y-87199814D01*
X78721585Y-87299000D01*
X78752778Y-87337009D01*
X78752779Y-87337011D01*
X78836443Y-87493533D01*
X78836443Y-87493534D01*
X78887963Y-87663373D01*
X78905359Y-87840000D01*
X78887963Y-88016627D01*
X78853616Y-88129853D01*
X78836443Y-88186467D01*
X78808198Y-88239309D01*
X78752778Y-88342991D01*
X78737541Y-88361557D01*
X78640186Y-88480186D01*
X78538729Y-88563448D01*
X78502991Y-88592778D01*
X78502989Y-88592779D01*
X78346467Y-88676443D01*
X78317661Y-88685181D01*
X78176627Y-88727963D01*
X78110442Y-88734482D01*
X78044260Y-88741000D01*
X77955740Y-88741000D01*
X77889558Y-88734482D01*
X77823373Y-88727963D01*
X77682339Y-88685181D01*
X77653533Y-88676443D01*
X77497011Y-88592779D01*
X77497009Y-88592778D01*
X77461271Y-88563448D01*
X77359814Y-88480186D01*
X77262459Y-88361557D01*
X77247222Y-88342991D01*
X77191802Y-88239309D01*
X77163557Y-88186467D01*
X77146384Y-88129853D01*
X77112037Y-88016627D01*
X77094641Y-87840000D01*
X77112037Y-87663373D01*
X77163557Y-87493534D01*
X77163557Y-87493533D01*
X77247221Y-87337011D01*
X77247222Y-87337009D01*
X77278415Y-87299000D01*
X77359814Y-87199814D01*
X77461271Y-87116552D01*
X77497009Y-87087222D01*
X77514913Y-87077652D01*
X77653533Y-87003557D01*
X77710147Y-86986384D01*
X77823373Y-86952037D01*
X77889557Y-86945519D01*
X77955740Y-86939000D01*
X78044260Y-86939000D01*
X78110443Y-86945519D01*
X78110443Y-86945519D01*
G37*
G36*
X92364499Y-87553445D02*
X92401993Y-87564819D01*
X92436557Y-87583294D01*
X92466847Y-87608153D01*
X92491706Y-87638443D01*
X92510181Y-87673007D01*
X92521555Y-87710501D01*
X92526000Y-87755638D01*
X92526000Y-88494362D01*
X92521555Y-88539499D01*
X92510181Y-88576993D01*
X92491706Y-88611557D01*
X92466847Y-88641847D01*
X92436557Y-88666706D01*
X92401993Y-88685181D01*
X92364499Y-88696555D01*
X92319362Y-88701000D01*
X91680638Y-88701000D01*
X91635501Y-88696555D01*
X91598007Y-88685181D01*
X91563443Y-88666706D01*
X91533153Y-88641847D01*
X91508294Y-88611557D01*
X91489819Y-88576993D01*
X91478445Y-88539499D01*
X91474000Y-88494362D01*
X91474000Y-87755638D01*
X91478445Y-87710501D01*
X91489819Y-87673007D01*
X91508294Y-87638443D01*
X91533153Y-87608153D01*
X91563443Y-87583294D01*
X91598007Y-87564819D01*
X91635501Y-87553445D01*
X91680638Y-87549000D01*
X92319362Y-87549000D01*
X92364499Y-87553445D01*
X92364499Y-87553445D01*
G37*
G36*
X90364499Y-87303445D02*
X90401993Y-87314819D01*
X90436557Y-87333294D01*
X90466847Y-87358153D01*
X90491706Y-87388443D01*
X90510181Y-87423007D01*
X90521555Y-87460501D01*
X90526000Y-87505638D01*
X90526000Y-88244362D01*
X90521555Y-88289499D01*
X90510181Y-88326993D01*
X90491706Y-88361557D01*
X90466847Y-88391847D01*
X90436557Y-88416706D01*
X90401993Y-88435181D01*
X90364499Y-88446555D01*
X90319362Y-88451000D01*
X89680638Y-88451000D01*
X89635501Y-88446555D01*
X89598007Y-88435181D01*
X89563443Y-88416706D01*
X89533153Y-88391847D01*
X89508294Y-88361557D01*
X89489819Y-88326993D01*
X89478445Y-88289499D01*
X89474000Y-88244362D01*
X89474000Y-87505638D01*
X89478445Y-87460501D01*
X89489819Y-87423007D01*
X89508294Y-87388443D01*
X89533153Y-87358153D01*
X89563443Y-87333294D01*
X89598007Y-87314819D01*
X89635501Y-87303445D01*
X89680638Y-87299000D01*
X90319362Y-87299000D01*
X90364499Y-87303445D01*
X90364499Y-87303445D01*
G37*
G36*
X90364499Y-85553445D02*
X90401993Y-85564819D01*
X90436557Y-85583294D01*
X90466847Y-85608153D01*
X90491706Y-85638443D01*
X90510181Y-85673007D01*
X90521555Y-85710501D01*
X90526000Y-85755638D01*
X90526000Y-86494362D01*
X90521555Y-86539499D01*
X90510181Y-86576993D01*
X90491706Y-86611557D01*
X90466847Y-86641847D01*
X90436557Y-86666706D01*
X90401993Y-86685181D01*
X90364499Y-86696555D01*
X90319362Y-86701000D01*
X89680638Y-86701000D01*
X89635501Y-86696555D01*
X89598007Y-86685181D01*
X89563443Y-86666706D01*
X89533153Y-86641847D01*
X89508294Y-86611557D01*
X89489819Y-86576993D01*
X89478445Y-86539499D01*
X89474000Y-86494362D01*
X89474000Y-85755638D01*
X89478445Y-85710501D01*
X89489819Y-85673007D01*
X89508294Y-85638443D01*
X89533153Y-85608153D01*
X89563443Y-85583294D01*
X89598007Y-85564819D01*
X89635501Y-85553445D01*
X89680638Y-85549000D01*
X90319362Y-85549000D01*
X90364499Y-85553445D01*
X90364499Y-85553445D01*
G37*
G36*
X106110442Y-84405518D02*
X106176627Y-84412037D01*
X106289853Y-84446384D01*
X106346467Y-84463557D01*
X106485087Y-84537652D01*
X106502991Y-84547222D01*
X106538729Y-84576552D01*
X106640186Y-84659814D01*
X106723448Y-84761271D01*
X106752778Y-84797009D01*
X106752779Y-84797011D01*
X106836443Y-84953533D01*
X106836443Y-84953534D01*
X106887963Y-85123373D01*
X106905359Y-85300000D01*
X106887963Y-85476627D01*
X106864476Y-85554053D01*
X106836443Y-85646467D01*
X106778089Y-85755638D01*
X106752778Y-85802991D01*
X106745384Y-85812000D01*
X106640186Y-85940186D01*
X106538729Y-86023448D01*
X106502991Y-86052778D01*
X106502989Y-86052779D01*
X106346467Y-86136443D01*
X106289853Y-86153616D01*
X106176627Y-86187963D01*
X106110443Y-86194481D01*
X106044260Y-86201000D01*
X105955740Y-86201000D01*
X105889557Y-86194481D01*
X105823373Y-86187963D01*
X105710147Y-86153616D01*
X105653533Y-86136443D01*
X105497011Y-86052779D01*
X105497009Y-86052778D01*
X105461271Y-86023448D01*
X105359814Y-85940186D01*
X105254616Y-85812000D01*
X105247222Y-85802991D01*
X105221911Y-85755638D01*
X105163557Y-85646467D01*
X105135524Y-85554053D01*
X105112037Y-85476627D01*
X105094641Y-85300000D01*
X105112037Y-85123373D01*
X105163557Y-84953534D01*
X105163557Y-84953533D01*
X105247221Y-84797011D01*
X105247222Y-84797009D01*
X105276552Y-84761271D01*
X105359814Y-84659814D01*
X105461271Y-84576552D01*
X105497009Y-84547222D01*
X105514913Y-84537652D01*
X105653533Y-84463557D01*
X105710147Y-84446384D01*
X105823373Y-84412037D01*
X105889558Y-84405518D01*
X105955740Y-84399000D01*
X106044260Y-84399000D01*
X106110442Y-84405518D01*
X106110442Y-84405518D01*
G37*
G36*
X78110442Y-84405518D02*
X78176627Y-84412037D01*
X78289853Y-84446384D01*
X78346467Y-84463557D01*
X78485087Y-84537652D01*
X78502991Y-84547222D01*
X78538729Y-84576552D01*
X78640186Y-84659814D01*
X78723448Y-84761271D01*
X78752778Y-84797009D01*
X78752779Y-84797011D01*
X78836443Y-84953533D01*
X78836443Y-84953534D01*
X78887963Y-85123373D01*
X78905359Y-85300000D01*
X78887963Y-85476627D01*
X78864476Y-85554053D01*
X78836443Y-85646467D01*
X78778089Y-85755638D01*
X78752778Y-85802991D01*
X78745384Y-85812000D01*
X78640186Y-85940186D01*
X78538729Y-86023448D01*
X78502991Y-86052778D01*
X78502989Y-86052779D01*
X78346467Y-86136443D01*
X78289853Y-86153616D01*
X78176627Y-86187963D01*
X78110443Y-86194481D01*
X78044260Y-86201000D01*
X77955740Y-86201000D01*
X77889557Y-86194481D01*
X77823373Y-86187963D01*
X77710147Y-86153616D01*
X77653533Y-86136443D01*
X77497011Y-86052779D01*
X77497009Y-86052778D01*
X77461271Y-86023448D01*
X77359814Y-85940186D01*
X77254616Y-85812000D01*
X77247222Y-85802991D01*
X77221911Y-85755638D01*
X77163557Y-85646467D01*
X77135524Y-85554053D01*
X77112037Y-85476627D01*
X77094641Y-85300000D01*
X77112037Y-85123373D01*
X77163557Y-84953534D01*
X77163557Y-84953533D01*
X77247221Y-84797011D01*
X77247222Y-84797009D01*
X77276552Y-84761271D01*
X77359814Y-84659814D01*
X77461271Y-84576552D01*
X77497009Y-84547222D01*
X77514913Y-84537652D01*
X77653533Y-84463557D01*
X77710147Y-84446384D01*
X77823373Y-84412037D01*
X77889558Y-84405518D01*
X77955740Y-84399000D01*
X78044260Y-84399000D01*
X78110442Y-84405518D01*
X78110442Y-84405518D01*
G37*
G36*
X90501000Y-85001000D02*
X89599000Y-85001000D01*
X89599000Y-83999000D01*
X90501000Y-83999000D01*
X90501000Y-85001000D01*
X90501000Y-85001000D01*
G37*
G36*
X92401000Y-85001000D02*
X91499000Y-85001000D01*
X91499000Y-83999000D01*
X92401000Y-83999000D01*
X92401000Y-85001000D01*
X92401000Y-85001000D01*
G37*
G36*
X106110443Y-81865519D02*
X106176627Y-81872037D01*
X106289853Y-81906384D01*
X106346467Y-81923557D01*
X106485087Y-81997652D01*
X106502991Y-82007222D01*
X106538729Y-82036552D01*
X106640186Y-82119814D01*
X106723448Y-82221271D01*
X106752778Y-82257009D01*
X106752779Y-82257011D01*
X106836443Y-82413533D01*
X106836443Y-82413534D01*
X106887963Y-82583373D01*
X106905359Y-82760000D01*
X106887963Y-82936627D01*
X106853616Y-83049853D01*
X106836443Y-83106467D01*
X106762348Y-83245087D01*
X106752778Y-83262991D01*
X106723448Y-83298729D01*
X106640186Y-83400186D01*
X106538729Y-83483448D01*
X106502991Y-83512778D01*
X106502989Y-83512779D01*
X106346467Y-83596443D01*
X106289853Y-83613616D01*
X106176627Y-83647963D01*
X106110442Y-83654482D01*
X106044260Y-83661000D01*
X105955740Y-83661000D01*
X105889558Y-83654482D01*
X105823373Y-83647963D01*
X105710147Y-83613616D01*
X105653533Y-83596443D01*
X105497011Y-83512779D01*
X105497009Y-83512778D01*
X105461271Y-83483448D01*
X105359814Y-83400186D01*
X105276552Y-83298729D01*
X105247222Y-83262991D01*
X105237652Y-83245087D01*
X105163557Y-83106467D01*
X105146384Y-83049853D01*
X105112037Y-82936627D01*
X105094641Y-82760000D01*
X105112037Y-82583373D01*
X105163557Y-82413534D01*
X105163557Y-82413533D01*
X105247221Y-82257011D01*
X105247222Y-82257009D01*
X105276552Y-82221271D01*
X105359814Y-82119814D01*
X105461271Y-82036552D01*
X105497009Y-82007222D01*
X105514913Y-81997652D01*
X105653533Y-81923557D01*
X105710147Y-81906384D01*
X105823373Y-81872037D01*
X105889557Y-81865519D01*
X105955740Y-81859000D01*
X106044260Y-81859000D01*
X106110443Y-81865519D01*
X106110443Y-81865519D01*
G37*
G36*
X78110443Y-81865519D02*
X78176627Y-81872037D01*
X78289853Y-81906384D01*
X78346467Y-81923557D01*
X78485087Y-81997652D01*
X78502991Y-82007222D01*
X78538729Y-82036552D01*
X78640186Y-82119814D01*
X78723448Y-82221271D01*
X78752778Y-82257009D01*
X78752779Y-82257011D01*
X78836443Y-82413533D01*
X78836443Y-82413534D01*
X78887963Y-82583373D01*
X78905359Y-82760000D01*
X78887963Y-82936627D01*
X78853616Y-83049853D01*
X78836443Y-83106467D01*
X78762348Y-83245087D01*
X78752778Y-83262991D01*
X78723448Y-83298729D01*
X78640186Y-83400186D01*
X78538729Y-83483448D01*
X78502991Y-83512778D01*
X78502989Y-83512779D01*
X78346467Y-83596443D01*
X78289853Y-83613616D01*
X78176627Y-83647963D01*
X78110442Y-83654482D01*
X78044260Y-83661000D01*
X77955740Y-83661000D01*
X77889558Y-83654482D01*
X77823373Y-83647963D01*
X77710147Y-83613616D01*
X77653533Y-83596443D01*
X77497011Y-83512779D01*
X77497009Y-83512778D01*
X77461271Y-83483448D01*
X77359814Y-83400186D01*
X77276552Y-83298729D01*
X77247222Y-83262991D01*
X77237652Y-83245087D01*
X77163557Y-83106467D01*
X77146384Y-83049853D01*
X77112037Y-82936627D01*
X77094641Y-82760000D01*
X77112037Y-82583373D01*
X77163557Y-82413534D01*
X77163557Y-82413533D01*
X77247221Y-82257011D01*
X77247222Y-82257009D01*
X77276552Y-82221271D01*
X77359814Y-82119814D01*
X77461271Y-82036552D01*
X77497009Y-82007222D01*
X77514913Y-81997652D01*
X77653533Y-81923557D01*
X77710147Y-81906384D01*
X77823373Y-81872037D01*
X77889557Y-81865519D01*
X77955740Y-81859000D01*
X78044260Y-81859000D01*
X78110443Y-81865519D01*
X78110443Y-81865519D01*
G37*
G36*
X91451000Y-83001000D02*
X90549000Y-83001000D01*
X90549000Y-81999000D01*
X91451000Y-81999000D01*
X91451000Y-83001000D01*
X91451000Y-83001000D01*
G37*
G36*
X91364499Y-80303445D02*
X91401993Y-80314819D01*
X91436557Y-80333294D01*
X91466847Y-80358153D01*
X91491706Y-80388443D01*
X91510181Y-80423007D01*
X91521555Y-80460501D01*
X91526000Y-80505638D01*
X91526000Y-81244362D01*
X91521555Y-81289499D01*
X91510181Y-81326993D01*
X91491706Y-81361557D01*
X91466847Y-81391847D01*
X91436557Y-81416706D01*
X91401993Y-81435181D01*
X91364499Y-81446555D01*
X91319362Y-81451000D01*
X90680638Y-81451000D01*
X90635501Y-81446555D01*
X90598007Y-81435181D01*
X90563443Y-81416706D01*
X90533153Y-81391847D01*
X90508294Y-81361557D01*
X90489819Y-81326993D01*
X90478445Y-81289499D01*
X90474000Y-81244362D01*
X90474000Y-80505638D01*
X90478445Y-80460501D01*
X90489819Y-80423007D01*
X90508294Y-80388443D01*
X90533153Y-80358153D01*
X90563443Y-80333294D01*
X90598007Y-80314819D01*
X90635501Y-80303445D01*
X90680638Y-80299000D01*
X91319362Y-80299000D01*
X91364499Y-80303445D01*
X91364499Y-80303445D01*
G37*
G36*
X106901000Y-81121000D02*
X105099000Y-81121000D01*
X105099000Y-79319000D01*
X106901000Y-79319000D01*
X106901000Y-81121000D01*
X106901000Y-81121000D01*
G37*
G36*
X78901000Y-81121000D02*
X77099000Y-81121000D01*
X77099000Y-79319000D01*
X78901000Y-79319000D01*
X78901000Y-81121000D01*
X78901000Y-81121000D01*
G37*
G36*
X103039499Y-79478445D02*
X103076993Y-79489819D01*
X103111557Y-79508294D01*
X103141847Y-79533153D01*
X103166706Y-79563443D01*
X103185181Y-79598007D01*
X103196555Y-79635501D01*
X103201000Y-79680638D01*
X103201000Y-80319362D01*
X103196555Y-80364499D01*
X103185181Y-80401993D01*
X103166706Y-80436557D01*
X103141847Y-80466847D01*
X103111557Y-80491706D01*
X103076993Y-80510181D01*
X103039499Y-80521555D01*
X102994362Y-80526000D01*
X102255638Y-80526000D01*
X102210501Y-80521555D01*
X102173007Y-80510181D01*
X102138443Y-80491706D01*
X102108153Y-80466847D01*
X102083294Y-80436557D01*
X102064819Y-80401993D01*
X102053445Y-80364499D01*
X102049000Y-80319362D01*
X102049000Y-79680638D01*
X102053445Y-79635501D01*
X102064819Y-79598007D01*
X102083294Y-79563443D01*
X102108153Y-79533153D01*
X102138443Y-79508294D01*
X102173007Y-79489819D01*
X102210501Y-79478445D01*
X102255638Y-79474000D01*
X102994362Y-79474000D01*
X103039499Y-79478445D01*
X103039499Y-79478445D01*
G37*
G36*
X101289499Y-79478445D02*
X101326993Y-79489819D01*
X101361557Y-79508294D01*
X101391847Y-79533153D01*
X101416706Y-79563443D01*
X101435181Y-79598007D01*
X101446555Y-79635501D01*
X101451000Y-79680638D01*
X101451000Y-80319362D01*
X101446555Y-80364499D01*
X101435181Y-80401993D01*
X101416706Y-80436557D01*
X101391847Y-80466847D01*
X101361557Y-80491706D01*
X101326993Y-80510181D01*
X101289499Y-80521555D01*
X101244362Y-80526000D01*
X100505638Y-80526000D01*
X100460501Y-80521555D01*
X100423007Y-80510181D01*
X100388443Y-80491706D01*
X100358153Y-80466847D01*
X100333294Y-80436557D01*
X100314819Y-80401993D01*
X100303445Y-80364499D01*
X100299000Y-80319362D01*
X100299000Y-79680638D01*
X100303445Y-79635501D01*
X100314819Y-79598007D01*
X100333294Y-79563443D01*
X100358153Y-79533153D01*
X100388443Y-79508294D01*
X100423007Y-79489819D01*
X100460501Y-79478445D01*
X100505638Y-79474000D01*
X101244362Y-79474000D01*
X101289499Y-79478445D01*
X101289499Y-79478445D01*
G37*
G36*
X91364499Y-78553445D02*
X91401993Y-78564819D01*
X91436557Y-78583294D01*
X91466847Y-78608153D01*
X91491706Y-78638443D01*
X91510181Y-78673007D01*
X91521555Y-78710501D01*
X91526000Y-78755638D01*
X91526000Y-79494362D01*
X91521555Y-79539499D01*
X91510181Y-79576993D01*
X91491706Y-79611557D01*
X91466847Y-79641847D01*
X91436557Y-79666706D01*
X91401993Y-79685181D01*
X91364499Y-79696555D01*
X91319362Y-79701000D01*
X90680638Y-79701000D01*
X90635501Y-79696555D01*
X90598007Y-79685181D01*
X90563443Y-79666706D01*
X90533153Y-79641847D01*
X90508294Y-79611557D01*
X90489819Y-79576993D01*
X90478445Y-79539499D01*
X90474000Y-79494362D01*
X90474000Y-78755638D01*
X90478445Y-78710501D01*
X90489819Y-78673007D01*
X90508294Y-78638443D01*
X90533153Y-78608153D01*
X90563443Y-78583294D01*
X90598007Y-78564819D01*
X90635501Y-78553445D01*
X90680638Y-78549000D01*
X91319362Y-78549000D01*
X91364499Y-78553445D01*
X91364499Y-78553445D01*
G37*
G36*
X96011000Y-75051000D02*
X93909000Y-75051000D01*
X93909000Y-72949000D01*
X96011000Y-72949000D01*
X96011000Y-75051000D01*
X96011000Y-75051000D01*
G37*
G36*
X97806565Y-72989389D02*
X97997834Y-73068615D01*
X98169976Y-73183637D01*
X98316363Y-73330024D01*
X98431385Y-73502166D01*
X98510611Y-73693435D01*
X98551000Y-73896484D01*
X98551000Y-74103516D01*
X98510611Y-74306565D01*
X98431385Y-74497834D01*
X98316363Y-74669976D01*
X98169976Y-74816363D01*
X97997834Y-74931385D01*
X97806565Y-75010611D01*
X97603516Y-75051000D01*
X97396484Y-75051000D01*
X97193435Y-75010611D01*
X97002166Y-74931385D01*
X96830024Y-74816363D01*
X96683637Y-74669976D01*
X96568615Y-74497834D01*
X96489389Y-74306565D01*
X96449000Y-74103516D01*
X96449000Y-73896484D01*
X96489389Y-73693435D01*
X96568615Y-73502166D01*
X96683637Y-73330024D01*
X96830024Y-73183637D01*
X97002166Y-73068615D01*
X97193435Y-72989389D01*
X97396484Y-72949000D01*
X97603516Y-72949000D01*
X97806565Y-72989389D01*
X97806565Y-72989389D01*
G37*
G36*
X97675305Y-70882096D02*
X97784680Y-70927400D01*
X97883118Y-70993175D01*
X97966825Y-71076882D01*
X98032600Y-71175320D01*
X98077904Y-71284695D01*
X98101000Y-71400806D01*
X98101000Y-71519194D01*
X98077904Y-71635305D01*
X98032600Y-71744680D01*
X97966825Y-71843118D01*
X97883118Y-71926825D01*
X97784680Y-71992600D01*
X97675305Y-72037904D01*
X97559194Y-72061000D01*
X97440806Y-72061000D01*
X97324695Y-72037904D01*
X97215320Y-71992600D01*
X97116882Y-71926825D01*
X97033175Y-71843118D01*
X96967400Y-71744680D01*
X96922096Y-71635305D01*
X96899000Y-71519194D01*
X96899000Y-71400806D01*
X96922096Y-71284695D01*
X96967400Y-71175320D01*
X97033175Y-71076882D01*
X97116882Y-70993175D01*
X97215320Y-70927400D01*
X97324695Y-70882096D01*
X97440806Y-70859000D01*
X97559194Y-70859000D01*
X97675305Y-70882096D01*
X97675305Y-70882096D01*
G37*
G36*
X95135305Y-70882096D02*
X95244680Y-70927400D01*
X95343118Y-70993175D01*
X95426825Y-71076882D01*
X95492600Y-71175320D01*
X95537904Y-71284695D01*
X95561000Y-71400806D01*
X95561000Y-71519194D01*
X95537904Y-71635305D01*
X95492600Y-71744680D01*
X95426825Y-71843118D01*
X95343118Y-71926825D01*
X95244680Y-71992600D01*
X95135305Y-72037904D01*
X95019194Y-72061000D01*
X94900806Y-72061000D01*
X94784695Y-72037904D01*
X94675320Y-71992600D01*
X94576882Y-71926825D01*
X94493175Y-71843118D01*
X94427400Y-71744680D01*
X94382096Y-71635305D01*
X94359000Y-71519194D01*
X94359000Y-71400806D01*
X94382096Y-71284695D01*
X94427400Y-71175320D01*
X94493175Y-71076882D01*
X94576882Y-70993175D01*
X94675320Y-70927400D01*
X94784695Y-70882096D01*
X94900806Y-70859000D01*
X95019194Y-70859000D01*
X95135305Y-70882096D01*
X95135305Y-70882096D01*
G37*
M02*
